# https://github.com/mikedh/trimesh
mtllib material.mtl
usemtl material_0
v 0.26138950 0.00072850 -0.15498450
v 0.26700650 0.00072850 -0.15498450
v 0.26695550 0.00019350 -0.15498450
v 0.26679650 -0.00033850 -0.15498450
v 0.26653150 -0.00083550 -0.15498450
v 0.26617550 -0.00126650 -0.15498450
v 0.26575250 -0.00161050 -0.15498450
v 0.26528350 -0.00186150 -0.15498450
v 0.26475650 -0.00202350 -0.15498450
v 0.26419850 -0.00207950 -0.15498450
v 0.26363950 -0.00202350 -0.15498450
v 0.26311350 -0.00186150 -0.15498450
v 0.26264350 -0.00161050 -0.15498450
v 0.26222150 -0.00126650 -0.15498450
v 0.26186550 -0.00083550 -0.15498450
v 0.26160050 -0.00033850 -0.15498450
v 0.26144050 0.00019350 -0.15498450
v 0.24156350 0.00512150 -0.14173750
v 0.24156350 0.00512150 -0.14173750
v 0.24156350 -0.00366350 -0.14173750
v 0.24156350 -0.00366350 -0.14173750
v 0.24782450 0.00619950 -0.15394350
v 0.24895750 0.00883850 -0.15394350
v 0.25059750 0.01136150 -0.15394350
v 0.25272550 0.01362850 -0.15394350
v 0.25526950 0.01550450 -0.15394350
v 0.25811350 0.01688450 -0.15394350
v 0.26110950 0.01771350 -0.15394350
v 0.26410650 0.01799250 -0.15394350
v 0.26696950 0.01776850 -0.15394350
v 0.26975550 0.01707350 -0.15394350
v 0.27250950 0.01585950 -0.15394350
v 0.27508850 0.01412350 -0.15394350
v 0.27734850 0.01191350 -0.15394350
v 0.27916750 0.00932850 -0.15394350
v 0.28046650 0.00650450 -0.15394350
v 0.28122250 0.00359050 -0.15394350
v 0.28146150 0.00072850 -0.15394350
v 0.28122250 -0.00213350 -0.15394350
v 0.28046650 -0.00504650 -0.15394350
v 0.27916750 -0.00787050 -0.15394350
v 0.27734850 -0.01045550 -0.15394350
v 0.27508850 -0.01266550 -0.15394350
v 0.27250950 -0.01440150 -0.15394350
v 0.26975550 -0.01561550 -0.15394350
v 0.26696950 -0.01631050 -0.15394350
v 0.26410650 -0.01653450 -0.15394350
v 0.26110950 -0.01625550 -0.15394350
v 0.25811350 -0.01542650 -0.15394350
v 0.25526950 -0.01404650 -0.15394350
v 0.25272550 -0.01217050 -0.15394350
v 0.25059750 -0.00990350 -0.15394350
v 0.24895750 -0.00738050 -0.15394350
v 0.24782450 -0.00474150 -0.15394350
v 0.24398250 -0.00342750 -0.15348250
v 0.24398250 0.00488550 -0.15348250
v 0.26695950 0.00123950 -0.15498450
v 0.26680950 0.00176250 -0.15498450
v 0.26654950 0.00226550 -0.15498450
v 0.26618450 0.00271450 -0.15498450
v 0.26573550 0.00307950 -0.15498450
v 0.26523250 0.00334050 -0.15498450
v 0.26470950 0.00349050 -0.15498450
v 0.26419850 0.00353750 -0.15498450
v 0.26368750 0.00349050 -0.15498450
v 0.26316450 0.00334050 -0.15498450
v 0.26266150 0.00307950 -0.15498450
v 0.26221250 0.00271450 -0.15498450
v 0.26184750 0.00226550 -0.15498450
v 0.26158650 0.00176250 -0.15498450
v 0.26143650 0.00123950 -0.15498450
v 0.26755150 -0.00365950 -0.15490350
v 0.25340150 -0.00793450 -0.15432650
v 0.25340150 0.00932450 -0.15433050
v 0.27684350 0.00498450 -0.15437550
v 0.27220450 0.00499450 -0.15471850
v 0.26755150 0.00500050 -0.15490650
v 0.26289150 0.00500150 -0.15494050
v 0.25814150 0.00499750 -0.15481650
v 0.25340150 0.00498850 -0.15453050
v 0.24867950 0.00497550 -0.15408450
v 0.25814150 0.00934750 -0.15461550
v 0.26289150 0.00936050 -0.15473950
v 0.26755150 0.00936350 -0.15470550
v 0.27220450 0.00935650 -0.15451650
v 0.27684350 0.00933950 -0.15417350
v 0.27684350 0.00065050 -0.15443950
v 0.27220450 0.00065050 -0.15478350
v 0.26755150 0.00065050 -0.15497250
v 0.25814150 0.00065050 -0.15488150
v 0.25340150 0.00065050 -0.15459550
v 0.24867950 0.00065150 -0.15414950
v 0.26755150 -0.00209350 -0.15494350
v 0.27220450 -0.00211050 -0.15475450
v 0.27684350 -0.00212350 -0.15441050
v 0.27684350 -0.00364350 -0.15437150
v 0.27220450 -0.00365350 -0.15471450
v 0.26289150 -0.00366050 -0.15493750
v 0.25814150 -0.00365650 -0.15481250
v 0.25340150 -0.00364750 -0.15452650
v 0.24867950 -0.00363350 -0.15408150
v 0.27684350 -0.00788850 -0.15417350
v 0.27220450 -0.00791650 -0.15451550
v 0.26755150 -0.00793550 -0.15470350
v 0.26289150 -0.00794450 -0.15473750
v 0.25814150 -0.00794450 -0.15461250
v 0.27220450 -0.01223150 -0.15418050
v 0.26755150 -0.01223950 -0.15436950
v 0.26289150 -0.01223350 -0.15440450
v 0.25814150 -0.01221250 -0.15428150
v 0.25340150 -0.01217750 -0.15399750
v 0.24356350 0.00477550 -0.15307750
v 0.24356350 -0.00331750 -0.15307750
v 0.24257350 0.00072850 -0.14746850
v 0.24257350 0.00072850 -0.14746850
vn 0.02070000 0.00010000 -0.99980000
vn -0.02570000 0.00020000 -0.99970000
vn -0.00780000 0.00010000 -1.00000000
vn -0.00680000 0.00520000 -1.00000000
vn -0.00840000 0.00380000 -1.00000000
vn -0.00390000 0.00480000 -1.00000000
vn -0.01040000 0.01060000 -0.99990000
vn -0.00020000 -0.00310000 -1.00000000
vn -0.00180000 0.01730000 -0.99980000
vn 0.00080000 0.02090000 -0.99980000
vn 0.00350000 0.02190000 -0.99980000
vn 0.00510000 0.01700000 -0.99980000
vn 0.00500000 0.01030000 -0.99990000
vn 0.00500000 0.00560000 -1.00000000
vn 0.00750000 0.00410000 -1.00000000
vn 0.01160000 0.00260000 -0.99990000
vn 0.01760000 0.00140000 -0.99980000
vn -0.98480000 -0.00000000 -0.17370000
vn -0.98480000 -0.00000000 -0.17360000
vn -0.98480000 -0.00000000 -0.17360000
vn -0.98480000 -0.00000000 -0.17370000
vn -0.17100000 0.07260000 -0.98260000
vn -0.15570000 0.07920000 -0.98460000
vn -0.14760000 0.11790000 -0.98200000
vn -0.10670000 0.11770000 -0.98730000
vn -0.09860000 0.16290000 -0.98170000
vn -0.05260000 0.15180000 -0.98700000
vn -0.03420000 0.17280000 -0.98440000
vn 0.00160000 0.17280000 -0.98500000
vn 0.02170000 0.15480000 -0.98770000
vn 0.05870000 0.17180000 -0.98340000
vn 0.07740000 0.13620000 -0.98770000
vn 0.11580000 0.14630000 -0.98240000
vn 0.13920000 0.11640000 -0.98340000
vn 0.15070000 0.08910000 -0.98460000
vn 0.17980000 0.06300000 -0.98170000
vn 0.15450000 0.02570000 -0.98770000
vn 0.18180000 0.00120000 -0.98330000
vn 0.16960000 -0.03150000 -0.98500000
vn 0.16810000 -0.05660000 -0.98410000
vn 0.16650000 -0.09610000 -0.98130000
vn 0.12180000 -0.10330000 -0.98720000
vn 0.12730000 -0.16030000 -0.97880000
vn 0.10550000 -0.18920000 -0.97630000
vn 0.05720000 -0.15500000 -0.98630000
vn 0.02580000 -0.18580000 -0.98230000
vn 0.00080000 -0.20680000 -0.97840000
vn -0.02630000 -0.16570000 -0.98580000
vn -0.07270000 -0.18330000 -0.98040000
vn -0.11540000 -0.19320000 -0.97430000
vn -0.11570000 -0.13410000 -0.98420000
vn -0.15230000 -0.11320000 -0.98180000
vn -0.18560000 -0.09910000 -0.97760000
vn -0.17260000 -0.07430000 -0.98220000
vn -0.32320000 -0.61710000 -0.71740000
vn -0.32330000 0.61710000 -0.71740000
vn -0.01900000 -0.00090000 -0.99980000
vn 0.00810000 0.00860000 -0.99990000
vn -0.00560000 -0.00550000 -1.00000000
vn -0.00740000 -0.00780000 -0.99990000
vn -0.00600000 -0.01000000 -0.99990000
vn -0.00400000 -0.01160000 -0.99990000
vn -0.00080000 -0.01470000 -0.99990000
vn 0.00070000 -0.02120000 -0.99980000
vn 0.00220000 -0.01950000 -0.99980000
vn 0.00200000 -0.00550000 -1.00000000
vn 0.00970000 -0.01240000 -0.99990000
vn -0.00200000 -0.00220000 -1.00000000
vn -0.00270000 0.00600000 -1.00000000
vn 0.00510000 -0.00310000 -1.00000000
vn 0.00370000 0.00020000 -1.00000000
vn 0.02500000 -0.03710000 -0.99900000
vn -0.07450000 -0.06050000 -0.99540000
vn -0.07390000 0.06090000 -0.99540000
vn 0.08800000 0.02990000 -0.99570000
vn 0.05720000 0.03050000 -0.99790000
vn 0.02670000 0.03340000 -0.99910000
vn -0.01080000 0.03740000 -0.99920000
vn -0.04440000 0.03150000 -0.99850000
vn -0.07680000 0.03010000 -0.99660000
vn -0.10830000 0.02630000 -0.99380000
vn -0.04200000 0.06590000 -0.99690000
vn -0.00920000 0.06820000 -0.99760000
vn 0.02320000 0.06760000 -0.99740000
vn 0.05560000 0.06410000 -0.99640000
vn 0.08550000 0.05900000 -0.99460000
vn 0.08950000 0.00180000 -0.99600000
vn 0.05720000 0.00230000 -0.99840000
vn 0.03400000 0.00150000 -0.99940000
vn -0.04690000 -0.00030000 -0.99890000
vn -0.07710000 -0.00050000 -0.99700000
vn -0.11370000 -0.00040000 -0.99350000
vn 0.02910000 -0.01990000 -0.99940000
vn 0.05720000 -0.01810000 -0.99820000
vn 0.08990000 -0.01810000 -0.99580000
vn 0.08870000 -0.03510000 -0.99540000
vn 0.05720000 -0.03620000 -0.99770000
vn -0.01080000 -0.03780000 -0.99920000
vn -0.04440000 -0.03240000 -0.99850000
vn -0.07670000 -0.03090000 -0.99660000
vn -0.10810000 -0.02700000 -0.99380000
vn 0.08550000 -0.05930000 -0.99460000
vn 0.05690000 -0.06150000 -0.99650000
vn 0.02390000 -0.06200000 -0.99780000
vn -0.00950000 -0.06200000 -0.99800000
vn -0.04320000 -0.06190000 -0.99710000
vn 0.05460000 -0.08800000 -0.99460000
vn 0.02320000 -0.09050000 -0.99560000
vn -0.00930000 -0.09110000 -0.99580000
vn -0.04160000 -0.08920000 -0.99510000
vn -0.07250000 -0.08980000 -0.99330000
vn -0.98480000 -0.00000000 -0.17370000
vn -0.98480000 -0.00000000 -0.17370000
vn -0.98480000 -0.00000000 -0.17370000
vn -0.98480000 -0.00000000 -0.17360000
vt 0.28109200 -22.01865000
vt -0.28072000 -22.01865000
vt -0.27557000 -22.07218000
vt -0.25963900 -22.12539900
vt -0.23313100 -22.17506000
vt -0.19751900 -22.21817000
vt -0.15528600 -22.25257900
vt -0.10831300 -22.27772900
vt -0.05568300 -22.29390900
vt 0.00020000 -22.29953000
vt 0.05608100 -22.29390900
vt 0.10870800 -22.27772900
vt 0.15567700 -22.25257900
vt 0.19790500 -22.21817000
vt 0.23351200 -22.17506000
vt 0.26001600 -22.12539900
vt 0.27594400 -22.07218000
vt -0.43924800 0.26824100
vt -0.43924800 0.26824100
vt 0.43924800 0.26824100
vt 0.43924800 0.26824100
vt 1.64280100 -21.46764000
vt 1.52841400 -21.20221900
vt 1.36318200 -20.94880900
vt 1.14922500 -20.72160900
vt 0.89385200 -20.53401000
vt 0.60893100 -20.39620000
vt 0.30910500 -20.31350900
vt 0.00941100 -20.28578000
vt -0.27696000 -20.30806000
vt -0.55585200 -20.37735900
vt -0.83184000 -20.49848900
vt -1.09074100 -20.67204900
vt -1.31807000 -20.89345900
vt -1.50143400 -21.15296900
vt -1.63268900 -21.43697000
vt -1.70911800 -21.73028900
vt -1.73329400 -22.01865000
vt -1.70911800 -22.30700100
vt -1.63268900 -22.60030900
vt -1.50143400 -22.88430000
vt -1.31807000 -23.14379900
vt -1.09074100 -23.36520000
vt -0.83184000 -23.53875900
vt -0.55585200 -23.65987000
vt -0.27696000 -23.72917000
vt 0.00941100 -23.75145000
vt 0.30910500 -23.72371900
vt 0.60893100 -23.64102900
vt 0.89385200 -23.50323900
vt 1.14922500 -23.31563900
vt 1.36318200 -23.08845900
vt 1.52841400 -22.83506000
vt 1.64280100 -22.56963900
vt 2.03174400 -22.43881000
vt 2.03174400 -21.59848000
vt -0.27602900 -21.96752900
vt -0.26099200 -21.91523900
vt -0.23492000 -21.86492900
vt -0.19842800 -21.82001900
vt -0.15350800 -21.78353900
vt -0.10319300 -21.75747900
vt -0.05091000 -21.74244900
vt 0.00020000 -21.73775900
vt 0.05130900 -21.74244900
vt 0.10358900 -21.75747900
vt 0.15389900 -21.78353900
vt 0.19881300 -21.82001900
vt 0.23530000 -21.86492900
vt 0.26136800 -21.91523900
vt 0.27640200 -21.96752900
vt -0.33519700 -22.45772000
vt 1.08128900 -22.88831900
vt 1.08128900 -21.15568900
vt -1.26726100 -21.59129900
vt -0.80123000 -21.59129900
vt -0.33519700 -21.59129900
vt 0.13083500 -21.59129900
vt 0.60606200 -21.59129900
vt 1.08128900 -21.59129900
vt 1.55651700 -21.59129900
vt 0.60606200 -21.15519000
vt 0.13083500 -21.15469000
vt -0.33519700 -21.15420000
vt -0.80123000 -21.15370900
vt -1.26726100 -21.15321900
vt -1.26726100 -22.02647000
vt -0.80123000 -22.02647000
vt -0.33519700 -22.02647000
vt 0.60606200 -22.02647000
vt 1.08128900 -22.02647000
vt 1.55651700 -22.02647000
vt -0.33519700 -22.30098900
vt -0.80123000 -22.30303000
vt -1.26726100 -22.30506900
vt -1.26726100 -22.45772000
vt -0.80123000 -22.45772000
vt 0.13083500 -22.45772000
vt 0.60606200 -22.45772000
vt 1.08128900 -22.45772000
vt 1.55651700 -22.45772000
vt -1.26726100 -22.88467000
vt -0.80123000 -22.88538900
vt -0.33519700 -22.88612000
vt 0.13083500 -22.88683900
vt 0.60606200 -22.88757900
vt -0.80123000 -23.31954000
vt -0.33519700 -23.31860000
vt 0.13083500 -23.31768000
vt 0.60606200 -23.31672900
vt 1.08128900 -23.31577900
vt -0.40462800 -0.88326500
vt 0.40462800 -0.88326500
vt 0.00000000 -0.31369500
vt 0.00000000 -0.31369500
f 56/56/56 22/22/22 81/81/81
f 81/81/81 22/22/22 23/23/23
f 81/81/81 23/23/23 80/80/80
f 80/80/80 23/23/23 74/74/74
f 80/80/80 74/74/74 79/79/79
f 79/79/79 74/74/74 82/82/82
f 79/79/79 82/82/82 78/78/78
f 78/78/78 82/82/82 83/83/83
f 78/78/78 83/83/83 77/77/77
f 77/77/77 83/83/83 84/84/84
f 77/77/77 84/84/84 76/76/76
f 76/76/76 84/84/84 85/85/85
f 76/76/76 85/85/85 75/75/75
f 75/75/75 85/85/85 86/86/86
f 75/75/75 86/86/86 36/36/36
f 36/36/36 86/86/86 35/35/35
f 35/35/35 86/86/86 34/34/34
f 34/34/34 86/86/86 85/85/85
f 34/34/34 85/85/85 33/33/33
f 33/33/33 85/85/85 32/32/32
f 32/32/32 85/85/85 84/84/84
f 32/32/32 84/84/84 31/31/31
f 31/31/31 84/84/84 30/30/30
f 30/30/30 84/84/84 83/83/83
f 30/30/30 83/83/83 29/29/29
f 29/29/29 83/83/83 28/28/28
f 28/28/28 83/83/83 27/27/27
f 27/27/27 83/83/83 82/82/82
f 27/27/27 82/82/82 26/26/26
f 26/26/26 82/82/82 74/74/74
f 26/26/26 74/74/74 25/25/25
f 25/25/25 74/74/74 24/24/24
f 24/24/24 74/74/74 23/23/23
f 36/36/36 37/37/37 75/75/75
f 75/75/75 37/37/37 87/87/87
f 75/75/75 87/87/87 88/88/88
f 88/88/88 87/87/87 94/94/94
f 88/88/88 94/94/94 93/93/93
f 93/93/93 94/94/94 72/72/72
f 93/93/93 72/72/72 9/9/9
f 9/9/9 72/72/72 98/98/98
f 9/9/9 98/98/98 10/10/10
f 10/10/10 98/98/98 11/11/11
f 11/11/11 98/98/98 12/12/12
f 12/12/12 98/98/98 13/13/13
f 13/13/13 98/98/98 14/14/14
f 14/14/14 98/98/98 99/99/99
f 14/14/14 99/99/99 15/15/15
f 15/15/15 99/99/99 16/16/16
f 16/16/16 99/99/99 90/90/90
f 16/16/16 90/90/90 17/17/17
f 17/17/17 90/90/90 1/1/1
f 1/1/1 90/90/90 71/71/71
f 71/71/71 90/90/90 70/70/70
f 70/70/70 90/90/90 69/69/69
f 69/69/69 90/90/90 68/68/68
f 68/68/68 90/90/90 79/79/79
f 68/68/68 79/79/79 78/78/78
f 37/37/37 38/38/38 87/87/87
f 87/87/87 38/38/38 39/39/39
f 87/87/87 39/39/39 95/95/95
f 95/95/95 39/39/39 96/96/96
f 95/95/95 96/96/96 97/97/97
f 97/97/97 96/96/96 102/102/102
f 97/97/97 102/102/102 103/103/103
f 103/103/103 102/102/102 43/43/43
f 103/103/103 43/43/43 107/107/107
f 107/107/107 43/43/43 44/44/44
f 107/107/107 44/44/44 45/45/45
f 39/39/39 40/40/40 96/96/96
f 96/96/96 40/40/40 102/102/102
f 40/40/40 41/41/41 102/102/102
f 102/102/102 41/41/41 42/42/42
f 102/102/102 42/42/42 43/43/43
f 107/107/107 45/45/45 108/108/108
f 108/108/108 45/45/45 46/46/46
f 108/108/108 46/46/46 47/47/47
f 108/108/108 47/47/47 109/109/109
f 109/109/109 47/47/47 48/48/48
f 109/109/109 48/48/48 49/49/49
f 109/109/109 49/49/49 110/110/110
f 110/110/110 49/49/49 50/50/50
f 110/110/110 50/50/50 111/111/111
f 111/111/111 50/50/50 51/51/51
f 111/111/111 51/51/51 52/52/52
f 111/111/111 52/52/52 73/73/73
f 73/73/73 52/52/52 53/53/53
f 73/73/73 53/53/53 100/100/100
f 100/100/100 53/53/53 101/101/101
f 100/100/100 101/101/101 91/91/91
f 91/91/91 101/101/101 92/92/92
f 91/91/91 92/92/92 80/80/80
f 80/80/80 92/92/92 81/81/81
f 53/53/53 54/54/54 101/101/101
f 101/101/101 54/54/54 55/55/55
f 101/101/101 55/55/55 92/92/92
f 92/92/92 55/55/55 56/56/56
f 92/92/92 56/56/56 81/81/81
f 3/3/3 2/2/2 89/89/89
f 89/89/89 2/2/2 57/57/57
f 89/89/89 57/57/57 58/58/58
f 58/58/58 59/59/59 89/89/89
f 89/89/89 59/59/59 77/77/77
f 89/89/89 77/77/77 76/76/76
f 59/59/59 60/60/60 77/77/77
f 77/77/77 60/60/60 61/61/61
f 77/77/77 61/61/61 62/62/62
f 62/62/62 63/63/63 77/77/77
f 77/77/77 63/63/63 78/78/78
f 63/63/63 64/64/64 78/78/78
f 78/78/78 64/64/64 65/65/65
f 78/78/78 65/65/65 66/66/66
f 66/66/66 67/67/67 78/78/78
f 78/78/78 67/67/67 68/68/68
f 9/9/9 8/8/8 93/93/93
f 93/93/93 8/8/8 7/7/7
f 93/93/93 7/7/7 6/6/6
f 6/6/6 5/5/5 93/93/93
f 93/93/93 5/5/5 4/4/4
f 93/93/93 4/4/4 89/89/89
f 89/89/89 4/4/4 3/3/3
f 94/94/94 87/87/87 95/95/95
f 89/89/89 76/76/76 88/88/88
f 88/88/88 76/76/76 75/75/75
f 91/91/91 80/80/80 79/79/79
f 93/93/93 89/89/89 88/88/88
f 100/100/100 91/91/91 90/90/90
f 90/90/90 91/91/91 79/79/79
f 72/72/72 94/94/94 97/97/97
f 97/97/97 94/94/94 95/95/95
f 97/97/97 103/103/103 72/72/72
f 72/72/72 103/103/103 104/104/104
f 72/72/72 104/104/104 98/98/98
f 98/98/98 104/104/104 105/105/105
f 98/98/98 105/105/105 99/99/99
f 99/99/99 105/105/105 106/106/106
f 99/99/99 106/106/106 100/100/100
f 100/100/100 106/106/106 73/73/73
f 99/99/99 100/100/100 90/90/90
f 107/107/107 108/108/108 103/103/103
f 103/103/103 108/108/108 104/104/104
f 108/108/108 109/109/109 104/104/104
f 104/104/104 109/109/109 105/105/105
f 111/111/111 73/73/73 106/106/106
f 109/109/109 110/110/110 105/105/105
f 105/105/105 110/110/110 106/106/106
f 110/110/110 111/111/111 106/106/106
f 113/113/113 21/21/21 114/114/114
f 115/115/115 20/20/20 19/19/19
f 114/114/114 18/18/18 112/112/112
f 112/112/112 113/113/113 114/114/114