# Blender v2.82 (sub 7) OBJ File: ''
# www.blender.org
mtllib pedestal_collision.mtl
o Pedestal_Collision
v 0.000000 -0.192261 -0.751600
v -0.290472 -0.263209 -0.751600
v -0.290472 -0.192261 -0.751600
v 0.000000 0.192261 -0.751600
v 0.244056 0.255897 -0.751600
v 0.417068 0.218715 -0.751600
v 0.417068 -0.218715 -0.751600
v 0.244056 -0.255897 -0.751600
v 0.219685 -0.086653 -0.751600
v -0.290472 0.192261 -0.751600
v -0.290472 0.263209 -0.751600
v 0.219685 0.086653 -0.751600
v -0.501972 0.192261 -0.751600
v -0.299113 0.068033 -0.751600
v -0.302941 0.000000 -0.751600
v -0.299113 -0.068033 -0.751600
v -0.501972 -0.192261 -0.751600
v 0.155629 -0.045697 -0.061525
v 0.162199 0.000000 -0.646600
v 0.162199 0.000000 -0.061525
v 0.155629 0.045697 -0.646600
v 0.155629 0.045697 -0.061525
v 0.136450 0.087691 -0.646600
v 0.136450 0.087691 -0.061525
v 0.106218 0.122582 -0.646600
v 0.106218 0.122582 -0.061525
v 0.067380 0.147541 -0.646600
v 0.067380 0.147541 -0.061525
v 0.023083 0.160548 -0.646600
v 0.023083 0.160548 -0.061525
v -0.023083 0.160548 -0.646600
v -0.023083 0.160548 -0.061525
v -0.067380 0.147541 -0.646600
v -0.067380 0.147541 -0.061525
v -0.106218 0.122582 -0.646600
v -0.106218 0.122582 -0.061525
v -0.136450 0.087691 -0.646600
v -0.136450 0.087691 -0.061525
v -0.155629 0.045697 -0.646600
v -0.155629 0.045697 -0.061525
v -0.162199 -0.000000 -0.646600
v -0.162199 -0.000000 -0.061525
v -0.155629 -0.045697 -0.646600
v -0.155629 -0.045697 -0.061525
v -0.136450 -0.087691 -0.646600
v -0.136450 -0.087691 -0.061525
v -0.106218 -0.122582 -0.646600
v -0.106218 -0.122582 -0.061525
v -0.067380 -0.147541 -0.646600
v -0.067380 -0.147541 -0.061525
v -0.023083 -0.160548 -0.646600
v -0.023083 -0.160548 -0.061525
v 0.023083 -0.160548 -0.646600
v 0.023083 -0.160548 -0.061525
v 0.067380 -0.147541 -0.646600
v 0.067380 -0.147541 -0.061525
v 0.106218 -0.122582 -0.646600
v 0.106218 -0.122582 -0.061525
v 0.136450 -0.087691 -0.646600
v 0.136450 -0.087691 -0.061525
v 0.155629 -0.045697 -0.646600
v -0.162199 0.000000 -0.061525
v 0.219685 0.086653 -0.646600
v 0.219685 -0.086653 -0.646600
v -0.299113 0.068033 -0.646600
v 0.000000 0.192261 -0.646600
v -0.299113 -0.068033 -0.646600
v 0.000000 -0.192261 -0.646600
v -0.338144 -0.274852 -0.646600
v -0.501972 -0.192261 -0.646600
v -0.385532 -0.415663 -0.646600
v -0.501972 -0.415663 -0.646600
v -0.302941 0.000000 -0.646600
v -0.385532 0.415663 -0.646600
v -0.501972 0.415663 -0.646600
v -0.338144 0.274852 -0.646600
v -0.501972 0.192261 -0.646600
v 0.244056 -0.415663 -0.646600
v 0.417068 -0.415663 -0.646600
v 0.244056 -0.255897 -0.646600
v 0.417068 -0.218715 -0.646600
v 0.244056 0.255897 -0.646600
v 0.417068 0.218715 -0.646600
v 0.244056 0.415663 -0.646600
v 0.417068 0.415663 -0.646600
v -0.501972 -0.192261 -0.924180
v -0.501972 -0.415663 -0.924180
v -0.385532 -0.415663 -0.924180
v -0.338144 -0.274852 -0.924180
v -0.290472 -0.263209 -0.924180
v 0.244056 -0.255897 -0.924180
v 0.244056 -0.415663 -0.924180
v 0.417068 -0.415663 -0.924180
v 0.417068 -0.218715 -0.924180
v 0.417068 0.218715 -0.924180
v 0.417068 0.415663 -0.924180
v 0.244056 0.415663 -0.924180
v 0.244056 0.255897 -0.924180
v -0.290472 0.263209 -0.924180
v -0.338144 0.274852 -0.924180
v -0.385532 0.415663 -0.924180
v -0.501972 0.415663 -0.924180
v -0.501972 0.192261 -0.924180
v -0.290472 0.192261 -0.924180
v -0.290472 -0.192261 -0.924180
vn 0.0000 0.0000 -1.0000
vn 0.9898 -0.1423 0.0000
vn 0.9898 0.1423 0.0000
vn 0.9096 0.4154 0.0000
vn 0.7557 0.6549 0.0000
vn 0.5406 0.8413 0.0000
vn 0.2817 0.9595 0.0000
vn 0.0000 1.0000 0.0000
vn -0.2817 0.9595 0.0000
vn -0.5406 0.8413 0.0000
vn -0.7557 0.6549 0.0000
vn -0.9096 0.4154 0.0000
vn -0.9898 0.1423 0.0000
vn -0.9898 -0.1423 0.0000
vn -0.9096 -0.4154 0.0000
vn -0.7557 -0.6549 0.0000
vn -0.5406 -0.8413 0.0000
vn -0.2817 -0.9595 0.0000
vn 0.0000 -1.0000 0.0000
vn 0.2817 -0.9595 0.0000
vn 0.5406 -0.8413 0.0000
vn 0.7557 -0.6549 0.0000
vn 0.9096 -0.4154 0.0000
vn 0.0000 0.0000 1.0000
vn -0.9984 -0.0562 0.0000
vn -0.5222 0.8528 0.0000
vn -1.0000 0.0000 0.0000
vn 0.9478 -0.3190 0.0000
vn 0.2373 -0.9714 0.0000
vn -0.2523 -0.9676 0.0000
vn 1.0000 0.0000 0.0000
vn 0.5561 0.8311 0.0000
vn 0.5561 -0.8311 0.0000
vn -0.2523 0.9676 0.0000
vn 0.2373 0.9714 0.0000
vn 0.9478 0.3190 0.0000
vn -0.5222 -0.8528 0.0000
vn -0.9984 0.0562 0.0000
vn -0.2101 -0.9777 0.0000
vn -0.2101 0.9777 0.0000
usemtl None
s off
f 1//1 2//1 3//1
f 4//1 5//1 6//1
f 7//1 8//1 9//1
f 9//1 8//1 10//1
f 10//1 11//1 9//1
f 9//1 11//1 4//1
f 9//1 4//1 12//1
f 12//1 4//1 6//1
f 13//1 10//1 14//1
f 14//1 10//1 8//1
f 14//1 8//1 15//1
f 15//1 8//1 1//1
f 15//1 1//1 16//1
f 16//1 1//1 3//1
f 16//1 3//1 17//1
f 18//2 19//2 20//2
f 20//3 19//3 21//3
f 20//3 21//3 22//3
f 22//4 21//4 23//4
f 22//4 23//4 24//4
f 24//5 23//5 25//5
f 24//5 25//5 26//5
f 26//6 25//6 27//6
f 26//6 27//6 28//6
f 28//7 27//7 29//7
f 28//7 29//7 30//7
f 30//8 29//8 31//8
f 30//8 31//8 32//8
f 32//9 31//9 33//9
f 32//9 33//9 34//9
f 34//10 33//10 35//10
f 34//10 35//10 36//10
f 36//11 35//11 37//11
f 36//11 37//11 38//11
f 38//12 37//12 39//12
f 38//12 39//12 40//12
f 40//13 39//13 41//13
f 40//13 41//13 42//13
f 42//14 41//14 43//14
f 42//14 43//14 44//14
f 44//15 43//15 45//15
f 44//15 45//15 46//15
f 46//16 45//16 47//16
f 46//16 47//16 48//16
f 48//17 47//17 49//17
f 48//17 49//17 50//17
f 50//18 49//18 51//18
f 50//18 51//18 52//18
f 52//19 51//19 53//19
f 52//19 53//19 54//19
f 54//20 53//20 55//20
f 54//20 55//20 56//20
f 56//21 55//21 57//21
f 56//21 57//21 58//21
f 58//22 57//22 59//22
f 58//22 59//22 60//22
f 60//23 59//23 61//23
f 60//23 61//23 18//23
f 18//2 61//2 19//2
f 28//24 30//24 48//24
f 40//24 62//24 44//24
f 30//24 32//24 48//24
f 48//24 32//24 34//24
f 48//24 34//24 46//24
f 28//24 48//24 26//24
f 26//24 48//24 50//24
f 26//24 50//24 52//24
f 52//24 54//24 26//24
f 26//24 54//24 56//24
f 26//24 56//24 58//24
f 40//24 44//24 38//24
f 46//24 34//24 44//24
f 44//24 34//24 36//24
f 44//24 36//24 38//24
f 18//24 20//24 22//24
f 58//24 60//24 26//24
f 26//24 60//24 18//24
f 26//24 18//24 24//24
f 24//24 18//24 22//24
f 21//24 19//24 63//24
f 59//24 57//24 64//24
f 65//24 37//24 35//24
f 33//24 31//24 66//24
f 66//24 31//24 29//24
f 49//24 47//24 67//24
f 55//24 53//24 68//24
f 68//24 53//24 51//24
f 51//24 49//24 68//24
f 68//24 49//24 67//24
f 68//24 67//24 69//24
f 69//24 67//24 70//24
f 69//24 70//24 71//24
f 71//24 70//24 72//24
f 47//24 45//24 67//24
f 67//24 45//24 43//24
f 67//24 43//24 73//24
f 73//24 43//24 41//24
f 73//24 41//24 65//24
f 65//24 41//24 39//24
f 65//24 39//24 37//24
f 74//24 75//24 76//24
f 76//24 75//24 77//24
f 76//24 77//24 66//24
f 66//24 77//24 65//24
f 66//24 65//24 33//24
f 33//24 65//24 35//24
f 63//24 19//24 64//24
f 64//24 19//24 61//24
f 64//24 61//24 59//24
f 78//24 79//24 80//24
f 80//24 79//24 81//24
f 80//24 81//24 68//24
f 68//24 81//24 64//24
f 68//24 64//24 55//24
f 55//24 64//24 57//24
f 27//24 25//24 63//24
f 63//24 25//24 23//24
f 63//24 23//24 21//24
f 29//24 27//24 66//24
f 66//24 27//24 63//24
f 66//24 63//24 82//24
f 82//24 63//24 83//24
f 82//24 83//24 84//24
f 84//24 83//24 85//24
f 67//25 73//25 16//25
f 16//25 73//25 15//25
f 70//26 67//26 17//26
f 17//26 67//26 16//26
f 86//27 87//27 17//27
f 17//27 87//27 72//27
f 17//27 72//27 70//27
f 88//19 71//19 87//19
f 87//19 71//19 72//19
f 89//28 69//28 88//28
f 88//28 69//28 71//28
f 1//29 68//29 2//29
f 2//29 68//29 69//29
f 2//29 69//29 90//29
f 90//29 69//29 89//29
f 80//30 68//30 8//30
f 8//30 68//30 1//30
f 91//27 92//27 8//27
f 8//27 92//27 78//27
f 8//27 78//27 80//27
f 93//19 79//19 92//19
f 92//19 79//19 78//19
f 81//31 79//31 7//31
f 7//31 79//31 93//31
f 7//31 93//31 94//31
f 64//32 81//32 9//32
f 9//32 81//32 7//32
f 63//31 64//31 12//31
f 12//31 64//31 9//31
f 83//33 63//33 6//33
f 6//33 63//33 12//33
f 95//31 96//31 6//31
f 6//31 96//31 85//31
f 6//31 85//31 83//31
f 97//8 84//8 96//8
f 96//8 84//8 85//8
f 97//27 98//27 84//27
f 84//27 98//27 5//27
f 84//27 5//27 82//27
f 66//34 82//34 4//34
f 4//34 82//34 5//34
f 99//35 100//35 11//35
f 11//35 100//35 76//35
f 11//35 76//35 4//35
f 4//35 76//35 66//35
f 101//36 74//36 100//36
f 100//36 74//36 76//36
f 102//8 75//8 101//8
f 101//8 75//8 74//8
f 77//27 75//27 13//27
f 13//27 75//27 102//27
f 13//27 102//27 103//27
f 65//37 77//37 14//37
f 14//37 77//37 13//37
f 73//38 65//38 15//38
f 15//38 65//38 14//38
f 11//31 10//31 99//31
f 99//31 10//31 104//31
f 10//19 13//19 104//19
f 104//19 13//19 103//19
f 99//1 104//1 100//1
f 100//1 104//1 103//1
f 100//1 103//1 101//1
f 101//1 103//1 102//1
f 6//39 5//39 95//39
f 95//39 5//39 98//39
f 97//1 96//1 98//1
f 98//1 96//1 95//1
f 8//40 7//40 91//40
f 91//40 7//40 94//40
f 93//1 92//1 94//1
f 94//1 92//1 91//1
f 17//8 3//8 86//8
f 86//8 3//8 105//8
f 3//31 2//31 105//31
f 105//31 2//31 90//31
f 88//1 87//1 89//1
f 89//1 87//1 86//1
f 89//1 86//1 90//1
f 90//1 86//1 105//1
