# Blender v2.82 (sub 7) OBJ File: 'test.blend'
# www.blender.org
mtllib bread.mtl
o Bread
v -0.027579 0.025000 -0.029064
v 0.027579 0.025000 0.005243
v 0.027579 0.025000 -0.029064
v -0.027579 0.025000 0.005243
v -0.029319 0.025000 0.009250
v 0.029319 0.025000 0.009250
v -0.030000 0.025000 0.013589
v 0.030000 0.025000 0.013589
v 0.029576 0.025000 0.017962
v -0.029576 0.025000 0.017962
v 0.028077 0.025000 0.022073
v -0.028077 0.025000 0.022073
v 0.000000 0.025000 0.022968
v -0.025604 0.025000 0.025641
v -0.002679 0.025000 0.026372
v -0.022326 0.025000 0.028423
v -0.006116 0.025000 0.028939
v -0.018466 0.025000 0.030229
v -0.010075 0.025000 0.030496
v -0.014287 0.025000 0.030936
v 0.025604 0.025000 0.025641
v 0.002679 0.025000 0.026372
v 0.022326 0.025000 0.028423
v 0.006116 0.025000 0.028939
v 0.018466 0.025000 0.030229
v 0.010075 0.025000 0.030496
v 0.014287 0.025000 0.030936
v 0.025604 -0.025000 0.025641
v 0.000000 -0.025000 0.022968
v 0.028077 -0.025000 0.022073
v 0.002679 -0.025000 0.026372
v 0.022326 -0.025000 0.028423
v 0.006116 -0.025000 0.028939
v 0.018466 -0.025000 0.030229
v 0.010075 -0.025000 0.030496
v 0.014287 -0.025000 0.030936
v 0.027579 -0.025000 0.005243
v -0.027579 -0.025000 -0.029064
v 0.027579 -0.025000 -0.029064
v -0.027579 -0.025000 0.005243
v 0.029319 -0.025000 0.009250
v -0.029319 -0.025000 0.009250
v -0.030000 -0.025000 0.013589
v 0.030000 -0.025000 0.013589
v 0.029576 -0.025000 0.017962
v -0.029576 -0.025000 0.017962
v -0.028077 -0.025000 0.022073
v -0.025604 -0.025000 0.025641
v -0.002679 -0.025000 0.026372
v -0.022326 -0.025000 0.028423
v -0.006116 -0.025000 0.028939
v -0.018466 -0.025000 0.030229
v -0.010075 -0.025000 0.030496
v -0.014287 -0.025000 0.030936
vt 0.003676 0.018534
vt 0.213891 0.356933
vt 0.003677 0.356933
vt 0.213891 0.018534
vt 0.238444 0.007859
vt 0.238444 0.367608
vt 0.265031 0.003681
vt 0.265031 0.371786
vt 0.291826 0.369184
vt 0.291826 0.006282
vt 0.317016 0.359988
vt 0.317016 0.015479
vt 0.322500 0.187733
vt 0.338879 0.030651
vt 0.343358 0.171297
vt 0.355925 0.050762
vt 0.359087 0.150211
vt 0.366991 0.074443
vt 0.368627 0.125922
vt 0.371324 0.100081
vt 0.338879 0.344816
vt 0.343358 0.204169
vt 0.355925 0.324705
vt 0.359087 0.225255
vt 0.366991 0.301024
vt 0.368627 0.249544
vt 0.371324 0.275385
vt 0.338879 0.406117
vt 0.322500 0.563200
vt 0.317016 0.390945
vt 0.343358 0.546764
vt 0.355925 0.426228
vt 0.359087 0.525678
vt 0.366991 0.449910
vt 0.368627 0.501389
vt 0.371324 0.475548
vt 0.213891 0.394001
vt 0.003676 0.732399
vt 0.003676 0.394001
vt 0.213891 0.732399
vt 0.238444 0.383326
vt 0.238444 0.743074
vt 0.265031 0.747252
vt 0.265031 0.379148
vt 0.291826 0.381749
vt 0.291826 0.744651
vt 0.317016 0.735454
vt 0.338879 0.720282
vt 0.343358 0.579636
vt 0.355925 0.700172
vt 0.359087 0.600722
vt 0.366991 0.676490
vt 0.368627 0.625011
vt 0.371324 0.650852
vt 0.378064 0.003384
vt 0.684436 0.341782
vt 0.378064 0.341783
vt 0.684436 0.003384
vt 0.690564 0.348519
vt 0.996936 0.558936
vt 0.690564 0.558936
vt 0.996936 0.348519
vt 0.684436 0.473341
vt 0.378064 0.683759
vt 0.378064 0.473341
vt 0.684436 0.683759
vt 0.996936 0.583765
vt 0.690564 0.583765
vt 0.684436 0.448513
vt 0.378064 0.448513
vt 0.996936 0.610476
vt 0.690564 0.610476
vt 0.684436 0.421802
vt 0.378064 0.421802
vt 0.996936 0.637236
vt 0.690564 0.637236
vt 0.684436 0.395042
vt 0.378064 0.395042
vt 0.996936 0.662233
vt 0.690564 0.662233
vt 0.684436 0.370045
vt 0.378064 0.370045
vt 0.996936 0.683759
vt 0.690564 0.683759
vt 0.684436 0.348519
vt 0.378064 0.348519
vt 0.688904 0.342099
vt 0.710146 0.035345
vt 0.710146 0.342099
vt 0.688904 0.035345
vt 0.850973 0.035345
vt 0.832143 0.342099
vt 0.832143 0.035345
vt 0.850973 0.342099
vt 0.734522 0.035345
vt 0.734522 0.342099
vt 0.873782 0.035345
vt 0.873782 0.342099
vt 0.760371 0.035345
vt 0.760371 0.342099
vt 0.899018 0.035345
vt 0.899018 0.342099
vt 0.785924 0.035345
vt 0.785924 0.342099
vt 0.924953 0.035345
vt 0.924953 0.342099
vt 0.809447 0.035345
vt 0.809447 0.342099
vt 0.949826 0.035345
vt 0.949826 0.342099
vt 0.829341 0.035345
vt 0.829341 0.342099
vt 0.971946 0.035345
vt 0.971946 0.342099
vt 0.973549 0.035345
vt 0.994013 0.342099
vt 0.973549 0.342099
vt 0.994013 0.035345
vt 0.375205 0.996932
vt 0.395669 0.690179
vt 0.395669 0.996932
vt 0.375205 0.690179
vn 0.0000 1.0000 0.0000
vn 0.0000 -1.0000 0.0000
vn 0.0000 0.0000 -1.0000
vn 1.0000 -0.0000 0.0000
vn -1.0000 -0.0000 0.0000
vn 0.9173 0.0000 -0.3983
vn -0.9173 0.0000 -0.3983
vn 0.9879 -0.0000 -0.1551
vn -0.9879 0.0000 -0.1551
vn 0.9953 0.0000 0.0965
vn -0.9953 -0.0000 0.0965
vn 0.9395 -0.0000 0.3426
vn -0.9395 -0.0000 0.3426
vn 0.8219 -0.0000 0.5697
vn -0.8219 -0.0000 0.5697
vn 0.6471 -0.0000 0.7624
vn -0.6471 -0.0000 0.7624
vn 0.4238 -0.0000 0.9058
vn -0.4238 -0.0000 0.9058
vn 0.1668 -0.0000 0.9860
vn -0.1668 -0.0000 0.9860
vn -0.1039 -0.0000 0.9946
vn 0.1039 -0.0000 0.9946
vn -0.3660 -0.0000 0.9306
vn 0.3660 -0.0000 0.9306
vn -0.5984 -0.0000 0.8012
vn 0.5984 -0.0000 0.8012
vn -0.7858 -0.0000 0.6185
vn 0.7858 -0.0000 0.6185
usemtl Default_OBJ
s 1
f 1/1/1 2/2/1 3/3/1
f 2/2/1 1/1/1 4/4/1
f 2/2/1 4/4/1 5/5/1
f 2/2/1 5/5/1 6/6/1
f 6/6/1 5/5/1 7/7/1
f 6/6/1 7/7/1 8/8/1
f 8/8/1 7/7/1 9/9/1
f 9/9/1 7/7/1 10/10/1
f 9/9/1 10/10/1 11/11/1
f 11/11/1 10/10/1 12/12/1
f 11/11/1 12/12/1 13/13/1
f 13/13/1 12/12/1 14/14/1
f 13/13/1 14/14/1 15/15/1
f 15/15/1 14/14/1 16/16/1
f 15/15/1 16/16/1 17/17/1
f 17/17/1 16/16/1 18/18/1
f 17/17/1 18/18/1 19/19/1
f 19/19/1 18/18/1 20/20/1
f 13/13/1 21/21/1 11/11/1
f 21/21/1 13/13/1 22/22/1
f 21/21/1 22/22/1 23/23/1
f 23/23/1 22/22/1 24/24/1
f 23/23/1 24/24/1 25/25/1
f 25/25/1 24/24/1 26/26/1
f 25/25/1 26/26/1 27/27/1
f 28/28/2 29/29/2 30/30/2
f 29/29/2 28/28/2 31/31/2
f 31/31/2 28/28/2 32/32/2
f 31/31/2 32/32/2 33/33/2
f 33/33/2 32/32/2 34/34/2
f 33/33/2 34/34/2 35/35/2
f 35/35/2 34/34/2 36/36/2
f 37/37/2 38/38/2 39/39/2
f 38/38/2 37/37/2 40/40/2
f 40/40/2 37/37/2 41/41/2
f 40/40/2 41/41/2 42/42/2
f 42/42/2 41/41/2 43/43/2
f 43/43/2 41/41/2 44/44/2
f 43/43/2 44/44/2 45/45/2
f 43/43/2 45/45/2 46/46/2
f 46/46/2 45/45/2 30/30/2
f 46/46/2 30/30/2 47/47/2
f 47/47/2 30/30/2 29/29/2
f 47/47/2 29/29/2 48/48/2
f 48/48/2 29/29/2 49/49/2
f 48/48/2 49/49/2 50/50/2
f 50/50/2 49/49/2 51/51/2
f 50/50/2 51/51/2 52/52/2
f 52/52/2 51/51/2 53/53/2
f 52/52/2 53/53/2 54/54/2
f 3/55/3 38/56/3 1/57/3
f 38/56/3 3/55/3 39/58/3
f 39/59/4 2/60/4 37/61/4
f 2/60/4 39/59/4 3/62/4
f 4/63/5 38/64/5 40/65/5
f 38/64/5 4/63/5 1/66/5
f 37/61/6 6/67/6 41/68/6
f 6/67/6 37/61/6 2/60/6
f 5/69/7 40/65/7 42/70/7
f 40/65/7 5/69/7 4/63/7
f 41/68/8 8/71/8 44/72/8
f 8/71/8 41/68/8 6/67/8
f 7/73/9 42/70/9 43/74/9
f 42/70/9 7/73/9 5/69/9
f 44/72/10 9/75/10 45/76/10
f 9/75/10 44/72/10 8/71/10
f 10/77/11 43/74/11 46/78/11
f 43/74/11 10/77/11 7/73/11
f 45/76/12 11/79/12 30/80/12
f 11/79/12 45/76/12 9/75/12
f 12/81/13 46/78/13 47/82/13
f 46/78/13 12/81/13 10/77/13
f 30/80/14 21/83/14 28/84/14
f 21/83/14 30/80/14 11/79/14
f 14/85/15 47/82/15 48/86/15
f 47/82/15 14/85/15 12/81/15
f 28/87/16 23/88/16 32/89/16
f 23/88/16 28/87/16 21/90/16
f 50/91/17 14/92/17 48/93/17
f 14/92/17 50/91/17 16/94/17
f 32/89/18 25/95/18 34/96/18
f 25/95/18 32/89/18 23/88/18
f 52/97/19 16/94/19 50/91/19
f 16/94/19 52/97/19 18/98/19
f 34/96/20 27/99/20 36/100/20
f 27/99/20 34/96/20 25/95/20
f 54/101/21 18/98/21 52/97/21
f 18/98/21 54/101/21 20/102/21
f 36/100/22 26/103/22 35/104/22
f 26/103/22 36/100/22 27/99/22
f 53/105/23 20/102/23 54/101/23
f 20/102/23 53/105/23 19/106/23
f 35/104/24 24/107/24 33/108/24
f 24/107/24 35/104/24 26/103/24
f 51/109/25 19/106/25 53/105/25
f 19/106/25 51/109/25 17/110/25
f 33/108/26 22/111/26 31/112/26
f 22/111/26 33/108/26 24/107/26
f 49/113/27 17/110/27 51/109/27
f 17/110/27 49/113/27 15/114/27
f 22/115/28 29/116/28 31/117/28
f 29/116/28 22/115/28 13/118/28
f 29/119/29 15/120/29 49/121/29
f 15/120/29 29/119/29 13/122/29
