# Blender v2.82 (sub 7) OBJ File: 'test.blend'
# www.blender.org
mtllib cereal.mtl
o Cereal
v 0.050000 -0.014996 0.074651
v 0.048426 -0.014996 -0.074962
v 0.050000 -0.014996 -0.074962
v -0.047682 -0.014996 -0.074962
v -0.050000 -0.014996 -0.074962
v -0.050000 -0.014996 0.074651
v 0.050000 -0.014996 0.075038
v -0.050000 -0.014996 0.075038
v -0.046358 -0.002364 -0.074962
v -0.047682 -0.013417 -0.074962
v -0.048179 -0.002364 -0.074962
v -0.047040 -0.012909 -0.074962
v -0.050000 -0.000553 -0.074962
v 0.048862 -0.002364 -0.074962
v 0.047724 -0.002364 -0.074962
v 0.050000 -0.001232 -0.074962
v 0.048510 -0.012108 0.074651
v 0.048510 -0.012108 0.075038
v -0.048767 -0.012425 0.075038
v -0.048767 0.001786 0.075038
v -0.047966 0.003496 0.075038
v -0.046712 0.004741 0.075038
v -0.013539 0.001274 0.075038
v -0.017016 0.004741 0.075038
v -0.010045 0.004741 0.075038
v 0.013292 0.001274 0.075038
v 0.009763 0.004741 0.075038
v 0.016735 0.004741 0.075038
v 0.046140 0.004741 0.075038
v 0.047382 0.003454 0.075038
v 0.048130 0.001702 0.075038
v -0.048767 -0.012425 0.074651
v 0.048248 -0.002582 0.074651
v 0.048248 -0.002582 0.074845
v 0.048130 0.001702 0.074845
v 0.047382 0.003454 0.074845
v 0.046140 0.004741 0.074845
v 0.016735 0.004741 0.074845
v 0.013292 0.001274 0.074845
v 0.009763 0.004741 0.074845
v -0.010045 0.004741 0.074845
v -0.013539 0.001274 0.074845
v -0.017016 0.004741 0.074845
v -0.046712 0.004741 0.074845
v -0.047966 0.003496 0.074845
v -0.048767 0.001786 0.074651
v -0.047966 0.003496 0.074651
v 0.050000 0.015004 0.074651
v 0.050000 0.015004 -0.074962
v -0.050000 0.015004 0.074651
v -0.050000 0.015004 -0.074962
v -0.050000 0.015004 0.074845
v 0.050000 0.015004 0.074845
v 0.048779 -0.000680 0.074651
v 0.048779 0.012741 0.074651
v 0.048779 0.012741 0.074845
v 0.048779 -0.000680 0.074845
v -0.049014 0.012608 0.074651
v -0.049014 0.012608 0.074845
vt 0.003772 0.007406
vt 0.009708 0.594577
vt 0.003772 0.594577
vt 0.372185 0.594577
vt 0.380927 0.594577
vt 0.380927 0.007406
vt 0.003772 0.005887
vt 0.380927 0.005887
vt 0.836034 0.981005
vt 0.877721 0.986201
vt 0.836034 0.988152
vt 0.875805 0.983682
vt 0.883676 0.995299
vt 0.829203 0.995299
vt 0.883676 0.986201
vt 0.836034 0.607305
vt 0.883676 0.609016
vt 0.836034 0.611771
vt 0.883676 0.602839
vt 0.831764 0.602839
vt 0.468391 0.612317
vt 0.466932 0.600868
vt 0.468392 0.600868
vt 0.466932 0.612317
vt 0.768653 0.996075
vt 0.758957 0.608455
vt 0.768653 0.603616
vt 0.705359 0.608455
vt 0.698910 0.611598
vt 0.694214 0.616520
vt 0.707290 0.746710
vt 0.694214 0.733065
vt 0.694214 0.760423
vt 0.707290 0.852011
vt 0.694214 0.838161
vt 0.694214 0.865524
vt 0.757761 0.990228
vt 0.694214 0.980926
vt 0.699068 0.985801
vt 0.705676 0.988736
vt 0.468421 0.662981
vt 0.469880 0.673335
vt 0.468421 0.673335
vt 0.469880 0.662981
vt 0.468391 0.649715
vt 0.467660 0.649715
vt 0.466932 0.666534
vt 0.467660 0.666534
vt 0.467660 0.673467
vt 0.466932 0.673467
vt 0.467659 0.678614
vt 0.466931 0.678614
vt 0.470645 0.716248
vt 0.471373 0.600845
vt 0.471373 0.716248
vt 0.470645 0.600845
vt 0.473619 0.599835
vt 0.474346 0.614202
vt 0.473619 0.614202
vt 0.474346 0.599835
vt 0.475089 0.599830
vt 0.474361 0.613710
vt 0.474361 0.599830
vt 0.475089 0.613710
vt 0.472115 0.600468
vt 0.471387 0.678207
vt 0.471387 0.600468
vt 0.472115 0.678207
vt 0.472876 0.614214
vt 0.473604 0.599835
vt 0.473604 0.614214
vt 0.472876 0.599835
vt 0.475103 0.599830
vt 0.475831 0.613705
vt 0.475103 0.613706
vt 0.475831 0.599830
vt 0.470630 0.600856
vt 0.469902 0.717401
vt 0.469902 0.600856
vt 0.470630 0.717401
vt 0.475846 0.604906
vt 0.476574 0.599743
vt 0.476574 0.604906
vt 0.475846 0.599743
vt 0.468421 0.600420
vt 0.469880 0.607302
vt 0.468421 0.607302
vt 0.469880 0.600420
vt 0.000000 0.000000
vt 0.000000 0.000000
vt 0.000000 0.000000
vt 0.822430 0.005872
vt 0.770529 0.593043
vt 0.770529 0.005872
vt 0.883653 0.593042
vt 0.883653 0.005872
vt 0.998870 0.005872
vt 0.885914 0.593043
vt 0.885914 0.005872
vt 0.940295 0.593043
vt 0.998870 0.593043
vt 0.770529 0.602839
vt 0.770529 0.995299
vt 0.388471 0.006641
vt 0.765626 0.593812
vt 0.388471 0.593812
vt 0.765626 0.006641
vt 0.388471 0.005879
vt 0.765626 0.005879
vt 0.461231 0.612203
vt 0.462246 0.657053
vt 0.460243 0.649588
vt 0.466851 0.600868
vt 0.462246 0.709725
vt 0.466851 0.718606
vt 0.468392 0.718583
vt 0.467660 0.709799
vt 0.468391 0.709799
vt 0.467660 0.718583
vt 0.467660 0.657137
vt 0.468391 0.657137
vt 0.455450 0.708516
vt 0.460100 0.600868
vt 0.460100 0.718606
vt 0.456381 0.610272
vt 0.455450 0.652744
vt 0.452429 0.646033
vt 0.472130 0.600137
vt 0.472861 0.609300
vt 0.472130 0.609300
vt 0.472861 0.600137
vt 0.442652 0.992206
vt 0.451689 0.603616
vt 0.451689 0.996075
vt 0.412981 0.983171
vt 0.408286 0.988093
vt 0.412981 0.866626
vt 0.412981 0.839268
vt 0.399905 0.852981
vt 0.412981 0.761530
vt 0.412981 0.734167
vt 0.399905 0.747680
vt 0.443154 0.608407
vt 0.412981 0.618765
vt 0.408127 0.613890
vt 0.401520 0.610955
vt 0.385362 0.610491
vt 0.392536 0.608407
vt 0.472861 0.644762
vt 0.472130 0.644762
vn 0.0000 -1.0000 -0.0000
vn -0.0000 0.0000 -1.0000
vn 0.8887 0.4585 0.0000
vn 0.8885 0.4588 0.0000
vn -0.0000 0.0000 1.0000
vn -0.9017 0.4324 0.0000
vn 0.9996 0.0275 0.0000
vn 0.9996 0.0275 0.0004
vn 0.9197 0.3927 0.0000
vn 0.9196 0.3930 -0.0000
vn 0.7196 0.6944 0.0000
vn 0.7198 0.6942 0.0000
vn 0.0000 1.0000 0.0000
vn -0.7095 0.7047 0.0000
vn -0.7096 0.7046 0.0000
vn 0.7008 0.7134 0.0000
vn 0.7008 0.7133 0.0000
vn -0.7043 0.7099 0.0000
vn -0.7044 0.7098 0.0000
vn 0.7061 0.7081 0.0000
vn -0.7042 0.7100 0.0000
vn -0.9056 0.4242 0.0000
vn 0.0000 0.0000 0.0000
vn -1.0000 0.0000 0.0000
vn 1.0000 0.0000 0.0000
vn 0.8799 -0.4752 -0.0000
vn 0.8799 -0.4751 -0.0000
vn 0.8798 -0.4753 0.0000
vn 0.9632 -0.2689 0.0000
vn 0.0001 0.0000 1.0000
vn -0.9248 -0.3806 0.0000
vn -0.9935 -0.1143 0.0000
usemtl Default_OBJ
s 1
f 1/1/1 2/2/1 3/3/1
f 2/2/1 1/1/1 4/4/1
f 4/4/1 1/1/1 5/5/1
f 5/5/1 1/1/1 6/6/1
f 6/6/1 1/1/1 7/7/1
f 6/6/1 7/7/1 8/8/1
f 9/9/2 10/10/2 11/11/2
f 10/10/2 9/9/2 12/12/2
f 11/11/2 5/13/2 13/14/2
f 5/13/2 11/11/2 4/15/2
f 4/15/2 11/11/2 10/10/2
f 14/16/2 2/17/2 15/18/2
f 2/17/2 14/16/2 3/19/2
f 3/19/2 14/16/2 16/20/2
f 17/21/3 7/22/4 1/23/4
f 7/22/4 17/21/3 18/24/4
f 7/25/5 19/26/5 8/27/5
f 19/26/5 7/25/5 20/28/5
f 20/28/5 7/25/5 21/29/5
f 21/29/5 7/25/5 22/30/5
f 22/30/5 7/25/5 23/31/5
f 22/30/5 23/31/5 24/32/5
f 23/31/5 7/25/5 25/33/5
f 25/33/5 7/25/5 26/34/5
f 25/33/5 26/34/5 27/35/5
f 26/34/5 7/25/5 28/36/5
f 28/36/5 7/25/5 18/37/5
f 28/36/5 18/37/5 29/38/5
f 29/38/5 18/37/5 30/39/5
f 30/39/5 18/37/5 31/40/5
f 19/41/6 6/42/6 8/43/6
f 6/42/6 19/41/6 32/44/6
f 33/45/7 18/24/7 17/21/7
f 18/24/7 33/45/7 34/46/8
f 18/24/7 34/46/8 31/47/7
f 31/47/7 34/46/8 35/48/7
f 36/49/9 31/47/9 35/48/9
f 31/47/9 36/49/9 30/50/10
f 37/51/11 30/50/11 36/49/11
f 30/50/11 37/51/11 29/52/12
f 28/53/13 37/54/13 38/55/13
f 37/54/13 28/53/13 29/56/13
f 28/57/14 39/58/15 26/59/15
f 39/58/15 28/57/14 38/60/14
f 27/61/16 39/62/17 40/63/16
f 39/62/17 27/61/16 26/64/17
f 25/65/13 40/66/13 41/67/13
f 40/66/13 25/65/13 27/68/13
f 23/69/18 41/70/19 42/71/18
f 41/70/19 23/69/18 25/72/19
f 43/73/20 23/74/20 42/75/20
f 23/74/20 43/73/20 24/76/20
f 22/77/13 43/78/13 44/79/13
f 43/78/13 22/77/13 24/80/13
f 21/81/21 44/82/21 45/83/21
f 44/82/21 21/81/21 22/84/21
f 21/85/22 46/86/22 20/87/22
f 46/86/22 21/85/22 47/88/22
f 47/89/23 21/90/23 45/91/23
f 20/87/24 32/44/24 19/41/24
f 32/44/24 20/87/24 46/86/24
f 12/12/2 4/15/2 10/10/2
f 4/15/2 12/12/2 2/17/2
f 2/17/2 12/12/2 9/9/2
f 2/17/2 9/9/2 15/18/2
f 16/92/25 1/93/25 3/94/25
f 1/93/25 16/92/25 48/95/25
f 48/95/25 16/92/25 49/96/25
f 50/97/24 5/98/24 6/99/24
f 5/98/24 50/97/24 13/100/24
f 13/100/24 50/97/24 51/101/24
f 49/102/2 13/14/2 51/103/2
f 13/14/2 49/102/2 11/11/2
f 11/11/2 49/102/2 9/9/2
f 9/9/2 49/102/2 15/18/2
f 15/18/2 49/102/2 14/16/2
f 14/16/2 49/102/2 16/20/2
f 50/104/13 49/105/13 51/106/13
f 49/105/13 50/104/13 48/107/13
f 48/107/13 50/104/13 52/108/13
f 48/107/13 52/108/13 53/109/13
f 17/110/5 54/111/5 33/112/5
f 54/111/5 17/110/5 1/113/5
f 54/111/5 1/113/5 55/114/5
f 55/114/5 1/113/5 48/115/5
f 48/116/26 56/117/27 55/118/28
f 56/117/27 48/116/26 53/119/28
f 55/118/25 57/120/25 54/121/25
f 57/120/25 55/118/25 56/117/25
f 54/121/29 34/46/29 33/45/29
f 34/46/29 54/121/29 57/120/29
f 32/122/5 50/123/5 6/124/5
f 50/123/5 32/122/5 58/125/5
f 58/125/5 32/122/5 46/126/30
f 58/125/5 46/126/30 47/127/5
f 52/128/31 58/129/31 59/130/31
f 58/129/31 52/128/31 50/131/31
f 59/132/5 53/133/5 52/134/5
f 53/133/5 59/132/5 44/135/5
f 44/135/5 59/132/5 45/136/5
f 53/133/5 44/135/5 43/137/5
f 53/133/5 43/137/5 41/138/5
f 41/138/5 43/137/5 42/139/5
f 53/133/5 41/138/5 40/140/5
f 53/133/5 40/140/5 38/141/5
f 38/141/5 40/140/5 39/142/5
f 53/133/5 38/141/5 56/143/5
f 56/143/5 38/141/5 37/144/5
f 56/143/5 37/144/5 36/145/5
f 56/143/5 36/145/5 35/146/5
f 56/143/5 35/146/5 34/147/5
f 56/143/5 34/147/5 57/148/5
f 59/130/32 47/149/32 45/150/32
f 47/149/32 59/130/32 58/129/32
