# Blender v2.82 (sub 7) OBJ File: 'test.blend'
# www.blender.org
mtllib milk.mtl
o Milk_Milk.001
v 0.021805 -0.022067 0.054922
v 0.000847 0.022067 0.082031
v 0.000847 -0.022067 0.082031
v 0.021805 0.022067 0.054922
v 0.022067 -0.022067 0.054245
v 0.022067 0.022067 0.054245
v -0.021805 0.022067 0.054922
v 0.000000 0.022067 0.054582
v -0.022067 0.022067 0.054245
v -0.020807 0.022067 0.055185
v -0.020615 0.022067 0.054922
v -0.000847 0.022067 0.082031
v -0.000600 0.022067 0.081077
v -0.000147 0.022067 0.081658
v -0.000079 0.022067 0.082254
v -0.000743 0.022067 0.082089
v -0.000789 0.022067 0.082234
v -0.000789 0.022067 0.082286
v -0.000079 0.022067 0.089756
v -0.000789 0.022067 0.089756
v 0.000000 0.022067 0.055185
v 0.020615 0.022067 0.054922
v 0.020807 0.022067 0.055185
v 0.000600 0.022067 0.081077
v 0.000147 0.022067 0.081658
v 0.000079 0.022067 0.082254
v 0.000743 0.022067 0.082089
v 0.000789 0.022067 0.082234
v 0.000789 0.022067 0.082286
v 0.000079 0.022067 0.089756
v 0.000789 0.022067 0.089756
v 0.000743 -0.022067 0.082089
v 0.020807 -0.022067 0.055185
v 0.020615 -0.022067 0.054922
v 0.000600 -0.022067 0.081077
v 0.000147 -0.022067 0.081658
v 0.000079 -0.022067 0.082254
v 0.000789 -0.022067 0.082234
v 0.000789 -0.022067 0.082286
v 0.000079 -0.022067 0.089756
v 0.000789 -0.022067 0.089756
v 0.000000 -0.022067 0.055185
v -0.020615 -0.022067 0.054922
v 0.020503 -0.022067 -0.067796
v -0.022067 -0.022067 -0.065719
v -0.020503 -0.022067 -0.067796
v 0.022067 -0.022067 -0.065719
v -0.022067 -0.022067 0.054245
v -0.021805 -0.022067 0.054922
v -0.020807 -0.022067 0.055185
v -0.000847 -0.022067 0.082031
v -0.000600 -0.022067 0.081077
v -0.000147 -0.022067 0.081658
v -0.000079 -0.022067 0.082254
v -0.000743 -0.022067 0.082089
v -0.000789 -0.022067 0.082234
v -0.000789 -0.022067 0.082286
v -0.000079 -0.022067 0.089756
v -0.000789 -0.022067 0.089756
v 0.022067 -0.020749 -0.067796
v 0.022067 0.020749 -0.067796
v 0.022067 0.022067 -0.065719
v 0.000000 0.011713 0.082254
v 0.000000 0.021988 0.082254
v 0.000000 0.021988 0.089756
v 0.000079 0.021977 0.090512
v 0.000789 0.021977 0.090512
v 0.000789 -0.021977 0.090512
v 0.000789 -0.021715 0.091195
v 0.000789 -0.021307 0.091737
v 0.000789 -0.020792 0.092085
v 0.000789 -0.020222 0.092204
v 0.000789 0.020222 0.092204
v 0.000789 0.020792 0.092085
v 0.000789 0.021307 0.091737
v 0.000789 0.021715 0.091195
v -0.020503 0.022067 -0.067796
v 0.020503 0.022067 -0.067796
v -0.022067 0.022067 -0.065719
v -0.000789 -0.021977 0.090512
v -0.000789 -0.021715 0.091195
v -0.000789 -0.021307 0.091737
v -0.000789 -0.020792 0.092085
v -0.000789 -0.020222 0.092204
v -0.000789 0.020222 0.092204
v -0.000789 0.020792 0.092085
v -0.000789 0.021307 0.091737
v -0.000789 0.021715 0.091195
v -0.000789 0.021977 0.090512
v -0.000079 0.021977 0.090512
v -0.022067 -0.020749 -0.067796
v -0.022067 0.020749 -0.067796
v 0.000079 -0.021977 0.090512
v 0.000000 -0.021988 0.082254
v 0.000000 -0.021988 0.089756
v 0.000000 -0.011713 0.082254
v -0.000079 -0.021977 0.090512
v 0.000000 0.021898 0.090512
v 0.000079 0.021715 0.091195
v 0.000079 0.021307 0.091737
v 0.000079 0.020792 0.092085
v 0.000079 0.020222 0.092204
v 0.000079 -0.020222 0.092204
v 0.000000 0.020144 0.092204
v 0.000000 -0.020144 0.092204
v 0.000079 -0.020792 0.092085
v 0.000079 -0.021307 0.091737
v 0.000079 -0.021715 0.091195
v -0.000079 -0.021715 0.091195
v -0.000079 -0.021307 0.091737
v -0.000079 -0.020792 0.092085
v -0.000079 -0.020222 0.092204
v -0.000079 0.020222 0.092204
v -0.000079 0.020792 0.092085
v -0.000079 0.021307 0.091737
v -0.000079 0.021715 0.091195
v 0.000000 -0.021898 0.090512
v 0.000000 0.021636 0.091195
v 0.000000 0.021228 0.091737
v 0.000000 0.020714 0.092085
v 0.000000 -0.020714 0.092085
v 0.000000 -0.021228 0.091737
v 0.000000 -0.021636 0.091195
vt 0.002318 0.630665
vt 0.234135 0.766614
vt 0.002318 0.766614
vt 0.234135 0.630665
vt 0.002318 0.627249
vt 0.234135 0.627249
vt 0.476600 0.006216
vt 0.591132 0.007938
vt 0.475224 0.009645
vt 0.904483 0.857680
vt 0.903105 0.852612
vt 0.904483 0.851637
vt 0.762456 0.751253
vt 0.767454 0.749999
vt 0.764410 0.747699
vt 0.761288 0.747353
vt 0.762152 0.750725
vt 0.761393 0.750959
vt 0.761120 0.750959
vt 0.721984 0.747353
vt 0.721984 0.750959
vt 0.903105 0.746952
vt 0.904483 0.642267
vt 0.705664 0.006216
vt 0.707040 0.009645
vt 0.000000 0.000000
vt 0.000000 0.000000
vt 0.000000 0.000000
vt 0.000000 0.000000
vt 0.904483 0.636224
vt 0.903105 0.641292
vt 0.762456 0.742651
vt 0.767454 0.743905
vt 0.764410 0.746206
vt 0.761288 0.746551
vt 0.762152 0.743179
vt 0.761393 0.742946
vt 0.761120 0.742946
vt 0.721984 0.746551
vt 0.721984 0.742946
vt 0.954828 0.454958
vt 0.955374 0.230841
vt 0.955375 0.454958
vt 0.954828 0.230841
vt 0.431542 0.997785
vt 0.430164 0.992718
vt 0.431542 0.991742
vt 0.289553 0.891358
vt 0.294549 0.890104
vt 0.291506 0.887804
vt 0.288385 0.887459
vt 0.289249 0.890830
vt 0.288489 0.891064
vt 0.288217 0.891064
vt 0.249091 0.887459
vt 0.249091 0.891064
vt 0.430164 0.887057
vt 0.431542 0.782372
vt 0.719892 0.627627
vt 0.943493 0.617110
vt 0.935278 0.627627
vt 0.711677 0.617110
vt 0.943493 0.009642
vt 0.711677 0.009642
vt 0.713053 0.006214
vt 0.942117 0.006214
vt 0.000000 0.000000
vt 0.000000 0.000000
vt 0.000000 0.000000
vt 0.000000 0.000000
vt 0.431542 0.776329
vt 0.430164 0.781397
vt 0.289553 0.882756
vt 0.294549 0.884010
vt 0.291506 0.886311
vt 0.288385 0.886656
vt 0.289249 0.883284
vt 0.288489 0.883051
vt 0.288217 0.883051
vt 0.249091 0.886656
vt 0.249091 0.883051
vt 0.009241 0.007590
vt 0.002318 0.018136
vt 0.227212 0.007590
vt 0.234135 0.018136
vt 0.757397 0.746952
vt 0.235909 0.817107
vt 0.235909 0.953269
vt 0.181524 0.814068
vt 0.945815 0.451028
vt 0.945815 0.621254
vt 0.945813 0.617520
vt 0.235909 0.814075
vt 0.235494 0.814068
vt 0.235494 0.775977
vt 0.235909 0.775984
vt 0.717990 0.746551
vt 0.717990 0.742946
vt 0.959308 0.860368
vt 0.959035 0.636251
vt 0.959308 0.636251
vt 0.919803 0.636251
vt 0.915832 0.636708
vt 0.912245 0.638038
vt 0.909399 0.640110
vt 0.907571 0.642725
vt 0.906946 0.645620
vt 0.906946 0.850999
vt 0.907571 0.853893
vt 0.909399 0.856508
vt 0.912245 0.858580
vt 0.915832 0.859911
vt 0.919803 0.860368
vt 0.000000 0.000000
vt 0.000000 0.000000
vt 0.000000 0.000000
vt 0.960073 0.860368
vt 0.960073 0.636251
vt 0.483439 0.627794
vt 0.707040 0.617274
vt 0.698825 0.627794
vt 0.475224 0.617274
vt 0.238771 0.630656
vt 0.470587 0.627240
vt 0.470587 0.630656
vt 0.238771 0.627240
vt 0.470587 0.766525
vt 0.238771 0.766525
vt 0.954271 0.454958
vt 0.954817 0.230841
vt 0.954817 0.454958
vt 0.954271 0.230841
vt 0.998703 0.226358
vt 0.999469 0.002241
vt 0.999469 0.226358
vt 0.998703 0.002241
vt 0.000000 0.000000
vt 0.000000 0.000000
vt 0.000000 0.000000
vt 0.959199 0.226358
vt 0.955229 0.225901
vt 0.951641 0.224571
vt 0.948795 0.222499
vt 0.946967 0.219884
vt 0.946343 0.216989
vt 0.946343 0.011610
vt 0.946967 0.008716
vt 0.948795 0.006101
vt 0.951641 0.004029
vt 0.955229 0.002698
vt 0.959199 0.002241
vt 0.000000 0.000000
vt 0.000000 0.000000
vt 0.000000 0.000000
vt 0.717990 0.750959
vt 0.717990 0.747353
vt 0.110402 0.953186
vt 0.109987 0.915102
vt 0.110402 0.915095
vt 0.109987 0.953193
vt 0.110402 0.912064
vt 0.110402 0.909077
vt 0.056017 0.915102
vt 0.110402 0.775977
vt 0.463665 0.007589
vt 0.470587 0.018135
vt 0.245694 0.007589
vt 0.238771 0.018135
vt 0.943493 0.627124
vt 0.475224 0.852426
vt 0.700117 0.860368
vt 0.482147 0.860368
vt 0.707040 0.852426
vt 0.475224 0.644193
vt 0.707040 0.644193
vt 0.482147 0.636251
vt 0.700117 0.636251
vt 0.711677 0.627124
vt 0.245096 0.891064
vt 0.245096 0.887459
vt 0.054929 0.953262
vt 0.054514 0.915178
vt 0.054929 0.915172
vt 0.054514 0.953269
vt 0.054929 0.912140
vt 0.054929 0.775977
vt 0.000544 0.915178
vt 0.945813 0.451028
vt 0.945813 0.621283
vt 0.945811 0.454764
vt 0.284298 0.887057
vt 0.126051 0.814068
vt 0.180436 0.820093
vt 0.180436 0.953193
vt 0.180436 0.817106
vt 0.180021 0.814068
vt 0.180436 0.814074
vt 0.180436 0.775983
vt 0.180021 0.775977
vt 0.245096 0.886656
vt 0.245096 0.883051
vt 0.707040 0.627315
vt 0.717960 0.746952
vt 0.721955 0.746952
vt 0.714313 0.746551
vt 0.714313 0.742946
vt 0.711320 0.746551
vt 0.711320 0.742946
vt 0.945894 0.233379
vt 0.949623 0.230763
vt 0.949623 0.233379
vt 0.945894 0.230763
vt 0.945894 0.236273
vt 0.949623 0.236273
vt 0.949623 0.441652
vt 0.950038 0.236669
vt 0.950038 0.441256
vt 0.945894 0.441652
vt 0.945894 0.444547
vt 0.949623 0.444547
vt 0.945894 0.447162
vt 0.949623 0.447162
vt 0.241415 0.891064
vt 0.238416 0.887459
vt 0.241415 0.887459
vt 0.238416 0.891064
vt 0.475224 0.627315
vt 0.241415 0.886656
vt 0.241415 0.883051
vt 0.238416 0.883051
vt 0.238416 0.886656
vt 0.950453 0.447162
vt 0.954183 0.444547
vt 0.954183 0.447162
vt 0.950453 0.444547
vt 0.954183 0.441652
vt 0.950453 0.441652
vt 0.954183 0.236273
vt 0.950453 0.236273
vt 0.954183 0.233379
vt 0.950453 0.233379
vt 0.954183 0.230763
vt 0.950453 0.230763
vt 0.711320 0.750959
vt 0.714313 0.747353
vt 0.714313 0.750959
vt 0.711320 0.747353
vt 0.245065 0.887057
vt 0.249060 0.887057
vt 0.714283 0.746952
vt 0.711290 0.746952
vt 0.950038 0.231165
vt 0.950038 0.233775
vt 0.950038 0.444150
vt 0.950038 0.446761
vt 0.238384 0.887057
vt 0.241384 0.887057
vn 0.7911 0.0000 0.6116
vn 0.9324 -0.0000 0.3614
vn 0.9326 0.0000 0.3609
vn 0.0000 1.0000 0.0000
vn 0.0000 0.0000 1.0000
vn -0.0000 1.0000 -0.0034
vn 0.9538 -0.2183 -0.2064
vn -0.0000 1.0000 -0.0039
vn 0.4881 0.0000 0.8728
vn 0.4880 0.0000 0.8728
vn 0.4882 0.0000 0.8727
vn -0.0000 -1.0000 0.0000
vn -0.0005 -1.0000 -0.0056
vn -0.0000 0.0000 -1.0000
vn 0.0000 -1.0000 -0.0001
vn 1.0000 0.0000 0.0000
vn 0.0000 0.9340 0.3573
vn -0.0046 0.9340 0.3573
vn 0.0046 0.9340 0.3573
vn -0.2439 0.9535 0.1773
vn -0.7881 -0.0242 -0.6151
vn -0.7048 0.7048 -0.0804
vn -0.7071 0.7071 0.0000
vn 0.0000 0.9930 0.1182
vn -0.0000 0.9929 0.1185
vn 0.9532 0.0000 -0.3024
vn -0.9324 -0.0000 0.3614
vn -0.9326 0.0000 0.3609
vn -0.7911 0.0000 0.6116
vn -0.4880 -0.0000 0.8728
vn -0.4881 -0.0000 0.8728
vn -0.4882 0.0000 0.8727
vn -0.9532 0.0000 -0.3024
vn -1.0000 0.0000 0.0000
vn 0.0000 0.0000 0.0000
vn 0.7071 0.7071 0.0000
vn 0.7048 0.7048 -0.0804
vn 0.7882 -0.0242 -0.6149
vn 0.7881 -0.0242 -0.6150
vn 0.7881 -0.0242 -0.6151
vn 0.2439 0.9535 0.1773
vn -0.5798 -0.6880 -0.4366
vn 0.5798 -0.6880 -0.4366
vn 0.0000 -0.9930 0.1182
vn 0.0000 -0.9929 0.1185
vn -0.7071 -0.7071 0.0000
vn -0.7048 -0.7048 -0.0804
vn -0.7881 0.0242 -0.6151
vn -0.2439 -0.9535 0.1773
vn 0.0000 -0.9340 0.3573
vn 0.0046 -0.9340 0.3573
vn -0.0046 -0.9340 0.3573
vn 0.2439 -0.9535 0.1773
vn 0.7881 0.0242 -0.6150
vn 0.7879 0.0242 -0.6153
vn 0.7881 0.0242 -0.6151
vn 0.7884 0.0242 -0.6147
vn 0.7048 -0.7048 -0.0804
vn 0.7071 -0.7071 0.0000
vn 0.5798 0.6880 -0.4366
vn -0.9710 0.0000 -0.2390
vn -0.7046 0.7046 0.0839
vn 0.0000 0.9335 0.3585
vn 0.0000 0.9337 0.3582
vn 0.0000 0.7989 0.6014
vn 0.0000 0.7987 0.6017
vn 0.0000 0.5599 0.8286
vn -0.0000 0.5602 0.8284
vn 0.0000 0.2058 0.9786
vn -0.0001 0.0000 1.0000
vn 0.0001 0.0000 1.0000
vn -0.0000 -0.2058 0.9786
vn 0.0000 -0.5599 0.8286
vn 0.0000 -0.5602 0.8284
vn 0.0000 -0.7987 0.6017
vn 0.0000 -0.7989 0.6014
vn -0.0000 -0.9335 0.3585
vn 0.0000 -0.9337 0.3582
vn -0.5798 0.6880 -0.4366
vn -0.0000 -0.7987 0.6018
vn -0.0000 0.7987 0.6018
vn 0.7046 0.7046 0.0839
vn 0.9710 0.0000 -0.2390
vn -0.7046 -0.7046 0.0839
vn 0.7046 -0.7046 0.0839
vn -0.6825 0.6824 0.2618
vn -0.6824 0.6825 0.2618
vn -0.6824 0.6824 0.2621
vn -0.6241 0.6239 0.4703
vn -0.6240 0.6241 0.4702
vn -0.6241 0.6242 0.4699
vn -0.6243 0.6241 0.4698
vn -0.4887 0.4887 0.7227
vn -0.4886 0.4887 0.7228
vn -0.4887 0.4887 0.7228
vn -0.2016 0.2016 0.9585
vn -0.2017 0.2016 0.9585
vn -0.2015 0.2016 0.9585
vn -0.2016 -0.2016 0.9585
vn -0.2015 -0.2016 0.9585
vn -0.2017 -0.2016 0.9585
vn -0.4887 -0.4888 0.7227
vn -0.4886 -0.4888 0.7227
vn -0.4886 -0.4888 0.7228
vn -0.4887 -0.4887 0.7227
vn -0.6242 -0.6242 0.4699
vn -0.6823 -0.6824 0.2622
vn -0.6824 -0.6825 0.2618
vn -0.6824 -0.6824 0.2621
vn 0.6824 -0.6824 0.2621
vn 0.6240 -0.6241 0.4702
vn 0.6241 -0.6239 0.4703
vn 0.6243 -0.6241 0.4698
vn 0.6241 -0.6242 0.4699
vn 0.4886 -0.4887 0.7228
vn 0.4887 -0.4888 0.7227
vn 0.4887 -0.4887 0.7228
vn 0.4886 -0.4888 0.7227
vn 0.2016 -0.2016 0.9585
vn 0.2017 -0.2016 0.9585
vn 0.2017 0.2016 0.9585
vn 0.2016 0.2016 0.9585
vn 0.4887 0.4888 0.7227
vn 0.4888 0.4887 0.7226
vn 0.4886 0.4888 0.7228
vn 0.6242 0.6242 0.4699
vn 0.6242 0.6242 0.4698
vn 0.6824 0.6825 0.2618
vn 0.6823 0.6824 0.2622
vn 0.6824 0.6824 0.2621
usemtl Default_OBJ
s 1
f 1/1/1 2/2/1 3/3/1
f 2/2/1 1/1/1 4/4/1
f 5/5/2 4/4/2 1/1/3
f 4/4/2 5/5/2 6/6/3
f 7/7/4 8/8/4 9/9/4
f 7/10/4 10/11/4 11/12/4
f 10/11/4 7/10/4 12/13/4
f 10/11/4 12/13/4 13/14/4
f 13/14/4 12/13/4 14/15/4
f 14/15/4 12/13/4 15/16/4
f 15/16/4 12/13/4 16/17/4
f 15/16/4 16/17/4 17/18/4
f 15/16/4 17/18/4 18/19/4
f 15/16/4 18/19/4 19/20/4
f 19/20/4 18/19/4 20/21/4
f 21/22/4 22/23/4 11/12/4
f 8/8/4 4/24/4 6/25/4
f 4/24/4 8/8/4 7/7/4
f 4/26/5 7/27/5 11/28/5
f 4/26/5 11/28/5 22/29/5
f 4/30/4 22/23/4 23/31/6
f 4/30/4 23/31/6 2/32/4
f 2/32/4 23/31/6 24/33/7
f 2/32/4 24/33/7 25/34/8
f 2/32/4 25/34/8 26/35/4
f 2/32/4 26/35/4 27/36/4
f 27/36/4 26/35/4 28/37/4
f 28/37/4 26/35/4 29/38/4
f 29/38/4 26/35/4 30/39/4
f 29/38/4 30/39/4 31/40/4
f 3/41/9 27/42/10 32/43/11
f 27/42/10 3/41/9 2/44/9
f 1/45/12 33/46/12 34/47/12
f 33/46/12 1/45/12 3/48/12
f 33/46/12 3/48/12 35/49/13
f 35/49/13 3/48/12 36/50/12
f 36/50/12 3/48/12 37/51/12
f 37/51/12 3/48/12 32/52/12
f 37/51/12 32/52/12 38/53/12
f 37/51/12 38/53/12 39/54/12
f 37/51/12 39/54/12 40/55/12
f 40/55/12 39/54/12 41/56/12
f 42/57/12 43/58/12 34/47/12
f 44/59/12 45/60/12 46/61/12
f 45/60/12 44/59/12 47/62/12
f 45/60/12 47/62/12 48/63/12
f 48/63/12 47/62/12 5/64/12
f 48/63/12 5/64/12 1/65/12
f 48/63/12 1/65/12 49/66/12
f 49/67/5 1/68/5 34/69/5
f 49/67/14 34/69/14 43/70/14
f 49/71/12 43/58/12 50/72/12
f 49/71/12 50/72/12 51/73/12
f 51/73/12 50/72/12 52/74/12
f 51/73/12 52/74/12 53/75/12
f 51/73/12 53/75/12 54/76/12
f 51/73/12 54/76/12 55/77/15
f 55/77/15 54/76/12 56/78/12
f 56/78/12 54/76/12 57/79/12
f 57/79/12 54/76/12 58/80/12
f 57/79/12 58/80/12 59/81/12
f 60/82/16 5/5/16 47/83/16
f 5/5/16 60/82/16 6/6/16
f 6/6/16 60/82/16 61/84/16
f 6/6/16 61/84/16 62/85/16
f 63/86/17 21/22/17 11/12/18
f 63/86/17 22/23/19 21/22/17
f 63/86/20 23/31/20 22/23/20
f 25/87/21 23/88/21 63/89/21
f 23/90/6 25/91/8 24/92/7
f 26/93/22 25/87/22 64/94/22
f 65/95/23 26/93/23 64/94/23
f 26/93/23 65/95/23 30/96/23
f 66/97/24 31/40/24 30/39/24
f 31/40/24 66/97/24 67/98/25
f 28/99/16 39/100/16 38/101/16
f 39/100/16 28/99/16 41/102/16
f 41/102/16 28/99/16 68/103/16
f 68/103/16 28/99/16 69/104/16
f 69/104/16 28/99/16 70/105/16
f 70/105/16 28/99/16 71/106/16
f 71/106/16 28/99/16 72/107/16
f 72/107/16 28/99/16 73/108/16
f 73/108/16 28/99/16 74/109/16
f 74/109/16 28/99/16 75/110/16
f 75/110/16 28/99/16 76/111/16
f 76/111/16 28/99/16 67/112/16
f 67/112/16 28/99/16 31/113/16
f 31/114/4 28/115/4 29/116/4
f 27/117/26 38/101/26 32/118/26
f 38/101/26 27/117/26 28/99/26
f 77/119/4 62/120/4 78/121/4
f 62/120/4 77/119/4 79/122/4
f 62/120/4 79/122/4 6/25/4
f 6/25/4 79/122/4 9/9/4
f 6/25/4 9/9/4 8/8/4
f 7/123/27 48/124/27 49/125/28
f 48/124/27 7/123/27 9/126/28
f 51/127/29 7/123/29 49/125/29
f 7/123/29 51/127/29 12/128/29
f 55/129/30 12/130/31 51/131/31
f 12/130/31 55/129/30 16/132/32
f 56/133/33 16/134/33 55/135/33
f 16/134/33 56/133/33 17/136/33
f 59/137/12 56/138/12 57/139/12
f 56/133/34 59/140/34 17/136/34
f 17/136/34 59/140/34 80/141/34
f 17/136/34 80/141/34 81/142/34
f 17/136/34 81/142/34 82/143/34
f 17/136/34 82/143/34 83/144/34
f 17/136/34 83/144/34 84/145/34
f 17/136/34 84/145/34 85/146/34
f 17/136/34 85/146/34 86/147/34
f 17/136/34 86/147/34 87/148/34
f 17/136/34 87/148/34 88/149/34
f 17/136/34 88/149/34 89/150/34
f 17/136/34 89/150/34 20/151/34
f 17/152/35 20/153/35 18/154/35
f 89/155/24 19/20/24 20/21/24
f 19/20/24 89/155/24 90/156/25
f 19/157/36 64/158/36 15/159/36
f 64/158/36 19/157/36 65/160/36
f 64/158/37 14/161/37 15/159/37
f 13/162/38 63/163/39 10/164/40
f 63/163/39 13/162/38 14/161/40
f 63/86/41 11/12/41 10/11/41
f 48/124/34 91/165/34 45/166/34
f 91/165/34 48/124/34 9/126/34
f 91/165/34 9/126/34 92/167/34
f 92/167/34 9/126/34 79/168/34
f 45/60/42 91/169/42 46/61/42
f 77/170/14 91/171/14 92/172/14
f 91/171/14 77/170/14 46/173/14
f 46/173/14 77/170/14 78/174/14
f 46/173/14 78/174/14 44/175/14
f 44/175/14 78/174/14 61/176/14
f 44/175/14 61/176/14 60/177/14
f 47/62/43 44/59/43 60/178/43
f 68/179/44 40/55/44 41/56/44
f 40/55/44 68/179/44 93/180/45
f 40/181/46 94/182/46 37/183/46
f 94/182/46 40/181/46 95/184/46
f 94/182/47 36/185/47 37/183/47
f 33/186/48 36/185/48 96/187/48
f 36/188/12 33/189/12 35/190/13
f 96/191/49 34/47/49 33/46/49
f 96/191/50 42/57/50 34/47/51
f 96/191/50 43/58/52 42/57/50
f 96/191/53 50/72/53 43/58/53
f 96/192/54 52/193/55 50/194/56
f 52/193/55 96/192/54 53/195/57
f 94/196/58 54/197/58 53/195/58
f 94/196/59 58/198/59 54/197/59
f 58/198/59 94/196/59 95/199/59
f 97/200/44 59/81/44 58/80/44
f 59/81/44 97/200/44 80/201/45
f 62/120/60 61/202/60 78/121/60
f 25/87/61 63/89/61 64/94/61
f 98/203/62 30/39/62 65/204/62
f 99/205/63 67/98/63 66/97/64
f 67/98/63 99/205/63 76/206/64
f 30/39/62 98/203/62 66/97/62
f 100/207/65 76/206/66 99/205/65
f 76/206/66 100/207/65 75/208/66
f 74/209/67 100/210/67 101/211/67
f 100/210/67 74/209/67 75/212/68
f 73/213/69 101/211/69 102/214/69
f 101/211/69 73/213/69 74/209/69
f 103/215/5 104/216/70 105/217/71
f 104/216/70 103/215/5 102/214/5
f 102/214/5 103/215/5 72/218/5
f 102/214/5 72/218/5 73/213/5
f 71/219/72 103/215/72 106/220/72
f 103/215/72 71/219/72 72/218/72
f 70/221/73 106/220/73 107/222/73
f 106/220/73 70/221/73 71/219/74
f 69/223/75 107/224/76 108/225/76
f 107/224/76 69/223/75 70/226/75
f 69/223/77 93/180/77 68/179/78
f 93/180/77 69/223/77 108/225/78
f 79/122/79 77/119/79 92/227/79
f 109/228/77 80/201/77 97/200/78
f 80/201/77 109/228/77 81/229/78
f 109/228/75 82/230/76 81/229/76
f 82/230/76 109/228/75 110/231/80
f 110/232/73 83/233/73 82/234/74
f 83/233/73 110/232/73 111/235/73
f 111/235/72 84/236/72 83/233/72
f 84/236/72 111/235/72 112/237/72
f 112/237/5 85/238/5 84/236/5
f 85/238/5 112/237/5 113/239/5
f 113/239/5 112/237/5 105/217/71
f 113/239/5 105/217/71 104/216/70
f 113/239/69 86/240/69 85/238/69
f 86/240/69 113/239/69 114/241/69
f 114/241/67 87/242/67 86/240/68
f 87/242/67 114/241/67 115/243/67
f 87/244/65 116/245/66 88/246/65
f 116/245/66 87/244/65 115/247/81
f 88/246/63 90/156/63 89/155/64
f 90/156/63 88/246/63 116/245/64
f 19/20/82 90/156/82 98/203/82
f 98/203/82 65/204/82 19/20/82
f 14/161/83 64/158/83 63/163/83
f 117/248/84 40/55/84 93/180/84
f 117/248/84 95/249/84 40/55/84
f 96/187/61 36/185/61 94/182/61
f 96/192/83 94/196/83 53/195/83
f 117/248/85 58/80/85 95/249/85
f 117/248/85 97/200/85 58/80/85
f 99/205/86 98/203/87 118/250/86
f 98/203/87 99/205/86 66/97/88
f 100/207/89 118/250/90 119/251/91
f 118/250/90 100/207/89 99/205/92
f 101/211/93 119/252/94 120/253/93
f 119/252/94 101/211/93 100/210/95
f 102/214/96 120/253/96 104/216/97
f 120/253/96 102/214/96 101/211/98
f 106/220/99 105/217/99 121/254/100
f 105/217/99 106/220/99 103/215/101
f 107/222/102 121/254/103 122/255/104
f 121/254/103 107/222/102 106/220/105
f 108/225/106 122/256/106 123/257/106
f 122/256/106 108/225/106 107/224/106
f 108/225/107 117/248/108 93/180/109
f 117/248/108 108/225/107 123/257/109
f 117/248/110 109/228/110 97/200/110
f 109/228/110 117/248/110 123/257/110
f 123/257/111 110/231/112 109/228/113
f 110/231/112 123/257/111 122/256/114
f 122/255/115 111/235/116 110/232/117
f 111/235/116 122/255/115 121/254/118
f 121/254/119 112/237/120 111/235/120
f 112/237/120 121/254/119 105/217/119
f 104/216/121 114/241/122 113/239/121
f 114/241/122 104/216/121 120/253/122
f 120/253/123 115/243/123 114/241/124
f 115/243/123 120/253/123 119/252/125
f 118/250/126 115/247/126 119/251/126
f 115/247/126 118/250/126 116/245/127
f 98/203/128 116/245/129 118/250/130
f 116/245/129 98/203/128 90/156/130
