mtllib Mtl1.mtl
usemtl Mtl1
v -0.03439700 0.01602400 -0.00038200
v -0.03703700 0.00825500 -0.00038200
v -0.03639200 0.00548800 -0.00038200
v -0.03794600 0.00010000 -0.00038200
v -0.03670100 -0.00274800 -0.00038200
v -0.03708000 -0.00805900 -0.00038200
v -0.03516900 -0.01084600 -0.00038200
v -0.03448100 -0.01584200 -0.00038200
v -0.03187400 -0.01840000 -0.00038200
v -0.03026900 -0.02288400 -0.00038200
v -0.02698100 -0.02503100 -0.00038200
v -0.02464200 -0.02885600 -0.00038200
v -0.02073400 -0.03040800 -0.00038200
v -0.01786300 -0.03347900 -0.00038200
v -0.01344800 -0.03425900 -0.00038200
v -0.01024800 -0.03653600 -0.00038200
v -0.00548800 -0.03639200 -0.00038200
v -0.00215400 -0.03788500 -0.00038200
v 0.00274800 -0.03670100 -0.00038200
v 0.00604000 -0.03746200 -0.00038200
v 0.01084600 -0.03516900 -0.00038200
v 0.01395200 -0.03528800 -0.00038200
v 0.01840000 -0.03187400 -0.00038200
v 0.02121200 -0.03146400 -0.00038200
v 0.02503100 -0.02698100 -0.00038200
v 0.02748000 -0.02616800 -0.00038200
v 0.03040800 -0.02073400 -0.00038200
v 0.03246300 -0.01964900 -0.00038200
v 0.03425900 -0.01344800 -0.00038200
v 0.03592800 -0.01221100 -0.00038200
v 0.03639200 -0.00548800 -0.00038200
v 0.03771300 -0.00420200 -0.00038200
v 0.03670100 0.00274800 -0.00038200
v 0.03773400 0.00400300 -0.00038200
v 0.03516900 0.01084600 -0.00038200
v 0.03599200 0.01202100 -0.00038200
v 0.03187400 0.01840000 -0.00038200
v 0.03256600 0.01947700 -0.00038200
v 0.02698100 0.02503100 -0.00038200
v 0.02761700 0.02602300 -0.00038200
v 0.02073400 0.03040800 -0.00038200
v 0.02137800 0.03135100 -0.00038200
v 0.01344800 0.03425900 -0.00038200
v 0.01413800 0.03521400 -0.00038200
v 0.00548800 0.03639200 -0.00038200
v 0.00623800 0.03743000 -0.00038200
v -0.00274800 0.03670100 -0.00038200
v -0.00195400 0.03789600 -0.00038200
v -0.01084600 0.03516900 -0.00038200
v -0.01005500 0.03659000 -0.00038200
v -0.01840000 0.03187400 -0.00038200
v -0.01768600 0.03357300 -0.00038200
v -0.02503100 0.02698100 -0.00038200
v -0.02448900 0.02898600 -0.00038200
v -0.03040800 0.02073400 -0.00038200
v -0.03014800 0.02304400 -0.00038200
v -0.03425900 0.01344800 -0.00038200
v 0.02137800 0.03135100 0.00275000
v 0.02137800 0.03135100 -0.00038200
v 0.02137800 0.03135100 -0.00038200
v 0.02761700 0.02602300 0.00275000
v 0.02761700 0.02602300 -0.00038200
v 0.02761700 0.02602300 0.00275000
v 0.02761700 0.02602300 0.00275000
v 0.02761700 0.02602300 -0.00038200
v 0.03256600 0.01947700 0.00275000
v 0.03256600 0.01947700 -0.00038200
v 0.03599200 0.01202100 0.00275000
v 0.03599200 0.01202100 -0.00038200
v 0.03773400 0.00400300 0.00275000
v 0.03773400 0.00400300 -0.00038200
v 0.03771300 -0.00420200 0.00275000
v 0.03771300 -0.00420200 0.00275000
v 0.03771300 -0.00420200 -0.00038200
v 0.03771300 -0.00420200 -0.00038200
v 0.03592800 -0.01221100 0.00275000
v 0.03592800 -0.01221100 -0.00038200
v 0.03246300 -0.01964900 0.00275000
v 0.03246300 -0.01964900 -0.00038200
v 0.02748000 -0.02616800 0.00275000
v 0.02748000 -0.02616800 -0.00038200
v 0.02748000 -0.02616800 0.00275000
v 0.02748000 -0.02616800 -0.00038200
v 0.02121200 -0.03146400 0.00275000
v 0.02121200 -0.03146400 0.00275000
v 0.02748000 -0.02616800 -0.00038200
v 0.02121200 -0.03146400 -0.00038200
v 0.01395200 -0.03528800 0.00275000
v 0.01395200 -0.03528800 -0.00038200
v 0.00604000 -0.03746200 0.00275000
v 0.00604000 -0.03746200 -0.00038200
v -0.00215400 -0.03788500 0.00275000
v -0.00215400 -0.03788500 0.00275000
v -0.00215400 -0.03788500 -0.00038200
v -0.00215400 -0.03788500 -0.00038200
v -0.01024800 -0.03653600 0.00275000
v -0.01024800 -0.03653600 -0.00038200
v -0.01786300 -0.03347900 0.00275000
v -0.01786300 -0.03347900 -0.00038200
v -0.02464200 -0.02885600 0.00275000
v -0.02464200 -0.02885600 -0.00038200
v -0.02464200 -0.02885600 -0.00038200
v -0.03026900 -0.02288400 0.00275000
v -0.03026900 -0.02288400 -0.00038200
v -0.03026900 -0.02288400 0.00275000
v -0.03026900 -0.02288400 0.00275000
v -0.03026900 -0.02288400 -0.00038200
v -0.03448100 -0.01584200 0.00275000
v -0.03448100 -0.01584200 -0.00038200
v -0.03708000 -0.00805900 0.00275000
v -0.03708000 -0.00805900 -0.00038200
v -0.03794600 0.00010000 0.00275000
v -0.03794600 0.00010000 -0.00038200
v -0.03703700 0.00825500 0.00275000
v -0.03703700 0.00825500 0.00275000
v -0.03703700 0.00825500 -0.00038200
v -0.03703700 0.00825500 -0.00038200
v -0.03439700 0.01602400 0.00275000
v -0.03439700 0.01602400 -0.00038200
v -0.03014800 0.02304400 0.00275000
v -0.03014800 0.02304400 -0.00038200
v -0.03014800 0.02304400 0.00275000
v -0.03014800 0.02304400 -0.00038200
v -0.02448900 0.02898600 0.00275000
v -0.02448900 0.02898600 0.00275000
v -0.03014800 0.02304400 -0.00038200
v -0.02448900 0.02898600 -0.00038200
v -0.01768600 0.03357300 0.00275000
v -0.01768600 0.03357300 -0.00038200
v -0.01005500 0.03659000 0.00275000
v -0.01005500 0.03659000 -0.00038200
v -0.00195400 0.03789600 0.00275000
v -0.00195400 0.03789600 -0.00038200
v 0.00623800 0.03743000 0.00275000
v 0.00623800 0.03743000 0.00275000
v 0.00623800 0.03743000 -0.00038200
v 0.00623800 0.03743000 -0.00038200
v 0.01413800 0.03521400 0.00275000
v 0.01413800 0.03521400 -0.00038200
vn 0.00000000 -0.00000000 1.00000000
vn 0.00000000 -0.00000000 1.00000000
vn 0.00000000 -0.00000000 1.00000000
vn 0.00000000 -0.00000000 1.00000000
vn 0.00000000 -0.00000000 1.00000000
vn 0.00000000 -0.00000000 1.00000000
vn 0.00000000 -0.00000000 1.00000000
vn 0.00000000 -0.00000000 1.00000000
vn 0.00000000 -0.00000000 1.00000000
vn 0.00000000 -0.00000000 1.00000000
vn 0.00000000 -0.00000000 1.00000000
vn 0.00000000 -0.00000000 1.00000000
vn 0.00000000 -0.00000000 1.00000000
vn 0.00000000 -0.00000000 1.00000000
vn 0.00000000 -0.00000000 1.00000000
vn 0.00000000 -0.00000000 1.00000000
vn 0.00000000 -0.00000000 1.00000000
vn 0.00000000 -0.00000000 1.00000000
vn 0.00000000 -0.00000000 1.00000000
vn 0.00000000 -0.00000000 1.00000000
vn 0.00000000 -0.00000000 1.00000000
vn 0.00000000 -0.00000000 1.00000000
vn 0.00000000 -0.00000000 1.00000000
vn 0.00000000 -0.00000000 1.00000000
vn 0.00000000 -0.00000000 1.00000000
vn 0.00000000 -0.00000000 1.00000000
vn 0.00000000 -0.00000000 1.00000000
vn 0.00000000 -0.00000000 1.00000000
vn 0.00000000 -0.00000000 1.00000000
vn 0.00000000 -0.00000000 1.00000000
vn 0.00000000 -0.00000000 1.00000000
vn 0.00000000 -0.00000000 1.00000000
vn 0.00000000 -0.00000000 1.00000000
vn 0.00000000 -0.00000000 1.00000000
vn 0.00000000 -0.00000000 1.00000000
vn 0.00000000 -0.00000000 1.00000000
vn 0.00000000 -0.00000000 1.00000000
vn 0.00000000 -0.00000000 1.00000000
vn 0.00000000 -0.00000000 1.00000000
vn 0.00000000 -0.00000000 1.00000000
vn 0.00000000 -0.00000000 1.00000000
vn 0.00000000 -0.00000000 1.00000000
vn 0.00000000 -0.00000000 1.00000000
vn 0.00000000 -0.00000000 1.00000000
vn 0.00000000 -0.00000000 1.00000000
vn 0.00000000 -0.00000000 1.00000000
vn 0.00000000 -0.00000000 1.00000000
vn 0.00000000 -0.00000000 1.00000000
vn 0.00000000 -0.00000000 1.00000000
vn 0.00000000 -0.00000000 1.00000000
vn 0.00000000 -0.00000000 1.00000000
vn 0.00000000 -0.00000000 1.00000000
vn 0.00000000 -0.00000000 1.00000000
vn 0.00000000 -0.00000000 1.00000000
vn 0.00000000 -0.00000000 1.00000000
vn 0.00000000 -0.00000000 1.00000000
vn 0.00000000 -0.00000000 1.00000000
vn -0.56340000 -0.82620000 0.00000000
vn -0.56340000 -0.82620000 0.00000000
vn -0.56340000 -0.82620000 0.00000000
vn -0.64940000 -0.76040000 0.00000000
vn -0.64940000 -0.76040000 0.00000000
vn -0.64940000 -0.76040000 0.00000000
vn -0.79770000 -0.60310000 0.00000000
vn -0.79770000 -0.60310000 0.00000000
vn -0.85820000 -0.51330000 0.00000000
vn -0.85820000 -0.51330000 0.00000000
vn -0.94850000 -0.31680000 0.00000000
vn -0.94850000 -0.31680000 0.00000000
vn -0.99440000 -0.10550000 0.00000000
vn -0.99440000 -0.10550000 0.00000000
vn -0.99390000 0.11070000 0.00000000
vn -0.99390000 0.11070000 0.00000000
vn -0.99390000 0.11070000 0.00000000
vn -0.99390000 0.11070000 0.00000000
vn -0.94680000 0.32180000 0.00000000
vn -0.94680000 0.32180000 0.00000000
vn -0.85550000 0.51780000 0.00000000
vn -0.85550000 0.51780000 0.00000000
vn -0.79450000 0.60730000 0.00000000
vn -0.79450000 0.60730000 0.00000000
vn -0.64540000 0.76380000 0.00000000
vn -0.64540000 0.76380000 0.00000000
vn -0.55900000 0.82920000 0.00000000
vn -0.55900000 0.82920000 0.00000000
vn -0.64540000 0.76380000 0.00000000
vn -0.55900000 0.82920000 0.00000000
vn -0.36760000 0.93000000 0.00000000
vn -0.36760000 0.93000000 0.00000000
vn -0.15920000 0.98720000 0.00000000
vn -0.15920000 0.98720000 0.00000000
vn 0.05680000 0.99840000 0.00000000
vn 0.05680000 0.99840000 0.00000000
vn 0.05680000 0.99840000 0.00000000
vn 0.05680000 0.99840000 0.00000000
vn 0.27010000 0.96280000 0.00000000
vn 0.27010000 0.96280000 0.00000000
vn 0.47070000 0.88230000 0.00000000
vn 0.47070000 0.88230000 0.00000000
vn 0.64940000 0.76040000 0.00000000
vn 0.64940000 0.76040000 0.00000000
vn 0.64940000 0.76040000 0.00000000
vn 0.72780000 0.68580000 0.00000000
vn 0.72780000 0.68580000 0.00000000
vn 0.72780000 0.68580000 0.00000000
vn 0.85820000 0.51330000 0.00000000
vn 0.85820000 0.51330000 0.00000000
vn 0.90870000 0.41750000 0.00000000
vn 0.90870000 0.41750000 0.00000000
vn 0.97720000 0.21240000 0.00000000
vn 0.97720000 0.21240000 0.00000000
vn 1.00000000 -0.00260000 0.00000000
vn 1.00000000 -0.00260000 0.00000000
vn 0.97610000 -0.21750000 0.00000000
vn 0.97610000 -0.21750000 0.00000000
vn 0.97610000 -0.21750000 0.00000000
vn 0.97610000 -0.21750000 0.00000000
vn 0.90650000 -0.42230000 0.00000000
vn 0.90650000 -0.42230000 0.00000000
vn 0.85550000 -0.51780000 0.00000000
vn 0.85550000 -0.51780000 0.00000000
vn 0.72410000 -0.68970000 0.00000000
vn 0.72410000 -0.68970000 0.00000000
vn 0.64540000 -0.76390000 -0.00000000
vn 0.64540000 -0.76390000 -0.00000000
vn 0.72410000 -0.68970000 0.00000000
vn 0.64540000 -0.76390000 -0.00000000
vn 0.46610000 -0.88470000 0.00000000
vn 0.46610000 -0.88470000 0.00000000
vn 0.26500000 -0.96430000 0.00000000
vn 0.26500000 -0.96430000 0.00000000
vn 0.05150000 -0.99870000 0.00000000
vn 0.05150000 -0.99870000 0.00000000
vn -0.16440000 -0.98640000 0.00000000
vn -0.16440000 -0.98640000 0.00000000
vn -0.16440000 -0.98640000 0.00000000
vn -0.16440000 -0.98640000 0.00000000
vn -0.37260000 -0.92800000 0.00000000
vn -0.37260000 -0.92800000 0.00000000
vt 0.85933200 0.79647200
vt 0.84930400 0.80179400
vt 0.84538400 0.80152200
vt 0.83836800 0.80483400
vt 0.83420500 0.80376000
vt 0.82703600 0.80544800
vt 0.82280900 0.80345000
vt 0.81583500 0.80361000
vt 0.81176800 0.80061000
vt 0.80529100 0.79940400
vt 0.80163500 0.79538200
vt 0.79589700 0.79302700
vt 0.79291700 0.78802600
vt 0.78809100 0.78477800
vt 0.78605400 0.77891300
vt 0.78224000 0.77504000
vt 0.78138900 0.76850000
vt 0.77861600 0.76427100
vt 0.77915400 0.75730800
vt 0.77739000 0.75297500
vt 0.77946300 0.74589800
vt 0.77861700 0.74167800
vt 0.78230000 0.73484400
vt 0.78224100 0.73090900
vt 0.78752200 0.72470000
vt 0.78809300 0.72117200
vt 0.79486900 0.71597100
vt 0.79589800 0.71292200
vt 0.80397100 0.70910000
vt 0.80529300 0.70654600
vt 0.81437100 0.70442900
vt 0.81583700 0.70234000
vt 0.82555000 0.70219200
vt 0.82703700 0.70050300
vt 0.83694600 0.70250100
vt 0.83837000 0.70111700
vt 0.84798700 0.70534100
vt 0.84930600 0.70415800
vt 0.85812000 0.71056900
vt 0.85933400 0.70948100
vt 0.86683800 0.71792500
vt 0.86798400 0.71683700
vt 0.87370100 0.72703800
vt 0.87485300 0.72588400
vt 0.87836600 0.73745100
vt 0.87961800 0.73619700
vt 0.88060100 0.74864300
vt 0.88205800 0.74729400
vt 0.88029200 0.76005300
vt 0.88205800 0.75865800
vt 0.87745500 0.77110700
vt 0.87961800 0.76975600
vt 0.87223300 0.78125100
vt 0.87485200 0.78006800
vt 0.86488600 0.78998000
vt 0.86798300 0.78911500
vt 0.85578400 0.79685100
vt 0.97392500 0.20822300
vt 0.96959300 0.20822300
vt 0.87896200 0.33927400
vt 0.97392500 0.19712700
vt 0.88299600 0.34960800
vt 0.87896200 0.35118800
vt 0.95151500 0.95654200
vt 0.94718300 0.95654200
vt 0.95151500 0.94517700
vt 0.94718300 0.94517700
vt 0.95151500 0.93407900
vt 0.94718300 0.93407900
vt 0.95151500 0.92376700
vt 0.94718300 0.92376700
vt 0.95151500 0.91472000
vt 0.96889500 0.64619700
vt 0.94718300 0.91472000
vt 0.97322700 0.64619700
vt 0.96889500 0.65524400
vt 0.97322700 0.65524400
vt 0.96889500 0.66555700
vt 0.97322700 0.66555700
vt 0.96889500 0.67665400
vt 0.97322700 0.67665400
vt 0.87491400 0.34057100
vt 0.87896200 0.33902400
vt 0.87896200 0.35118800
vt 0.33485800 0.93499000
vt 0.33919000 0.92362600
vt 0.33919000 0.93499000
vt 0.33485800 0.94608800
vt 0.33919000 0.94608800
vt 0.33485800 0.95640100
vt 0.33919000 0.95640100
vt 0.33485800 0.96544700
vt 0.95818400 0.68401100
vt 0.95385200 0.68401100
vt 0.33919000 0.96544700
vt 0.95818400 0.67665400
vt 0.95385200 0.67665400
vt 0.95818400 0.66760800
vt 0.95385200 0.66760800
vt 0.95818400 0.65729500
vt 0.95385200 0.65729500
vt 0.88180200 0.45604500
vt 0.95818400 0.64619700
vt 0.88180200 0.46714300
vt 0.87747000 0.46714300
vt 0.31996200 0.96544700
vt 0.31562900 0.96544700
vt 0.31996200 0.95408300
vt 0.31562900 0.95408300
vt 0.31996200 0.94298500
vt 0.31562900 0.94298500
vt 0.31996200 0.93267300
vt 0.31562900 0.93267300
vt 0.31996200 0.92362600
vt 0.92073800 0.66180300
vt 0.31562900 0.92362600
vt 0.91640600 0.66180300
vt 0.92073800 0.65275700
vt 0.91640600 0.65275700
vt 0.92073800 0.64244400
vt 0.91640600 0.64244400
vt 0.85295700 0.35099400
vt 0.84862500 0.35099400
vt 0.85295700 0.33989600
vt 0.82961700 0.46649100
vt 0.83395000 0.45539300
vt 0.83395000 0.46649100
vt 0.82961700 0.47785400
vt 0.83395000 0.47785400
vt 0.82961700 0.48895200
vt 0.83395000 0.48895200
vt 0.82961700 0.49926500
vt 0.83395000 0.49926500
vt 0.82961700 0.50831100
vt 0.97392500 0.22758300
vt 0.83395000 0.50831100
vt 0.96959300 0.22758300
vt 0.97392500 0.21853700
vt 0.96959300 0.21853700
f 1/1/1 2/2/2 3/3/3
f 2/2/2 4/4/4 3/3/3
f 3/3/3 4/4/4 5/5/5
f 4/4/4 6/6/6 5/5/5
f 5/5/5 6/6/6 7/7/7
f 6/6/6 8/8/8 7/7/7
f 7/7/7 8/8/8 9/9/9
f 8/8/8 10/10/10 9/9/9
f 9/9/9 10/10/10 11/11/11
f 10/10/10 12/12/12 11/11/11
f 11/11/11 12/12/12 13/13/13
f 12/12/12 14/14/14 13/13/13
f 13/13/13 14/14/14 15/15/15
f 14/14/14 16/16/16 15/15/15
f 15/15/15 16/16/16 17/17/17
f 16/16/16 18/18/18 17/17/17
f 17/17/17 18/18/18 19/19/19
f 18/18/18 20/20/20 19/19/19
f 19/19/19 20/20/20 21/21/21
f 20/20/20 22/22/22 21/21/21
f 21/21/21 22/22/22 23/23/23
f 22/22/22 24/24/24 23/23/23
f 23/23/23 24/24/24 25/25/25
f 24/24/24 26/26/26 25/25/25
f 25/25/25 26/26/26 27/27/27
f 26/26/26 28/28/28 27/27/27
f 27/27/27 28/28/28 29/29/29
f 28/28/28 30/30/30 29/29/29
f 29/29/29 30/30/30 31/31/31
f 30/30/30 32/32/32 31/31/31
f 31/31/31 32/32/32 33/33/33
f 32/32/32 34/34/34 33/33/33
f 33/33/33 34/34/34 35/35/35
f 34/34/34 36/36/36 35/35/35
f 35/35/35 36/36/36 37/37/37
f 36/36/36 38/38/38 37/37/37
f 37/37/37 38/38/38 39/39/39
f 38/38/38 40/40/40 39/39/39
f 39/39/39 40/40/40 41/41/41
f 40/40/40 42/42/42 41/41/41
f 41/41/41 42/42/42 43/43/43
f 42/42/42 44/44/44 43/43/43
f 43/43/43 44/44/44 45/45/45
f 44/44/44 46/46/46 45/45/45
f 45/45/45 46/46/46 47/47/47
f 46/46/46 48/48/48 47/47/47
f 47/47/47 48/48/48 49/49/49
f 48/48/48 50/50/50 49/49/49
f 49/49/49 50/50/50 51/51/51
f 50/50/50 52/52/52 51/51/51
f 51/51/51 52/52/52 53/53/53
f 52/52/52 54/54/54 53/53/53
f 53/53/53 54/54/54 55/55/55
f 54/54/54 56/56/56 55/55/55
f 55/55/55 56/56/56 57/57/57
f 56/56/56 1/1/1 57/57/57
f 57/57/57 1/1/1 3/3/3
f 58/58/58 59/59/59 61/61/61
f 60/60/60 62/62/62 63/63/63
f 64/64/64 65/65/65 66/66/66
f 65/65/65 67/67/67 66/66/66
f 66/66/66 67/67/67 68/68/68
f 67/67/67 69/69/69 68/68/68
f 68/68/68 69/69/69 70/70/70
f 69/69/69 71/71/71 70/70/70
f 70/70/70 71/71/71 72/72/72
f 71/71/71 74/74/74 72/72/72
f 73/73/73 75/75/75 76/76/76
f 75/75/75 77/77/77 76/76/76
f 76/76/76 77/77/77 78/78/78
f 77/77/77 79/79/79 78/78/78
f 78/78/78 79/79/79 80/80/80
f 79/79/79 81/81/81 80/80/80
f 82/82/82 83/83/83 84/84/84
f 86/86/86 87/87/87 85/85/85
f 85/85/85 87/87/87 88/88/88
f 87/87/87 89/89/89 88/88/88
f 88/88/88 89/89/89 90/90/90
f 89/89/89 91/91/91 90/90/90
f 90/90/90 91/91/91 92/92/92
f 91/91/91 95/95/95 92/92/92
f 93/93/93 94/94/94 96/96/96
f 94/94/94 97/97/97 96/96/96
f 96/96/96 97/97/97 98/98/98
f 97/97/97 99/99/99 98/98/98
f 98/98/98 99/99/99 100/100/100
f 99/99/99 101/101/101 100/100/100
f 100/100/100 101/101/101 103/103/103
f 102/102/102 104/104/104 105/105/105
f 106/106/106 107/107/107 108/108/108
f 107/107/107 109/109/109 108/108/108
f 108/108/108 109/109/109 110/110/110
f 109/109/109 111/111/111 110/110/110
f 110/110/110 111/111/111 112/112/112
f 111/111/111 113/113/113 112/112/112
f 112/112/112 113/113/113 114/114/114
f 113/113/113 116/116/116 114/114/114
f 115/115/115 117/117/117 118/118/118
f 117/117/117 119/119/119 118/118/118
f 118/118/118 119/119/119 120/120/120
f 119/119/119 121/121/121 120/120/120
f 122/122/122 123/123/123 124/124/124
f 126/126/126 127/127/127 125/125/125
f 125/125/125 127/127/127 128/128/128
f 127/127/127 129/129/129 128/128/128
f 128/128/128 129/129/129 130/130/130
f 129/129/129 131/131/131 130/130/130
f 130/130/130 131/131/131 132/132/132
f 131/131/131 133/133/133 132/132/132
f 132/132/132 133/133/133 134/134/134
f 133/133/133 136/136/136 134/134/134
f 135/135/135 137/137/137 138/138/138
f 137/137/137 139/139/139 138/138/138
f 138/138/138 139/139/139 58/58/58
f 139/139/139 59/59/59 58/58/58