# Blender v2.92.0 OBJ File: ''
# www.blender.org
mtllib bottle.mtl
o Bottle
v 0.015435 0.006065 -0.062445
v 0.012970 -0.010334 -0.064857
v 0.012970 -0.010334 -0.062445
v 0.015435 0.006065 -0.064857
v -0.002465 -0.016400 -0.062445
v -0.002465 -0.016400 -0.064857
v -0.012970 0.010334 -0.062445
v -0.015435 -0.006065 -0.062445
v 0.002465 0.016400 -0.062445
v 0.002465 0.016400 -0.064857
v -0.015435 -0.006065 -0.064857
v -0.012970 0.010334 -0.064857
v -0.004400 -0.029275 0.000105
v -0.027553 -0.010827 -0.045101
v -0.004400 -0.029275 -0.045101
v -0.027553 -0.010827 0.000105
v 0.023153 -0.018448 -0.045009
v 0.023153 -0.018448 0.000380
v 0.027553 0.010827 -0.045101
v 0.027553 0.010827 0.000105
v 0.004400 0.029275 0.000105
v 0.004400 0.029275 -0.045101
v -0.023153 0.018448 0.000105
v -0.023153 0.018448 -0.045101
v 0.012336 0.004848 0.085665
v 0.010366 -0.008260 0.095143
v 0.010366 -0.008260 0.085665
v 0.012336 0.004848 0.095143
v -0.001970 -0.013107 0.085665
v -0.001970 -0.013107 0.095143
v -0.010366 0.008260 0.085665
v -0.012336 -0.004848 0.085665
v 0.001970 0.013107 0.085665
v 0.001970 0.013107 0.095143
v -0.012336 -0.004848 0.095143
v -0.008669 -0.003407 0.095143
v -0.010366 0.008260 0.095143
v -0.001384 -0.009211 0.095143
v 0.007285 -0.005805 0.095143
v 0.008669 0.003407 0.095143
v -0.007285 0.005805 0.095143
v 0.001384 0.009211 0.095143
v -0.001384 -0.009211 0.092816
v -0.007285 0.005805 0.092816
v -0.008669 -0.003407 0.092816
v 0.001384 0.009211 0.092816
v 0.007285 -0.005805 0.092816
v 0.008669 0.003407 0.092816
v -0.004400 -0.029275 0.014496
v 0.023153 -0.018448 0.014496
v -0.027553 -0.010827 0.014496
v 0.027553 0.010827 0.014496
v 0.010366 -0.008260 0.076187
v -0.001970 -0.013107 0.076187
v -0.023153 0.018448 0.014496
v -0.012336 -0.004848 0.076187
v 0.004400 0.029275 0.014496
v 0.012336 0.004848 0.076187
v -0.010366 0.008260 0.076187
v 0.001970 0.013107 0.076187
v -0.023153 0.018448 -0.064857
v 0.004400 0.029275 -0.064857
v 0.027553 0.010827 -0.064857
v 0.023153 -0.018448 -0.064857
v -0.027553 -0.010827 -0.064857
v -0.004400 -0.029275 -0.064857
vt 0.900106 0.421158
vt 0.883849 0.370562
vt 0.897779 0.370562
vt 0.886176 0.421158
vt 0.867268 0.421161
vt 0.883524 0.370562
vt 0.881198 0.421161
vt 0.869594 0.370562
vt 0.782472 0.572961
vt 0.865445 0.421157
vt 0.865445 0.522361
vt 0.699490 0.522365
vt 0.782463 0.370562
vt 0.699490 0.421162
vt 0.886176 0.522362
vt 0.900106 0.522362
vt 0.867268 0.522364
vt 0.881198 0.522364
vt 0.883524 0.572961
vt 0.869594 0.572961
vt 0.883849 0.572961
vt 0.897779 0.572961
vt 0.259974 0.406074
vt 0.088937 0.130316
vt 0.259974 0.130316
vt 0.088937 0.406074
vt 0.345495 0.135264
vt 0.345495 0.412139
vt 0.437852 0.130316
vt 0.352336 0.412139
vt 0.352336 0.135264
vt 0.437852 0.406074
vt 0.608889 0.406074
vt 0.608889 0.130316
vt 0.694410 0.410461
vt 0.694410 0.134703
vt 0.003421 0.134703
vt 0.003421 0.410461
vt 0.485086 0.930416
vt 0.446795 0.990196
vt 0.446795 0.932380
vt 0.485086 0.988232
vt 0.251036 0.990196
vt 0.212745 0.930416
vt 0.251036 0.932380
vt 0.212745 0.988232
vt 0.765475 0.903370
vt 0.831791 0.782042
vt 0.831791 0.862931
vt 0.765473 0.741604
vt 0.699157 0.862932
vt 0.699157 0.782043
vt 0.561660 0.988232
vt 0.561660 0.930416
vt 0.831791 0.697930
vt 0.812078 0.685908
vt 0.831791 0.617041
vt 0.765475 0.738369
vt 0.765472 0.714326
vt 0.699157 0.697930
vt 0.718868 0.685910
vt 0.718871 0.629063
vt 0.812081 0.629061
vt 0.765473 0.576603
vt 0.765476 0.600645
vt 0.699157 0.617041
vt 0.136171 0.930416
vt 0.136170 0.988232
vt 0.097880 0.990196
vt 0.097880 0.932380
vt 0.599951 0.990196
vt 0.599951 0.932380
vt 0.880656 0.854804
vt 0.927260 0.769537
vt 0.927260 0.826383
vt 0.880654 0.741123
vt 0.834050 0.826390
vt 0.834050 0.769543
vt 0.833265 0.604544
vt 0.848011 0.576122
vt 0.846704 0.604544
vt 0.834572 0.576122
vt 0.863052 0.689810
vt 0.848306 0.661385
vt 0.861745 0.661385
vt 0.849613 0.689810
vt 0.861745 0.604544
vt 0.848306 0.604544
vt 0.863052 0.576122
vt 0.849613 0.576122
vt 0.833265 0.661385
vt 0.848011 0.689810
vt 0.834572 0.689810
vt 0.846704 0.661385
vt 0.259974 0.493860
vt 0.345495 0.498247
vt 0.088937 0.493860
vt 0.352336 0.498247
vt 0.437852 0.493860
vt 0.251036 0.874564
vt 0.212745 0.872600
vt 0.003421 0.498247
vt 0.136171 0.872600
vt 0.608889 0.493860
vt 0.446795 0.874564
vt 0.485086 0.872600
vt 0.694410 0.498247
vt 0.097880 0.874564
vt 0.561660 0.872600
vt 0.599951 0.874564
vt 0.848915 0.364924
vt 0.848917 0.285468
vt 0.931891 0.234871
vt 0.700793 0.274596
vt 0.765936 0.234870
vt 0.765939 0.133667
vt 0.700793 0.093940
vt 0.848915 0.003613
vt 0.997037 0.274597
vt 0.997038 0.093942
vt 0.931894 0.133668
vt 0.848914 0.083069
vt 0.437852 0.009804
vt 0.608889 0.009804
vt 0.352336 0.014191
vt 0.259974 0.009804
vt 0.345495 0.014191
vt 0.088937 0.009804
vt 0.003421 0.014191
vt 0.694410 0.014191
vn -0.9889 0.1486 0.0000
vn -0.3658 0.9307 0.0000
vn -0.0000 0.0000 -1.0000
vn -0.6232 -0.7821 0.0000
vn 0.6232 0.7821 0.0000
vn 0.9889 -0.1486 0.0000
vn 0.3658 -0.9307 0.0000
vn 0.3657 -0.9307 0.0000
vn -0.3657 0.9307 0.0000
vn 0.0000 0.0000 1.0000
vn 0.6231 0.7821 0.0000
vn -0.6231 -0.7821 0.0000
vn 0.3564 -0.9071 0.2237
vn 0.3565 -0.9071 0.2237
vn -0.6074 -0.7623 0.2237
vn -0.6073 -0.7623 0.2237
vn 0.9638 -0.1449 0.2237
vn -0.9638 0.1449 0.2237
vn 0.6074 0.7623 0.2237
vn 0.6073 0.7623 0.2237
vn -0.3564 0.9071 0.2237
vn -0.3565 0.9071 0.2237
usemtl Default_OBJ
s 1
f 1/1/1 2/2/1 3/3/1
f 2/2/1 1/1/1 4/4/1
f 5/5/2 2/6/2 6/7/2
f 2/6/2 5/5/2 3/8/2
f 7/9/3 5/10/3 8/11/3
f 5/10/3 7/9/3 9/12/3
f 5/10/3 9/12/3 3/13/3
f 3/13/3 9/12/3 1/14/3
f 1/1/4 10/15/4 4/4/4
f 10/15/4 1/1/4 9/16/4
f 8/17/5 6/7/5 11/18/5
f 6/7/5 8/17/5 5/5/5
f 12/19/6 8/17/6 11/18/6
f 8/17/6 12/19/6 7/20/6
f 9/16/7 12/21/7 10/15/7
f 12/21/7 9/16/7 7/22/7
f 13/23/4 14/24/4 15/25/4
f 14/24/4 13/23/4 16/26/4
f 17/27/8 13/23/8 15/25/8
f 13/23/8 17/27/8 18/28/8
f 19/29/6 18/30/6 17/31/6
f 18/30/6 19/29/6 20/32/6
f 21/33/5 19/29/5 22/34/5
f 19/29/5 21/33/5 20/32/5
f 23/35/9 22/34/9 24/36/9
f 22/34/9 23/35/9 21/33/9
f 16/26/1 24/37/1 14/24/1
f 24/37/1 16/26/1 23/38/1
f 25/39/6 26/40/6 27/41/6
f 26/40/6 25/39/6 28/42/6
f 26/43/8 29/44/8 27/45/8
f 29/44/8 26/43/8 30/46/8
f 29/47/10 31/48/10 32/49/10
f 31/48/10 29/47/10 33/50/10
f 33/50/10 29/47/10 27/51/10
f 33/50/10 27/51/10 25/52/10
f 34/53/11 25/39/11 33/54/11
f 25/39/11 34/53/11 28/42/11
f 35/55/10 36/56/10 37/57/10
f 36/56/10 35/55/10 30/58/10
f 36/56/10 30/58/10 38/59/10
f 38/59/10 30/58/10 26/60/10
f 38/59/10 26/60/10 39/61/10
f 39/61/10 26/60/10 40/62/10
f 37/57/10 41/63/10 34/64/10
f 41/63/10 37/57/10 36/56/10
f 34/64/10 41/63/10 42/65/10
f 34/64/10 42/65/10 40/62/10
f 34/64/10 40/62/10 28/66/10
f 28/66/10 40/62/10 26/60/10
f 30/46/12 32/67/12 29/44/12
f 32/67/12 30/46/12 35/68/12
f 37/69/1 32/67/1 35/68/1
f 32/67/1 37/69/1 31/70/1
f 37/71/9 33/54/9 31/72/9
f 33/54/9 37/71/9 34/53/9
f 43/73/10 44/74/10 45/75/10
f 44/74/10 43/73/10 46/76/10
f 46/76/10 43/73/10 47/77/10
f 46/76/10 47/77/10 48/78/10
f 42/79/8 44/80/8 46/81/8
f 44/80/8 42/79/8 41/82/8
f 44/83/6 36/84/6 45/85/6
f 36/84/6 44/83/6 41/86/6
f 36/84/11 43/87/11 45/85/11
f 43/87/11 36/84/11 38/88/11
f 38/88/9 47/89/9 43/87/9
f 47/89/9 38/88/9 39/90/9
f 40/91/1 47/92/1 39/93/1
f 47/92/1 40/91/1 48/94/1
f 40/91/12 46/81/12 48/94/12
f 46/81/12 40/91/12 42/79/12
f 18/28/8 49/95/8 13/23/8
f 49/95/8 18/28/8 50/96/8
f 49/95/4 16/26/4 13/23/4
f 16/26/4 49/95/4 51/97/4
f 20/32/6 50/98/6 18/30/6
f 50/98/6 20/32/6 52/99/6
f 53/100/13 49/95/14 50/96/14
f 49/95/14 53/100/13 54/101/13
f 51/97/1 23/38/1 16/26/1
f 23/38/1 51/97/1 55/102/1
f 54/101/15 51/97/15 49/95/15
f 51/97/15 54/101/15 56/103/16
f 57/104/5 20/32/5 21/33/5
f 20/32/5 57/104/5 52/99/5
f 52/99/17 53/105/17 50/98/17
f 53/105/17 52/99/17 58/106/17
f 27/45/8 54/101/8 53/100/8
f 54/101/8 27/45/8 29/44/8
f 55/107/9 21/33/9 23/35/9
f 21/33/9 55/107/9 57/104/9
f 56/103/18 55/102/18 51/97/18
f 55/102/18 56/103/18 59/108/18
f 29/44/12 56/103/12 54/101/12
f 56/103/12 29/44/12 32/67/12
f 60/109/19 52/99/19 57/104/19
f 52/99/19 60/109/19 58/106/20
f 58/106/6 27/41/6 53/105/6
f 27/41/6 58/106/6 25/39/6
f 59/110/21 57/104/22 55/107/22
f 57/104/22 59/110/21 60/109/21
f 31/70/1 56/103/1 32/67/1
f 56/103/1 31/70/1 59/108/1
f 33/54/11 58/106/11 60/109/11
f 58/106/11 33/54/11 25/39/11
f 31/72/9 60/109/9 59/110/9
f 60/109/9 31/72/9 33/54/9
f 61/111/3 12/112/3 11/113/3
f 12/112/3 61/111/3 62/114/3
f 12/112/3 62/114/3 10/115/3
f 10/115/3 62/114/3 4/116/3
f 4/116/3 62/114/3 63/117/3
f 4/116/3 63/117/3 64/118/3
f 65/119/3 11/113/3 66/120/3
f 11/113/3 65/119/3 61/111/3
f 66/120/3 11/113/3 6/121/3
f 66/120/3 6/121/3 64/118/3
f 64/118/3 6/121/3 2/122/3
f 64/118/3 2/122/3 4/116/3
f 22/34/5 63/123/5 62/124/5
f 63/123/5 22/34/5 19/29/5
f 63/123/6 17/31/6 64/125/6
f 17/31/6 63/123/6 19/29/6
f 17/27/8 66/126/8 64/127/8
f 66/126/8 17/27/8 15/25/8
f 15/25/4 65/128/4 66/126/4
f 65/128/4 15/25/4 14/24/4
f 14/24/1 61/129/1 65/128/1
f 61/129/1 14/24/1 24/37/1
f 24/36/9 62/124/9 61/130/9
f 62/124/9 24/36/9 22/34/9
