# Blender v2.91.0 OBJ File: ''
# www.blender.org
mtllib bread.mtl
o Bread_Bread.001
v -0.027579 0.025000 -0.029064
v 0.027579 0.025000 0.005243
v 0.027579 0.025000 -0.029064
v -0.027579 0.025000 0.005243
v -0.029319 0.025000 0.009250
v 0.029319 0.025000 0.009250
v -0.030000 0.025000 0.013589
v 0.030000 0.025000 0.013589
v 0.029576 0.025000 0.017962
v -0.029576 0.025000 0.017962
v 0.028077 0.025000 0.022073
v -0.028077 0.025000 0.022073
v 0.000000 0.025000 0.022968
v -0.025604 0.025000 0.025641
v -0.002679 0.025000 0.026372
v -0.022326 0.025000 0.028423
v -0.006116 0.025000 0.028939
v -0.018466 0.025000 0.030229
v -0.010075 0.025000 0.030496
v -0.014287 0.025000 0.030936
v 0.025604 0.025000 0.025641
v 0.002679 0.025000 0.026372
v 0.022326 0.025000 0.028423
v 0.006116 0.025000 0.028939
v 0.018466 0.025000 0.030229
v 0.010075 0.025000 0.030496
v 0.014287 0.025000 0.030936
v 0.025604 -0.025000 0.025641
v 0.000000 -0.025000 0.022968
v 0.028077 -0.025000 0.022073
v 0.002679 -0.025000 0.026372
v 0.022326 -0.025000 0.028423
v 0.006116 -0.025000 0.028939
v 0.018466 -0.025000 0.030229
v 0.010075 -0.025000 0.030496
v 0.014287 -0.025000 0.030936
v 0.027579 -0.025000 0.005243
v -0.027579 -0.025000 -0.029064
v 0.027579 -0.025000 -0.029064
v -0.027579 -0.025000 0.005243
v 0.029319 -0.025000 0.009250
v -0.029319 -0.025000 0.009250
v -0.030000 -0.025000 0.013589
v 0.030000 -0.025000 0.013589
v 0.029576 -0.025000 0.017962
v -0.029576 -0.025000 0.017962
v -0.028077 -0.025000 0.022073
v -0.025604 -0.025000 0.025641
v -0.002679 -0.025000 0.026372
v -0.022326 -0.025000 0.028423
v -0.006116 -0.025000 0.028939
v -0.018466 -0.025000 0.030229
v -0.010075 -0.025000 0.030496
v -0.014287 -0.025000 0.030936
vt 0.000000 0.000000
vt 1.000000 0.000000
vt 1.000000 1.000000
vt 0.000000 0.000000
vt 1.000000 0.000000
vt 1.000000 1.000000
vt 1.000000 0.000000
vt 1.000000 1.000000
vt 1.000000 0.000000
vt 1.000000 1.000000
vt 0.000000 0.000000
vt 1.000000 1.000000
vt 1.000000 0.000000
vt 1.000000 1.000000
vt 0.000000 0.000000
vt 1.000000 1.000000
vt 0.000000 0.000000
vt 1.000000 1.000000
vt 1.000000 0.000000
vt 1.000000 1.000000
vt 0.000000 0.000000
vt 1.000000 1.000000
vt 1.000000 0.000000
vt 1.000000 1.000000
vt 0.000000 0.000000
vt 1.000000 1.000000
vt 1.000000 0.000000
vt 1.000000 1.000000
vt 0.000000 0.000000
vt 1.000000 1.000000
vt 1.000000 0.000000
vt 1.000000 1.000000
vt 0.000000 0.000000
vt 1.000000 1.000000
vt 1.000000 0.000000
vt 1.000000 1.000000
vt 0.000000 0.000000
vt 1.000000 1.000000
vt 1.000000 0.000000
vt 0.000000 0.000000
vt 1.000000 0.000000
vt 1.000000 1.000000
vt 1.000000 0.000000
vt 1.000000 1.000000
vt 0.000000 0.000000
vt 1.000000 1.000000
vt 1.000000 0.000000
vt 1.000000 1.000000
vt 0.000000 0.000000
vt 1.000000 1.000000
vt 1.000000 0.000000
vt 1.000000 1.000000
vt 0.000000 0.000000
vt 1.000000 0.000000
vt 1.000000 1.000000
vt 0.000000 0.000000
vt 1.000000 0.000000
vt 1.000000 1.000000
vt 0.000000 0.000000
vt 1.000000 1.000000
vt 1.000000 0.000000
vt 1.000000 1.000000
vt 0.000000 0.000000
vt 1.000000 1.000000
vt 1.000000 0.000000
vt 1.000000 1.000000
vt 0.000000 0.000000
vt 1.000000 1.000000
vt 0.000000 0.000000
vt 1.000000 0.000000
vt 1.000000 1.000000
vt 0.000000 0.000000
vt 1.000000 0.000000
vt 1.000000 1.000000
vt 0.000000 0.000000
vt 1.000000 1.000000
vt 1.000000 0.000000
vt 1.000000 1.000000
vt 0.000000 0.000000
vt 1.000000 1.000000
vt 0.000000 0.000000
vt 1.000000 1.000000
vt 1.000000 0.000000
vt 1.000000 1.000000
vt 1.000000 0.000000
vt 1.000000 1.000000
vt 0.000000 0.000000
vt 1.000000 0.000000
vt 1.000000 1.000000
vt 0.000000 0.000000
vt 1.000000 1.000000
vt 1.000000 1.000000
vt 0.000000 0.000000
vt 1.000000 1.000000
vt 1.000000 0.000000
vt 1.000000 1.000000
vt 0.000000 0.000000
vt 1.000000 1.000000
vt 1.000000 0.000000
vt 1.000000 1.000000
vt 0.000000 0.000000
vt 1.000000 1.000000
vt 1.000000 0.000000
vt 1.000000 1.000000
vt 0.000000 0.000000
vt 1.000000 1.000000
vt 1.000000 0.000000
vt 0.000000 0.000000
vt 1.000000 1.000000
vt 1.000000 0.000000
vt 0.000000 0.000000
vt 1.000000 0.000000
vt 1.000000 1.000000
vt 0.000000 0.000000
vt 1.000000 0.000000
vt 0.000000 0.000000
vt 1.000000 0.000000
vt 0.000000 0.000000
vt 1.000000 0.000000
vt 0.000000 0.000000
vt 1.000000 0.000000
vt 0.000000 0.000000
vt 1.000000 0.000000
vt 0.000000 0.000000
vt 1.000000 0.000000
vt 0.000000 0.000000
vt 1.000000 0.000000
vt 0.000000 0.000000
vt 1.000000 1.000000
vt 0.000000 0.000000
vt 1.000000 0.000000
vt 1.000000 0.000000
vt 1.000000 1.000000
vt 1.000000 0.000000
vt 0.000000 0.000000
vt 1.000000 0.000000
vt 0.000000 0.000000
vt 1.000000 0.000000
vt 0.000000 0.000000
vt 1.000000 0.000000
vt 0.000000 0.000000
vt 0.000000 0.000000
vt 0.000000 0.000000
vt 1.000000 0.000000
vt 0.000000 0.000000
vt 0.000000 0.000000
vt 1.000000 0.000000
vt 0.000000 0.000000
vt 1.000000 0.000000
vt 0.000000 0.000000
vt 0.000000 0.000000
vt 1.000000 0.000000
vt 0.000000 0.000000
vt 1.000000 0.000000
vt 0.000000 0.000000
vt 1.000000 0.000000
vt 0.000000 0.000000
vt 1.000000 0.000000
vt 1.000000 0.000000
vn 0.0000 1.0000 0.0000
vn 0.0000 -1.0000 0.0000
vn 0.0000 0.0000 -1.0000
vn 1.0000 0.0000 0.0000
vn -1.0000 0.0000 0.0000
vn 0.9173 0.0000 -0.3982
vn -0.9173 0.0000 -0.3982
vn 0.9879 0.0000 -0.1551
vn -0.9879 0.0000 -0.1551
vn 0.9953 0.0000 0.0964
vn -0.9953 0.0000 0.0964
vn 0.9395 0.0000 0.3427
vn -0.9395 0.0000 0.3427
vn 0.8219 0.0000 0.5697
vn -0.8219 0.0000 0.5697
vn 0.6470 0.0000 0.7625
vn -0.6470 0.0000 0.7625
vn 0.4238 0.0000 0.9058
vn -0.4238 0.0000 0.9058
vn 0.1669 0.0000 0.9860
vn -0.1669 0.0000 0.9860
vn -0.1038 0.0000 0.9946
vn 0.1038 0.0000 0.9946
vn -0.3659 0.0000 0.9307
vn 0.3659 0.0000 0.9307
vn -0.5986 0.0000 0.8011
vn 0.5986 0.0000 0.8011
vn -0.7858 0.0000 0.6185
vn 0.7858 0.0000 0.6185
usemtl Material.004
s off
f 1/1/1 2/2/1 3/3/1
f 2/4/1 1/5/1 4/6/1
f 2/4/1 4/7/1 5/8/1
f 2/4/1 5/9/1 6/10/1
f 6/11/1 5/9/1 7/12/1
f 6/11/1 7/13/1 8/14/1
f 8/15/1 7/13/1 9/16/1
f 9/17/1 7/13/1 10/18/1
f 9/17/1 10/19/1 11/20/1
f 11/21/1 10/19/1 12/22/1
f 11/21/1 12/23/1 13/24/1
f 13/25/1 12/23/1 14/26/1
f 13/25/1 14/27/1 15/28/1
f 15/29/1 14/27/1 16/30/1
f 15/29/1 16/31/1 17/32/1
f 17/33/1 16/31/1 18/34/1
f 17/33/1 18/35/1 19/36/1
f 19/37/1 18/35/1 20/38/1
f 13/25/1 21/39/1 11/20/1
f 21/40/1 13/41/1 22/42/1
f 21/40/1 22/43/1 23/44/1
f 23/45/1 22/43/1 24/46/1
f 23/45/1 24/47/1 25/48/1
f 25/49/1 24/47/1 26/50/1
f 25/49/1 26/51/1 27/52/1
f 28/53/2 29/54/2 30/55/2
f 29/56/2 28/57/2 31/58/2
f 31/59/2 28/57/2 32/60/2
f 31/59/2 32/61/2 33/62/2
f 33/63/2 32/61/2 34/64/2
f 33/63/2 34/65/2 35/66/2
f 35/67/2 34/65/2 36/68/2
f 37/69/2 38/70/2 39/71/2
f 38/72/2 37/73/2 40/74/2
f 40/75/2 37/73/2 41/76/2
f 40/75/2 41/77/2 42/78/2
f 42/79/2 41/77/2 43/80/2
f 43/81/2 41/77/2 44/82/2
f 43/81/2 44/83/2 45/84/2
f 43/81/2 45/85/2 46/86/2
f 46/87/2 45/85/2 30/55/2
f 46/87/2 30/88/2 47/89/2
f 47/90/2 30/88/2 29/91/2
f 47/90/2 29/54/2 48/92/2
f 48/93/2 29/54/2 49/94/2
f 48/93/2 49/95/2 50/96/2
f 50/97/2 49/95/2 51/98/2
f 50/97/2 51/99/2 52/100/2
f 52/101/2 51/99/2 53/102/2
f 52/101/2 53/103/2 54/104/2
f 3/105/3 38/70/3 1/106/3
f 38/72/3 3/107/3 39/71/3
f 39/108/4 2/2/4 37/109/4
f 2/4/4 39/110/4 3/3/4
f 4/111/5 38/70/5 40/74/5
f 38/72/5 4/7/5 1/106/5
f 37/69/6 6/112/6 41/76/6
f 6/11/6 37/73/6 2/113/6
f 5/114/7 40/115/7 42/78/7
f 40/75/7 5/9/7 4/6/7
f 41/116/8 8/117/8 44/82/8
f 8/15/8 41/77/8 6/10/8
f 7/118/9 42/119/9 43/80/9
f 42/79/9 7/13/9 5/8/9
f 44/120/10 9/121/10 45/84/10
f 9/17/10 44/83/10 8/14/10
f 10/122/11 43/123/11 46/86/11
f 43/81/11 10/19/11 7/12/11
f 45/124/12 11/125/12 30/55/12
f 11/21/12 45/85/12 9/16/12
f 12/126/13 46/127/13 47/89/13
f 46/87/13 12/23/13 10/18/13
f 30/128/14 21/39/14 28/129/14
f 21/40/14 30/88/14 11/20/14
f 14/130/15 47/131/15 48/92/15
f 47/90/15 14/27/15 12/22/15
f 28/53/16 23/132/16 32/60/16
f 23/45/16 28/57/16 21/133/16
f 50/97/17 14/27/17 48/92/17
f 14/130/17 50/134/17 16/30/17
f 32/135/18 25/136/18 34/64/18
f 25/49/18 32/61/18 23/44/18
f 52/101/19 16/31/19 50/96/19
f 16/137/19 52/138/19 18/34/19
f 34/139/20 27/140/20 36/68/20
f 27/141/20 34/65/20 25/48/20
f 54/142/21 18/35/21 52/100/21
f 18/143/21 54/144/21 20/38/21
f 36/145/22 26/51/22 35/66/22
f 26/146/22 36/147/22 27/52/22
f 53/148/23 20/149/23 54/104/23
f 20/150/23 53/103/23 19/36/23
f 35/67/24 24/47/24 33/62/24
f 24/151/24 35/152/24 26/50/24
f 51/153/25 19/154/25 53/102/25
f 19/37/25 51/99/25 17/32/25
f 33/63/26 22/43/26 31/58/26
f 22/155/26 33/156/26 24/46/26
f 49/157/27 17/158/27 51/98/27
f 17/33/27 49/95/27 15/28/27
f 22/155/28 29/54/28 31/58/28
f 29/56/28 22/43/28 13/24/28
f 29/56/29 15/159/29 49/94/29
f 15/29/29 29/54/29 13/24/29
