# Blender v2.92.0 OBJ File: ''
# www.blender.org
mtllib bread.mtl
o bread.002
v -0.027579 0.025000 -0.029064
v 0.027579 0.025000 0.005243
v 0.027579 0.025000 -0.029064
v -0.027579 0.025000 0.005243
v -0.029319 0.025000 0.009250
v 0.029319 0.025000 0.009250
v -0.030000 0.025000 0.013589
v 0.030000 0.025000 0.013589
v 0.029576 0.025000 0.017962
v -0.029576 0.025000 0.017962
v 0.028077 0.025000 0.022073
v -0.028077 0.025000 0.022073
v 0.000000 0.025000 0.022968
v -0.025604 0.025000 0.025641
v -0.002679 0.025000 0.026372
v -0.022326 0.025000 0.028423
v -0.006116 0.025000 0.028939
v -0.018466 0.025000 0.030229
v -0.010075 0.025000 0.030496
v -0.014287 0.025000 0.030936
v 0.025604 0.025000 0.025641
v 0.002679 0.025000 0.026372
v 0.022326 0.025000 0.028423
v 0.006116 0.025000 0.028939
v 0.018466 0.025000 0.030229
v 0.010075 0.025000 0.030496
v 0.014287 0.025000 0.030936
v 0.025604 -0.025000 0.025641
v 0.000000 -0.025000 0.022968
v 0.028077 -0.025000 0.022073
v 0.002679 -0.025000 0.026372
v 0.022326 -0.025000 0.028423
v 0.006116 -0.025000 0.028939
v 0.018466 -0.025000 0.030229
v 0.010075 -0.025000 0.030496
v 0.014287 -0.025000 0.030936
v 0.027579 -0.025000 0.005243
v -0.027579 -0.025000 -0.029064
v 0.027579 -0.025000 -0.029064
v -0.027579 -0.025000 0.005243
v 0.029319 -0.025000 0.009250
v -0.029319 -0.025000 0.009250
v -0.030000 -0.025000 0.013589
v 0.030000 -0.025000 0.013589
v 0.029576 -0.025000 0.017962
v -0.029576 -0.025000 0.017962
v -0.028077 -0.025000 0.022073
v -0.025604 -0.025000 0.025641
v -0.002679 -0.025000 0.026372
v -0.022326 -0.025000 0.028423
v -0.006116 -0.025000 0.028939
v -0.018466 -0.025000 0.030229
v -0.010075 -0.025000 0.030496
v -0.014287 -0.025000 0.030936
vt 0.000000 0.015150
vt 0.214419 0.360317
vt 0.000000 0.360317
vt 0.214419 0.015150
vt 0.239462 0.004262
vt 0.239463 0.371205
vt 0.266581 0.000000
vt 0.266581 0.375467
vt 0.293913 0.372813
vt 0.293912 0.002653
vt 0.319606 0.363433
vt 0.319606 0.012034
vt 0.325200 0.187733
vt 0.341906 0.027509
vt 0.346475 0.170969
vt 0.359294 0.048022
vt 0.362519 0.149461
vt 0.370581 0.072177
vt 0.372250 0.124686
vt 0.375000 0.098328
vt 0.341906 0.347957
vt 0.346475 0.204498
vt 0.359294 0.327444
vt 0.362519 0.226006
vt 0.370581 0.303289
vt 0.372250 0.250780
vt 0.375000 0.277138
vt 0.341906 0.402976
vt 0.325200 0.563200
vt 0.319606 0.387500
vt 0.346475 0.546435
vt 0.359294 0.423489
vt 0.362519 0.524927
vt 0.370581 0.447644
vt 0.372250 0.500153
vt 0.375000 0.473795
vt 0.214419 0.390617
vt 0.000000 0.735783
vt 0.000000 0.390617
vt 0.214419 0.735783
vt 0.239462 0.379728
vt 0.239462 0.746672
vt 0.266581 0.750933
vt 0.266581 0.375467
vt 0.293912 0.378120
vt 0.293913 0.748280
vt 0.319606 0.738900
vt 0.341906 0.723424
vt 0.346475 0.579965
vt 0.359294 0.702911
vt 0.362519 0.601473
vt 0.370581 0.678756
vt 0.372250 0.626247
vt 0.375000 0.652605
vt 0.375000 0.000000
vt 0.687500 0.345166
vt 0.375000 0.345167
vt 0.687500 0.000000
vt 0.687500 0.345167
vt 1.000000 0.559792
vt 0.687500 0.559792
vt 1.000000 0.345167
vt 0.687500 0.472485
vt 0.375000 0.687111
vt 0.375000 0.472485
vt 0.687500 0.687111
vt 1.000000 0.585117
vt 0.687500 0.585117
vt 0.687500 0.447160
vt 0.375000 0.447160
vt 1.000000 0.612363
vt 0.687500 0.612363
vt 0.687500 0.419915
vt 0.375000 0.419915
vt 1.000000 0.639658
vt 0.687500 0.639658
vt 0.687500 0.392620
vt 0.375000 0.392620
vt 1.000000 0.665155
vt 0.687500 0.665155
vt 0.687500 0.367123
vt 0.375000 0.367123
vt 1.000000 0.687111
vt 0.687500 0.687111
vt 0.687500 0.345167
vt 0.375000 0.345167
vt 0.687500 0.345167
vt 0.709167 0.032278
vt 0.709167 0.345167
vt 0.687500 0.032278
vt 0.849951 0.032278
vt 0.830745 0.345167
vt 0.830745 0.032278
vt 0.849951 0.345167
vt 0.734030 0.032278
vt 0.734030 0.345167
vt 0.873217 0.032278
vt 0.873217 0.345167
vt 0.760396 0.032278
vt 0.760396 0.345167
vt 0.898957 0.032278
vt 0.898957 0.345167
vt 0.786460 0.032278
vt 0.786460 0.345167
vt 0.925411 0.032278
vt 0.925411 0.345167
vt 0.810453 0.032278
vt 0.810453 0.345167
vt 0.950781 0.032278
vt 0.950781 0.345167
vt 0.830745 0.032278
vt 0.830745 0.345167
vt 0.973344 0.032278
vt 0.973344 0.345167
vt 0.973344 0.032278
vt 0.994218 0.345167
vt 0.973344 0.345167
vt 0.994218 0.032278
vt 0.375000 1.000000
vt 0.395874 0.687111
vt 0.395874 1.000000
vt 0.375000 0.687111
vn 0.0000 1.0000 0.0000
vn 0.0000 -1.0000 -0.0000
vn 0.0000 0.0000 -1.0000
vn 1.0000 0.0000 0.0000
vn -1.0000 0.0000 0.0000
vn 0.9173 0.0000 -0.3983
vn -0.9173 0.0000 -0.3983
vn 0.9879 0.0000 -0.1551
vn -0.9879 0.0000 -0.1551
vn 0.9953 0.0000 0.0965
vn -0.9953 0.0000 0.0965
vn 0.9395 0.0000 0.3426
vn -0.9395 0.0000 0.3426
vn 0.8219 0.0000 0.5697
vn -0.8219 0.0000 0.5697
vn 0.6471 0.0000 0.7624
vn -0.6471 0.0000 0.7624
vn 0.4238 0.0000 0.9058
vn -0.4238 0.0000 0.9058
vn 0.1668 0.0000 0.9860
vn -0.1668 0.0000 0.9860
vn -0.1039 0.0000 0.9946
vn 0.1039 0.0000 0.9946
vn -0.3660 0.0000 0.9306
vn 0.3660 0.0000 0.9306
vn -0.5984 0.0000 0.8012
vn 0.5984 0.0000 0.8012
vn -0.7858 0.0000 0.6185
vn 0.7858 0.0000 0.6185
usemtl Material.002
s 1
f 1/1/1 2/2/1 3/3/1
f 2/2/1 1/1/1 4/4/1
f 2/2/1 4/4/1 5/5/1
f 2/2/1 5/5/1 6/6/1
f 6/6/1 5/5/1 7/7/1
f 6/6/1 7/7/1 8/8/1
f 8/8/1 7/7/1 9/9/1
f 9/9/1 7/7/1 10/10/1
f 9/9/1 10/10/1 11/11/1
f 11/11/1 10/10/1 12/12/1
f 11/11/1 12/12/1 13/13/1
f 13/13/1 12/12/1 14/14/1
f 13/13/1 14/14/1 15/15/1
f 15/15/1 14/14/1 16/16/1
f 15/15/1 16/16/1 17/17/1
f 17/17/1 16/16/1 18/18/1
f 17/17/1 18/18/1 19/19/1
f 19/19/1 18/18/1 20/20/1
f 13/13/1 21/21/1 11/11/1
f 21/21/1 13/13/1 22/22/1
f 21/21/1 22/22/1 23/23/1
f 23/23/1 22/22/1 24/24/1
f 23/23/1 24/24/1 25/25/1
f 25/25/1 24/24/1 26/26/1
f 25/25/1 26/26/1 27/27/1
f 28/28/2 29/29/2 30/30/2
f 29/29/2 28/28/2 31/31/2
f 31/31/2 28/28/2 32/32/2
f 31/31/2 32/32/2 33/33/2
f 33/33/2 32/32/2 34/34/2
f 33/33/2 34/34/2 35/35/2
f 35/35/2 34/34/2 36/36/2
f 37/37/2 38/38/2 39/39/2
f 38/38/2 37/37/2 40/40/2
f 40/40/2 37/37/2 41/41/2
f 40/40/2 41/41/2 42/42/2
f 42/42/2 41/41/2 43/43/2
f 43/43/2 41/41/2 44/44/2
f 43/43/2 44/44/2 45/45/2
f 43/43/2 45/45/2 46/46/2
f 46/46/2 45/45/2 30/30/2
f 46/46/2 30/30/2 47/47/2
f 47/47/2 30/30/2 29/29/2
f 47/47/2 29/29/2 48/48/2
f 48/48/2 29/29/2 49/49/2
f 48/48/2 49/49/2 50/50/2
f 50/50/2 49/49/2 51/51/2
f 50/50/2 51/51/2 52/52/2
f 52/52/2 51/51/2 53/53/2
f 52/52/2 53/53/2 54/54/2
f 3/55/3 38/56/3 1/57/3
f 38/56/3 3/55/3 39/58/3
f 39/59/4 2/60/4 37/61/4
f 2/60/4 39/59/4 3/62/4
f 4/63/5 38/64/5 40/65/5
f 38/64/5 4/63/5 1/66/5
f 37/61/6 6/67/6 41/68/6
f 6/67/6 37/61/6 2/60/6
f 5/69/7 40/65/7 42/70/7
f 40/65/7 5/69/7 4/63/7
f 41/68/8 8/71/8 44/72/8
f 8/71/8 41/68/8 6/67/8
f 7/73/9 42/70/9 43/74/9
f 42/70/9 7/73/9 5/69/9
f 44/72/10 9/75/10 45/76/10
f 9/75/10 44/72/10 8/71/10
f 10/77/11 43/74/11 46/78/11
f 43/74/11 10/77/11 7/73/11
f 45/76/12 11/79/12 30/80/12
f 11/79/12 45/76/12 9/75/12
f 12/81/13 46/78/13 47/82/13
f 46/78/13 12/81/13 10/77/13
f 30/80/14 21/83/14 28/84/14
f 21/83/14 30/80/14 11/79/14
f 14/85/15 47/82/15 48/86/15
f 47/82/15 14/85/15 12/81/15
f 28/87/16 23/88/16 32/89/16
f 23/88/16 28/87/16 21/90/16
f 50/91/17 14/92/17 48/93/17
f 14/92/17 50/91/17 16/94/17
f 32/89/18 25/95/18 34/96/18
f 25/95/18 32/89/18 23/88/18
f 52/97/19 16/94/19 50/91/19
f 16/94/19 52/97/19 18/98/19
f 34/96/20 27/99/20 36/100/20
f 27/99/20 34/96/20 25/95/20
f 54/101/21 18/98/21 52/97/21
f 18/98/21 54/101/21 20/102/21
f 36/100/22 26/103/22 35/104/22
f 26/103/22 36/100/22 27/99/22
f 53/105/23 20/102/23 54/101/23
f 20/102/23 53/105/23 19/106/23
f 35/104/24 24/107/24 33/108/24
f 24/107/24 35/104/24 26/103/24
f 51/109/25 19/106/25 53/105/25
f 19/106/25 51/109/25 17/110/25
f 33/108/26 22/111/26 31/112/26
f 22/111/26 33/108/26 24/107/26
f 49/113/27 17/110/27 51/109/27
f 17/110/27 49/113/27 15/114/27
f 22/115/28 29/116/28 31/117/28
f 29/116/28 22/115/28 13/118/28
f 29/119/29 15/120/29 49/121/29
f 15/120/29 29/119/29 13/122/29
