# Blender v2.91.0 OBJ File: ''
# www.blender.org
mtllib cereal.mtl
o Cereal_Cereal.001
v 0.050000 -0.014996 0.074651
v 0.048426 -0.014996 -0.074962
v 0.050000 -0.014996 -0.074962
v -0.047682 -0.014996 -0.074962
v -0.050000 -0.014996 -0.074962
v -0.050000 -0.014996 0.074651
v 0.050000 -0.014996 0.075038
v -0.050000 -0.014996 0.075038
v -0.046358 -0.002364 -0.074962
v -0.047682 -0.013417 -0.074962
v -0.048179 -0.002364 -0.074962
v -0.047040 -0.012909 -0.074962
v -0.050000 -0.000553 -0.074962
v 0.048862 -0.002364 -0.074962
v 0.047724 -0.002364 -0.074962
v 0.050000 -0.001232 -0.074962
v 0.048510 -0.012108 0.074651
v 0.048510 -0.012108 0.075038
v -0.048767 -0.012425 0.075038
v -0.048767 0.001786 0.075038
v -0.047966 0.003496 0.075038
v -0.046712 0.004741 0.075038
v -0.013539 0.001274 0.075038
v -0.017016 0.004741 0.075038
v -0.010045 0.004741 0.075038
v 0.013292 0.001274 0.075038
v 0.009763 0.004741 0.075038
v 0.016735 0.004741 0.075038
v 0.046140 0.004741 0.075038
v 0.047382 0.003454 0.075038
v 0.048130 0.001702 0.075038
v -0.048767 -0.012425 0.074651
v 0.048248 -0.002582 0.074651
v 0.048248 -0.002582 0.074845
v 0.048130 0.001702 0.074845
v 0.047382 0.003454 0.074845
v 0.046140 0.004741 0.074845
v 0.016735 0.004741 0.074845
v 0.013292 0.001274 0.074845
v 0.009763 0.004741 0.074845
v -0.010045 0.004741 0.074845
v -0.013539 0.001274 0.074845
v -0.017016 0.004741 0.074845
v -0.046712 0.004741 0.074845
v -0.047966 0.003496 0.074845
v -0.048767 0.001786 0.074651
v -0.047966 0.003496 0.074651
v 0.050000 0.015004 0.074651
v 0.050000 0.015004 -0.074962
v -0.050000 0.015004 0.074651
v -0.050000 0.015004 -0.074962
v -0.050000 0.015004 0.074845
v 0.050000 0.015004 0.074845
v 0.048779 -0.000680 0.074651
v 0.048779 0.012741 0.074651
v 0.048779 0.012741 0.074845
v 0.048779 -0.000680 0.074845
v -0.049014 0.012608 0.074651
v -0.049014 0.012608 0.074845
vt 0.000000 0.000000
vt 1.000000 0.000000
vt 1.000000 1.000000
vt 0.000000 0.000000
vt 1.000000 0.000000
vt 1.000000 1.000000
vt 0.000000 0.000000
vt 1.000000 1.000000
vt 0.000000 0.000000
vt 1.000000 1.000000
vt 0.000000 0.000000
vt 1.000000 1.000000
vt 1.000000 0.000000
vt 1.000000 1.000000
vt 0.000000 0.000000
vt 1.000000 0.000000
vt 1.000000 1.000000
vt 0.000000 0.000000
vt 1.000000 0.000000
vt 1.000000 1.000000
vt 0.000000 0.000000
vt 1.000000 0.000000
vt 1.000000 1.000000
vt 1.000000 0.000000
vt 1.000000 1.000000
vt 0.000000 0.000000
vt 1.000000 1.000000
vt 1.000000 0.000000
vt 0.000000 0.000000
vt 1.000000 1.000000
vt 0.000000 0.000000
vt 1.000000 1.000000
vt 0.000000 0.000000
vt 1.000000 0.000000
vt 1.000000 1.000000
vt 1.000000 0.000000
vt 0.000000 0.000000
vt 1.000000 1.000000
vt 0.000000 0.000000
vt 1.000000 1.000000
vt 0.000000 0.000000
vt 1.000000 1.000000
vt 0.000000 0.000000
vt 1.000000 1.000000
vt 1.000000 0.000000
vt 1.000000 1.000000
vt 0.000000 0.000000
vt 1.000000 1.000000
vt 0.000000 0.000000
vt 1.000000 1.000000
vt 1.000000 0.000000
vt 1.000000 1.000000
vt 0.000000 0.000000
vt 1.000000 1.000000
vt 0.000000 0.000000
vt 1.000000 0.000000
vt 1.000000 1.000000
vt 0.000000 0.000000
vt 1.000000 1.000000
vt 0.000000 0.000000
vt 1.000000 1.000000
vt 1.000000 0.000000
vt 1.000000 1.000000
vt 0.000000 0.000000
vt 1.000000 1.000000
vt 0.000000 0.000000
vt 1.000000 0.000000
vt 1.000000 1.000000
vt 1.000000 0.000000
vt 0.000000 0.000000
vt 1.000000 1.000000
vt 0.000000 0.000000
vt 1.000000 0.000000
vt 1.000000 0.000000
vt 0.000000 0.000000
vt 1.000000 0.000000
vt 1.000000 1.000000
vt 1.000000 0.000000
vt 1.000000 1.000000
vt 1.000000 0.000000
vt 1.000000 0.000000
vt 0.000000 0.000000
vt 0.000000 0.000000
vt 1.000000 1.000000
vt 1.000000 0.000000
vt 1.000000 0.000000
vt 1.000000 1.000000
vt 0.000000 0.000000
vt 1.000000 0.000000
vt 1.000000 0.000000
vt 1.000000 1.000000
vt 0.000000 0.000000
vt 0.000000 0.000000
vt 1.000000 0.000000
vt 1.000000 1.000000
vt 1.000000 0.000000
vt 1.000000 0.000000
vt 1.000000 1.000000
vt 0.000000 0.000000
vt 1.000000 0.000000
vt 1.000000 0.000000
vt 0.000000 0.000000
vt 1.000000 1.000000
vt 0.000000 0.000000
vt 1.000000 0.000000
vt 1.000000 1.000000
vt 0.000000 0.000000
vt 1.000000 0.000000
vt 1.000000 1.000000
vt 0.000000 0.000000
vt 1.000000 0.000000
vt 1.000000 0.000000
vt 1.000000 1.000000
vt 1.000000 1.000000
vt 0.000000 0.000000
vt 1.000000 0.000000
vt 1.000000 1.000000
vt 0.000000 0.000000
vt 1.000000 1.000000
vt 0.000000 0.000000
vt 1.000000 0.000000
vt 0.000000 0.000000
vt 1.000000 1.000000
vt 0.000000 0.000000
vt 1.000000 0.000000
vt 1.000000 0.000000
vt 0.000000 0.000000
vt 1.000000 1.000000
vt 1.000000 1.000000
vt 1.000000 0.000000
vt 1.000000 1.000000
vt 1.000000 0.000000
vt 1.000000 1.000000
vt 0.000000 0.000000
vt 1.000000 1.000000
vt 0.000000 0.000000
vt 1.000000 0.000000
vt 0.000000 0.000000
vt 1.000000 0.000000
vt 1.000000 0.000000
vt 1.000000 1.000000
vt 0.000000 0.000000
vt 1.000000 0.000000
vt 1.000000 1.000000
vt 0.000000 0.000000
vt 1.000000 1.000000
vt 1.000000 1.000000
vt 0.000000 0.000000
vt 0.000000 0.000000
vt 1.000000 0.000000
vt 1.000000 1.000000
vt 1.000000 1.000000
vt 0.000000 0.000000
vt 1.000000 0.000000
vt 0.000000 0.000000
vt 1.000000 0.000000
vt 1.000000 1.000000
vt 0.000000 0.000000
vt 1.000000 1.000000
vt 1.000000 0.000000
vt 1.000000 1.000000
vt 1.000000 0.000000
vt 1.000000 0.000000
vn 0.0000 -1.0000 0.0000
vn 0.0000 0.0000 -1.0000
vn 0.8886 0.4586 0.0000
vn 0.0000 0.0000 1.0000
vn -0.9017 0.4324 0.0000
vn -0.9017 0.4323 0.0000
vn 0.9996 0.0275 0.0000
vn 0.9196 0.3928 0.0000
vn 0.9196 0.3929 0.0000
vn 0.7197 0.6943 0.0000
vn 0.0000 1.0000 0.0000
vn -0.7096 0.7046 0.0000
vn -0.7097 0.7045 0.0000
vn 0.7008 0.7133 0.0000
vn 0.7008 0.7134 0.0000
vn -0.7044 0.7098 0.0000
vn 0.7061 0.7081 0.0000
vn -0.9057 0.4239 0.0000
vn -1.0000 0.0000 0.0000
vn 1.0000 0.0000 0.0000
vn 0.8800 -0.4750 0.0000
vn 0.9632 -0.2687 0.0000
vn -0.9248 -0.3804 0.0000
vn -0.9935 -0.1142 0.0000
usemtl Material.003
s off
f 1/1/1 2/2/1 3/3/1
f 2/4/1 1/5/1 4/6/1
f 4/7/1 1/5/1 5/8/1
f 5/9/1 1/5/1 6/10/1
f 6/11/1 1/5/1 7/12/1
f 6/11/1 7/13/1 8/14/1
f 9/15/2 10/16/2 11/17/2
f 10/18/2 9/19/2 12/20/2
f 11/21/2 5/22/2 13/23/2
f 5/9/2 11/24/2 4/6/2
f 4/7/2 11/24/2 10/25/2
f 14/26/2 2/2/2 15/27/2
f 2/4/2 14/28/2 3/3/2
f 3/29/2 14/28/2 16/30/2
f 17/31/3 7/13/3 1/32/3
f 7/33/3 17/34/3 18/35/3
f 7/33/4 19/36/4 8/14/4
f 19/37/4 7/13/4 20/38/4
f 20/39/4 7/13/4 21/40/4
f 21/41/4 7/13/4 22/42/4
f 22/43/4 7/13/4 23/44/4
f 22/43/4 23/45/4 24/46/4
f 23/47/4 7/13/4 25/48/4
f 25/49/4 7/13/4 26/50/4
f 25/49/4 26/51/4 27/52/4
f 26/53/4 7/13/4 28/54/4
f 28/55/4 7/13/4 18/35/4
f 28/55/4 18/56/4 29/57/4
f 29/58/4 18/56/4 30/59/4
f 30/60/4 18/56/4 31/61/4
f 19/37/5 6/62/5 8/14/5
f 6/11/6 19/36/6 32/63/6
f 33/64/7 18/56/7 17/65/7
f 18/66/7 33/67/7 34/68/7
f 18/66/7 34/69/7 31/61/7
f 31/70/7 34/69/7 35/71/7
f 36/72/8 31/73/8 35/71/8
f 31/70/9 36/74/9 30/59/9
f 37/75/10 30/76/10 36/77/10
f 30/60/10 37/78/10 29/57/10
f 28/55/11 37/78/11 38/79/11
f 37/75/11 28/80/11 29/57/11
f 28/55/12 39/81/12 26/50/12
f 39/82/13 28/80/13 38/79/13
f 27/83/14 39/81/14 40/84/14
f 39/82/15 27/85/15 26/50/15
f 25/49/11 40/86/11 41/87/11
f 40/88/11 25/89/11 27/52/11
f 23/47/16 41/90/16 42/91/16
f 41/92/16 23/45/16 25/48/16
f 43/93/17 23/45/17 42/91/17
f 23/47/17 43/94/17 24/46/17
f 22/43/11 43/94/11 44/95/11
f 43/93/11 22/96/11 24/46/11
f 21/41/16 44/97/16 45/98/16
f 44/99/16 21/100/16 22/42/16
f 21/41/18 46/101/18 20/38/18
f 46/102/18 21/100/18 47/103/18
f 47/104/1 21/100/1 45/98/1
f 20/39/19 32/105/19 19/106/19
f 32/107/19 20/108/19 46/109/19
f 12/110/2 4/111/2 10/25/2
f 4/7/2 12/112/2 2/113/2
f 2/4/2 12/112/2 9/114/2
f 2/4/2 9/19/2 15/27/2
f 16/115/20 1/5/20 3/3/20
f 1/1/20 16/116/20 48/117/20
f 48/118/20 16/116/20 49/119/20
f 50/120/19 5/22/19 6/10/19
f 5/9/19 50/121/19 13/23/19
f 13/122/19 50/121/19 51/123/19
f 49/124/2 13/125/2 51/123/2
f 13/122/2 49/126/2 11/17/2
f 11/21/2 49/126/2 9/114/2
f 9/15/2 49/126/2 15/27/2
f 15/127/2 49/126/2 14/128/2
f 14/26/2 49/126/2 16/30/2
f 50/120/11 49/126/11 51/123/11
f 49/124/11 50/121/11 48/117/11
f 48/118/11 50/121/11 52/129/11
f 48/118/11 52/130/11 53/131/11
f 17/31/4 54/132/4 33/133/4
f 54/134/4 17/34/4 1/32/4
f 54/134/4 1/5/4 55/135/4
f 55/136/4 1/5/4 48/117/4
f 48/118/21 56/137/21 55/135/21
f 56/138/21 48/139/21 53/131/21
f 55/136/20 57/140/20 54/141/20
f 57/142/20 55/143/20 56/144/20
f 54/134/22 34/69/22 33/133/22
f 34/145/22 54/132/22 57/146/22
f 32/107/4 50/121/4 6/10/4
f 50/120/4 32/105/4 58/147/4
f 58/148/4 32/105/4 46/109/4
f 58/148/4 46/101/4 47/103/4
f 52/149/23 58/150/23 59/151/23
f 58/148/23 52/130/23 50/152/23
f 59/153/4 53/154/4 52/129/4
f 53/155/4 59/156/4 44/95/4
f 44/99/4 59/156/4 45/98/4
f 53/155/4 44/97/4 43/157/4
f 53/155/4 43/94/4 41/87/4
f 41/92/4 43/94/4 42/91/4
f 53/155/4 41/90/4 40/84/4
f 53/155/4 40/86/4 38/79/4
f 38/158/4 40/86/4 39/159/4
f 53/155/4 38/160/4 56/144/4
f 56/138/4 38/160/4 37/161/4
f 56/138/4 37/78/4 36/77/4
f 56/138/4 36/74/4 35/71/4
f 56/138/4 35/162/4 34/68/4
f 56/138/4 34/69/4 57/146/4
f 59/153/24 47/163/24 45/98/24
f 47/104/24 59/156/24 58/147/24
