# Blender v2.82 (sub 7) OBJ File: 'test.blend'
# www.blender.org
mtllib handles.mtl
o Handles
v 0.099691 -0.059719 -0.099691
v 0.099691 -0.099691 -0.099691
v -0.099691 -0.099691 -0.099691
v -0.099691 -0.059719 -0.099691
v 0.099691 -0.059719 0.099691
v -0.099691 -0.059719 0.099691
v -0.099691 -0.099691 0.099691
v 0.099691 -0.099691 0.099691
v 0.099691 -0.059719 0.085075
v 0.099691 -0.099691 0.085075
v -0.099691 -0.099691 0.085075
v -0.099691 0.059910 0.085075
v -0.099691 0.059910 0.099691
v -0.099691 0.099691 0.099691
v -0.099691 0.099691 0.085075
v 0.099691 0.099691 0.085075
v 0.099691 0.099691 -0.099691
v -0.099691 0.099691 -0.099691
v 0.099691 0.099691 0.099691
v -0.099691 0.059910 -0.099691
v 0.099691 0.059910 0.085075
v 0.099691 0.059910 -0.099691
v 0.099691 0.040428 0.085075
v 0.099691 0.020034 -0.099691
v 0.099691 -0.044654 0.085075
v 0.099691 -0.019843 -0.099691
v -0.099691 -0.059719 0.085075
v -0.099691 -0.044654 0.085075
v -0.099691 -0.019843 -0.099691
v -0.099691 0.040428 0.085075
v -0.099691 0.020034 -0.099691
v -0.099691 -0.044654 0.099691
v -0.099691 0.040428 0.099691
v 0.099691 0.059910 0.099691
v 0.099691 0.040428 0.099691
v 0.099691 -0.044654 0.099691
v -0.159583 -0.044654 0.099691
v -0.159583 -0.059719 0.099691
v 0.159583 0.040428 0.085075
v 0.159583 0.040428 0.099691
v 0.159583 0.059910 0.099691
v 0.159583 0.059910 0.085075
v -0.159583 0.040428 0.085075
v -0.159583 0.040428 0.099691
v -0.159583 0.059910 0.099691
v -0.159583 0.059910 0.085075
v -0.159583 -0.059719 0.085075
v -0.159583 -0.044654 0.085075
v 0.159583 -0.044654 0.085075
v 0.159583 -0.044654 0.099691
v 0.159583 -0.059719 0.099691
v 0.159583 -0.059719 0.085075
v -0.141356 0.040428 0.099691
v -0.141356 0.059910 0.099691
v 0.143364 -0.044654 0.099691
v 0.143364 -0.059719 0.099691
v -0.141356 0.059910 0.085075
v -0.141356 0.040428 0.085075
v 0.143364 -0.059719 0.085075
v 0.143364 -0.044654 0.085075
v -0.141356 -0.044689 0.085075
v -0.159583 -0.044689 0.085075
v 0.159583 0.040495 0.085075
v 0.159583 0.040495 0.099691
v 0.143364 0.040495 0.085075
v 0.143364 0.040495 0.099691
v -0.141356 -0.044689 0.099691
v -0.159583 -0.044689 0.099691
vt 0.597882 0.003268
vt 0.663399 0.003268
vt 0.663399 0.330065
vt 0.597883 0.330065
vt 0.068784 0.103397
vt 0.068784 0.430195
vt 0.003268 0.430195
vt 0.003268 0.103397
vt 0.360558 0.735451
vt 0.336601 0.735451
vt 0.336601 0.669935
vt 0.360558 0.669935
vt 0.003268 0.560816
vt 0.003268 0.536860
vt 0.330065 0.536860
vt 0.330065 0.560816
vt 0.360558 0.401804
vt 0.336601 0.401804
vt 0.336601 0.336601
vt 0.360558 0.336601
vt 0.669935 0.306109
vt 0.669935 0.003268
vt 0.996732 0.003268
vt 0.996732 0.306109
vt 0.669935 0.330065
vt 0.996732 0.330065
vt 0.663399 0.401804
vt 0.663399 0.336601
vt 0.003268 0.863657
vt 0.330065 0.863657
vt 0.663399 0.735451
vt 0.663399 0.669935
vt 0.663399 0.996732
vt 0.360558 0.996732
vt 0.360558 0.931529
vt 0.663399 0.931529
vt 0.360558 0.899597
vt 0.663399 0.866170
vt 0.360558 0.760143
vt 0.663399 0.800810
vt 0.663399 0.663399
vt 0.360558 0.663399
vt 0.360558 0.597883
vt 0.663399 0.597883
vt 0.360558 0.573190
vt 0.663399 0.532524
vt 0.360558 0.433736
vt 0.663399 0.467163
vt 0.336601 0.663399
vt 0.336601 0.597883
vt 0.336601 0.573190
vt 0.336601 0.433736
vt 0.336601 0.996732
vt 0.336601 0.931529
vt 0.336601 0.899597
vt 0.336601 0.760143
vt 0.330065 0.103397
vt 0.330065 0.430195
vt 0.264862 0.430195
vt 0.264862 0.103397
vt 0.232930 0.430195
vt 0.232930 0.103397
vt 0.093476 0.430195
vt 0.093476 0.103397
vt 0.336601 0.003268
vt 0.401804 0.003268
vt 0.401804 0.330065
vt 0.336601 0.330065
vt 0.467163 0.003268
vt 0.467163 0.330065
vt 0.532524 0.003268
vt 0.532524 0.330065
vt 0.093477 0.528361
vt 0.068784 0.528361
vt 0.748619 0.774894
vt 0.724663 0.774894
vt 0.724663 0.676728
vt 0.748619 0.676728
vt 0.839863 0.474707
vt 0.815907 0.474707
vt 0.815907 0.376541
vt 0.839863 0.376540
vt 0.698918 0.774894
vt 0.666986 0.774894
vt 0.666986 0.676728
vt 0.698918 0.676728
vt 0.790992 0.366980
vt 0.767036 0.366980
vt 0.767036 0.335048
vt 0.790992 0.335048
vt 0.797490 0.800815
vt 0.773534 0.800815
vt 0.773534 0.776123
vt 0.797490 0.776123
vt 0.690863 0.808127
vt 0.666906 0.808127
vt 0.666906 0.776195
vt 0.690863 0.776195
vt 0.767036 0.649411
vt 0.790992 0.649411
vt 0.790992 0.674104
vt 0.767036 0.674104
vt 0.232930 0.498486
vt 0.264862 0.498486
vt 0.264862 0.528361
vt 0.232930 0.528361
vt 0.093476 0.031815
vt 0.068784 0.031815
vt 0.068784 0.005231
vt 0.093476 0.005231
vt 0.699484 0.676728
vt 0.724177 0.676728
vt 0.724177 0.774894
vt 0.699484 0.774894
vt 0.697523 0.335048
vt 0.697523 0.366980
vt 0.667648 0.366980
vt 0.667648 0.335048
vt 0.694232 0.509848
vt 0.694232 0.534540
vt 0.667648 0.534540
vt 0.667648 0.509848
vt 0.815907 0.476670
vt 0.839863 0.476670
vt 0.839863 0.574836
vt 0.815907 0.574836
vt 0.697523 0.506491
vt 0.667648 0.506491
vt 0.767036 0.509848
vt 0.790992 0.509848
vt 0.773534 0.676728
vt 0.797490 0.676728
vt 0.797491 0.774894
vt 0.773534 0.774894
vt 0.773055 0.706603
vt 0.749099 0.706603
vt 0.749099 0.676728
vt 0.773055 0.676728
vt 0.821926 0.703312
vt 0.797970 0.703312
vt 0.797970 0.676728
vt 0.821926 0.676728
vt 0.232930 0.005231
vt 0.264862 0.005231
vt 0.821926 0.774894
vt 0.797970 0.774894
vt 0.839863 0.649791
vt 0.815907 0.649791
vt 0.815907 0.578209
vt 0.839863 0.578209
vt 0.765814 0.509848
vt 0.765814 0.534540
vt 0.773055 0.802725
vt 0.749099 0.802725
vt 0.749099 0.776142
vt 0.773055 0.776142
vt 0.694232 0.674104
vt 0.667648 0.674104
vt 0.815427 0.474293
vt 0.791471 0.474293
vt 0.791471 0.334729
vt 0.815427 0.334729
vt 0.233040 0.005231
vt 0.233040 0.031815
vt 0.773055 0.774894
vt 0.749099 0.774894
vt 0.699477 0.776559
vt 0.723433 0.776559
vt 0.723433 0.844850
vt 0.699477 0.844850
vt 0.765814 0.335048
vt 0.765814 0.366980
vt 0.724663 0.776175
vt 0.748619 0.776174
vt 0.748619 0.806049
vt 0.724663 0.806050
vt 0.790992 0.506491
vt 0.767036 0.506491
vt 0.815427 0.649112
vt 0.791471 0.649112
vt 0.791471 0.509600
vt 0.815427 0.509600
vt 0.093419 0.528361
vt 0.093419 0.498486
vn 0.0000 0.0000 -1.0000
vn 0.0000 -0.0000 1.0000
vn 1.0000 0.0000 0.0000
vn 0.0000 -1.0000 -0.0000
vn -1.0000 -0.0000 0.0000
vn 0.0000 1.0000 0.0000
usemtl Default_OBJ
s 1
f 1/1/1 2/2/1 3/3/1
f 3/3/1 4/4/1 1/1/1
f 5/5/2 6/6/2 7/7/2
f 7/7/2 8/8/2 5/5/2
f 9/9/3 5/10/3 8/11/3
f 8/11/3 10/12/3 9/9/3
f 10/13/4 8/14/4 7/15/4
f 7/15/4 11/16/4 10/13/4
f 12/17/5 13/18/5 14/19/5
f 14/19/5 15/20/5 12/17/5
f 16/21/6 17/22/6 18/23/6
f 18/23/6 15/24/6 16/21/6
f 19/25/6 16/21/6 15/24/6
f 15/24/6 14/26/6 19/25/6
f 20/27/5 12/17/5 15/20/5
f 15/20/5 18/28/5 20/27/5
f 2/29/4 10/13/4 11/16/4
f 11/16/4 3/30/4 2/29/4
f 1/31/3 9/9/3 10/12/3
f 10/12/3 2/32/3 1/31/3
f 17/33/3 16/34/3 21/35/3
f 21/35/3 22/36/3 17/33/3
f 22/36/3 21/35/3 23/37/3
f 23/37/3 24/38/3 22/36/3
f 24/38/3 23/37/3 25/39/3
f 25/39/3 26/40/3 24/38/3
f 26/40/3 25/39/3 9/9/3
f 9/9/3 1/31/3 26/40/3
f 3/41/5 11/42/5 27/43/5
f 27/43/5 4/44/5 3/41/5
f 4/44/5 27/43/5 28/45/5
f 28/45/5 29/46/5 4/44/5
f 29/46/5 28/45/5 30/47/5
f 30/47/5 31/48/5 29/46/5
f 31/48/5 30/47/5 12/17/5
f 12/17/5 20/27/5 31/48/5
f 11/42/5 7/49/5 6/50/5
f 6/50/5 27/43/5 11/42/5
f 28/45/5 32/51/5 33/52/5
f 33/52/5 30/47/5 28/45/5
f 16/34/3 19/53/3 34/54/3
f 34/54/3 21/35/3 16/34/3
f 23/37/3 35/55/3 36/56/3
f 36/56/3 25/39/3 23/37/3
f 19/57/2 14/58/2 13/59/2
f 13/59/2 34/60/2 19/57/2
f 34/60/2 13/59/2 33/61/2
f 33/61/2 35/62/2 34/60/2
f 35/62/2 33/61/2 32/63/2
f 32/63/2 36/64/2 35/62/2
f 36/64/2 32/63/2 6/6/2
f 6/6/2 5/5/2 36/64/2
f 17/65/1 22/66/1 20/67/1
f 20/67/1 18/68/1 17/65/1
f 22/66/1 24/69/1 31/70/1
f 31/70/1 20/67/1 22/66/1
f 24/69/1 26/71/1 29/72/1
f 29/72/1 31/70/1 24/69/1
f 26/71/1 1/1/1 4/4/1
f 4/4/1 29/72/1 26/71/1
f 6/6/2 32/63/2 37/73/2
f 37/73/2 38/74/2 6/6/2
f 35/75/4 23/76/4 39/77/4
f 39/77/4 40/78/4 35/75/4
f 21/79/6 34/80/6 41/81/6
f 41/81/6 42/82/6 21/79/6
f 23/83/1 21/84/1 42/85/1
f 42/85/1 39/86/1 23/83/1
f 43/87/5 44/88/5 45/89/5
f 45/89/5 46/90/5 43/87/5
f 47/91/5 38/92/5 37/93/5
f 37/93/5 48/94/5 47/91/5
f 42/95/3 41/96/3 40/97/3
f 40/97/3 39/98/3 42/95/3
f 49/99/3 50/100/3 51/101/3
f 51/101/3 52/102/3 49/99/3
f 53/103/2 54/104/2 45/105/2
f 45/105/2 44/106/2 53/103/2
f 55/107/2 56/108/2 51/109/2
f 51/109/2 50/110/2 55/107/2
f 28/111/1 27/112/1 47/113/1
f 47/113/1 48/114/1 28/111/1
f 57/115/1 58/116/1 43/117/1
f 43/117/1 46/118/1 57/115/1
f 59/119/1 60/120/1 49/121/1
f 49/121/1 52/122/1 59/119/1
f 27/123/4 6/124/4 38/125/4
f 38/125/4 47/126/4 27/123/4
f 43/117/1 58/116/1 61/127/1
f 61/127/1 62/128/1 43/117/1
f 50/100/3 49/99/3 63/129/3
f 63/129/3 64/130/3 50/100/3
f 32/131/6 28/132/6 48/133/6
f 48/133/6 37/134/6 32/131/6
f 54/135/6 57/136/6 46/137/6
f 46/137/6 45/138/6 54/135/6
f 56/139/4 59/140/4 52/141/4
f 52/141/4 51/142/4 56/139/4
f 34/60/2 35/62/2 40/143/2
f 40/143/2 41/144/2 34/60/2
f 5/145/4 9/146/4 59/140/4
f 59/140/4 56/139/4 5/145/4
f 25/147/6 36/148/6 55/149/6
f 55/149/6 60/150/6 25/147/6
f 9/151/1 25/152/1 60/120/1
f 60/120/1 59/119/1 9/151/1
f 36/64/2 5/5/2 56/108/2
f 56/108/2 55/107/2 36/64/2
f 65/153/6 66/154/6 64/155/6
f 64/155/6 63/156/6 65/153/6
f 49/121/1 60/120/1 65/157/1
f 65/157/1 63/158/1 49/121/1
f 60/159/5 55/160/5 66/161/5
f 66/161/5 65/162/5 60/159/5
f 55/107/2 50/110/2 64/163/2
f 64/163/2 66/164/2 55/107/2
f 13/165/6 12/166/6 57/136/6
f 57/136/6 54/135/6 13/165/6
f 30/167/4 33/168/4 53/169/4
f 53/169/4 58/170/4 30/167/4
f 12/171/1 30/172/1 58/116/1
f 58/116/1 57/115/1 12/171/1
f 33/61/2 13/59/2 54/104/2
f 54/104/2 53/103/2 33/61/2
f 61/173/4 67/174/4 68/175/4
f 68/175/4 62/176/4 61/173/4
f 44/88/5 43/87/5 62/177/5
f 62/177/5 68/178/5 44/88/5
f 58/179/3 53/180/3 67/181/3
f 67/181/3 61/182/3 58/179/3
f 53/103/2 44/106/2 68/183/2
f 68/183/2 67/184/2 53/103/2
