# Blender v2.91.0 OBJ File: ''
# www.blender.org
mtllib milk.mtl
o Milk
v 0.021805 -0.022067 0.054922
v 0.000847 0.022067 0.082031
v 0.000847 -0.022067 0.082031
v 0.021805 0.022067 0.054922
v 0.022067 -0.022067 0.054245
v 0.022067 0.022067 0.054245
v -0.021805 0.022067 0.054922
v -0.000000 0.022067 0.054582
v -0.022067 0.022067 0.054245
v -0.020807 0.022067 0.055185
v -0.020615 0.022067 0.054922
v -0.000847 0.022067 0.082031
v -0.000600 0.022067 0.081077
v -0.000147 0.022067 0.081658
v -0.000079 0.022067 0.082254
v -0.000743 0.022067 0.082089
v -0.000789 0.022067 0.082234
v -0.000789 0.022067 0.082286
v -0.000079 0.022067 0.089756
v -0.000789 0.022067 0.089756
v -0.000000 0.022067 0.055185
v 0.020615 0.022067 0.054922
v 0.020807 0.022067 0.055185
v 0.000600 0.022067 0.081077
v 0.000147 0.022067 0.081658
v 0.000079 0.022067 0.082254
v 0.000743 0.022067 0.082089
v 0.000789 0.022067 0.082234
v 0.000789 0.022067 0.082286
v 0.000079 0.022067 0.089756
v 0.000789 0.022067 0.089756
v 0.000743 -0.022067 0.082089
v 0.020807 -0.022067 0.055185
v 0.020615 -0.022067 0.054922
v 0.000600 -0.022067 0.081077
v 0.000147 -0.022067 0.081658
v 0.000079 -0.022067 0.082254
v 0.000789 -0.022067 0.082234
v 0.000789 -0.022067 0.082286
v 0.000079 -0.022067 0.089756
v 0.000789 -0.022067 0.089756
v -0.000000 -0.022067 0.055185
v -0.020615 -0.022067 0.054922
v 0.020503 -0.022067 -0.067796
v -0.022067 -0.022067 -0.065719
v -0.020503 -0.022067 -0.067796
v 0.022067 -0.022067 -0.065719
v -0.022067 -0.022067 0.054245
v -0.021805 -0.022067 0.054922
v -0.020807 -0.022067 0.055185
v -0.000847 -0.022067 0.082031
v -0.000600 -0.022067 0.081077
v -0.000147 -0.022067 0.081658
v -0.000079 -0.022067 0.082254
v -0.000743 -0.022067 0.082089
v -0.000789 -0.022067 0.082234
v -0.000789 -0.022067 0.082286
v -0.000079 -0.022067 0.089756
v -0.000789 -0.022067 0.089756
v 0.022067 -0.020749 -0.067796
v 0.022067 0.020749 -0.067796
v 0.022067 0.022067 -0.065719
v -0.000000 0.011713 0.082254
v -0.000000 0.021988 0.082254
v -0.000000 0.021988 0.089756
v 0.000079 0.021977 0.090512
v 0.000789 0.021977 0.090512
v 0.000789 -0.021977 0.090512
v 0.000789 -0.021715 0.091195
v 0.000789 -0.021307 0.091737
v 0.000789 -0.020792 0.092085
v 0.000789 -0.020222 0.092204
v 0.000789 0.020222 0.092204
v 0.000789 0.020792 0.092085
v 0.000789 0.021307 0.091737
v 0.000789 0.021715 0.091195
v -0.020503 0.022067 -0.067796
v 0.020503 0.022067 -0.067796
v -0.022067 0.022067 -0.065719
v -0.000789 -0.021977 0.090512
v -0.000789 -0.021715 0.091195
v -0.000789 -0.021307 0.091737
v -0.000789 -0.020792 0.092085
v -0.000789 -0.020222 0.092204
v -0.000789 0.020222 0.092204
v -0.000789 0.020792 0.092085
v -0.000789 0.021307 0.091737
v -0.000789 0.021715 0.091195
v -0.000789 0.021977 0.090512
v -0.000079 0.021977 0.090512
v -0.022067 -0.020749 -0.067796
v -0.022067 0.020749 -0.067796
v 0.000079 -0.021977 0.090512
v -0.000000 -0.021988 0.082254
v -0.000000 -0.021988 0.089756
v -0.000000 -0.011713 0.082254
v -0.000079 -0.021977 0.090512
v -0.000000 0.021898 0.090512
v 0.000079 0.021715 0.091195
v 0.000079 0.021307 0.091737
v 0.000079 0.020792 0.092085
v 0.000079 0.020222 0.092204
v 0.000079 -0.020222 0.092204
v -0.000000 0.020144 0.092204
v -0.000000 -0.020144 0.092204
v 0.000079 -0.020792 0.092085
v 0.000079 -0.021307 0.091737
v 0.000079 -0.021715 0.091195
v -0.000079 -0.021715 0.091195
v -0.000079 -0.021307 0.091737
v -0.000079 -0.020792 0.092085
v -0.000079 -0.020222 0.092204
v -0.000079 0.020222 0.092204
v -0.000079 0.020792 0.092085
v -0.000079 0.021307 0.091737
v -0.000079 0.021715 0.091195
v -0.000000 -0.021898 0.090512
v -0.000000 0.021636 0.091195
v -0.000000 0.021228 0.091737
v -0.000000 0.020714 0.092085
v -0.000000 -0.020714 0.092085
v -0.000000 -0.021228 0.091737
v -0.000000 -0.021636 0.091195
vt 0.000000 0.000000
vt 1.000000 0.000000
vt 1.000000 1.000000
vt 0.000000 0.000000
vt 1.000000 0.000000
vt 1.000000 1.000000
vt 0.000000 0.000000
vt 1.000000 0.000000
vt 1.000000 1.000000
vt 0.000000 0.000000
vt 1.000000 0.000000
vt 1.000000 1.000000
vt 0.000000 0.000000
vt 1.000000 0.000000
vt 1.000000 1.000000
vt 1.000000 0.000000
vt 1.000000 1.000000
vt 0.000000 0.000000
vt 1.000000 0.000000
vt 1.000000 1.000000
vt 1.000000 0.000000
vt 1.000000 1.000000
vt 0.000000 0.000000
vt 1.000000 1.000000
vt 0.000000 0.000000
vt 1.000000 1.000000
vt 0.000000 0.000000
vt 1.000000 1.000000
vt 1.000000 0.000000
vt 1.000000 1.000000
vt 1.000000 0.000000
vt 1.000000 1.000000
vt 1.000000 0.000000
vt 1.000000 1.000000
vt 0.000000 0.000000
vt 1.000000 1.000000
vt 0.000000 0.000000
vt 1.000000 0.000000
vt 0.000000 0.000000
vt 1.000000 1.000000
vt 1.000000 0.000000
vt 1.000000 1.000000
vt 1.000000 1.000000
vt 1.000000 0.000000
vt 1.000000 1.000000
vt 1.000000 1.000000
vt 1.000000 0.000000
vt 1.000000 1.000000
vt 1.000000 0.000000
vt 1.000000 1.000000
vt 1.000000 0.000000
vt 1.000000 1.000000
vt 0.000000 0.000000
vt 1.000000 1.000000
vt 0.000000 0.000000
vt 1.000000 1.000000
vt 0.000000 0.000000
vt 1.000000 1.000000
vt 1.000000 0.000000
vt 1.000000 1.000000
vt 0.000000 0.000000
vt 1.000000 0.000000
vt 1.000000 1.000000
vt 1.000000 0.000000
vt 1.000000 0.000000
vt 1.000000 1.000000
vt 0.000000 0.000000
vt 1.000000 1.000000
vt 0.000000 0.000000
vt 1.000000 1.000000
vt 0.000000 0.000000
vt 1.000000 1.000000
vt 0.000000 0.000000
vt 1.000000 0.000000
vt 1.000000 1.000000
vt 1.000000 0.000000
vt 1.000000 1.000000
vt 1.000000 0.000000
vt 1.000000 1.000000
vt 0.000000 0.000000
vt 1.000000 1.000000
vt 0.000000 0.000000
vt 1.000000 0.000000
vt 0.000000 0.000000
vt 1.000000 0.000000
vt 1.000000 1.000000
vt 0.000000 0.000000
vt 1.000000 0.000000
vt 1.000000 1.000000
vt 1.000000 0.000000
vt 1.000000 1.000000
vt 0.000000 0.000000
vt 1.000000 1.000000
vt 1.000000 1.000000
vt 0.000000 0.000000
vt 1.000000 0.000000
vt 1.000000 1.000000
vt 1.000000 1.000000
vt 1.000000 0.000000
vt 1.000000 1.000000
vt 0.000000 0.000000
vt 1.000000 1.000000
vt 1.000000 0.000000
vt 1.000000 1.000000
vt 1.000000 0.000000
vt 1.000000 1.000000
vt 1.000000 0.000000
vt 1.000000 1.000000
vt 0.000000 0.000000
vt 1.000000 1.000000
vt 0.000000 0.000000
vt 1.000000 1.000000
vt 0.000000 0.000000
vt 1.000000 1.000000
vt 1.000000 0.000000
vt 1.000000 1.000000
vt 0.000000 0.000000
vt 1.000000 0.000000
vt 0.000000 0.000000
vt 1.000000 1.000000
vt 1.000000 0.000000
vt 1.000000 1.000000
vt 0.000000 0.000000
vt 1.000000 0.000000
vt 1.000000 1.000000
vt 0.000000 0.000000
vt 1.000000 1.000000
vt 0.000000 0.000000
vt 0.000000 0.000000
vt 1.000000 1.000000
vt 0.000000 0.000000
vt 1.000000 0.000000
vt 0.000000 0.000000
vt 1.000000 0.000000
vt 0.000000 0.000000
vt 1.000000 0.000000
vt 1.000000 1.000000
vt 0.000000 0.000000
vt 1.000000 0.000000
vt 0.000000 0.000000
vt 1.000000 1.000000
vt 0.000000 0.000000
vt 1.000000 1.000000
vt 0.000000 0.000000
vt 1.000000 1.000000
vt 0.000000 0.000000
vt 1.000000 1.000000
vt 0.000000 0.000000
vt 1.000000 1.000000
vt 0.000000 0.000000
vt 1.000000 1.000000
vt 0.000000 0.000000
vt 1.000000 1.000000
vt 0.000000 0.000000
vt 1.000000 1.000000
vt 0.000000 0.000000
vt 1.000000 1.000000
vt 0.000000 0.000000
vt 0.000000 0.000000
vt 0.000000 0.000000
vt 0.000000 0.000000
vt 1.000000 0.000000
vt 1.000000 1.000000
vt 0.000000 0.000000
vt 1.000000 0.000000
vt 1.000000 1.000000
vt 1.000000 0.000000
vt 1.000000 0.000000
vt 1.000000 1.000000
vt 1.000000 0.000000
vt 1.000000 0.000000
vt 0.000000 0.000000
vt 1.000000 0.000000
vt 0.000000 0.000000
vt 1.000000 0.000000
vt 0.000000 0.000000
vt 1.000000 0.000000
vt 0.000000 0.000000
vt 1.000000 1.000000
vt 1.000000 0.000000
vt 1.000000 1.000000
vt 1.000000 0.000000
vt 1.000000 1.000000
vt 1.000000 0.000000
vt 1.000000 1.000000
vt 1.000000 0.000000
vt 1.000000 1.000000
vt 1.000000 0.000000
vt 1.000000 1.000000
vt 1.000000 0.000000
vt 1.000000 1.000000
vt 1.000000 0.000000
vt 1.000000 1.000000
vt 1.000000 0.000000
vt 1.000000 1.000000
vt 1.000000 0.000000
vt 1.000000 1.000000
vt 1.000000 0.000000
vt 1.000000 0.000000
vt 0.000000 0.000000
vt 1.000000 0.000000
vt 1.000000 1.000000
vt 1.000000 0.000000
vt 0.000000 0.000000
vt 1.000000 1.000000
vt 1.000000 0.000000
vt 1.000000 0.000000
vt 1.000000 1.000000
vt 1.000000 0.000000
vt 1.000000 0.000000
vt 1.000000 1.000000
vt 0.000000 0.000000
vt 1.000000 1.000000
vt 0.000000 0.000000
vt 0.000000 0.000000
vt 1.000000 0.000000
vt 1.000000 1.000000
vt 1.000000 1.000000
vt 0.000000 0.000000
vt 1.000000 0.000000
vt 1.000000 0.000000
vt 1.000000 1.000000
vt 1.000000 0.000000
vt 0.000000 0.000000
vt 1.000000 1.000000
vt 1.000000 0.000000
vt 1.000000 1.000000
vt 0.000000 0.000000
vt 1.000000 1.000000
vt 1.000000 0.000000
vt 1.000000 1.000000
vt 0.000000 0.000000
vt 1.000000 0.000000
vt 0.000000 0.000000
vt 0.000000 0.000000
vt 1.000000 0.000000
vt 0.000000 0.000000
vt 0.000000 0.000000
vt 1.000000 0.000000
vt 1.000000 1.000000
vt 1.000000 0.000000
vt 0.000000 0.000000
vt 1.000000 0.000000
vt 0.000000 0.000000
vt 1.000000 0.000000
vt 1.000000 1.000000
vt 1.000000 0.000000
vt 1.000000 1.000000
vt 1.000000 0.000000
vt 1.000000 0.000000
vt 1.000000 1.000000
vt 0.000000 0.000000
vt 1.000000 0.000000
vt 0.000000 0.000000
vt 1.000000 0.000000
vt 1.000000 1.000000
vt 0.000000 0.000000
vt 1.000000 0.000000
vt 0.000000 0.000000
vt 1.000000 0.000000
vt 1.000000 1.000000
vt 1.000000 0.000000
vt 1.000000 0.000000
vt 1.000000 1.000000
vt 0.000000 0.000000
vt 1.000000 0.000000
vt 1.000000 0.000000
vt 1.000000 1.000000
vt 0.000000 0.000000
vt 1.000000 0.000000
vt 1.000000 0.000000
vt 0.000000 0.000000
vt 0.000000 0.000000
vt 0.000000 0.000000
vt 1.000000 1.000000
vt 0.000000 0.000000
vt 1.000000 0.000000
vt 0.000000 0.000000
vt 1.000000 1.000000
vt 0.000000 0.000000
vt 0.000000 0.000000
vt 1.000000 0.000000
vt 1.000000 1.000000
vt 0.000000 0.000000
vt 0.000000 0.000000
vt 1.000000 0.000000
vt 1.000000 1.000000
vt 0.000000 0.000000
vt 0.000000 0.000000
vt 1.000000 0.000000
vt 1.000000 1.000000
vt 0.000000 0.000000
vt 1.000000 0.000000
vt 1.000000 1.000000
vt 0.000000 0.000000
vt 1.000000 0.000000
vt 1.000000 1.000000
vt 0.000000 0.000000
vt 0.000000 0.000000
vt 1.000000 0.000000
vt 1.000000 1.000000
vt 1.000000 0.000000
vt 0.000000 0.000000
vt 0.000000 0.000000
vt 1.000000 0.000000
vt 0.000000 0.000000
vt 1.000000 1.000000
vt 1.000000 1.000000
vt 0.000000 0.000000
vt 1.000000 0.000000
vt 1.000000 1.000000
vt 1.000000 1.000000
vt 1.000000 0.000000
vt 1.000000 1.000000
vt 0.000000 0.000000
vt 1.000000 0.000000
vt 1.000000 1.000000
vt 0.000000 0.000000
vt 1.000000 1.000000
vt 1.000000 0.000000
vt 0.000000 0.000000
vt 1.000000 0.000000
vt 1.000000 1.000000
vt 0.000000 0.000000
vt 1.000000 1.000000
vt 1.000000 0.000000
vt 1.000000 1.000000
vt 0.000000 0.000000
vt 0.000000 0.000000
vt 1.000000 0.000000
vt 1.000000 1.000000
vt 0.000000 0.000000
vt 1.000000 0.000000
vt 1.000000 0.000000
vt 0.000000 0.000000
vt 1.000000 1.000000
vt 1.000000 0.000000
vt 1.000000 0.000000
vt 0.000000 0.000000
vn 0.7912 0.0000 0.6116
vn 0.9325 0.0000 0.3611
vn 0.0000 1.0000 0.0000
vn 0.0000 0.0000 -1.0000
vn 0.0000 0.0000 1.0000
vn 0.4881 0.0000 0.8728
vn 0.0000 -1.0000 0.0000
vn 0.0000 -1.0000 0.0001
vn 1.0000 0.0000 0.0000
vn -0.0046 0.9340 0.3573
vn 0.0046 0.9340 0.3573
vn -0.2439 0.9535 0.1773
vn -0.7881 -0.0242 -0.6151
vn 0.0000 1.0000 -0.0068
vn -0.7048 0.7048 -0.0805
vn -0.7071 0.7071 0.0000
vn 0.0000 0.9930 0.1185
vn 0.9532 0.0000 -0.3024
vn -0.9325 0.0000 0.3611
vn -0.7912 0.0000 0.6116
vn -0.4881 0.0000 0.8728
vn -0.9532 0.0000 -0.3024
vn -1.0000 0.0000 0.0000
vn 0.7071 0.7071 0.0000
vn 0.7048 0.7048 -0.0805
vn 0.7881 -0.0242 -0.6150
vn 0.7881 -0.0242 -0.6151
vn 0.2439 0.9535 0.1773
vn -0.5798 -0.6879 -0.4367
vn 0.5798 -0.6879 -0.4367
vn 0.0000 -0.9930 0.1185
vn -0.7071 -0.7071 0.0000
vn -0.7048 -0.7048 -0.0805
vn -0.7881 0.0242 -0.6151
vn -0.2439 -0.9535 0.1773
vn 0.0046 -0.9340 0.3573
vn -0.0046 -0.9340 0.3573
vn 0.2439 -0.9535 0.1773
vn 0.7881 0.0242 -0.6150
vn 0.7881 0.0242 -0.6151
vn 0.7048 -0.7048 -0.0805
vn 0.7071 -0.7071 0.0000
vn 0.5798 0.6879 -0.4367
vn -0.9710 0.0000 -0.2391
vn -0.7046 0.7046 0.0841
vn 0.0000 0.9336 0.3583
vn 0.0000 0.7988 0.6016
vn 0.0000 0.5602 0.8284
vn 0.0000 0.2058 0.9786
vn -0.0001 0.0000 1.0000
vn 0.0000 -0.2058 0.9786
vn 0.0000 -0.5602 0.8284
vn 0.0000 -0.7988 0.6016
vn 0.0000 -0.9336 0.3583
vn -0.5798 0.6879 -0.4367
vn 0.0001 0.0000 1.0000
vn 0.7046 0.7046 0.0841
vn 0.9710 0.0000 -0.2391
vn -0.7046 -0.7046 0.0841
vn 0.7046 -0.7046 0.0841
vn -0.6824 0.6825 0.2619
vn -0.6824 0.6824 0.2619
vn -0.6242 0.6241 0.4700
vn -0.6241 0.6242 0.4700
vn -0.4887 0.4887 0.7227
vn -0.2017 0.2016 0.9585
vn -0.2015 0.2016 0.9585
vn -0.2015 -0.2016 0.9585
vn -0.2017 -0.2016 0.9585
vn -0.4886 -0.4888 0.7227
vn -0.4887 -0.4887 0.7227
vn -0.6241 -0.6241 0.4700
vn -0.6241 -0.6242 0.4700
vn -0.6824 -0.6824 0.2619
vn 0.6824 -0.6824 0.2619
vn 0.6241 -0.6242 0.4700
vn 0.6242 -0.6241 0.4700
vn 0.4887 -0.4887 0.7227
vn 0.4886 -0.4888 0.7227
vn 0.2017 -0.2016 0.9585
vn 0.2016 -0.2016 0.9585
vn 0.2017 0.2016 0.9585
vn 0.2016 0.2016 0.9585
vn 0.4888 0.4887 0.7226
vn 0.4886 0.4888 0.7227
vn 0.6241 0.6241 0.4700
vn 0.6824 0.6824 0.2619
usemtl Material.005
s off
f 1/1/1 2/2/1 3/3/1
f 2/4/1 1/5/1 4/6/1
f 5/7/2 4/8/2 1/9/2
f 4/10/2 5/11/2 6/12/2
f 7/13/3 8/14/3 9/15/3
f 7/13/3 10/16/3 11/17/3
f 10/18/3 7/19/3 12/20/3
f 10/18/3 12/21/3 13/22/3
f 13/23/3 12/21/3 14/24/3
f 14/25/3 12/21/3 15/26/3
f 15/27/3 12/21/3 16/28/3
f 15/27/3 16/29/3 17/30/3
f 15/27/3 17/31/3 18/32/3
f 15/27/3 18/33/3 19/34/3
f 19/35/3 18/33/3 20/36/3
f 21/37/3 22/38/3 11/17/3
f 8/39/3 4/8/3 6/12/3
f 4/10/3 8/14/3 7/40/3
f 4/10/4 7/19/4 11/17/4
f 4/10/5 11/41/5 22/42/5
f 4/10/3 22/38/3 23/43/3
f 4/10/3 23/44/3 2/45/3
f 2/4/3 23/44/3 24/46/3
f 2/4/3 24/47/3 25/48/3
f 2/4/3 25/49/3 26/50/3
f 2/4/3 26/51/3 27/52/3
f 27/53/3 26/51/3 28/54/3
f 28/55/3 26/51/3 29/56/3
f 29/57/3 26/51/3 30/58/3
f 29/57/3 30/59/3 31/60/3
f 3/61/6 27/62/6 32/63/6
f 27/53/6 3/64/6 2/45/6
f 1/1/7 33/65/7 34/66/7
f 33/67/7 1/5/7 3/3/7
f 33/67/7 3/64/7 35/68/7
f 35/69/7 3/64/7 36/70/7
f 36/71/7 3/64/7 37/72/7
f 37/73/7 3/64/7 32/63/7
f 37/73/7 32/74/7 38/75/7
f 37/73/7 38/76/7 39/77/7
f 37/73/7 39/78/7 40/79/7
f 40/80/7 39/78/7 41/81/7
f 42/82/7 43/83/7 34/66/7
f 44/84/7 45/85/7 46/86/7
f 45/87/7 44/88/7 47/89/7
f 45/87/7 47/90/7 48/91/7
f 48/92/7 47/90/7 5/93/7
f 48/92/7 5/11/7 1/9/7
f 48/92/7 1/5/7 49/94/7
f 49/95/5 1/5/5 34/66/5
f 49/95/4 34/96/4 43/97/4
f 49/95/7 43/83/7 50/98/7
f 49/95/7 50/99/7 51/100/7
f 51/101/7 50/99/7 52/102/7
f 51/101/7 52/103/7 53/104/7
f 51/101/7 53/105/7 54/106/7
f 51/101/8 54/107/8 55/108/8
f 55/109/7 54/107/7 56/110/7
f 56/111/7 54/107/7 57/112/7
f 57/113/7 54/107/7 58/114/7
f 57/113/7 58/115/7 59/116/7
f 60/117/9 5/11/9 47/89/9
f 5/7/9 60/118/9 6/12/9
f 6/119/9 60/118/9 61/120/9
f 6/119/9 61/121/9 62/122/9
f 63/123/10 21/124/10 11/17/10
f 63/123/11 22/38/11 21/125/11
f 63/123/12 23/44/12 22/42/12
f 25/126/13 23/44/13 63/127/13
f 23/128/14 25/49/14 24/46/14
f 26/129/15 25/49/15 64/130/15
f 65/131/16 26/51/16 64/130/16
f 26/129/16 65/132/16 30/58/16
f 66/133/17 31/134/17 30/58/17
f 31/135/17 66/136/17 67/137/17
f 28/55/9 39/78/9 38/75/9
f 39/138/9 28/139/9 41/81/9
f 41/140/9 28/139/9 68/141/9
f 68/142/9 28/139/9 69/143/9
f 69/144/9 28/139/9 70/145/9
f 70/146/9 28/139/9 71/147/9
f 71/148/9 28/139/9 72/149/9
f 72/150/9 28/139/9 73/151/9
f 73/152/9 28/139/9 74/153/9
f 74/154/9 28/139/9 75/155/9
f 75/156/9 28/139/9 76/157/9
f 76/158/9 28/139/9 67/137/9
f 67/159/9 28/139/9 31/60/9
f 31/135/3 28/139/3 29/56/3
f 27/53/18 38/76/18 32/63/18
f 38/160/18 27/62/18 28/54/18
f 77/161/3 62/162/3 78/163/3
f 62/164/3 77/165/3 79/166/3
f 62/164/3 79/167/3 6/12/3
f 6/119/3 79/167/3 9/15/3
f 6/119/3 9/168/3 8/169/3
f 7/13/19 48/170/19 49/94/19
f 48/92/19 7/19/19 9/15/19
f 51/101/20 7/19/20 49/94/20
f 7/13/20 51/171/20 12/20/20
f 55/109/21 12/21/21 51/100/21
f 12/172/21 55/173/21 16/28/21
f 56/111/22 16/29/22 55/108/22
f 16/174/22 56/175/22 17/30/22
f 59/176/7 56/175/7 57/112/7
f 56/111/23 59/177/23 17/30/23
f 17/178/23 59/177/23 80/179/23
f 17/178/23 80/180/23 81/181/23
f 17/178/23 81/182/23 82/183/23
f 17/178/23 82/184/23 83/185/23
f 17/178/23 83/186/23 84/187/23
f 17/178/23 84/188/23 85/189/23
f 17/178/23 85/190/23 86/191/23
f 17/178/23 86/192/23 87/193/23
f 17/178/23 87/194/23 88/195/23
f 17/178/23 88/196/23 89/197/23
f 17/178/23 89/198/23 20/36/23
f 17/178/5 20/199/5 18/32/5
f 89/200/17 19/201/17 20/36/17
f 19/35/17 89/198/17 90/202/17
f 19/35/24 64/203/24 15/26/24
f 64/204/24 19/201/24 65/205/24
f 64/204/25 14/206/25 15/26/25
f 13/23/26 63/207/26 10/208/26
f 63/123/27 13/209/27 14/24/27
f 63/123/28 11/41/28 10/208/28
f 48/92/23 91/210/23 45/211/23
f 91/212/23 48/170/23 9/15/23
f 91/212/23 9/168/23 92/213/23
f 92/214/23 9/168/23 79/166/23
f 45/87/29 91/210/29 46/86/29
f 77/161/4 91/210/4 92/213/4
f 91/212/4 77/165/4 46/86/4
f 46/215/4 77/165/4 78/163/4
f 46/215/4 78/216/4 44/217/4
f 44/84/4 78/216/4 61/120/4
f 44/84/4 61/121/4 60/218/4
f 47/219/30 44/88/30 60/218/30
f 68/142/31 40/220/31 41/81/31
f 40/80/31 68/221/31 93/222/31
f 40/80/32 94/223/32 37/72/32
f 94/224/32 40/220/32 95/225/32
f 94/224/33 36/226/33 37/72/33
f 33/67/34 36/226/34 96/227/34
f 36/71/7 33/65/7 35/68/7
f 96/228/35 34/96/35 33/229/35
f 96/228/36 42/230/36 34/66/36
f 96/228/37 43/83/37 42/231/37
f 96/228/38 50/99/38 43/97/38
f 96/228/39 52/103/39 50/98/39
f 52/232/40 96/233/40 53/104/40
f 94/224/41 54/107/41 53/104/41
f 94/224/42 58/115/42 54/106/42
f 58/234/42 94/223/42 95/225/42
f 97/235/31 59/177/31 58/114/31
f 59/176/31 97/236/31 80/179/31
f 62/164/43 61/121/43 78/163/43
f 25/126/44 63/207/44 64/130/44
f 98/237/45 30/59/45 65/205/45
f 99/238/46 67/239/46 66/240/46
f 67/159/46 99/241/46 76/157/46
f 30/242/45 98/243/45 66/240/45
f 100/244/47 76/245/47 99/246/47
f 76/158/47 100/247/47 75/155/47
f 74/154/48 100/247/48 101/248/48
f 100/244/48 74/249/48 75/155/48
f 73/152/49 101/250/49 102/251/49
f 101/252/49 73/253/49 74/153/49
f 103/254/5 104/255/5 105/256/5
f 104/257/50 103/258/50 102/251/50
f 102/259/5 103/258/5 72/149/5
f 102/259/5 72/260/5 73/151/5
f 71/148/51 103/258/51 106/261/51
f 103/254/51 71/262/51 72/149/51
f 70/146/52 106/263/52 107/264/52
f 106/265/52 70/266/52 71/147/52
f 69/144/53 107/267/53 108/268/53
f 107/269/53 69/270/53 70/145/53
f 69/144/54 93/271/54 68/141/54
f 93/272/54 69/270/54 108/268/54
f 79/273/55 77/165/55 92/213/55
f 109/274/54 80/180/54 97/275/54
f 80/276/54 109/277/54 81/181/54
f 109/274/53 82/184/53 81/181/53
f 82/278/53 109/277/53 110/279/53
f 110/280/52 83/186/52 82/183/52
f 83/281/52 110/282/52 111/283/52
f 111/284/51 84/188/51 83/185/51
f 84/285/51 111/286/51 112/287/51
f 112/288/5 85/190/5 84/187/5
f 85/289/5 112/290/5 113/291/5
f 113/292/56 112/290/56 105/256/56
f 113/292/5 105/293/5 104/294/5
f 113/292/49 86/192/49 85/189/49
f 86/295/49 113/296/49 114/297/49
f 114/298/48 87/194/48 86/191/48
f 87/299/48 114/300/48 115/301/48
f 87/299/47 116/302/47 88/195/47
f 116/303/47 87/194/47 115/301/47
f 88/304/46 90/305/46 89/197/46
f 90/306/46 88/196/46 116/307/46
f 19/35/57 90/305/57 98/308/57
f 98/237/57 65/132/57 19/34/57
f 14/25/58 64/203/58 63/127/58
f 117/309/59 40/220/59 93/222/59
f 117/309/59 95/310/59 40/79/59
f 96/228/44 36/226/44 94/311/44
f 96/228/58 94/223/58 53/104/58
f 117/309/60 58/115/60 95/225/60
f 117/309/60 97/236/60 58/114/60
f 99/238/61 98/243/61 118/312/61
f 98/237/62 99/241/62 66/240/62
f 100/244/63 118/313/63 119/314/63
f 118/315/64 100/247/64 99/246/64
f 101/252/65 119/316/65 120/317/65
f 119/318/65 101/250/65 100/319/65
f 102/259/66 120/320/66 104/294/66
f 120/321/67 102/322/67 101/248/67
f 106/265/68 105/293/68 121/323/68
f 105/324/69 106/263/69 103/325/69
f 107/269/70 121/326/70 122/327/70
f 121/328/71 107/267/71 106/261/71
f 108/329/72 122/330/72 123/331/72
f 122/332/73 108/333/73 107/264/73
f 108/329/74 117/334/74 93/222/74
f 117/309/74 108/333/74 123/331/74
f 117/309/75 109/277/75 97/275/75
f 109/274/75 117/334/75 123/331/75
f 123/335/76 110/282/76 109/336/76
f 110/280/77 123/337/77 122/327/77
f 122/332/78 111/286/78 110/279/78
f 111/284/79 122/330/79 121/323/79
f 121/328/80 112/290/80 111/283/80
f 112/288/81 121/326/81 105/256/81
f 104/257/82 114/300/82 113/291/82
f 114/298/83 104/255/83 120/317/83
f 120/321/84 115/338/84 114/297/84
f 115/339/85 120/320/85 119/314/85
f 118/315/86 115/338/86 119/314/86
f 115/339/86 118/313/86 116/307/86
f 98/237/87 116/302/87 118/312/87
f 116/303/87 98/243/87 90/202/87
