mtllib Shell002_002_001_002_001.mtl
usemtl Shell002_002_001_002_001
v 0.07632800 0.07967200 -0.00098600
v 0.07632800 0.07967200 -0.00098600
v 0.07632800 0.07967200 -0.00098600
v 0.07899800 0.07911000 -0.00085900
v 0.07899800 0.07911000 -0.00085900
v 0.07899800 0.07911000 -0.00085900
v 0.07899800 0.07911000 -0.00085900
v 0.07899800 0.07911000 -0.00085900
v 0.07899800 0.07911000 -0.00085900
v 0.07899800 0.07911000 -0.00085900
v 0.07872500 0.07892000 -0.00100100
v 0.07872500 0.07892000 -0.00100100
v 0.07639500 0.08001300 -0.00077700
v 0.07639500 0.08001300 -0.00077700
v 0.07639500 0.08001300 -0.00077700
v 0.07639500 0.08001300 -0.00077700
v 0.07639500 0.08001300 -0.00077700
v 0.07639500 0.08001300 -0.00077700
v 0.07781900 0.07978700 -0.00049700
v 0.07781900 0.07978700 -0.00049700
v 0.07781900 0.07978700 -0.00049700
v 0.07781900 0.07978700 -0.00049700
v 0.07781900 0.07978700 -0.00049700
v 0.07907100 0.07950100 -0.00018000
v 0.07907100 0.07950100 -0.00018000
v 0.07907100 0.07950100 -0.00018000
v 0.07907100 0.07950100 -0.00018000
v 0.07907100 0.07950100 -0.00018000
v 0.07907100 0.07950100 -0.00018000
v 0.07907100 0.07950100 -0.00018000
v 0.07908400 0.07934400 -0.00059200
v 0.07908400 0.07934400 -0.00059200
v 0.07908400 0.07934400 -0.00059200
v 0.07908400 0.07934400 -0.00059200
v 0.07908400 0.07934400 -0.00059200
v 0.07656500 0.08026600 -0.00026800
v 0.07656500 0.08026600 -0.00026800
v 0.07656500 0.08026600 -0.00026800
v 0.07656500 0.08026600 -0.00026800
v 0.07656500 0.08026600 -0.00026800
v 0.07656500 0.08026600 -0.00026800
v 0.07951500 0.07898400 -0.00053500
v 0.07951500 0.07898400 -0.00053500
v 0.07951500 0.07898400 -0.00053500
v 0.07951500 0.07898400 -0.00053500
v 0.07951500 0.07898400 -0.00053500
v 0.07951500 0.07898400 -0.00053500
v 0.07951500 0.07898400 -0.00053500
v 0.07935000 0.07930300 -0.00031300
v 0.07935000 0.07930300 -0.00031300
v 0.07935000 0.07930300 -0.00031300
v 0.07935000 0.07930300 -0.00031300
v 0.07935000 0.07930300 -0.00031300
v 0.07902100 0.07938200 0.00056600
v 0.07902100 0.07938200 0.00056600
v 0.07902100 0.07938200 0.00056600
v 0.07902100 0.07938200 0.00056600
v 0.07912500 0.07916700 0.00078000
v 0.07912500 0.07916700 0.00078000
v 0.07912500 0.07916700 0.00078000
v 0.07912500 0.07916700 0.00078000
v 0.07912500 0.07916700 0.00078000
v 0.07912500 0.07916700 0.00078000
v 0.07912500 0.07916700 0.00078000
v 0.07923400 0.07942600 0.00023400
v 0.07923400 0.07942600 0.00023400
v 0.07923400 0.07942600 0.00023400
v 0.07923400 0.07942600 0.00023400
v 0.07923400 0.07942600 0.00023400
v 0.07923400 0.07942600 0.00023400
v 0.07922600 0.07877800 0.00089000
v 0.07922600 0.07877800 0.00089000
v 0.07878800 0.07890100 0.00100100
v 0.07878800 0.07890100 0.00100100
v 0.07878800 0.07890100 0.00100100
v 0.07878800 0.07890100 0.00100100
v 0.07963000 0.07905900 0.00011100
v 0.07963000 0.07905900 0.00011100
v 0.07963000 0.07905900 0.00011100
v 0.07963000 0.07905900 0.00011100
v 0.07963000 0.07905900 0.00011100
v 0.07963000 0.07905900 0.00011100
v 0.07963000 0.07905900 0.00011100
v 0.07950300 0.07870600 0.00068400
v 0.07950300 0.07870600 0.00068400
v 0.07950300 0.07870600 0.00068400
v 0.07969200 0.07864100 0.00031500
v 0.07969200 0.07864100 0.00031500
v 0.07972100 0.07863100 -0.00020500
v 0.07972100 0.07863100 -0.00020500
v 0.07972100 0.07863100 -0.00020500
v 0.07947700 0.07870200 -0.00068600
v 0.07947700 0.07870200 -0.00068600
v 0.07911500 0.07881100 -0.00093800
v 0.07911500 0.07881100 -0.00093800
v 0.07911500 0.07881100 -0.00093800
v 0.07787900 0.07947000 0.00084700
v 0.07787900 0.07947000 0.00084700
v 0.07787900 0.07947000 0.00084700
v 0.07787900 0.07947000 0.00084700
v 0.07787900 0.07947000 0.00084700
v 0.07651300 0.07990400 0.00084800
v 0.07651300 0.07990400 0.00084800
v 0.07651300 0.07990400 0.00084800
v 0.07651300 0.07990400 0.00084800
v 0.07651300 0.07990400 0.00084800
v 0.07651300 0.07990400 0.00084800
v 0.07651300 0.07990400 0.00084800
v 0.07787900 0.07977900 0.00046900
v 0.07787900 0.07977900 0.00046900
v 0.07787900 0.07977900 0.00046900
v 0.07787900 0.07977900 0.00046900
v 0.07787900 0.07977900 0.00046900
v 0.07787900 0.07977900 0.00046900
v 0.07787900 0.07977900 0.00046900
v 0.07652300 0.08028200 0.00016900
v 0.07652300 0.08028200 0.00016900
v 0.07652300 0.08028200 0.00016900
v 0.07652300 0.08028200 0.00016900
v 0.07652300 0.08028200 0.00016900
v 0.07652300 0.08028200 0.00016900
v 0.07640200 0.07964800 0.00099500
v 0.07640200 0.07964800 0.00099500
v 0.07670600 0.08011500 0.00053400
v 0.07670600 0.08011500 0.00053400
v 0.07670600 0.08011500 0.00053400
v 0.07670600 0.08011500 0.00053400
v 0.07620400 0.08010500 0.00062400
v 0.07620400 0.08010500 0.00062400
v 0.07620400 0.08010500 0.00062400
v 0.07620400 0.08010500 0.00062400
v 0.07620400 0.08010500 0.00062400
v 0.07620400 0.08010500 0.00062400
v 0.07605000 0.08025500 0.00012100
v 0.07605000 0.08025500 0.00012100
v 0.07605000 0.08025500 0.00012100
v 0.07605000 0.08025500 0.00012100
v 0.07605000 0.08025500 0.00012100
v 0.07605000 0.08025500 0.00012100
v 0.07605300 0.08015400 -0.00046300
v 0.07605300 0.08015400 -0.00046300
v 0.07605300 0.08015400 -0.00046300
v 0.07605300 0.08015400 -0.00046300
v 0.07605300 0.08015400 -0.00046300
v 0.07558400 0.07991800 -0.00013600
v 0.07558400 0.07991800 -0.00013600
v 0.07558400 0.07991800 -0.00013600
v 0.07562900 0.07990300 0.00035100
v 0.07562900 0.07990300 0.00035100
v 0.07562900 0.07990300 0.00035100
v 0.07579900 0.07984200 -0.00065800
v 0.07579900 0.07984200 -0.00065800
v 0.07579900 0.07984200 -0.00065800
v 0.07596900 0.07978800 0.00081400
v 0.07596900 0.07978800 0.00081400
v 0.07596900 0.07978800 0.00081400
vn 0.13850000 0.45790000 -0.87810000
vn 0.14530000 0.49640000 -0.85590000
vn -0.31140000 0.54000000 -0.78200000
vn 0.13850000 0.45790000 -0.87810000
vn 0.14530000 0.49640000 -0.85590000
vn 0.53720000 0.54140000 -0.64670000
vn 0.24030000 0.74880000 -0.61770000
vn 0.55420000 0.40770000 -0.72570000
vn 0.24180000 0.33430000 -0.91090000
vn 0.19640000 0.70590000 -0.68050000
vn 0.13850000 0.45790000 -0.87810000
vn 0.24180000 0.33430000 -0.91090000
vn -0.31140000 0.54000000 -0.78200000
vn -0.32600000 0.67750000 -0.65930000
vn 0.23010000 0.83900000 -0.49320000
vn -0.02980000 0.89930000 -0.43640000
vn 0.24030000 0.74880000 -0.61770000
vn 0.14530000 0.49640000 -0.85590000
vn 0.23010000 0.83900000 -0.49320000
vn 0.28680000 0.90370000 -0.31790000
vn 0.28940000 0.89700000 -0.33420000
vn 0.24030000 0.74880000 -0.61770000
vn 0.19640000 0.70590000 -0.68050000
vn 0.29200000 0.95640000 -0.00820000
vn 0.45000000 0.83860000 -0.30700000
vn 0.55560000 0.82850000 -0.06960000
vn 0.30980000 0.93590000 0.16750000
vn 0.26290000 0.96230000 0.07000000
vn 0.28680000 0.90370000 -0.31790000
vn 0.28940000 0.89700000 -0.33420000
vn 0.53720000 0.54140000 -0.64670000
vn 0.28940000 0.89700000 -0.33420000
vn 0.19640000 0.70590000 -0.68050000
vn 0.59920000 0.64240000 -0.47780000
vn 0.45000000 0.83860000 -0.30700000
vn -0.02980000 0.89930000 -0.43640000
vn -0.14770000 0.97430000 -0.16990000
vn -0.05160000 0.99780000 -0.04210000
vn 0.28680000 0.90370000 -0.31790000
vn 0.29200000 0.95640000 -0.00820000
vn 0.23010000 0.83900000 -0.49320000
vn 0.60450000 0.31020000 -0.73370000
vn 0.55420000 0.40770000 -0.72570000
vn 0.80220000 0.55940000 -0.20870000
vn 0.89220000 0.11280000 -0.43740000
vn 0.59920000 0.64240000 -0.47780000
vn 0.53720000 0.54140000 -0.64670000
vn 0.91630000 0.34470000 -0.20380000
vn 0.55560000 0.82850000 -0.06960000
vn 0.59920000 0.64240000 -0.47780000
vn 0.80220000 0.55940000 -0.20870000
vn 0.67590000 0.73660000 -0.02330000
vn 0.45000000 0.83860000 -0.30700000
vn 0.54620000 0.70890000 0.44620000
vn 0.21410000 0.73920000 0.63860000
vn 0.21080000 0.75630000 0.61930000
vn 0.28950000 0.90660000 0.30700000
vn 0.21410000 0.73920000 0.63860000
vn 0.72830000 0.49870000 0.46990000
vn 0.16690000 0.49700000 0.85160000
vn 0.54620000 0.70890000 0.44620000
vn 0.68370000 0.59650000 0.42040000
vn 0.31850000 0.33410000 0.88710000
vn 0.61530000 0.35830000 0.70210000
vn 0.26290000 0.96230000 0.07000000
vn 0.54620000 0.70890000 0.44620000
vn 0.68370000 0.59650000 0.42040000
vn 0.55560000 0.82850000 -0.06960000
vn 0.28950000 0.90660000 0.30700000
vn 0.67590000 0.73660000 -0.02330000
vn 0.61530000 0.35830000 0.70210000
vn 0.31850000 0.33410000 0.88710000
vn 0.31850000 0.33410000 0.88710000
vn 0.13790000 0.44760000 0.88350000
vn 0.16690000 0.49700000 0.85160000
vn 0.15200000 0.47710000 0.86560000
vn 0.86550000 0.31650000 0.38820000
vn 0.67590000 0.73660000 -0.02330000
vn 0.91630000 0.34470000 -0.20380000
vn 0.68370000 0.59650000 0.42040000
vn 0.72830000 0.49870000 0.46990000
vn 0.80220000 0.55940000 -0.20870000
vn 0.98410000 0.17000000 0.05180000
vn 0.86550000 0.31650000 0.38820000
vn 0.61530000 0.35830000 0.70210000
vn 0.72830000 0.49870000 0.46990000
vn 0.86550000 0.31650000 0.38820000
vn 0.98410000 0.17000000 0.05180000
vn 0.91630000 0.34470000 -0.20380000
vn 0.98410000 0.17000000 0.05180000
vn 0.89220000 0.11280000 -0.43740000
vn 0.60450000 0.31020000 -0.73370000
vn 0.89220000 0.11280000 -0.43740000
vn 0.60450000 0.31020000 -0.73370000
vn 0.24180000 0.33430000 -0.91090000
vn 0.55420000 0.40770000 -0.72570000
vn 0.16690000 0.49700000 0.85160000
vn 0.21410000 0.73920000 0.63860000
vn 0.23900000 0.75120000 0.61530000
vn 0.15200000 0.47710000 0.86560000
vn 0.21080000 0.75630000 0.61930000
vn 0.23900000 0.75120000 0.61530000
vn 0.13790000 0.44760000 0.88350000
vn 0.15200000 0.47710000 0.86560000
vn 0.24380000 0.72900000 0.63960000
vn 0.08990000 0.80030000 0.59280000
vn -0.16750000 0.54460000 0.82180000
vn -0.17620000 0.59950000 0.78080000
vn 0.30980000 0.93590000 0.16750000
vn 0.26290000 0.96230000 0.07000000
vn 0.27790000 0.91820000 0.28220000
vn 0.24380000 0.72900000 0.63960000
vn 0.28950000 0.90660000 0.30700000
vn 0.21080000 0.75630000 0.61930000
vn 0.23900000 0.75120000 0.61530000
vn 0.30980000 0.93590000 0.16750000
vn 0.29200000 0.95640000 -0.00820000
vn 0.05210000 0.91740000 0.39450000
vn -0.08470000 0.94700000 0.30990000
vn 0.27790000 0.91820000 0.28220000
vn -0.05160000 0.99780000 -0.04210000
vn -0.16750000 0.54460000 0.82180000
vn 0.13790000 0.44760000 0.88350000
vn 0.24380000 0.72900000 0.63960000
vn 0.27790000 0.91820000 0.28220000
vn 0.08990000 0.80030000 0.59280000
vn 0.05210000 0.91740000 0.39450000
vn -0.46150000 0.80110000 0.38120000
vn -0.17620000 0.59950000 0.78080000
vn -0.08470000 0.94700000 0.30990000
vn -0.49360000 0.68670000 0.53360000
vn 0.08990000 0.80030000 0.59280000
vn 0.05210000 0.91740000 0.39450000
vn -0.08470000 0.94700000 0.30990000
vn -0.61320000 0.78590000 0.08040000
vn -0.46150000 0.80110000 0.38120000
vn -0.05160000 0.99780000 -0.04210000
vn -0.14770000 0.97430000 -0.16990000
vn -0.52540000 0.83790000 -0.14780000
vn -0.02980000 0.89930000 -0.43640000
vn -0.60550000 0.71350000 -0.35250000
vn -0.32600000 0.67750000 -0.65930000
vn -0.52540000 0.83790000 -0.14780000
vn -0.14770000 0.97430000 -0.16990000
vn -0.60550000 0.71350000 -0.35250000
vn -0.52540000 0.83790000 -0.14780000
vn -0.61320000 0.78590000 0.08040000
vn -0.46150000 0.80110000 0.38120000
vn -0.61320000 0.78590000 0.08040000
vn -0.49360000 0.68670000 0.53360000
vn -0.60550000 0.71350000 -0.35250000
vn -0.31140000 0.54000000 -0.78200000
vn -0.32600000 0.67750000 -0.65930000
vn -0.49360000 0.68670000 0.53360000
vn -0.16750000 0.54460000 0.82180000
vn -0.17620000 0.59950000 0.78080000
vt 0.64342600 0.29965500
vt 0.64342600 0.29965500
vt 0.64342600 0.29965500
vt 0.64404900 0.30623200
vt 0.64404900 0.30623200
vt 0.64404900 0.30623200
vt 0.64404900 0.30623200
vt 0.64404900 0.30623200
vt 0.64404900 0.30623200
vt 0.64404900 0.30623200
vt 0.64332200 0.30574800
vt 0.64332200 0.30574800
vt 0.64442400 0.29955700
vt 0.64442400 0.29955700
vt 0.64442400 0.29955700
vt 0.64442400 0.29955700
vt 0.64442400 0.29955700
vt 0.64442400 0.29955700
vt 0.64521500 0.30307100
vt 0.59068700 0.30262000
vt 0.59068700 0.30262000
vt 0.64521500 0.30307100
vt 0.64521500 0.30307100
vt 0.58982500 0.29951800
vt 0.58982500 0.29951800
vt 0.58982500 0.29951800
vt 0.58982500 0.29951800
vt 0.58982500 0.29951800
vt 0.58982500 0.29951800
vt 0.58982500 0.29951800
vt 0.64494200 0.30629900
vt 0.59072200 0.29930900
vt 0.64494200 0.30629900
vt 0.64494200 0.30629900
vt 0.59072200 0.29930900
vt 0.64576400 0.29988100
vt 0.59035200 0.30595200
vt 0.59035200 0.30595200
vt 0.59035200 0.30595200
vt 0.59035200 0.30595200
vt 0.64576400 0.29988100
vt 0.64458700 0.30763000
vt 0.64458700 0.30763000
vt 0.64458700 0.30763000
vt 0.64458700 0.30763000
vt 0.64458700 0.30763000
vt 0.64458700 0.30763000
vt 0.64458700 0.30763000
vt 0.59004100 0.29869400
vt 0.64543300 0.30703600
vt 0.64543300 0.30703600
vt 0.59004100 0.29869400
vt 0.59004100 0.29869400
vt 0.58795300 0.29964500
vt 0.58795300 0.29964500
vt 0.58795300 0.29964500
vt 0.58795300 0.29964500
vt 0.58731300 0.29926500
vt 0.58731300 0.29926500
vt 0.58731300 0.29926500
vt 0.58731300 0.29926500
vt 0.58731300 0.29926500
vt 0.58731300 0.29926500
vt 0.58731300 0.29926500
vt 0.58879200 0.29913600
vt 0.58879200 0.29913600
vt 0.58879200 0.29913600
vt 0.58879200 0.29913600
vt 0.58879200 0.29913600
vt 0.58879200 0.29913600
vt 0.58681800 0.29874300
vt 0.58681800 0.29874300
vt 0.58659900 0.29987600
vt 0.58659900 0.29987600
vt 0.58659900 0.29987600
vt 0.58659900 0.29987600
vt 0.58888900 0.29790900
vt 0.58888900 0.29790900
vt 0.64576400 0.30804800
vt 0.58888900 0.29790900
vt 0.58888900 0.29790900
vt 0.64576400 0.30804800
vt 0.58888900 0.29790900
vt 0.58728700 0.29801200
vt 0.58728700 0.29801200
vt 0.58728700 0.29801200
vt 0.58814700 0.29746900
vt 0.58814700 0.29746900
vt 0.64452900 0.30854600
vt 0.58939500 0.29732200
vt 0.64452900 0.30854600
vt 0.64380400 0.30775800
vt 0.64380400 0.30775800
vt 0.64342900 0.30675100
vt 0.64342900 0.30675100
vt 0.64342900 0.30675100
vt 0.58726200 0.30241900
vt 0.58726200 0.30241900
vt 0.58726200 0.30241900
vt 0.58726200 0.30241900
vt 0.58726200 0.30241900
vt 0.58744100 0.30594700
vt 0.58744100 0.30594700
vt 0.58744100 0.30594700
vt 0.58744100 0.30594700
vt 0.58744100 0.30594700
vt 0.58744100 0.30594700
vt 0.58744100 0.30594700
vt 0.58836000 0.30260700
vt 0.58836000 0.30260700
vt 0.58836000 0.30260700
vt 0.58836000 0.30260700
vt 0.58836000 0.30260700
vt 0.58836000 0.30260700
vt 0.58836000 0.30260700
vt 0.58930700 0.30612300
vt 0.58930700 0.30612300
vt 0.58930700 0.30612300
vt 0.58930700 0.30612300
vt 0.58930700 0.30612300
vt 0.58930700 0.30612300
vt 0.58692500 0.30602800
vt 0.58692500 0.30602800
vt 0.58833700 0.30561600
vt 0.58833700 0.30561600
vt 0.58833700 0.30561600
vt 0.58833700 0.30561600
vt 0.58808400 0.30679400
vt 0.58808400 0.30679400
vt 0.58808400 0.30679400
vt 0.58808400 0.30679400
vt 0.58808400 0.30679400
vt 0.58808400 0.30679400
vt 0.58937700 0.30720000
vt 0.58937700 0.30720000
vt 0.58937700 0.30720000
vt 0.58937700 0.30720000
vt 0.58937700 0.30720000
vt 0.58937700 0.30720000
vt 0.64497100 0.29876700
vt 0.64497100 0.29876700
vt 0.64497100 0.29876700
vt 0.59072200 0.30703500
vt 0.59072200 0.30703500
vt 0.64475100 0.29805500
vt 0.58976300 0.30799300
vt 0.58976300 0.30799300
vt 0.58858400 0.30794300
vt 0.58858400 0.30794300
vt 0.58858400 0.30794300
vt 0.64394400 0.29842300
vt 0.64394400 0.29842300
vt 0.64394400 0.29842300
vt 0.58742000 0.30712300
vt 0.58742000 0.30712300
vt 0.58742000 0.30712300
f 1/1/1 4/4/4 11/11/11
f 18/18/18 5/5/5 2/2/2
f 7/7/7 17/17/17 22/22/22
f 21/21/21 30/30/30 32/32/32
f 33/33/33 10/10/10 23/23/23
f 41/41/41 19/19/19 15/15/15
f 20/20/20 39/39/39 29/29/29
f 46/46/46 34/34/34 50/50/50
f 6/6/6 31/31/31 47/47/47
f 54/54/54 61/61/61 66/66/66
f 72/72/72 63/63/63 73/73/73
f 70/70/70 78/78/78 52/52/52
f 71/71/71 85/85/85 64/64/64
f 26/26/26 68/68/68 49/49/49
f 53/53/53 35/35/35 25/25/25
f 87/87/87 77/77/77 84/84/84
f 86/86/86 81/81/81 59/59/59
f 90/90/90 83/83/83 88/88/88
f 80/80/80 67/67/67 62/62/62
f 89/89/89 48/48/48 79/79/79
f 93/93/93 45/45/45 91/91/91
f 94/94/94 42/42/42 92/92/92
f 96/96/96 8/8/8 43/43/43
f 44/44/44 51/51/51 82/82/82
f 12/12/12 9/9/9 95/95/95
f 58/58/58 55/55/55 98/98/98
f 76/76/76 100/100/100 104/104/104
f 102/102/102 99/99/99 115/115/115
f 116/116/116 109/109/109 27/27/27
f 101/101/101 56/56/56 114/114/114
f 74/74/74 103/103/103 123/123/123
f 110/110/110 65/65/65 28/28/28
f 60/60/60 97/97/97 75/75/75
f 57/57/57 69/69/69 113/113/113
f 124/124/124 105/105/105 112/112/112
f 120/120/120 125/125/125 111/111/111
f 130/130/130 119/119/119 134/134/134
f 106/106/106 126/126/126 132/132/132
f 133/133/133 127/127/127 118/118/118
f 140/140/140 36/36/36 16/16/16
f 146/146/146 139/139/139 143/143/143
f 149/149/149 135/135/135 147/147/147
f 148/148/148 128/128/128 136/136/136
f 144/144/144 138/138/138 37/37/37
f 38/38/38 137/137/137 121/121/121
f 152/152/152 13/13/13 3/3/3
f 153/153/153 142/142/142 14/14/14
f 151/151/151 145/145/145 141/141/141
f 154/154/154 131/131/131 150/150/150
f 122/122/122 107/107/107 155/155/155
f 156/156/156 108/108/108 129/129/129
f 40/40/40 117/117/117 24/24/24