mtllib Face065_002_001_002_001.mtl
usemtl Face065_002_001_002_001
v 0.00272700 -0.00802600 0.05338300
v 0.00272700 -0.00802600 0.05338300
v 0.00272700 -0.00802600 0.05338300
v 0.00109500 -0.00473700 0.05323000
v 0.00109500 -0.00473700 0.05323000
v -0.00039200 -0.00697500 0.05308100
v -0.00039200 -0.00697500 0.05308100
v -0.00039200 -0.00697500 0.05308100
v -0.00350900 -0.00592600 0.05274500
v -0.00350900 -0.00592600 0.05274500
v -0.00058600 -0.00134600 0.05306100
v -0.00058600 -0.00134600 0.05306100
v -0.00058600 -0.00134600 0.05306100
v -0.00246700 -0.00226000 0.05286100
v -0.00246700 -0.00226000 0.05286100
v -0.00434700 -0.00317300 0.05264900
v -0.00434700 -0.00317300 0.05264900
v -0.00543100 -0.00527800 0.05252000
v -0.00543100 -0.00527800 0.05252000
v -0.00585000 -0.00390300 0.05247000
v -0.00585000 -0.00390300 0.05247000
v -0.00585000 -0.00390300 0.05247000
v -0.00735300 -0.00463200 0.05228200
v -0.00735300 -0.00463200 0.05228200
v -0.00735300 -0.00463200 0.05228200
v -0.00736700 -0.00463300 0.05198000
v -0.00736700 -0.00463300 0.05198000
v -0.00736700 -0.00463300 0.05198000
v -0.00435400 -0.00317000 0.05234800
v -0.00246900 -0.00225500 0.05256100
v -0.00058400 -0.00133900 0.05276200
v -0.00058400 -0.00133900 0.05276200
v 0.00110200 -0.00473800 0.05293100
v 0.00273800 -0.00803500 0.05308400
v 0.00273800 -0.00803500 0.05308400
v 0.00273800 -0.00803500 0.05308400
v -0.00038100 -0.00698400 0.05278300
v -0.00349600 -0.00593500 0.05244600
v -0.00543200 -0.00528400 0.05222000
v 0.00383600 -0.01286100 0.05348100
v 0.00383600 -0.01286100 0.05348100
v 0.00383600 -0.01286100 0.05348100
v 0.00139500 -0.00800200 0.05325900
v 0.00139500 -0.00800200 0.05325900
v 0.00139500 -0.00800200 0.05325900
v 0.00203500 -0.01226300 0.05332000
v 0.00203500 -0.01226300 0.05332000
v 0.00203500 -0.01226300 0.05332000
v 0.00016900 -0.01164500 0.05313800
v 0.00016900 -0.01164500 0.05313800
v 0.00016900 -0.01164500 0.05313800
v 0.00384600 -0.01286900 0.05318200
v 0.00384600 -0.01286900 0.05318200
v 0.00384600 -0.01286900 0.05318200
v 0.00203700 -0.01226900 0.05302000
v 0.00016200 -0.01164800 0.05283800
v 0.00016200 -0.01164800 0.05283800
v 0.00139400 -0.00798800 0.05295900
v 0.00139400 -0.00798800 0.05295900
v -0.00593500 -0.00326500 0.05245900
v -0.00593500 -0.00326500 0.05245900
v -0.00593500 -0.00326500 0.05245900
v -0.00794200 -0.00261300 0.05220600
v -0.00794200 -0.00261300 0.05220600
v -0.00820000 -0.00437500 0.05217200
v -0.00820000 -0.00437500 0.05217200
v -0.00820000 -0.00437500 0.05217200
v -0.00977500 -0.00201700 0.05195600
v -0.00977500 -0.00201700 0.05195600
v -0.00977500 -0.00201700 0.05195600
v -0.00961400 -0.00506900 0.05197900
v -0.00961400 -0.00506900 0.05197900
v -0.01102700 -0.00576200 0.05177300
v -0.01102700 -0.00576200 0.05177300
v -0.01102700 -0.00576200 0.05177300
v -0.00793700 -0.00260900 0.05190600
v -0.00977900 -0.00201000 0.05165500
v -0.00977900 -0.00201000 0.05165500
v -0.00592100 -0.00326400 0.05216100
v -0.00592100 -0.00326400 0.05216100
v -0.00592100 -0.00326400 0.05216100
v -0.01103600 -0.00577200 0.05147100
v -0.01103600 -0.00577200 0.05147100
v -0.00819700 -0.00437900 0.05187200
v -0.00961700 -0.00507600 0.05167800
v 0.00715800 0.00341900 0.05374000
v 0.00715800 0.00341900 0.05374000
v 0.00715800 0.00341900 0.05374000
v 0.00519800 0.00408000 0.05359400
v 0.00519800 0.00408000 0.05359400
v 0.00436400 0.00203400 0.05352600
v 0.00436400 0.00203400 0.05352600
v 0.00324000 0.00474100 0.05342900
v 0.00324000 0.00474100 0.05342900
v 0.00157200 0.00065100 0.05327600
v 0.00157200 0.00065100 0.05327600
v 0.00010900 0.00579900 0.05313200
v 0.00010900 0.00579900 0.05313200
v 0.00010900 0.00579900 0.05313200
v -0.00038200 -0.00031800 0.05308300
v -0.00038200 -0.00031800 0.05308300
v -0.00233600 -0.00128700 0.05287500
v -0.00233600 -0.00128700 0.05287500
v -0.00233600 -0.00128700 0.05287500
v 0.00324400 0.00474500 0.05312900
v 0.00010500 0.00580600 0.05283200
v 0.00010500 0.00580600 0.05283200
v 0.00520700 0.00408300 0.05329400
v 0.00717200 0.00342000 0.05344100
v 0.00717200 0.00342000 0.05344100
v 0.00717200 0.00342000 0.05344100
v -0.00234500 -0.00129700 0.05257400
v -0.00234500 -0.00129700 0.05257400
v 0.00437800 0.00203500 0.05322700
v 0.00158600 0.00065200 0.05297800
v -0.00038000 -0.00032300 0.05278300
v 0.01144400 0.00363900 0.05400000
v 0.01144400 0.00363900 0.05400000
v 0.01144400 0.00363900 0.05400000
v 0.00935800 0.00434200 0.05388300
v 0.00935800 0.00434200 0.05388300
v 0.00874400 0.00223900 0.05384500
v 0.00874400 0.00223900 0.05384500
v 0.00874400 0.00223900 0.05384500
v 0.00874400 0.00223900 0.05384500
v 0.00737100 0.00501200 0.05375500
v 0.00737100 0.00501200 0.05375500
v 0.00737100 0.00501200 0.05375500
v 0.00737100 0.00501200 0.05375500
v 0.00935900 0.00434700 0.05358300
v 0.00736100 0.00502100 0.05345400
v 0.00736100 0.00502100 0.05345400
v 0.01145800 0.00364000 0.05370100
v 0.01145800 0.00364000 0.05370100
v 0.01145800 0.00364000 0.05370100
v 0.00874100 0.00223200 0.05354500
v 0.00874100 0.00223200 0.05354500
v 0.00874100 0.00223200 0.05354500
v 0.00587600 0.00779500 0.05364700
v 0.00587600 0.00779500 0.05364700
v 0.00587600 0.00779500 0.05364700
v 0.00390000 0.01168000 0.05348700
v 0.00390000 0.01168000 0.05348700
v 0.00390000 0.01168000 0.05348700
v 0.00396800 0.00682000 0.05349200
v 0.00396800 0.00682000 0.05349200
v 0.00396800 0.00682000 0.05349200
v 0.00199000 0.01070900 0.05331500
v 0.00199000 0.01070900 0.05331500
v 0.00199300 0.00581000 0.05331600
v 0.00199300 0.00581000 0.05331600
v 0.00199300 0.00581000 0.05331600
v 0.00000600 0.00970300 0.05312200
v 0.00000600 0.00970300 0.05312200
v 0.00000600 0.00970300 0.05312200
v 0.00000600 0.00970300 0.05312200
v 0.00198700 0.01071400 0.05301500
v -0.00000100 0.00970500 0.05282100
v -0.00000100 0.00970500 0.05282100
v 0.00390200 0.01168700 0.05318700
v 0.00390200 0.01168700 0.05318700
v 0.00588300 0.00779300 0.05334700
v 0.00588300 0.00779300 0.05334700
v 0.00588300 0.00779300 0.05334700
v 0.00397000 0.00681500 0.05319300
v 0.00199100 0.00580300 0.05301600
v 0.00199100 0.00580300 0.05301600
v 0.00199100 0.00580300 0.05301600
v 0.00125000 0.01098300 0.05324500
v 0.00125000 0.01098300 0.05324500
v 0.00125000 0.01098300 0.05324500
v -0.00133200 0.01192200 0.05298300
v -0.00133200 0.01192200 0.05298300
v -0.00133200 0.01192200 0.05298300
v -0.00072500 0.00999900 0.05304700
v -0.00072500 0.00999900 0.05304700
v -0.00072500 0.00999900 0.05304700
v -0.00336400 0.01091000 0.05276100
v -0.00336400 0.01091000 0.05276100
v -0.00274100 0.00899400 0.05283100
v -0.00274100 0.00899400 0.05283100
v -0.00274100 0.00899400 0.05283100
v -0.00538900 0.00990200 0.05252500
v -0.00538900 0.00990200 0.05252500
v -0.00538900 0.00990200 0.05252500
v -0.00538900 0.00990200 0.05252500
v -0.00337100 0.01091200 0.05246000
v -0.00540200 0.00990100 0.05222400
v -0.00540200 0.00990100 0.05222400
v -0.00133300 0.01192700 0.05268300
v -0.00133300 0.01192700 0.05268300
v 0.00126400 0.01098400 0.05294600
v 0.00126400 0.01098400 0.05294600
v 0.00126400 0.01098400 0.05294600
v -0.00071800 0.00999600 0.05274800
v -0.00274100 0.00898800 0.05253100
v -0.00274100 0.00898800 0.05253100
v -0.00274100 0.00898800 0.05253100
vn -0.09700000 -0.00180000 0.99530000
vn -0.32080000 -0.94700000 0.01730000
vn 0.89540000 0.44500000 0.01780000
vn -0.10670000 0.00010000 0.99430000
vn 0.89540000 0.44500000 0.01770000
vn -0.32080000 -0.94700000 0.01730000
vn -0.32080000 -0.94700000 0.01770000
vn -0.09700000 -0.00050000 0.99530000
vn -0.32080000 -0.94700000 0.01760000
vn -0.10920000 0.00540000 0.99400000
vn 0.89540000 0.44490000 0.01750000
vn -0.10460000 -0.00230000 0.99450000
vn -0.43840000 0.89860000 0.01730000
vn -0.43840000 0.89860000 0.01750000
vn -0.11050000 -0.00140000 0.99390000
vn -0.11740000 -0.00020000 0.99310000
vn -0.43830000 0.89860000 0.01740000
vn -0.12140000 0.00130000 0.99260000
vn -0.32080000 -0.94700000 0.01740000
vn -0.43840000 0.89860000 0.01740000
vn -0.43810000 0.89880000 0.01730000
vn -0.12280000 0.00090000 0.99240000
vn -0.12350000 -0.00110000 0.99230000
vn -0.43810000 0.89880000 0.01730000
vn -0.32080000 -0.94700000 0.01740000
vn -0.43840000 0.89860000 0.01740000
vn -0.32080000 -0.94700000 0.01750000
vn -0.43810000 0.89880000 0.01730000
vn -0.43840000 0.89860000 0.01730000
vn -0.43850000 0.89860000 0.01800000
vn -0.43840000 0.89860000 0.01740000
vn 0.89540000 0.44490000 0.01730000
vn 0.89540000 0.44490000 0.01760000
vn 0.89540000 0.44500000 0.01770000
vn -0.32080000 -0.94700000 0.01730000
vn -0.32080000 -0.94700000 0.01770000
vn -0.32080000 -0.94700000 0.01750000
vn -0.32080000 -0.94700000 0.01760000
vn -0.32080000 -0.94700000 0.01740000
vn -0.08870000 0.00090000 0.99610000
vn -0.31630000 -0.94850000 0.01630000
vn 0.89310000 0.44950000 0.01780000
vn 0.89320000 0.44930000 0.01750000
vn -0.08980000 0.00030000 0.99600000
vn -0.94780000 0.31850000 0.01750000
vn -0.09570000 -0.00040000 0.99540000
vn -0.31630000 -0.94850000 0.01630000
vn -0.31610000 -0.94860000 0.01740000
vn -0.94780000 0.31850000 0.01760000
vn -0.09720000 -0.00030000 0.99530000
vn -0.31620000 -0.94850000 0.01720000
vn 0.89320000 0.44930000 0.01760000
vn -0.31610000 -0.94860000 0.01690000
vn -0.31630000 -0.94850000 0.01630000
vn -0.31610000 -0.94860000 0.01720000
vn -0.31600000 -0.94860000 0.01660000
vn -0.94780000 0.31850000 0.01760000
vn 0.89320000 0.44940000 0.01740000
vn -0.94780000 0.31850000 0.01760000
vn -0.12530000 -0.00080000 0.99210000
vn 0.30700000 0.95160000 0.01710000
vn 0.43820000 -0.89870000 0.01760000
vn 0.30700000 0.95160000 0.01720000
vn -0.12590000 0.00000000 0.99200000
vn 0.43820000 -0.89870000 0.01760000
vn -0.12770000 0.00080000 0.99180000
vn 0.43840000 -0.89860000 0.01710000
vn -0.14170000 -0.00010000 0.98990000
vn 0.30690000 0.95160000 0.01740000
vn -0.94860000 0.31610000 0.01750000
vn 0.43840000 -0.89860000 0.01760000
vn -0.13640000 0.00010000 0.99070000
vn -0.14420000 -0.00010000 0.98950000
vn -0.94860000 0.31610000 0.01760000
vn 0.43840000 -0.89860000 0.01730000
vn 0.30700000 0.95160000 0.01720000
vn -0.94860000 0.31610000 0.01760000
vn 0.30700000 0.95160000 0.01770000
vn 0.43840000 -0.89860000 0.01720000
vn 0.30700000 0.95160000 0.01720000
vn 0.43820000 -0.89870000 0.01760000
vn -0.94860000 0.31610000 0.01750000
vn 0.43840000 -0.89860000 0.01700000
vn 0.43840000 -0.89860000 0.01730000
vn 0.43840000 -0.89860000 0.01740000
vn 0.44270000 -0.89650000 0.01740000
vn 0.31850000 0.94780000 0.01740000
vn -0.07530000 -0.00230000 0.99720000
vn -0.08170000 0.00270000 0.99670000
vn 0.31850000 0.94780000 0.01750000
vn -0.07840000 -0.00070000 0.99690000
vn 0.44270000 -0.89650000 0.01740000
vn -0.08540000 -0.00030000 0.99640000
vn 0.31840000 0.94780000 0.01700000
vn 0.44270000 -0.89650000 0.01730000
vn -0.09070000 -0.00020000 0.99590000
vn -0.10230000 0.00000000 0.99470000
vn 0.31850000 0.94780000 0.01740000
vn -0.94540000 0.32550000 0.01750000
vn 0.44280000 -0.89650000 0.01740000
vn -0.09970000 -0.00030000 0.99500000
vn 0.44270000 -0.89650000 0.01740000
vn -0.10560000 0.00040000 0.99440000
vn -0.94540000 0.32550000 0.01750000
vn 0.31850000 0.94780000 0.01750000
vn 0.31850000 0.94780000 0.01740000
vn -0.94540000 0.32550000 0.01750000
vn 0.31850000 0.94780000 0.01740000
vn 0.31850000 0.94780000 0.01730000
vn 0.44280000 -0.89640000 0.01750000
vn 0.44270000 -0.89650000 0.01740000
vn -0.94540000 0.32550000 0.01750000
vn 0.44280000 -0.89650000 0.01740000
vn 0.44270000 -0.89650000 0.01740000
vn 0.44280000 -0.89650000 0.01730000
vn 0.44270000 -0.89650000 0.01780000
vn -0.05650000 -0.00150000 0.99840000
vn 0.45940000 -0.88810000 0.01810000
vn 0.31840000 0.94780000 0.01810000
vn -0.06040000 -0.00040000 0.99820000
vn 0.31830000 0.94780000 0.01770000
vn -0.89630000 -0.44310000 0.01740000
vn 0.45930000 -0.88810000 0.01740000
vn 0.45940000 -0.88810000 0.01810000
vn -0.06320000 0.00190000 0.99800000
vn 0.31860000 0.94770000 0.01770000
vn -0.06410000 0.00070000 0.99790000
vn -0.89630000 -0.44310000 0.01740000
vn -0.89630000 -0.44310000 0.01710000
vn 0.31830000 0.94780000 0.01750000
vn 0.31820000 0.94790000 0.01740000
vn -0.89630000 -0.44310000 0.01710000
vn 0.45940000 -0.88810000 0.01810000
vn 0.45930000 -0.88810000 0.01740000
vn 0.31840000 0.94780000 0.01800000
vn -0.89630000 -0.44310000 0.01710000
vn -0.89630000 -0.44310000 0.01740000
vn 0.45930000 -0.88810000 0.01740000
vn -0.08090000 -0.00010000 0.99670000
vn 0.45390000 -0.89090000 0.01770000
vn 0.89090000 0.45380000 0.01780000
vn -0.08220000 0.00020000 0.99660000
vn -0.45390000 0.89090000 0.01750000
vn 0.89090000 0.45390000 0.01740000
vn -0.09020000 -0.00010000 0.99590000
vn 0.45390000 -0.89090000 0.01760000
vn 0.45390000 -0.89090000 0.01770000
vn -0.08840000 0.00010000 0.99610000
vn -0.45390000 0.89090000 0.01750000
vn -0.89090000 -0.45390000 0.01770000
vn 0.45390000 -0.89090000 0.01730000
vn -0.09560000 -0.00020000 0.99540000
vn -0.09730000 -0.00010000 0.99530000
vn -0.89090000 -0.45390000 0.01740000
vn -0.89090000 -0.45390000 0.01770000
vn -0.45390000 0.89090000 0.01730000
vn -0.45390000 0.89090000 0.01740000
vn -0.89090000 -0.45390000 0.01740000
vn -0.45390000 0.89090000 0.01720000
vn -0.45390000 0.89090000 0.01750000
vn 0.89090000 0.45390000 0.01750000
vn 0.45390000 -0.89090000 0.01740000
vn 0.45390000 -0.89090000 0.01770000
vn 0.89090000 0.45390000 0.01740000
vn 0.45390000 -0.89090000 0.01740000
vn 0.45390000 -0.89090000 0.01720000
vn -0.89090000 -0.45390000 0.01770000
vn -0.89090000 -0.45390000 0.01740000
vn 0.33990000 0.94030000 0.01790000
vn -0.10040000 0.00140000 0.99490000
vn 0.44450000 -0.89560000 0.01720000
vn -0.44680000 0.89450000 0.01600000
vn 0.33990000 0.94030000 0.01720000
vn -0.10100000 0.00060000 0.99490000
vn -0.10800000 -0.00040000 0.99420000
vn 0.44450000 -0.89560000 0.01720000
vn 0.44450000 -0.89560000 0.01740000
vn -0.10740000 -0.00070000 0.99420000
vn -0.44700000 0.89440000 0.01680000
vn -0.11390000 -0.00170000 0.99350000
vn -0.32630000 -0.94510000 0.01730000
vn 0.44450000 -0.89560000 0.01770000
vn -0.11520000 -0.00120000 0.99330000
vn -0.44710000 0.89430000 0.01720000
vn -0.32630000 -0.94510000 0.01730000
vn -0.32630000 -0.94510000 0.01770000
vn -0.44710000 0.89430000 0.01730000
vn -0.44710000 0.89430000 0.01740000
vn -0.32630000 -0.94510000 0.01770000
vn 0.33990000 0.94030000 0.01620000
vn -0.44690000 0.89440000 0.01680000
vn 0.44450000 -0.89560000 0.01740000
vn 0.33990000 0.94030000 0.01700000
vn 0.44450000 -0.89560000 0.01720000
vn 0.44450000 -0.89560000 0.01750000
vn 0.44440000 -0.89570000 0.01790000
vn -0.32630000 -0.94510000 0.01730000
vn -0.32630000 -0.94510000 0.01770000
vt 0.88311700 0.27527700
vt 0.29067600 0.63072100
vt 0.29064700 0.64947200
vt 0.87666100 0.26887200
vt 0.29063400 0.65853000
vt 0.29058100 0.62489700
vt 0.29058100 0.62489700
vt 0.88311100 0.26713000
vt 0.29057000 0.61906500
vt 0.88311200 0.25898100
vt 0.29064900 0.66786900
vt 0.87000500 0.26227000
vt 0.29065000 0.63072100
vt 0.29060900 0.63590000
vt 0.87365000 0.25856300
vt 0.87729200 0.25485600
vt 0.29059700 0.64107800
vt 0.88311200 0.25395100
vt 0.29060600 0.61545900
vt 0.29061100 0.64522000
vt 0.29061100 0.64522000
vt 0.88020500 0.25188900
vt 0.88311700 0.24892000
vt 0.29064800 0.64936300
vt 0.29067600 0.61185300
vt 0.29139100 0.64947200
vt 0.29141400 0.61172000
vt 0.29139100 0.64947200
vt 0.29134000 0.64116600
vt 0.29135000 0.63597500
vt 0.29139100 0.63078600
vt 0.29139100 0.66791400
vt 0.29137700 0.65855200
vt 0.29139100 0.64947200
vt 0.29141400 0.63063400
vt 0.29141400 0.63063400
vt 0.29131600 0.62481000
vt 0.29130800 0.61898000
vt 0.29134400 0.61535200
vt 0.24292100 0.57728800
vt 0.71637700 0.70293700
vt 0.25124900 0.59076500
vt 0.25124900 0.57735000
vt 0.24292100 0.59070300
vt 0.71786400 0.69626200
vt 0.23958000 0.58061100
vt 0.71635900 0.69960100
vt 0.71635900 0.69960100
vt 0.71786600 0.70296700
vt 0.23611300 0.58405200
vt 0.71637900 0.69613900
vt 0.25050500 0.59076300
vt 0.71711700 0.70287200
vt 0.71711700 0.70287200
vt 0.71710000 0.69952000
vt 0.71711700 0.69604200
vt 0.71861000 0.70300500
vt 0.25050500 0.57728800
vt 0.71861000 0.69626900
vt 0.23611300 0.59136400
vt 0.71454400 0.30116700
vt 0.46304500 0.69651700
vt 0.71451900 0.30494500
vt 0.23245900 0.58758400
vt 0.46299900 0.69026000
vt 0.23611300 0.58510700
vt 0.46299900 0.69026000
vt 0.22911900 0.58412800
vt 0.71454300 0.30840400
vt 0.71786400 0.70300500
vt 0.46300500 0.68634800
vt 0.23611300 0.58119700
vt 0.23611100 0.57728800
vt 0.71786400 0.69611500
vt 0.46304300 0.68243600
vt 0.71525400 0.30507000
vt 0.71711800 0.70296400
vt 0.71527700 0.30854600
vt 0.46378400 0.69646100
vt 0.71527700 0.30127400
vt 0.46378400 0.69646100
vt 0.71711700 0.69604200
vt 0.46378400 0.68231600
vt 0.46374000 0.69017300
vt 0.46374600 0.68624500
vt 0.28136500 0.47555600
vt 0.46306500 0.69651700
vt 0.91402800 0.27583700
vt 0.91039500 0.27221500
vt 0.46300900 0.70015200
vt 0.91403400 0.26813400
vt 0.28126400 0.46785100
vt 0.90676300 0.26859300
vt 0.46299900 0.70378800
vt 0.28125300 0.46014600
vt 0.91403300 0.26042900
vt 0.90094900 0.26279500
vt 0.46306600 0.70961400
vt 0.71556600 0.70314400
vt 0.28129100 0.45474900
vt 0.91403400 0.25503200
vt 0.28136500 0.44934900
vt 0.91403200 0.24963100
vt 0.71556600 0.68996800
vt 0.46374100 0.70386400
vt 0.46380600 0.70970500
vt 0.71482100 0.70312000
vt 0.46375100 0.70022000
vt 0.46380600 0.69657500
vt 0.28210800 0.47552800
vt 0.28210800 0.47552800
vt 0.71482000 0.68991400
vt 0.28210800 0.44925800
vt 0.28200700 0.46782300
vt 0.28199400 0.46011900
vt 0.28203300 0.45468800
vt 0.24292100 0.58491600
vt 0.71377600 0.30854600
vt 0.71147800 0.30092700
vt 0.24672100 0.58101100
vt 0.71145600 0.30478800
vt 0.71296700 0.30086300
vt 0.71377600 0.30104000
vt 0.71377600 0.30104000
vt 0.25048100 0.58491600
vt 0.71147600 0.30846900
vt 0.25034400 0.57728800
vt 0.71296700 0.30849300
vt 0.71296700 0.30849300
vt 0.71219900 0.30484400
vt 0.71222000 0.30854600
vt 0.71222000 0.30854600
vt 0.71451900 0.30854000
vt 0.71451900 0.30854000
vt 0.71222000 0.30096000
vt 0.71222100 0.30087200
vt 0.71222100 0.30087200
vt 0.71451900 0.30098800
vt 0.57058700 0.30799300
vt 0.70397800 0.30854600
vt 0.70759100 0.30854600
vt 0.55975200 0.30798700
vt 0.70321600 0.29766900
vt 0.70759100 0.29779500
vt 0.57058700 0.30269800
vt 0.70396000 0.30325000
vt 0.70396000 0.30325000
vt 0.55973900 0.30268900
vt 0.70319800 0.30296700
vt 0.70684500 0.29771600
vt 0.70398000 0.29776600
vt 0.57058700 0.29721400
vt 0.55971800 0.29718500
vt 0.70684500 0.30850000
vt 0.70684500 0.30850000
vt 0.70321600 0.30847100
vt 0.70394100 0.30303000
vt 0.70609900 0.30854600
vt 0.70396000 0.30854600
vt 0.70396000 0.29771800
vt 0.70684600 0.29775400
vt 0.70472200 0.30850300
vt 0.70472200 0.30850300
vt 0.70684500 0.30853100
vt 0.70470000 0.30319400
vt 0.70472200 0.29769800
vt 0.70610000 0.29773600
vt 0.70610000 0.29773600
vt 0.66949000 0.29723500
vt 0.81679000 0.26506900
vt 0.70133300 0.30854600
vt 0.69948300 0.29721300
vt 0.66949100 0.30219000
vt 0.82174000 0.26977600
vt 0.81678600 0.27053000
vt 0.70131600 0.30308500
vt 0.70131600 0.30308500
vt 0.82173800 0.27539900
vt 0.69946500 0.30283500
vt 0.81678200 0.27610800
vt 0.68195300 0.30278300
vt 0.70133400 0.29750700
vt 0.82174000 0.28100400
vt 0.69948400 0.30844100
vt 0.68195400 0.29778400
vt 0.68195400 0.29778400
vt 0.70020800 0.30292300
vt 0.70022500 0.30854600
vt 0.68269000 0.29764700
vt 0.67023000 0.30228500
vt 0.70022500 0.29728400
vt 0.70207500 0.30850900
vt 0.67023000 0.29730500
vt 0.70207500 0.30850900
vt 0.70205700 0.30302900
vt 0.70207500 0.29743200
vt 0.68269000 0.30267200
vt 0.68269000 0.30267200
f 1/1/1 4/4/4 8/8/8
f 4/4/4 10/10/10 8/8/8
f 12/12/12 15/15/15 4/4/4
f 4/4/4 15/15/15 10/10/10
f 10/10/10 16/16/16 18/18/18
f 15/15/15 16/16/16 10/10/10
f 16/16/16 22/22/22 18/18/18
f 22/22/22 23/23/23 18/18/18
f 21/21/21 28/28/28 24/24/24
f 29/29/29 20/20/20 17/17/17
f 30/30/30 17/17/17 14/14/14
f 30/30/30 29/29/29 17/17/17
f 31/31/31 14/14/14 13/13/13
f 31/31/31 30/30/30 14/14/14
f 29/29/29 26/26/26 20/20/20
f 33/33/33 11/11/11 5/5/5
f 33/33/33 32/32/32 11/11/11
f 34/34/34 5/5/5 3/3/3
f 34/34/34 33/33/33 5/5/5
f 6/6/6 35/35/35 2/2/2
f 37/37/37 36/36/36 7/7/7
f 9/9/9 37/37/37 7/7/7
f 38/38/38 37/37/37 9/9/9
f 19/19/19 38/38/38 9/9/9
f 39/39/39 38/38/38 19/19/19
f 25/25/25 39/39/39 19/19/19
f 27/27/27 39/39/39 25/25/25
f 40/40/40 44/44/44 46/46/46
f 46/46/46 44/44/44 50/50/50
f 47/47/47 54/54/54 41/41/41
f 55/55/55 53/53/53 48/48/48
f 51/51/51 55/55/55 48/48/48
f 56/56/56 55/55/55 51/51/51
f 52/52/52 43/43/43 42/42/42
f 52/52/52 58/58/58 43/43/43
f 59/59/59 49/49/49 45/45/45
f 59/59/59 57/57/57 49/49/49
f 60/60/60 64/64/64 66/66/66
f 66/66/66 68/68/68 72/72/72
f 72/72/72 68/68/68 73/73/73
f 64/64/64 68/68/68 66/66/66
f 76/76/76 69/69/69 63/63/63
f 76/76/76 78/78/78 69/69/69
f 80/80/80 63/63/63 61/61/61
f 80/80/80 76/76/76 63/63/63
f 77/77/77 74/74/74 70/70/70
f 77/77/77 82/82/82 74/74/74
f 65/65/65 81/81/81 62/62/62
f 84/84/84 79/79/79 67/67/67
f 71/71/71 84/84/84 67/67/67
f 85/85/85 84/84/84 71/71/71
f 75/75/75 85/85/85 71/71/71
f 83/83/83 85/85/85 75/75/75
f 88/88/88 89/89/89 91/91/91
f 91/91/91 93/93/93 96/96/96
f 89/89/89 93/93/93 91/91/91
f 96/96/96 97/97/97 101/101/101
f 101/101/101 97/97/97 103/103/103
f 93/93/93 97/97/97 96/96/96
f 105/105/105 98/98/98 94/94/94
f 105/105/105 106/106/106 98/98/98
f 108/108/108 94/94/94 90/90/90
f 108/108/108 105/105/105 94/94/94
f 109/109/109 90/90/90 87/87/87
f 109/109/109 108/108/108 90/90/90
f 107/107/107 104/104/104 99/99/99
f 107/107/107 112/112/112 104/104/104
f 92/92/92 111/111/111 86/86/86
f 114/114/114 110/110/110 92/92/92
f 95/95/95 114/114/114 92/92/92
f 115/115/115 114/114/114 95/95/95
f 100/100/100 115/115/115 95/95/95
f 116/116/116 115/115/115 100/100/100
f 102/102/102 116/116/116 100/100/100
f 113/113/113 116/116/116 102/102/102
f 117/117/117 120/120/120 125/125/125
f 120/120/120 127/127/127 125/125/125
f 130/130/130 126/126/126 121/121/121
f 130/130/130 131/131/131 126/126/126
f 135/135/135 121/121/121 119/119/119
f 135/135/135 130/130/130 121/121/121
f 124/124/124 133/133/133 118/118/118
f 138/138/138 134/134/134 123/123/123
f 128/128/128 137/137/137 122/122/122
f 132/132/132 136/136/136 129/129/129
f 139/139/139 142/142/142 145/145/145
f 145/145/145 148/148/148 152/152/152
f 142/142/142 148/148/148 145/145/145
f 148/148/148 153/153/153 152/152/152
f 157/157/157 156/156/156 149/149/149
f 157/157/157 159/159/159 156/156/156
f 160/160/160 149/149/149 143/143/143
f 160/160/160 157/157/157 149/149/149
f 164/164/164 144/144/144 141/141/141
f 164/164/164 161/161/161 144/144/144
f 147/147/147 163/163/163 140/140/140
f 165/165/165 162/162/162 146/146/146
f 151/151/151 165/165/165 146/146/146
f 166/166/166 165/165/165 151/151/151
f 155/155/155 167/167/167 150/150/150
f 158/158/158 168/168/168 154/154/154
f 170/170/170 174/174/174 175/175/175
f 175/175/175 178/178/178 180/180/180
f 174/174/174 178/178/178 175/175/175
f 178/178/178 183/183/183 180/180/180
f 187/187/187 184/184/184 179/179/179
f 187/187/187 188/188/188 184/184/184
f 191/191/191 179/179/179 172/172/172
f 191/191/191 187/187/187 179/179/179
f 193/193/193 173/173/173 169/169/169
f 193/193/193 190/190/190 173/173/173
f 176/176/176 194/194/194 171/171/171
f 195/195/195 192/192/192 177/177/177
f 182/182/182 195/195/195 177/177/177
f 196/196/196 195/195/195 182/182/182
f 185/185/185 197/197/197 181/181/181
f 189/189/189 198/198/198 186/186/186