mtllib Shell003_002_001_002_001.mtl
usemtl Shell003_002_001_002_001
v 0.06278800 0.08158900 -0.00050000
v 0.06196700 0.08154300 -0.00050000
v 0.06196800 0.08154400 0.00000000
v 0.06382300 0.08162700 -0.00073800
v 0.06365600 0.08161700 -0.00135000
v 0.06322500 0.08160600 -0.00092700
v 0.06319700 0.08160800 -0.00012500
v 0.06319700 0.08160800 0.00000000
v 0.06422200 0.08163600 -0.00079600
v 0.06432000 0.08164000 -0.00025000
v 0.06477800 0.08164500 -0.00025000
v 0.06278800 0.08158900 0.00050000
v 0.06196700 0.08154300 0.00050000
v 0.06319700 0.08160800 0.00012500
v 0.06322500 0.08160600 0.00092700
v 0.06382300 0.08162700 0.00073800
v 0.06365600 0.08161700 0.00135000
v 0.06422200 0.08163600 0.00079500
v 0.06432000 0.08164000 0.00025000
v 0.06477800 0.08164500 0.00025000
vn -0.04910000 0.99880000 -0.00610000
vn -0.05580000 0.99840000 -0.00220000
vn -0.05030000 0.99870000 -0.00000000
vn -0.02990000 0.99960000 -0.00110000
vn -0.02510000 0.99970000 -0.00650000
vn -0.03960000 0.99920000 -0.00310000
vn -0.03780000 0.99930000 -0.00380000
vn -0.04480000 0.99900000 0.00000000
vn -0.01510000 0.99990000 -0.00500000
vn -0.02020000 0.99980000 -0.00290000
vn -0.01250000 0.99990000 -0.00460000
vn -0.04910000 0.99880000 0.00610000
vn -0.05580000 0.99840000 0.00220000
vn -0.03780000 0.99930000 0.00380000
vn -0.03960000 0.99920000 0.00310000
vn -0.02980000 0.99960000 0.00110000
vn -0.02500000 0.99970000 0.00650000
vn -0.01510000 0.99990000 0.00500000
vn -0.02020000 0.99980000 0.00290000
vn -0.01250000 0.99990000 0.00460000
vt 0.60014100 0.30492000
vt 0.59871100 0.30347300
vt 0.59960000 0.30261200
vt 0.60152000 0.30715400
vt 0.60014300 0.30791600
vt 0.60014400 0.30642700
vt 0.60151800 0.30499400
vt 0.60174000 0.30477800
vt 0.60211100 0.30795600
vt 0.60325000 0.30718700
vt 0.60404600 0.30799300
vt 0.60191500 0.30319500
vt 0.60048500 0.30174700
vt 0.60196200 0.30456200
vt 0.60343300 0.30322800
vt 0.60413800 0.30460700
vt 0.60493300 0.30325700
vt 0.60493300 0.30521100
vt 0.60413700 0.30632400
vt 0.60493300 0.30713000
f 1/1/1 2/2/2 3/3/3
f 4/4/4 5/5/5 6/6/6
f 7/7/7 6/6/6 1/1/1
f 7/7/7 4/4/4 6/6/6
f 8/8/8 1/1/1 3/3/3
f 8/8/8 7/7/7 1/1/1
f 9/9/9 5/5/5 4/4/4
f 10/10/10 9/9/9 4/4/4
f 11/11/11 9/9/9 10/10/10
f 12/12/12 8/8/8 3/3/3
f 12/12/12 3/3/3 13/13/13
f 14/14/14 8/8/8 12/12/12
f 15/15/15 14/14/14 12/12/12
f 16/16/16 14/14/14 15/15/15
f 17/17/17 16/16/16 15/15/15
f 18/18/18 19/19/19 16/16/16
f 18/18/18 16/16/16 17/17/17
f 20/20/20 19/19/19 18/18/18