mtllib Shell011_002_002_001.mtl
usemtl Shell011_002_002_001
v 0.08738500 0.07734600 -0.02619700
v 0.08738500 0.07734600 -0.02619700
v 0.08815600 0.07722600 -0.02612400
v 0.08815600 0.07722600 -0.02612400
v 0.08815600 0.07722600 -0.02612400
v 0.08771600 0.07718900 -0.02655000
v 0.08941600 0.07743300 -0.02422300
v 0.08941600 0.07743300 -0.02422300
v 0.08941600 0.07743300 -0.02422300
v 0.08974500 0.07729600 -0.02457100
v 0.08916900 0.07728200 -0.02513600
v 0.08916900 0.07728200 -0.02513600
v 0.08916900 0.07728200 -0.02513600
v 0.08916900 0.07728200 -0.02513600
v 0.08739100 0.07752100 -0.02551400
v 0.08705300 0.07749700 -0.02584300
v 0.08773300 0.07754000 -0.02518000
v 0.08773300 0.07754000 -0.02518000
v 0.08773300 0.07754000 -0.02518000
v 0.08860200 0.07725500 -0.02568900
v 0.08860200 0.07725500 -0.02568900
v 0.08860200 0.07725500 -0.02568900
v 0.08807900 0.07755400 -0.02484200
v 0.08807900 0.07755400 -0.02484200
v 0.08807900 0.07755400 -0.02484200
v 0.08842800 0.07756300 -0.02450000
v 0.08842800 0.07756300 -0.02450000
v 0.08842800 0.07756300 -0.02450000
v 0.08908300 0.07756600 -0.02387100
v 0.08874400 0.07769400 -0.02351600
v 0.08874400 0.07769400 -0.02351600
v 0.08809300 0.07769700 -0.02414700
v 0.08809300 0.07769700 -0.02414700
v 0.08807600 0.07782400 -0.02347800
v 0.08807600 0.07782400 -0.02347800
v 0.08807600 0.07782400 -0.02347800
v 0.08840200 0.07781800 -0.02315600
v 0.08775700 0.07782500 -0.02379300
vn 0.17290000 0.94970000 -0.26090000
vn 0.17230000 0.95390000 -0.24590000
vn 0.17170000 0.95520000 -0.24110000
vn 0.17870000 0.95440000 -0.23910000
vn 0.17290000 0.94970000 -0.26090000
vn 0.17290000 0.94970000 -0.26090000
vn 0.18560000 0.96010000 -0.20940000
vn 0.18050000 0.96130000 -0.20820000
vn 0.18140000 0.96450000 -0.19220000
vn 0.18050000 0.96130000 -0.20820000
vn 0.18050000 0.96130000 -0.20820000
vn 0.18270000 0.95990000 -0.21260000
vn 0.17810000 0.95730000 -0.22760000
vn 0.18560000 0.96010000 -0.20940000
vn 0.17310000 0.95350000 -0.24680000
vn 0.17240000 0.95380000 -0.24590000
vn 0.18170000 0.95710000 -0.22570000
vn 0.17170000 0.95520000 -0.24110000
vn 0.17920000 0.95470000 -0.23770000
vn 0.18170000 0.95710000 -0.22570000
vn 0.17810000 0.95730000 -0.22760000
vn 0.17170000 0.95520000 -0.24110000
vn 0.18170000 0.95710000 -0.22570000
vn 0.18270000 0.95990000 -0.21260000
vn 0.17810000 0.95730000 -0.22760000
vn 0.17610000 0.96660000 -0.18650000
vn 0.18270000 0.95990000 -0.21260000
vn 0.18560000 0.96010000 -0.20940000
vn 0.18170000 0.96560000 -0.18580000
vn 0.18420000 0.96550000 -0.18430000
vn 0.17900000 0.97000000 -0.16440000
vn 0.17920000 0.96710000 -0.18030000
vn 0.18000000 0.96730000 -0.17880000
vn 0.18000000 0.96730000 -0.17880000
vn 0.17900000 0.97000000 -0.16440000
vn 0.17780000 0.96770000 -0.17880000
vn 0.17900000 0.97000000 -0.16440000
vn 0.18000000 0.96730000 -0.17880000
vt 0.61359100 0.30795600
vt 0.61359100 0.30795600
vt 0.61484900 0.30648200
vt 0.61484900 0.30648200
vt 0.61484900 0.30648200
vt 0.61485300 0.30799300
vt 0.61361600 0.30097100
vt 0.61361600 0.30097100
vt 0.61361600 0.30097100
vt 0.61485300 0.30100200
vt 0.61484700 0.30299100
vt 0.61484700 0.30299100
vt 0.61484700 0.30299100
vt 0.61484700 0.30299100
vt 0.61232600 0.30675500
vt 0.61232900 0.30791800
vt 0.61232400 0.30557600
vt 0.61232400 0.30557600
vt 0.61232400 0.30557600
vt 0.61484500 0.30494500
vt 0.61484500 0.30494500
vt 0.61484500 0.30494500
vt 0.61232600 0.30438300
vt 0.61232600 0.30438300
vt 0.61232600 0.30438300
vt 0.61233000 0.30317800
vt 0.61233000 0.30317800
vt 0.61233000 0.30317800
vt 0.61236900 0.30094000
vt 0.61110900 0.30091500
vt 0.61110900 0.30091500
vt 0.61107700 0.30314900
vt 0.61107700 0.30314900
vt 0.60983000 0.30201600
vt 0.60983000 0.30201600
vt 0.60983000 0.30201600
vt 0.60983900 0.30088700
vt 0.60982400 0.30312000
f 1/1/1 5/5/5 6/6/6
f 8/8/8 10/10/10 11/11/11
f 15/15/15 2/2/2 16/16/16
f 15/15/15 4/4/4 2/2/2
f 18/18/18 22/22/22 3/3/3
f 19/19/19 4/4/4 15/15/15
f 25/25/25 13/13/13 21/21/21
f 23/23/23 20/20/20 17/17/17
f 26/26/26 29/29/29 9/9/9
f 28/28/28 7/7/7 14/14/14
f 27/27/27 12/12/12 24/24/24
f 30/30/30 29/29/29 26/26/26
f 32/32/32 30/30/30 26/26/26
f 35/35/35 37/37/37 31/31/31
f 36/36/36 30/30/30 32/32/32
f 38/38/38 34/34/34 33/33/33