mtllib Part__Feature001_009_001_002_001.mtl
usemtl Part__Feature001_009_001_002_001
v 0.09868300 0.07611100 -0.00049700
v 0.09868300 0.07611100 -0.00049700
v 0.09868300 0.07611100 -0.00049700
v 0.09868300 0.07611100 -0.00049700
v 0.09868300 0.07611100 -0.00049700
v 0.09998400 0.07590500 -0.00072800
v 0.09998400 0.07590500 -0.00072800
v 0.09998400 0.07590500 -0.00072800
v 0.09998400 0.07590500 -0.00072800
v 0.09998400 0.07590500 -0.00072800
v 0.09998400 0.07590500 -0.00072800
v 0.09998400 0.07590500 -0.00072800
v 0.09851700 0.07581400 -0.00086200
v 0.09851700 0.07581400 -0.00086200
v 0.09851700 0.07581400 -0.00086200
v 0.09851700 0.07581400 -0.00086200
v 0.09851700 0.07581400 -0.00086200
v 0.09851700 0.07581400 -0.00086200
v 0.09715700 0.07595300 -0.00077500
v 0.09715700 0.07595300 -0.00077500
v 0.09715700 0.07595300 -0.00077500
v 0.09715700 0.07595300 -0.00077500
v 0.09715700 0.07595300 -0.00077500
v 0.09715700 0.07595300 -0.00077500
v 0.09715700 0.07595300 -0.00077500
v 0.09715700 0.07595300 -0.00077500
v 0.09740100 0.07612900 -0.00058100
v 0.09740100 0.07612900 -0.00058100
v 0.09740100 0.07612900 -0.00058100
v 0.09740100 0.07612900 -0.00058100
v 0.09744400 0.07561100 -0.00100100
v 0.09744400 0.07561100 -0.00100100
v 0.09744400 0.07561100 -0.00100100
v 0.09728800 0.07624100 -0.00031100
v 0.09728800 0.07624100 -0.00031100
v 0.09728800 0.07624100 -0.00031100
v 0.09728800 0.07624100 -0.00031100
v 0.09728800 0.07624100 -0.00031100
v 0.09728800 0.07624100 -0.00031100
v 0.09991000 0.07614600 -0.00019200
v 0.09991000 0.07614600 -0.00019200
v 0.09991000 0.07614600 -0.00019200
v 0.09991000 0.07614600 -0.00019200
v 0.09991000 0.07614600 -0.00019200
v 0.09991000 0.07614600 -0.00019200
v 0.09991000 0.07614600 -0.00019200
v 0.09995600 0.07549500 -0.00099200
v 0.09995600 0.07549500 -0.00099200
v 0.09995600 0.07549500 -0.00099200
v 0.09735000 0.07627500 0.00010700
v 0.09735000 0.07627500 0.00010700
v 0.09735000 0.07627500 0.00010700
v 0.09735000 0.07627500 0.00010700
v 0.09735000 0.07627500 0.00010700
v 0.09725200 0.07563400 0.00100000
v 0.09725200 0.07563400 0.00100000
v 0.09725200 0.07563400 0.00100000
v 0.09727400 0.07614800 0.00055600
v 0.09727400 0.07614800 0.00055600
v 0.09727400 0.07614800 0.00055600
v 0.09727400 0.07614800 0.00055600
v 0.09727400 0.07614800 0.00055600
v 0.09727400 0.07614800 0.00055600
v 0.09727400 0.07614800 0.00055600
v 0.09727400 0.07614800 0.00055600
v 0.09677000 0.07566600 0.00075100
v 0.09677000 0.07566600 0.00075100
v 0.09677000 0.07566600 0.00075100
v 0.09670100 0.07566600 -0.00065300
v 0.09670100 0.07566600 -0.00065300
v 0.09670100 0.07566600 -0.00065300
v 0.09698800 0.07565100 -0.00089300
v 0.09698800 0.07565100 -0.00089300
v 0.09670000 0.07594800 -0.00032200
v 0.09670000 0.07594800 -0.00032200
v 0.09670000 0.07594800 -0.00032200
v 0.09670000 0.07594800 -0.00032200
v 0.09670000 0.07594800 -0.00032200
v 0.09698300 0.07619500 -0.00014700
v 0.09698300 0.07619500 -0.00014700
v 0.09698300 0.07619500 -0.00014700
v 0.09698300 0.07619500 -0.00014700
v 0.09698300 0.07619500 -0.00014700
v 0.09698300 0.07619500 -0.00014700
v 0.09650200 0.07568000 0.00030000
v 0.09650200 0.07568000 0.00030000
v 0.09679400 0.07602500 0.00038600
v 0.09679400 0.07602500 0.00038600
v 0.09679400 0.07602500 0.00038600
v 0.09679400 0.07602500 0.00038600
v 0.09679400 0.07602500 0.00038600
v 0.09679400 0.07602500 0.00038600
v 0.09646900 0.07568200 -0.00020100
v 0.09646900 0.07568200 -0.00020100
v 0.09646900 0.07568200 -0.00020100
v 0.10003700 0.07549600 0.00099400
v 0.10003700 0.07549600 0.00099400
v 0.10012100 0.07572300 0.00086100
v 0.10012100 0.07572300 0.00086100
v 0.10012100 0.07572300 0.00086100
v 0.10012100 0.07572300 0.00086100
v 0.10012100 0.07572300 0.00086100
v 0.10012100 0.07572300 0.00086100
v 0.10012100 0.07572300 0.00086100
v 0.09863500 0.07554700 0.00099800
v 0.09863500 0.07554700 0.00099800
v 0.09863500 0.07554700 0.00099800
v 0.09993900 0.07601400 0.00056900
v 0.09993900 0.07601400 0.00056900
v 0.09993900 0.07601400 0.00056900
v 0.09993900 0.07601400 0.00056900
v 0.09869700 0.07583100 0.00084100
v 0.09869700 0.07583100 0.00084100
v 0.09869700 0.07583100 0.00084100
v 0.09869700 0.07583100 0.00084100
v 0.09869700 0.07583100 0.00084100
v 0.09868500 0.07614400 0.00039800
v 0.09868500 0.07614400 0.00039800
v 0.09868500 0.07614400 0.00039800
v 0.09868500 0.07614400 0.00039800
v 0.10010400 0.07609500 0.00034200
v 0.10010400 0.07609500 0.00034200
v 0.10010400 0.07609500 0.00034200
v 0.10010400 0.07609500 0.00034200
v 0.10010400 0.07609500 0.00034200
v 0.10010400 0.07609500 0.00034200
v 0.10010400 0.07609500 0.00034200
v 0.10044000 0.07547500 0.00076500
v 0.10044000 0.07547500 0.00076500
v 0.10044000 0.07547500 0.00076500
v 0.10055100 0.07573000 0.00045600
v 0.10055100 0.07573000 0.00045600
v 0.10055100 0.07573000 0.00045600
v 0.10055100 0.07573000 0.00045600
v 0.10055100 0.07573000 0.00045600
v 0.10061300 0.07547100 -0.00058900
v 0.10061300 0.07547100 -0.00058900
v 0.10061300 0.07547100 -0.00058900
v 0.10059400 0.07576700 -0.00032000
v 0.10059400 0.07576700 -0.00032000
v 0.10059400 0.07576700 -0.00032000
v 0.10059400 0.07576700 -0.00032000
v 0.10059400 0.07576700 -0.00032000
v 0.10080400 0.07546500 -0.00015500
v 0.10080400 0.07546500 -0.00015500
v 0.10080400 0.07546500 -0.00015500
v 0.10041600 0.07577500 -0.00059700
v 0.10041600 0.07577500 -0.00059700
v 0.10041600 0.07577500 -0.00059700
v 0.10041600 0.07577500 -0.00059700
v 0.10041600 0.07577500 -0.00059700
v 0.10021500 0.07606700 -0.00027100
v 0.10021500 0.07606700 -0.00027100
v 0.10021500 0.07606700 -0.00027100
v 0.10021500 0.07606700 -0.00027100
v 0.10021500 0.07606700 -0.00027100
v 0.10021500 0.07606700 -0.00027100
v 0.10062200 0.07583100 0.00004000
v 0.10062200 0.07583100 0.00004000
v 0.10062200 0.07583100 0.00004000
v 0.10062200 0.07583100 0.00004000
v 0.10062200 0.07583100 0.00004000
v 0.10062200 0.07583100 0.00004000
v 0.10072500 0.07546700 0.00041000
v 0.10072500 0.07546700 0.00041000
v 0.10072500 0.07546700 0.00041000
v 0.10030800 0.07547900 -0.00085900
v 0.10030800 0.07547900 -0.00085900
v 0.10030800 0.07547900 -0.00085900
vn 0.00990000 0.77340000 -0.63380000
vn 0.04850000 0.95120000 -0.30460000
vn 0.05320000 0.76250000 -0.64480000
vn 0.07350000 0.91330000 -0.40050000
vn 0.03750000 0.92830000 -0.37000000
vn 0.13460000 0.91060000 -0.39090000
vn 0.38790000 0.52750000 -0.75580000
vn 0.38190000 0.79340000 -0.47390000
vn 0.04340000 0.53880000 -0.84130000
vn 0.07350000 0.91330000 -0.40050000
vn 0.32610000 0.49570000 -0.80500000
vn 0.00990000 0.77340000 -0.63380000
vn 0.00990000 0.77340000 -0.63380000
vn 0.00290000 0.55290000 -0.83320000
vn 0.04340000 0.53880000 -0.84130000
vn 0.02940000 0.72090000 -0.69240000
vn 0.05320000 0.76250000 -0.64480000
vn 0.02480000 0.47110000 -0.88170000
vn -0.17000000 0.44020000 -0.88170000
vn 0.00290000 0.55290000 -0.83320000
vn -0.51840000 0.54760000 -0.65680000
vn -0.25030000 0.85220000 -0.45950000
vn -0.43070000 0.79580000 -0.42570000
vn 0.02940000 0.72090000 -0.69240000
vn -0.35430000 0.83560000 -0.41980000
vn -0.54530000 0.63820000 -0.54350000
vn -0.25030000 0.85220000 -0.45950000
vn 0.03750000 0.92830000 -0.37000000
vn 0.05320000 0.76250000 -0.64480000
vn 0.02940000 0.72090000 -0.69240000
vn -0.17000000 0.44020000 -0.88170000
vn 0.00290000 0.55290000 -0.83320000
vn 0.02480000 0.47110000 -0.88170000
vn -0.35430000 0.83560000 -0.41980000
vn -0.25030000 0.85220000 -0.45950000
vn 0.04850000 0.95120000 -0.30460000
vn -0.17870000 0.98250000 -0.05340000
vn 0.03750000 0.92830000 -0.37000000
vn 0.04000000 0.99540000 -0.08690000
vn 0.06620000 0.98780000 0.14090000
vn 0.03760000 0.99600000 0.08150000
vn 0.07350000 0.91330000 -0.40050000
vn 0.04850000 0.95120000 -0.30460000
vn 0.13460000 0.91060000 -0.39090000
vn 0.04000000 0.99540000 -0.08690000
vn 0.25180000 0.96780000 0.00120000
vn 0.02480000 0.47110000 -0.88170000
vn 0.32610000 0.49570000 -0.80500000
vn 0.04340000 0.53880000 -0.84130000
vn 0.03350000 0.96000000 0.27810000
vn 0.04000000 0.99540000 -0.08690000
vn 0.06620000 0.98780000 0.14090000
vn -0.17870000 0.98250000 -0.05340000
vn -0.34140000 0.91780000 0.20280000
vn -0.00590000 0.65380000 0.75660000
vn 0.03120000 0.47860000 0.87750000
vn -0.32420000 0.62640000 0.70890000
vn -0.00590000 0.65380000 0.75660000
vn -0.32420000 0.62640000 0.70890000
vn -0.34140000 0.91780000 0.20280000
vn 0.03440000 0.74930000 0.66140000
vn 0.03350000 0.96000000 0.27810000
vn -0.30630000 0.93290000 0.18920000
vn -0.39480000 0.66850000 0.63030000
vn 0.04460000 0.92500000 0.37740000
vn -0.39480000 0.66850000 0.63030000
vn -0.32420000 0.62640000 0.70890000
vn -0.73340000 0.50820000 0.45160000
vn -0.51840000 0.54760000 -0.65680000
vn -0.77260000 0.48320000 -0.41190000
vn -0.54530000 0.63820000 -0.54350000
vn -0.51840000 0.54760000 -0.65680000
vn -0.17000000 0.44020000 -0.88170000
vn -0.54530000 0.63820000 -0.54350000
vn -0.65960000 0.75160000 0.00580000
vn -0.43070000 0.79580000 -0.42570000
vn -0.74840000 0.66270000 0.02720000
vn -0.77260000 0.48320000 -0.41190000
vn -0.65960000 0.75160000 0.00580000
vn -0.34140000 0.91780000 0.20280000
vn -0.30630000 0.93290000 0.18920000
vn -0.17870000 0.98250000 -0.05340000
vn -0.43070000 0.79580000 -0.42570000
vn -0.35430000 0.83560000 -0.41980000
vn -0.73340000 0.50820000 0.45160000
vn -0.76850000 0.63760000 0.05320000
vn -0.74840000 0.66270000 0.02720000
vn -0.73340000 0.50820000 0.45160000
vn -0.76850000 0.63760000 0.05320000
vn -0.30630000 0.93290000 0.18920000
vn -0.39480000 0.66850000 0.63030000
vn -0.65960000 0.75160000 0.00580000
vn -0.77260000 0.48320000 -0.41190000
vn -0.74840000 0.66270000 0.02720000
vn -0.76850000 0.63760000 0.05320000
vn 0.48340000 0.30220000 0.82160000
vn 0.02090000 0.49860000 0.86660000
vn 0.58610000 0.50820000 0.63100000
vn 0.36170000 0.76330000 0.53530000
vn 0.02410000 0.48010000 0.87690000
vn 0.48340000 0.30220000 0.82160000
vn 0.46450000 0.72690000 0.50580000
vn 0.04500000 0.72150000 0.69100000
vn 0.02090000 0.49860000 0.86660000
vn 0.02410000 0.48010000 0.87690000
vn 0.02090000 0.49860000 0.86660000
vn 0.03120000 0.47860000 0.87750000
vn 0.04500000 0.72150000 0.69100000
vn 0.36170000 0.76330000 0.53530000
vn 0.03440000 0.74930000 0.66140000
vn 0.04520000 0.92620000 0.37420000
vn 0.03440000 0.74930000 0.66140000
vn 0.04500000 0.72150000 0.69100000
vn 0.03120000 0.47860000 0.87750000
vn -0.00590000 0.65380000 0.75660000
vn 0.02410000 0.48010000 0.87690000
vn 0.03350000 0.96000000 0.27810000
vn 0.04630000 0.92870000 0.36790000
vn 0.03760000 0.99600000 0.08150000
vn 0.06620000 0.98780000 0.14090000
vn 0.36170000 0.76330000 0.53530000
vn 0.25180000 0.96780000 0.00120000
vn 0.56180000 0.77730000 0.28320000
vn 0.47520000 0.87870000 0.04580000
vn 0.03760000 0.99600000 0.08150000
vn 0.04670000 0.92980000 0.36500000
vn 0.46450000 0.72690000 0.50580000
vn 0.58610000 0.50820000 0.63100000
vn 0.48340000 0.30220000 0.82160000
vn 0.72500000 0.37970000 0.57470000
vn 0.46450000 0.72690000 0.50580000
vn 0.58610000 0.50820000 0.63100000
vn 0.72500000 0.37970000 0.57470000
vn 0.56180000 0.77730000 0.28320000
vn 0.82540000 0.50040000 0.26130000
vn 0.74800000 0.47180000 -0.46680000
vn 0.61870000 0.38220000 -0.68640000
vn 0.84620000 0.38660000 -0.36670000
vn 0.84950000 0.50470000 -0.15380000
vn 0.55730000 0.75960000 -0.33540000
vn 0.59500000 0.78250000 -0.18350000
vn 0.74800000 0.47180000 -0.46680000
vn 0.84620000 0.38660000 -0.36670000
vn 0.91350000 0.38710000 0.12500000
vn 0.84950000 0.50470000 -0.15380000
vn 0.84620000 0.38660000 -0.36670000
vn 0.74800000 0.47180000 -0.46680000
vn 0.38790000 0.52750000 -0.75580000
vn 0.61870000 0.38220000 -0.68640000
vn 0.38190000 0.79340000 -0.47390000
vn 0.55730000 0.75960000 -0.33540000
vn 0.38190000 0.79340000 -0.47390000
vn 0.55730000 0.75960000 -0.33540000
vn 0.59500000 0.78250000 -0.18350000
vn 0.47520000 0.87870000 0.04580000
vn 0.13460000 0.91060000 -0.39090000
vn 0.25180000 0.96780000 0.00120000
vn 0.59500000 0.78250000 -0.18350000
vn 0.47520000 0.87870000 0.04580000
vn 0.56180000 0.77730000 0.28320000
vn 0.84950000 0.50470000 -0.15380000
vn 0.91350000 0.38710000 0.12500000
vn 0.82540000 0.50040000 0.26130000
vn 0.82540000 0.50040000 0.26130000
vn 0.91350000 0.38710000 0.12500000
vn 0.72500000 0.37970000 0.57470000
vn 0.32610000 0.49570000 -0.80500000
vn 0.38790000 0.52750000 -0.75580000
vn 0.61870000 0.38220000 -0.68640000
vt 0.64768100 0.30343100
vt 0.61526800 0.30272000
vt 0.64768100 0.30343100
vt 0.61526800 0.30272000
vt 0.61526800 0.30272000
vt 0.61493500 0.30599000
vt 0.64710200 0.30667500
vt 0.64710200 0.30667500
vt 0.64710200 0.30667500
vt 0.61493500 0.30599000
vt 0.64710200 0.30667500
vt 0.64710200 0.30667500
vt 0.64651900 0.30310500
vt 0.64651900 0.30310500
vt 0.64651900 0.30310500
vt 0.64651900 0.30310500
vt 0.64651900 0.30310500
vt 0.64651900 0.30310500
vt 0.64673800 0.29975000
vt 0.64673800 0.29975000
vt 0.64673800 0.29975000
vt 0.64673800 0.29975000
vt 0.64673800 0.29975000
vt 0.64673800 0.29975000
vt 0.64673800 0.29975000
vt 0.64673800 0.29975000
vt 0.64741200 0.30030600
vt 0.61485300 0.29959000
vt 0.64741200 0.30030600
vt 0.64741200 0.30030600
vt 0.64576400 0.30050200
vt 0.64576400 0.30050200
vt 0.64576400 0.30050200
vt 0.64803100 0.29996700
vt 0.64803100 0.29996700
vt 0.61548600 0.29924400
vt 0.61548600 0.29924400
vt 0.61548600 0.29924400
vt 0.61548600 0.29924400
vt 0.61621200 0.30566800
vt 0.61621200 0.30566800
vt 0.61621200 0.30566800
vt 0.61621200 0.30566800
vt 0.61621200 0.30566800
vt 0.61621200 0.30566800
vt 0.61621200 0.30566800
vt 0.64589500 0.30666200
vt 0.64589500 0.30666200
vt 0.64589500 0.30666200
vt 0.61652500 0.29931700
vt 0.61652500 0.29931700
vt 0.61652500 0.29931700
vt 0.61652500 0.29931700
vt 0.61652500 0.29931700
vt 0.65943500 0.30761200
vt 0.65943500 0.30761200
vt 0.65943500 0.30761200
vt 0.66110300 0.30743900
vt 0.66110300 0.30743900
vt 0.61764300 0.29908100
vt 0.66110300 0.30743900
vt 0.61764300 0.29908100
vt 0.61764300 0.29908100
vt 0.66110300 0.30743900
vt 0.61764300 0.29908100
vt 0.65986600 0.30854600
vt 0.65986600 0.30854600
vt 0.61812000 0.29791200
vt 0.64630700 0.29859800
vt 0.64630700 0.29859800
vt 0.64630700 0.29859800
vt 0.64594600 0.29935900
vt 0.64594600 0.29935900
vt 0.64736500 0.29852200
vt 0.61541100 0.29786500
vt 0.64736500 0.29852200
vt 0.61541100 0.29786500
vt 0.64736500 0.29852200
vt 0.61585000 0.29847800
vt 0.61585000 0.29847800
vt 0.61585000 0.29847800
vt 0.61585000 0.29847800
vt 0.64815300 0.29917900
vt 0.64815300 0.29917900
vt 0.61696000 0.29732900
vt 0.61696000 0.29732900
vt 0.61716500 0.29795900
vt 0.61716500 0.29795900
vt 0.61716500 0.29795900
vt 0.61716500 0.29795900
vt 0.66110400 0.30836300
vt 0.61716500 0.29795900
vt 0.64700400 0.29792300
vt 0.61571400 0.29733400
vt 0.61571400 0.29733400
vt 0.65898200 0.30113200
vt 0.65898200 0.30113200
vt 0.65962900 0.30093300
vt 0.65962900 0.30093300
vt 0.65962900 0.30093300
vt 0.65962900 0.30093300
vt 0.65962900 0.30093300
vt 0.65962900 0.30093300
vt 0.65962900 0.30093300
vt 0.65917000 0.30438700
vt 0.65917000 0.30438700
vt 0.65917000 0.30438700
vt 0.66064100 0.30125200
vt 0.66064100 0.30125200
vt 0.66064100 0.30125200
vt 0.61812000 0.30563600
vt 0.65997000 0.30424400
vt 0.65997000 0.30424400
vt 0.65997000 0.30424400
vt 0.65997000 0.30424400
vt 0.65997000 0.30424400
vt 0.61747800 0.30256600
vt 0.61747800 0.30256600
vt 0.61747800 0.30256600
vt 0.61747800 0.30256600
vt 0.66110400 0.30073200
vt 0.61757200 0.30606300
vt 0.61757200 0.30606300
vt 0.61757200 0.30606300
vt 0.61757200 0.30606300
vt 0.61757200 0.30606300
vt 0.66110400 0.30073200
vt 0.65922000 0.30001900
vt 0.65922000 0.30001900
vt 0.65922000 0.30001900
vt 0.66016100 0.29963400
vt 0.66016100 0.29963400
vt 0.66016100 0.29963400
vt 0.61798200 0.30721400
vt 0.66016100 0.29963400
vt 0.64655900 0.30817900
vt 0.64655900 0.30817900
vt 0.64655900 0.30817900
vt 0.61606300 0.30744400
vt 0.61606300 0.30744400
vt 0.61606300 0.30744400
vt 0.64754700 0.30807400
vt 0.64754700 0.30807400
vt 0.66041100 0.29847100
vt 0.61655200 0.30799300
vt 0.64724300 0.30854600
vt 0.64711000 0.30770200
vt 0.64711000 0.30770200
vt 0.64711000 0.30770200
vt 0.64711000 0.30770200
vt 0.61534800 0.30705300
vt 0.64815300 0.30713700
vt 0.61607800 0.30644500
vt 0.61607800 0.30644500
vt 0.61607800 0.30644500
vt 0.61607800 0.30644500
vt 0.61607800 0.30644500
vt 0.61694800 0.30743800
vt 0.61694800 0.30743800
vt 0.61694800 0.30743800
vt 0.61694800 0.30743800
vt 0.66092500 0.29919500
vt 0.66092500 0.29919500
vt 0.65966200 0.29908700
vt 0.65966200 0.29908700
vt 0.65966200 0.29908700
vt 0.64611700 0.30749400
vt 0.64611700 0.30749400
vt 0.64611700 0.30749400
f 1/1/1 12/12/12 13/13/13
f 24/24/24 30/30/30 16/16/16
f 20/20/20 14/14/14 32/32/32
f 38/38/38 5/5/5 28/28/28
f 4/4/4 42/42/42 10/10/10
f 49/49/49 15/15/15 9/9/9
f 17/17/17 29/29/29 3/3/3
f 33/33/33 18/18/18 47/47/47
f 45/45/45 39/39/39 51/51/51
f 2/2/2 36/36/36 43/43/43
f 57/57/57 59/59/59 67/67/67
f 69/69/69 21/21/21 72/72/72
f 27/27/27 22/22/22 35/35/35
f 71/71/71 74/74/74 26/26/26
f 34/34/34 25/25/25 84/84/84
f 73/73/73 19/19/19 31/31/31
f 76/76/76 83/83/83 23/23/23
f 86/86/86 89/89/89 95/95/95
f 93/93/93 78/78/78 70/70/70
f 53/53/53 37/37/37 82/82/82
f 64/64/64 91/91/91 66/66/66
f 81/81/81 90/90/90 63/63/63
f 60/60/60 54/54/54 80/80/80
f 68/68/68 88/88/88 85/85/85
f 94/94/94 87/87/87 77/77/77
f 92/92/92 79/79/79 75/75/75
f 97/97/97 104/104/104 106/106/106
f 103/103/103 108/108/108 113/113/113
f 107/107/107 114/114/114 56/56/56
f 52/52/52 120/120/120 40/40/40
f 112/112/112 110/110/110 61/61/61
f 65/65/65 111/111/111 118/118/118
f 119/119/119 125/125/125 41/41/41
f 55/55/55 115/115/115 58/58/58
f 100/100/100 116/116/116 105/105/105
f 111/111/111 126/126/126 118/118/118
f 50/50/50 62/62/62 117/117/117
f 101/101/101 96/96/96 129/129/129
f 131/131/131 127/127/127 102/102/102
f 138/138/138 143/143/143 146/146/146
f 142/142/142 136/136/136 147/147/147
f 141/141/141 154/154/154 158/158/158
f 159/159/159 155/155/155 124/124/124
f 151/151/151 153/153/153 140/140/140
f 157/157/157 46/46/46 122/122/122
f 166/166/166 133/133/133 130/130/130
f 128/128/128 132/132/132 98/98/98
f 6/6/6 44/44/44 156/156/156
f 99/99/99 121/121/121 109/109/109
f 161/161/161 145/145/145 139/139/139
f 134/134/134 160/160/160 123/123/123
f 169/169/169 149/149/149 137/137/137
f 162/162/162 165/165/165 144/144/144
f 135/135/135 164/164/164 163/163/163
f 48/48/48 11/11/11 167/167/167
f 168/168/168 7/7/7 148/148/148
f 150/150/150 8/8/8 152/152/152