mtllib Face374_002_001_002_001.mtl
usemtl Face374_002_001_002_001
v 0.09659400 0.07077400 -0.03329700
v 0.09659400 0.07077400 -0.03329700
v 0.05359200 0.07916200 -0.00000100
v 0.05359200 0.07916200 -0.00000100
v 0.05359200 0.07916200 -0.00000100
v 0.05359200 0.07916200 -0.00000100
v 0.05359200 0.07916200 -0.00000100
v 0.05359200 0.07916200 -0.00000100
v 0.05359200 0.07916200 -0.00000100
v 0.10232300 0.06963300 -0.03110800
v 0.11118900 0.06802700 -0.02450800
v 0.11118900 0.06802700 -0.02450800
v 0.11118900 0.06802700 -0.02450800
v 0.11480400 0.06679300 0.00000000
v 0.11480400 0.06679300 0.00000000
v 0.11480400 0.06679300 0.00000000
v 0.11480400 0.06679300 0.00000000
v 0.06519100 0.07684200 -0.02622200
v 0.06519100 0.07684200 -0.02622200
v 0.06141800 0.07755900 -0.02232100
v 0.09124200 0.07182300 -0.03440400
v 0.06906000 0.07610700 -0.02915400
v 0.08109800 0.07379600 -0.03403400
v 0.07443000 0.07507900 -0.03208100
v 0.10733400 0.06863000 -0.02792700
v 0.10733400 0.06863000 -0.02792700
v 0.08590100 0.07286400 -0.03457500
v 0.05860200 0.07809500 -0.01837600
v 0.05600000 0.07859800 -0.01332900
v 0.05600000 0.07859800 -0.01332900
v 0.05422300 0.07893700 -0.00758700
v 0.05422300 0.07893700 -0.00758700
v 0.05357800 0.07906300 -0.00340600
v 0.11829300 0.06490700 -0.01717400
v 0.11829300 0.06490700 -0.01717400
v 0.12385400 0.06093300 -0.00000100
v 0.12385400 0.06093300 -0.00000100
v 0.12385400 0.06093300 -0.00000100
v 0.12385400 0.06093300 -0.00000100
v 0.12385400 0.06093300 -0.00000100
v 0.12061300 0.06318500 -0.01412400
v 0.12061300 0.06318500 -0.01412400
v 0.12061300 0.06318500 -0.01412400
v 0.12215600 0.06215100 -0.01114100
v 0.12215600 0.06215100 -0.01114100
v 0.12352500 0.06128700 -0.00421700
v 0.12352500 0.06128700 -0.00421700
v 0.12313200 0.06152300 -0.00702100
v 0.12313200 0.06152300 -0.00702100
v 0.12361500 0.06114800 -0.00409300
v 0.05712000 0.07829300 0.01604200
v 0.05712000 0.07829300 0.01604200
v 0.05353700 0.07862000 -0.00000100
v 0.05353700 0.07862000 -0.00000100
v 0.05353700 0.07862000 -0.00000100
v 0.05353700 0.07862000 -0.00000100
v 0.05353700 0.07862000 -0.00000100
v 0.05353700 0.07862000 -0.00000100
v 0.05446100 0.07879800 0.00896300
v 0.05446100 0.07879800 0.00896300
v 0.06699200 0.07638200 0.02774400
v 0.06210400 0.07730200 0.02331700
v 0.06210400 0.07730200 0.02331700
v 0.07521900 0.07478000 0.03236000
v 0.08114200 0.07361700 0.03406700
v 0.08114200 0.07361700 0.03406700
v 0.07074300 0.07565400 0.03021500
v 0.08864700 0.07225500 0.03463600
v 0.08864700 0.07225500 0.03463600
v 0.05360300 0.07897400 0.00432100
v 0.09605800 0.07078400 0.03346900
v 0.10127700 0.06973900 0.03154800
v 0.11498400 0.06665200 0.00000000
v 0.11498400 0.06665200 0.00000000
v 0.11498400 0.06665200 0.00000000
v 0.11498400 0.06665200 0.00000000
v 0.11498400 0.06665200 0.00000000
v 0.10517000 0.06896900 0.02943400
v 0.10986600 0.06800500 0.02591900
v 0.10986600 0.06800500 0.02591900
v 0.12199800 0.06217900 0.01200300
v 0.12199800 0.06217900 0.01200300
v 0.12199800 0.06217900 0.01200300
v 0.11938600 0.06398100 0.01602000
v 0.11938600 0.06398100 0.01602000
v 0.11379500 0.06709300 0.02181000
v 0.11379500 0.06709300 0.02181000
v 0.12385800 0.06083300 0.00000000
v 0.12385800 0.06083300 0.00000000
v 0.12385800 0.06083300 0.00000000
v 0.12306600 0.06148300 0.00801500
v 0.12306600 0.06148300 0.00801500
v 0.12366100 0.06097200 0.00353100
vn 0.19400000 0.98100000 0.00350000
vn 0.19220000 0.98140000 0.00090000
vn 0.00790000 0.99950000 -0.02900000
vn 0.17840000 0.98360000 -0.02770000
vn 0.18830000 0.98210000 -0.00230000
vn 0.17350000 0.98480000 -0.00970000
vn 0.12910000 0.99150000 -0.01870000
vn 0.19410000 0.98100000 0.00350000
vn 0.19800000 0.98000000 0.02010000
vn 0.19410000 0.98100000 0.00350000
vn 0.19800000 0.98000000 0.02010000
vn 0.41540000 0.90950000 -0.01550000
vn 0.17840000 0.98360000 -0.02770000
vn 0.57310000 0.81900000 0.02650000
vn 0.54350000 0.83940000 0.00910000
vn 0.41540000 0.90950000 -0.01550000
vn 0.19800000 0.98000000 0.02010000
vn 0.17870000 0.98390000 -0.00800000
vn 0.18210000 0.98330000 -0.00640000
vn 0.17480000 0.98460000 -0.00940000
vn 0.19150000 0.98150000 0.00020000
vn 0.18290000 0.98310000 -0.00610000
vn 0.18870000 0.98200000 -0.00230000
vn 0.18630000 0.98250000 -0.00410000
vn 0.17840000 0.98360000 -0.02770000
vn 0.19410000 0.98100000 0.00360000
vn 0.19070000 0.98160000 -0.00050000
vn 0.17010000 0.98540000 -0.01080000
vn 0.16880000 0.98560000 -0.01120000
vn 0.12910000 0.99150000 -0.01870000
vn 0.12910000 0.99150000 -0.01870000
vn 0.00790000 0.99950000 -0.02900000
vn 0.00790000 0.99950000 -0.02900000
vn 0.41540000 0.90950000 -0.01550000
vn 0.57310000 0.81900000 0.02650000
vn 0.45530000 0.88990000 0.02790000
vn 0.00570000 0.99650000 0.08310000
vn 0.54490000 0.83840000 0.00860000
vn 0.54350000 0.83940000 0.00910000
vn 0.84540000 0.53360000 -0.02130000
vn 0.54490000 0.83840000 0.00860000
vn 0.54350000 0.83940000 0.00910000
vn 0.57310000 0.81900000 0.02650000
vn 0.45530000 0.88990000 0.02790000
vn 0.54490000 0.83840000 0.00860000
vn 0.00570000 0.99650000 0.08310000
vn 0.84540000 0.53360000 -0.02130000
vn 0.45530000 0.88990000 0.02790000
vn 0.00570000 0.99650000 0.08310000
vn 0.84540000 0.53360000 -0.02130000
vn 0.31640000 0.94720000 -0.05140000
vn 0.24320000 0.96940000 -0.03460000
vn 0.57540000 0.81430000 -0.07550000
vn 0.24320000 0.96940000 -0.03460000
vn 0.17860000 0.98390000 -0.00020000
vn 0.19120000 0.98150000 -0.01340000
vn 0.31640000 0.94720000 -0.05140000
vn 0.20000000 0.97960000 -0.01770000
vn 0.57540000 0.81430000 -0.07550000
vn 0.31640000 0.94720000 -0.05140000
vn 0.20150000 0.97930000 -0.01870000
vn 0.20110000 0.97940000 -0.01850000
vn 0.24320000 0.96940000 -0.03460000
vn 0.19900000 0.97980000 -0.01710000
vn 0.17860000 0.98390000 -0.00020000
vn 0.19700000 0.98030000 -0.01570000
vn 0.20200000 0.97920000 -0.01890000
vn 0.19270000 0.98120000 -0.01220000
vn 0.17860000 0.98390000 -0.00020000
vn 0.57540000 0.81430000 -0.07550000
vn 0.19210000 0.98130000 -0.01250000
vn 0.18720000 0.98220000 -0.01480000
vn 0.21830000 0.97580000 -0.00780000
vn 0.54830000 0.83620000 -0.00880000
vn 0.49370000 0.86960000 0.00930000
vn 0.18830000 0.98200000 -0.01360000
vn 0.55380000 0.83250000 -0.01340000
vn 0.19050000 0.98160000 -0.01390000
vn 0.19140000 0.98140000 -0.01340000
vn 0.21830000 0.97580000 -0.00780000
vn 0.55380000 0.83250000 -0.01340000
vn 0.54830000 0.83620000 -0.00880000
vn 0.48370000 0.87490000 -0.02320000
vn 0.55380000 0.83250000 -0.01340000
vn 0.49370000 0.86960000 0.00930000
vn 0.49370000 0.86960000 0.00930000
vn 0.21830000 0.97580000 -0.00780000
vn 0.54830000 0.83620000 -0.00880000
vn 0.48370000 0.87490000 -0.02320000
vn 0.69620000 0.71780000 0.01060000
vn 0.69620000 0.71780000 0.01060000
vn 0.48370000 0.87490000 -0.02320000
vn 0.69620000 0.71780000 0.01060000
vt 0.90412500 0.41725700
vt 0.90412500 0.41725700
vt 0.98683200 0.30967900
vt 0.98683200 0.30967900
vt 0.98683200 0.30967900
vt 0.98683200 0.30967900
vt 0.98683200 0.30967900
vt 0.98683200 0.30967900
vt 0.98683200 0.30967900
vt 0.90956200 0.43161500
vt 0.92596100 0.45373200
vt 0.92596100 0.45373200
vt 0.92596100 0.45373200
vt 0.98683200 0.46317000
vt 0.98683200 0.46317000
vt 0.98683200 0.46317000
vt 0.98683200 0.46317000
vt 0.92169600 0.33870900
vt 0.92169600 0.33870900
vt 0.93138600 0.32928400
vt 0.90137400 0.40385700
vt 0.91441300 0.34837500
vt 0.90229200 0.37847200
vt 0.90714300 0.36179800
vt 0.91746400 0.44417800
vt 0.91746400 0.44417800
vt 0.90094900 0.39048900
vt 0.94118500 0.32225100
vt 0.95372200 0.31574900
vt 0.95372200 0.31574900
vt 0.96798500 0.31131500
vt 0.96798500 0.31131500
vt 0.97837100 0.30970700
vt 0.94414700 0.47268500
vt 0.94414700 0.47268500
vt 0.98675300 0.48856600
vt 0.98675300 0.48856600
vt 0.98675300 0.48856600
vt 0.98675300 0.48856600
vt 0.98675300 0.48856600
vt 0.95170000 0.47934700
vt 0.95170000 0.47934700
vt 0.95170000 0.47934700
vt 0.95909700 0.48370500
vt 0.95909700 0.48370500
vt 0.97628600 0.48754200
vt 0.97628600 0.48754200
vt 0.96932300 0.48644700
vt 0.96932300 0.48644700
vt 0.97659200 0.48784800
vt 0.65506300 0.91823600
vt 0.65506300 0.91823600
vt 0.69492600 0.92696400
vt 0.69492600 0.92696400
vt 0.69492600 0.92696400
vt 0.69492600 0.92696400
vt 0.69492600 0.92696400
vt 0.69492600 0.92696400
vt 0.67265100 0.92488600
vt 0.67265100 0.92488600
vt 0.62598300 0.89353200
vt 0.63698600 0.90574600
vt 0.63698600 0.90574600
vt 0.61450800 0.87294000
vt 0.61026200 0.85811000
vt 0.61026200 0.85811000
vt 0.61984100 0.88414500
vt 0.60883800 0.83939400
vt 0.60883800 0.83939400
vt 0.68418300 0.92704200
vt 0.61173000 0.82082900
vt 0.61649700 0.80775000
vt 0.69486000 0.77318400
vt 0.69486000 0.77318400
vt 0.69486000 0.77318400
vt 0.69486000 0.77318400
vt 0.69486000 0.77318400
vt 0.62174500 0.79800000
vt 0.63047300 0.78621700
vt 0.63047300 0.78621700
vt 0.66509300 0.75354100
vt 0.66509300 0.75354100
vt 0.66509300 0.75354100
vt 0.65509300 0.76094300
vt 0.65509300 0.76094300
vt 0.64067800 0.77628800
vt 0.64067800 0.77628800
vt 0.69492600 0.74823300
vt 0.69492600 0.74823300
vt 0.69492600 0.74823300
vt 0.67500700 0.75054300
vt 0.67500700 0.75054300
vt 0.68615300 0.74879200
f 1/1/1 8/8/8 10/10/10
f 11/11/11 9/9/9 17/17/17
f 6/6/6 18/18/18 20/20/20
f 21/21/21 5/5/5 2/2/2
f 22/22/22 19/19/19 5/5/5
f 5/5/5 23/23/23 24/24/24
f 13/13/13 25/25/25 4/4/4
f 24/24/24 22/22/22 5/5/5
f 27/27/27 5/5/5 21/21/21
f 10/10/10 8/8/8 26/26/26
f 23/23/23 5/5/5 27/27/27
f 28/28/28 6/6/6 20/20/20
f 29/29/29 6/6/6 28/28/28
f 7/7/7 30/30/30 31/31/31
f 32/32/32 33/33/33 3/3/3
f 16/16/16 34/34/34 12/12/12
f 39/39/39 42/42/42 15/15/15
f 38/38/38 45/45/45 41/41/41
f 14/14/14 43/43/43 35/35/35
f 37/37/37 46/46/46 49/49/49
f 36/36/36 48/48/48 44/44/44
f 47/47/47 40/40/40 50/50/50
f 51/51/51 57/57/57 60/60/60
f 61/61/61 58/58/58 62/62/62
f 58/58/58 64/64/64 66/66/66
f 61/61/61 67/67/67 58/58/58
f 55/55/55 65/65/65 69/69/69
f 64/64/64 58/58/58 67/67/67
f 54/54/54 52/52/52 63/63/63
f 59/59/59 53/53/53 70/70/70
f 71/71/71 72/72/72 76/76/76
f 78/78/78 76/76/76 72/72/72
f 79/79/79 76/76/76 78/78/78
f 68/68/68 76/76/76 56/56/56
f 71/71/71 76/76/76 68/68/68
f 81/81/81 77/77/77 84/84/84
f 75/75/75 86/86/86 85/85/85
f 82/82/82 88/88/88 74/74/74
f 87/87/87 73/73/73 80/80/80
f 92/92/92 89/89/89 83/83/83
f 90/90/90 91/91/91 93/93/93