mtllib Shell_001.mtl
usemtl Shell_001
v 0.00452700 0.07266500 0.08251100
v 0.00452700 0.07266500 0.08251100
v 0.00452700 0.07266500 0.08251100
v 0.00452700 0.07266500 0.08251100
v 0.00452700 0.07266500 0.08251100
v 0.00452700 0.07266500 0.08251100
v 0.00452700 0.07266500 0.08251100
v 0.00571100 0.07315700 0.08222900
v 0.00571100 0.07315700 0.08222900
v 0.00571100 0.07315700 0.08222900
v 0.00571100 0.07315700 0.08222900
v 0.00571100 0.07315700 0.08222900
v 0.00571100 0.07315700 0.08222900
v 0.00443100 0.07314600 0.08153300
v 0.00443100 0.07314600 0.08153300
v 0.00443100 0.07314600 0.08153300
v 0.00443100 0.07314600 0.08153300
v 0.00443100 0.07314600 0.08153300
v 0.00443100 0.07314600 0.08153300
v 0.00540100 0.07244800 0.08298100
v 0.00540100 0.07244800 0.08298100
v 0.00540100 0.07244800 0.08298100
v 0.00540100 0.07244800 0.08298100
v 0.00540100 0.07244800 0.08298100
v 0.00616600 0.07259600 0.08282500
v 0.00616600 0.07259600 0.08282500
v 0.00616600 0.07259600 0.08282500
v 0.00616600 0.07259600 0.08282500
v 0.00616600 0.07259600 0.08282500
v 0.00331100 0.07220800 0.08108700
v 0.00331100 0.07220800 0.08108700
v 0.00331100 0.07220800 0.08108700
v 0.00331100 0.07220800 0.08108700
v 0.00363500 0.07218700 0.08199700
v 0.00363500 0.07218700 0.08199700
v 0.00363500 0.07218700 0.08199700
v 0.00363500 0.07218700 0.08199700
v 0.00363500 0.07218700 0.08199700
v 0.00393500 0.07290900 0.08132300
v 0.00393500 0.07290900 0.08132300
v 0.00393500 0.07290900 0.08132300
v 0.00393500 0.07290900 0.08132300
v 0.00393500 0.07290900 0.08132300
v 0.00393500 0.07290900 0.08132300
v 0.00698500 0.06952100 0.08467300
v 0.00698500 0.06952100 0.08467300
v 0.00698500 0.06952100 0.08467300
v 0.00698500 0.06952100 0.08467300
v 0.00471800 0.06916400 0.08462300
v 0.00471800 0.06916400 0.08462300
v 0.00471800 0.06916400 0.08462300
v 0.00471800 0.06916400 0.08462300
v 0.00471800 0.06916400 0.08462300
v 0.00197100 0.06870900 0.08134000
v 0.00197100 0.06870900 0.08134000
v 0.00197100 0.06870900 0.08134000
v 0.00898500 0.06984600 0.08352400
v 0.00898500 0.06984600 0.08352400
v 0.00898500 0.06984600 0.08352400
v 0.00898500 0.06984600 0.08352400
v 0.00898500 0.06984600 0.08352400
v 0.01766400 0.07125100 0.04043900
v 0.01766400 0.07125100 0.04043900
v 0.01766400 0.07125100 0.04043900
v 0.01766400 0.07125100 0.04043900
v 0.00962000 0.06998400 0.01322000
v 0.00962000 0.06998400 0.01322000
v 0.00962000 0.06998400 0.01322000
v 0.00962000 0.06998400 0.01322000
v 0.02077800 0.07182700 0.01317600
v 0.02077800 0.07182700 0.01317600
v 0.02077800 0.07182700 0.01317600
v 0.02077800 0.07182700 0.01317600
v 0.01290500 0.07048000 0.07609500
v 0.01290500 0.07048000 0.07609500
v 0.01290500 0.07048000 0.07609500
v 0.01290500 0.07048000 0.07609500
v 0.01290500 0.07048000 0.07609500
v 0.01094500 0.07016300 0.08142400
v 0.01094500 0.07016300 0.08142400
v 0.01094500 0.07016300 0.08142400
v 0.01094500 0.07016300 0.08142400
v 0.00360400 0.06898200 0.08403300
v 0.00360400 0.06898200 0.08403300
v 0.00360400 0.06898200 0.08403300
v 0.00360400 0.06898200 0.08403300
v 0.00265700 0.06882100 0.08305500
v 0.00265700 0.06882100 0.08305500
v 0.00265700 0.06882100 0.08305500
v 0.00265700 0.06882100 0.08305500
v 0.01210700 0.07035100 0.07910000
v 0.01210700 0.07035100 0.07910000
v 0.01210700 0.07035100 0.07910000
v 0.01111600 0.07311100 0.01015600
v 0.01111600 0.07311100 0.01015600
v 0.01111600 0.07311100 0.01015600
v 0.01111600 0.07311100 0.01015600
v 0.01111600 0.07311100 0.01015600
v 0.01111600 0.07311100 0.01015600
v 0.01111600 0.07311100 0.01015600
v 0.01019900 0.07098800 0.01139600
v 0.01019900 0.07098800 0.01139600
v 0.01019900 0.07098800 0.01139600
v 0.01019900 0.07098800 0.01139600
v 0.01024200 0.07354400 0.07645400
v 0.01024200 0.07354400 0.07645400
v 0.01024200 0.07354400 0.07645400
v 0.01024200 0.07354400 0.07645400
v 0.01024200 0.07354400 0.07645400
v 0.01024200 0.07354400 0.07645400
v 0.00980000 0.07323300 0.07873200
v 0.00980000 0.07323300 0.07873200
v 0.00980000 0.07323300 0.07873200
v 0.00980000 0.07323300 0.07873200
v 0.00980000 0.07323300 0.07873200
v 0.00980000 0.07323300 0.07873200
v 0.01870100 0.07484000 0.01014700
v 0.01870100 0.07484000 0.01014700
v 0.01870100 0.07484000 0.01014700
v 0.01870100 0.07484000 0.01014700
v 0.01870100 0.07484000 0.01014700
v 0.01870100 0.07484000 0.01014700
v 0.01870100 0.07484000 0.01014700
v 0.01414600 0.07385700 0.04993400
v 0.01414600 0.07385700 0.04993400
v 0.01414600 0.07385700 0.04993400
v 0.01104200 0.07319000 0.07362400
v 0.01104200 0.07319000 0.07362400
v 0.01104200 0.07319000 0.07362400
v 0.01104200 0.07319000 0.07362400
v 0.02001900 0.07310400 0.01088200
v 0.02001900 0.07310400 0.01088200
v 0.02001900 0.07310400 0.01088200
v 0.02001900 0.07310400 0.01088200
v 0.00757700 0.07314800 0.08159100
v 0.00757700 0.07314800 0.08159100
v 0.00757700 0.07314800 0.08159100
v 0.00757700 0.07314800 0.08159100
v 0.00757700 0.07314800 0.08159100
v 0.00757700 0.07314800 0.08159100
v 0.00757700 0.07314800 0.08159100
v 0.01190200 0.07370500 0.06555700
v 0.01190200 0.07370500 0.06555700
v 0.01190200 0.07370500 0.06555700
v 0.01190200 0.07370500 0.06555700
v 0.01190200 0.07370500 0.06555700
v 0.00843000 0.07301000 0.08098100
v 0.00843000 0.07301000 0.08098100
v 0.00843000 0.07301000 0.08098100
v 0.00843000 0.07301000 0.08098100
v 0.01291100 0.07377800 0.05861000
v 0.01291100 0.07377800 0.05861000
v 0.01291100 0.07377800 0.05861000
v 0.01291100 0.07377800 0.05861000
v 0.01220600 0.07439500 0.01004400
v 0.01220600 0.07439500 0.01004400
v 0.01220600 0.07439500 0.01004400
v 0.01220600 0.07439500 0.01004400
v 0.01220600 0.07439500 0.01004400
v 0.01220600 0.07439500 0.01004400
v 0.01220600 0.07439500 0.01004400
v 0.01220600 0.07439500 0.01004400
v 0.01220600 0.07439500 0.01004400
v 0.01220600 0.07439500 0.01004400
v 0.01762800 0.07525800 0.01009700
v 0.01762800 0.07525800 0.01009700
v 0.01762800 0.07525800 0.01009700
v 0.01762800 0.07525800 0.01009700
v 0.01762800 0.07525800 0.01009700
v 0.00730300 0.07361100 0.08035900
v 0.00730300 0.07361100 0.08035900
v 0.00730300 0.07361100 0.08035900
v 0.00730300 0.07361100 0.08035900
v 0.00730300 0.07361100 0.08035900
v 0.00891200 0.07370700 0.07868800
v 0.00891200 0.07370700 0.07868800
v 0.00891200 0.07370700 0.07868800
v 0.00891200 0.07370700 0.07868800
v 0.00891200 0.07370700 0.07868800
v 0.00940500 0.07393100 0.07469800
v 0.00940500 0.07393100 0.07469800
v 0.00940500 0.07393100 0.07469800
v 0.00940500 0.07393100 0.07469800
v 0.00940500 0.07393100 0.07469800
v 0.01121000 0.07394100 0.06702400
v 0.01121000 0.07394100 0.06702400
v 0.01121000 0.07394100 0.06702400
v 0.01121000 0.07394100 0.06702400
v 0.01102500 0.07415300 0.06468400
v 0.01102500 0.07415300 0.06468400
v 0.01102500 0.07415300 0.06468400
v 0.01102500 0.07415300 0.06468400
v 0.01102500 0.07415300 0.06468400
v 0.01102500 0.07415300 0.06468400
v 0.01102500 0.07415300 0.06468400
v 0.01067100 0.07372600 0.07217900
v 0.01067100 0.07372600 0.07217900
v 0.01067100 0.07372600 0.07217900
v 0.01067100 0.07372600 0.07217900
v 0.00988400 0.07399700 0.07153300
v 0.00988400 0.07399700 0.07153300
v 0.00988400 0.07399700 0.07153300
v 0.01365500 0.07428300 0.04941000
v 0.01365500 0.07428300 0.04941000
v 0.01365500 0.07428300 0.04941000
v 0.01365500 0.07428300 0.04941000
v 0.01489800 0.07481100 0.03299000
v 0.01489800 0.07481100 0.03299000
v 0.01489800 0.07481100 0.03299000
v 0.01569400 0.07496900 0.02486900
v 0.01569400 0.07496900 0.02486900
v 0.01569400 0.07496900 0.02486900
v 0.01393600 0.07465100 0.04103500
v 0.01393600 0.07465100 0.04103500
v 0.01393600 0.07465100 0.04103500
v 0.01295700 0.07446000 0.04981500
v 0.01295700 0.07446000 0.04981500
v 0.01295700 0.07446000 0.04981500
v 0.01193800 0.07431500 0.05720300
v 0.01193800 0.07431500 0.05720300
v 0.01193800 0.07431500 0.05720300
v 0.01230300 0.07411200 0.05899800
v 0.01230300 0.07411200 0.05899800
v 0.01230300 0.07411200 0.05899800
vn -0.25030000 0.85900000 0.44660000
vn -0.52910000 0.73990000 0.41550000
vn -0.60740000 0.66230000 0.43870000
vn -0.15870000 0.75040000 0.64160000
vn -0.32190000 0.47610000 0.81840000
vn -0.61190000 0.42830000 0.66500000
vn -0.47620000 0.43520000 0.76410000
vn 0.11610000 0.93790000 0.32700000
vn -0.09470000 0.98280000 0.15840000
vn -0.15870000 0.75040000 0.64160000
vn -0.00090000 0.72780000 0.68580000
vn -0.25030000 0.85900000 0.44660000
vn 0.20350000 0.78570000 0.58420000
vn -0.42060000 0.90670000 -0.02990000
vn -0.14800000 0.98900000 0.00120000
vn -0.16210000 0.98680000 -0.00430000
vn -0.09470000 0.98280000 0.15840000
vn -0.25030000 0.85900000 0.44660000
vn -0.52910000 0.73990000 0.41550000
vn 0.07060000 0.52760000 0.84660000
vn -0.32190000 0.47610000 0.81840000
vn -0.09200000 0.46060000 0.88280000
vn -0.00090000 0.72780000 0.68580000
vn -0.15870000 0.75040000 0.64160000
vn 0.39310000 0.58360000 0.71060000
vn 0.07060000 0.52760000 0.84660000
vn 0.20350000 0.78570000 0.58420000
vn -0.00090000 0.72780000 0.68580000
vn 0.34740000 0.54930000 0.76000000
vn -0.73260000 0.67680000 -0.07200000
vn -0.76130000 0.58260000 0.28480000
vn -0.87520000 0.35790000 0.32540000
vn -0.93170000 0.34970000 -0.09810000
vn -0.69220000 0.39160000 0.60620000
vn -0.60740000 0.66230000 0.43870000
vn -0.76130000 0.58260000 0.28480000
vn -0.61190000 0.42830000 0.66500000
vn -0.87780000 0.35590000 0.32070000
vn -0.76320000 0.64180000 -0.07520000
vn -0.76130000 0.58260000 0.28480000
vn -0.60740000 0.66230000 0.43870000
vn -0.52910000 0.73990000 0.41550000
vn -0.42060000 0.90670000 -0.02990000
vn -0.73260000 0.67680000 -0.07200000
vn 0.34740000 0.54930000 0.76000000
vn -0.09200000 0.46060000 0.88280000
vn 0.15650000 -0.98770000 0.00500000
vn 0.07060000 0.52760000 0.84660000
vn -0.47620000 0.43520000 0.76410000
vn -0.09200000 0.46060000 0.88280000
vn 0.16260000 -0.98670000 0.00040000
vn -0.32190000 0.47610000 0.81840000
vn 0.15390000 -0.98800000 0.01320000
vn -0.93170000 0.34970000 -0.09810000
vn 0.15680000 -0.98760000 0.00190000
vn -0.87480000 0.35820000 0.32610000
vn 0.34740000 0.54930000 0.76000000
vn 0.55030000 0.57960000 0.60110000
vn 0.53180000 0.58520000 0.61210000
vn 0.16000000 -0.98710000 0.00010000
vn 0.39310000 0.58360000 0.71060000
vn 0.76870000 0.63160000 0.10110000
vn 0.16150000 -0.98690000 -0.00100000
vn 0.75580000 0.64680000 0.10250000
vn 0.77410000 0.62240000 0.11540000
vn -0.93420000 0.33970000 -0.10920000
vn 0.15900000 -0.98730000 -0.00100000
vn -0.93170000 0.34970000 -0.09810000
vn 0.14450000 -0.88550000 -0.44150000
vn 0.15400000 -0.84080000 -0.51900000
vn 0.16300000 -0.98660000 -0.00220000
vn 0.77250000 0.62800000 0.09470000
vn 0.14450000 -0.88550000 -0.44150000
vn 0.75570000 0.64120000 0.13340000
vn 0.15990000 -0.98710000 0.00000000
vn 0.74800000 0.62290000 0.22920000
vn 0.77680000 0.61880000 0.11700000
vn 0.76840000 0.62870000 0.11930000
vn 0.15990000 -0.98710000 0.00020000
vn 0.63400000 0.62990000 0.44870000
vn 0.55030000 0.57960000 0.60110000
vn 0.69200000 0.60430000 0.39490000
vn -0.47620000 0.43520000 0.76410000
vn -0.61190000 0.42830000 0.66500000
vn 0.15390000 -0.98800000 0.01320000
vn -0.69220000 0.39160000 0.60620000
vn 0.15390000 -0.98800000 0.01320000
vn -0.69220000 0.39160000 0.60620000
vn 0.16550000 -0.98620000 -0.00180000
vn -0.87700000 0.35650000 0.32230000
vn 0.15990000 -0.98710000 0.00010000
vn 0.69200000 0.60430000 0.39490000
vn 0.74640000 0.62620000 0.22510000
vn -0.73260000 0.67680000 -0.07200000
vn 0.07620000 -0.33910000 -0.93760000
vn -0.76320000 0.64180000 -0.07520000
vn -0.93420000 0.33970000 -0.10920000
vn -0.93170000 0.34970000 -0.09810000
vn 0.06880000 -0.52510000 -0.84820000
vn 0.02300000 -0.10630000 -0.99410000
vn 0.14450000 -0.88550000 -0.44150000
vn 0.06880000 -0.52510000 -0.84820000
vn 0.15400000 -0.84080000 -0.51900000
vn -0.93420000 0.33970000 -0.10920000
vn 0.75570000 0.64120000 0.13340000
vn 0.67400000 0.73210000 0.09880000
vn 0.74770000 0.62290000 0.23010000
vn 0.29350000 0.95340000 0.07010000
vn 0.26300000 0.96090000 0.08640000
vn 0.45280000 0.86740000 0.20630000
vn 0.36170000 0.88010000 0.30750000
vn 0.42620000 0.83160000 0.35610000
vn 0.74700000 0.62560000 0.22510000
vn 0.69200000 0.60430000 0.39490000
vn 0.63400000 0.62990000 0.44870000
vn 0.45280000 0.86740000 0.20630000
vn 0.02300000 -0.10630000 -0.99410000
vn 0.75580000 0.64680000 0.10250000
vn 0.07620000 -0.33910000 -0.93760000
vn 0.59790000 0.79670000 0.08810000
vn 0.02050000 -0.06850000 -0.99740000
vn 0.77290000 0.62760000 0.09380000
vn 0.35990000 0.93110000 0.05950000
vn 0.59760000 0.79680000 0.08920000
vn 0.77390000 0.62270000 0.11580000
vn 0.75580000 0.64680000 0.10250000
vn 0.76260000 0.63530000 0.12190000
vn 0.75570000 0.64120000 0.13340000
vn 0.52170000 0.84600000 0.10960000
vn 0.67130000 0.73430000 0.10050000
vn 0.77370000 0.62670000 0.09290000
vn 0.07620000 -0.33910000 -0.93760000
vn 0.06880000 -0.52510000 -0.84820000
vn 0.15400000 -0.84080000 -0.51900000
vn 0.11610000 0.93790000 0.32700000
vn 0.24810000 0.92370000 0.29200000
vn 0.20350000 0.78570000 0.58420000
vn 0.36170000 0.88010000 0.30750000
vn 0.39310000 0.58360000 0.71060000
vn 0.42620000 0.83160000 0.35610000
vn 0.53180000 0.58520000 0.61210000
vn 0.51980000 0.85010000 0.08450000
vn 0.38900000 0.91770000 0.08070000
vn 0.76470000 0.63300000 0.12090000
vn 0.52170000 0.84600000 0.10960000
vn 0.41550000 0.90820000 0.04940000
vn 0.55030000 0.57960000 0.60110000
vn 0.53180000 0.58520000 0.61210000
vn 0.36170000 0.88010000 0.30750000
vn 0.63400000 0.62990000 0.44870000
vn 0.59520000 0.79830000 0.09190000
vn 0.51980000 0.85000000 0.08600000
vn 0.77030000 0.62660000 0.11850000
vn 0.77460000 0.62170000 0.11610000
vn -0.16860000 0.98570000 0.00070000
vn -0.13440000 0.99090000 0.00090000
vn -0.14800000 0.98900000 0.00120000
vn -0.16020000 0.98710000 0.00090000
vn 0.02300000 -0.10630000 -0.99410000
vn -0.15720000 0.98760000 -0.00130000
vn -0.42060000 0.90670000 -0.02990000
vn -0.17660000 0.98430000 0.00170000
vn 0.02050000 -0.06850000 -0.99740000
vn -0.76320000 0.64180000 -0.07520000
vn 0.35990000 0.93110000 0.05950000
vn 0.02050000 -0.06850000 -0.99740000
vn -0.00360000 0.99980000 0.01910000
vn 0.27820000 0.95910000 0.05190000
vn -0.15720000 0.98760000 -0.00130000
vn 0.11610000 0.93790000 0.32700000
vn -0.16150000 0.98690000 -0.00420000
vn -0.09470000 0.98280000 0.15840000
vn 0.24810000 0.92370000 0.29200000
vn -0.00160000 0.99840000 0.05590000
vn 0.26300000 0.96090000 0.08640000
vn -0.00160000 0.99840000 0.05590000
vn 0.45280000 0.86740000 0.20630000
vn 0.42620000 0.83160000 0.35610000
vn 0.24810000 0.92370000 0.29200000
vn -0.00160000 0.99840000 0.05590000
vn 0.29350000 0.95340000 0.07010000
vn 0.27890000 0.95830000 0.06220000
vn 0.26300000 0.96090000 0.08640000
vn -0.16160000 0.98690000 -0.00420000
vn 0.52170000 0.84600000 0.10960000
vn 0.67060000 0.73500000 0.10070000
vn 0.41550000 0.90820000 0.04940000
vn 0.27140000 0.96010000 0.06800000
vn 0.26550000 0.96180000 0.06610000
vn -0.16240000 0.98670000 -0.00460000
vn 0.38900000 0.91770000 0.08070000
vn 0.41550000 0.90820000 0.04940000
vn 0.27010000 0.96130000 0.05380000
vn -0.14800000 0.98900000 0.00120000
vn -0.16860000 0.98570000 0.00070000
vn 0.29350000 0.95340000 0.07010000
vn 0.67300000 0.73300000 0.09940000
vn 0.27890000 0.95830000 0.06220000
vn 0.27400000 0.95930000 0.06870000
vn 0.26770000 0.96120000 0.06690000
vn -0.16150000 0.98690000 -0.00400000
vn 0.27890000 0.95830000 0.06220000
vn 0.52160000 0.84860000 0.08870000
vn 0.59630000 0.79750000 0.09180000
vn 0.35990000 0.93110000 0.05950000
vn 0.26890000 0.96170000 0.05380000
vn 0.27120000 0.96110000 0.05140000
vn -0.00360000 0.99980000 0.01910000
vn -0.16840000 0.98570000 0.00190000
vn -0.15720000 0.98760000 -0.00130000
vn -0.00360000 0.99980000 0.01910000
vn -0.17190000 0.98510000 0.00230000
vn 0.27200000 0.96090000 0.05120000
vn -0.17660000 0.98430000 0.00170000
vn -0.15850000 0.98740000 0.00070000
vn 0.27350000 0.96040000 0.05240000
vn -0.13440000 0.99090000 0.00090000
vn -0.17660000 0.98430000 0.00170000
vn 0.27280000 0.96050000 0.05540000
vn -0.16860000 0.98570000 0.00070000
vn -0.13440000 0.99090000 0.00090000
vn 0.38900000 0.91770000 0.08070000
vn 0.51960000 0.84990000 0.08780000
vn 0.26730000 0.96210000 0.05470000
vt 0.83233000 0.87546500
vt 0.58083300 0.75062200
vt 0.58083300 0.75062200
vt 0.83233000 0.87546500
vt 0.58083300 0.75062200
vt 0.58083300 0.75062200
vt 0.58083300 0.75062200
vt 0.83018200 0.87449600
vt 0.83018200 0.87449600
vt 0.83018200 0.87449600
vt 0.83018200 0.87449600
vt 0.83018200 0.87449600
vt 0.83018200 0.87449600
vt 0.83278000 0.87333800
vt 0.83278000 0.87333800
vt 0.83278000 0.87333800
vt 0.83278000 0.87333800
vt 0.83278000 0.87333800
vt 0.58143100 0.75281200
vt 0.83053300 0.87627500
vt 0.58132700 0.74953300
vt 0.83053300 0.87627500
vt 0.83053300 0.87627500
vt 0.83053300 0.87627500
vt 0.82912100 0.87572900
vt 0.82912100 0.87572900
vt 0.82912100 0.87572900
vt 0.82912100 0.87572900
vt 0.82912100 0.87572900
vt 0.57876300 0.75364300
vt 0.57876300 0.75364300
vt 0.57876300 0.75364300
vt 0.57876300 0.75364300
vt 0.57914100 0.75167500
vt 0.57914100 0.75167500
vt 0.57914100 0.75167500
vt 0.57914100 0.75167500
vt 0.57914100 0.75167500
vt 0.58054900 0.75324100
vt 0.58054900 0.75324100
vt 0.58054900 0.75324100
vt 0.58054900 0.75324100
vt 0.83374900 0.87304900
vt 0.58054900 0.75324100
vt 0.82681600 0.87988800
vt 0.82681600 0.87988800
vt 0.28608800 0.84364900
vt 0.82681600 0.87988800
vt 0.57536300 0.74542700
vt 0.83112100 0.88040400
vt 0.28168400 0.84411100
vt 0.57536300 0.74542700
vt 0.28168400 0.84411100
vt 0.57165400 0.75250200
vt 0.27562600 0.83781800
vt 0.57165400 0.75250200
vt 0.82328100 0.87689000
vt 0.82328100 0.87689000
vt 0.82328100 0.87689000
vt 0.28971000 0.84070000
vt 0.82328100 0.87689000
vt 0.81630400 0.78272600
vt 0.29696200 0.74681900
vt 0.81630400 0.78272600
vt 0.81630400 0.78272600
vt 0.57201800 0.89819200
vt 0.27532900 0.69090700
vt 0.57201800 0.89819200
vt 0.27532900 0.69090700
vt 0.29696200 0.68799700
vt 0.29696200 0.68799700
vt 0.81640000 0.72378500
vt 0.29696200 0.68799700
vt 0.81748900 0.85998700
vt 0.29565900 0.82390300
vt 0.81748900 0.85998700
vt 0.81748900 0.85998700
vt 0.81748900 0.85998700
vt 0.29304300 0.83573800
vt 0.82003100 0.87187800
vt 0.82003100 0.87187800
vt 0.82003100 0.87187800
vt 0.57395900 0.74671000
vt 0.57395900 0.74671000
vt 0.27939300 0.84313600
vt 0.57395900 0.74671000
vt 0.27733700 0.84129500
vt 0.57269300 0.74881900
vt 0.27733700 0.84129500
vt 0.57269300 0.74881900
vt 0.29478000 0.83049900
vt 0.81834100 0.86660700
vt 0.81834100 0.86660700
vt 0.57827700 0.90527200
vt 0.58413800 0.83624400
vt 0.57827700 0.90527200
vt 0.57827700 0.90527200
vt 0.57827700 0.90527200
vt 0.58413800 0.83624400
vt 0.58413800 0.83624400
vt 0.27631100 0.68668900
vt 0.58823700 0.83920800
vt 0.27631100 0.68668900
vt 0.57400900 0.90225900
vt 0.82283300 0.86099600
vt 0.82283300 0.86099600
vt 0.82283300 0.86099600
vt 0.82283300 0.86099600
vt 0.82283300 0.86099600
vt 0.82283300 0.86099600
vt 0.82314400 0.86600400
vt 0.82314400 0.86600400
vt 0.82314400 0.86600400
vt 0.82314400 0.86600400
vt 0.82314400 0.86600400
vt 0.82314400 0.86600400
vt 0.58416800 0.81952200
vt 0.82136200 0.71743700
vt 0.58416800 0.81952200
vt 0.82136200 0.71743700
vt 0.58416800 0.81952200
vt 0.82136200 0.71743700
vt 0.82136200 0.71743700
vt 0.82122700 0.80347600
vt 0.82122700 0.80347600
vt 0.82122700 0.80347600
vt 0.82188700 0.85481500
vt 0.82188700 0.85481500
vt 0.82188700 0.85481500
vt 0.82188700 0.85481500
vt 0.81849300 0.71891200
vt 0.58823700 0.81760400
vt 0.58823700 0.81760400
vt 0.29538800 0.68301300
vt 0.82675500 0.87266700
vt 0.82675500 0.87266700
vt 0.82675500 0.87266700
vt 0.82675500 0.87266700
vt 0.82675500 0.87266700
vt 0.82675500 0.87266700
vt 0.82675500 0.87266700
vt 0.82207000 0.83734300
vt 0.82207000 0.83734300
vt 0.82207000 0.83734300
vt 0.82207000 0.83734300
vt 0.82207000 0.83734300
vt 0.82524400 0.87117100
vt 0.82524400 0.87117100
vt 0.82524400 0.87117100
vt 0.82524400 0.87117100
vt 0.82167400 0.82228000
vt 0.82167400 0.82228000
vt 0.82167400 0.82228000
vt 0.82167400 0.82228000
vt 0.83374900 0.71892000
vt 0.83374900 0.71892000
vt 0.83374900 0.71892000
vt 0.83374900 0.71892000
vt 0.58221200 0.83334500
vt 0.83374900 0.71892000
vt 0.83374900 0.71892000
vt 0.83374900 0.71892000
vt 0.58221200 0.83334500
vt 0.58143100 0.90570200
vt 0.82346900 0.71754300
vt 0.58293900 0.82157100
vt 0.82346900 0.71754300
vt 0.82346900 0.71754300
vt 0.82346900 0.71754300
vt 0.82760000 0.87004700
vt 0.82760000 0.87004700
vt 0.82760000 0.87004700
vt 0.82760000 0.87004700
vt 0.82760000 0.87004700
vt 0.82490200 0.86606800
vt 0.82490200 0.86606800
vt 0.82490200 0.86606800
vt 0.82490200 0.86606800
vt 0.82490200 0.86606800
vt 0.82486000 0.85741300
vt 0.82486000 0.85741300
vt 0.82486000 0.85741300
vt 0.82486000 0.85741300
vt 0.82486000 0.85741300
vt 0.82309600 0.84060900
vt 0.82309600 0.84060900
vt 0.82309600 0.84060900
vt 0.82309600 0.84060900
vt 0.82398600 0.83564200
vt 0.82398600 0.83564200
vt 0.82398600 0.83564200
vt 0.82398600 0.83564200
vt 0.82398600 0.83564200
vt 0.82398600 0.83564200
vt 0.82398600 0.83564200
vt 0.82297100 0.85175600
vt 0.82297100 0.85175600
vt 0.82297100 0.85175600
vt 0.82297100 0.85175600
vt 0.82464600 0.85054100
vt 0.82464600 0.85054100
vt 0.82464600 0.85054100
vt 0.82232700 0.80242400
vt 0.82232700 0.80242400
vt 0.82232700 0.80242400
vt 0.82232700 0.80242400
vt 0.82361300 0.76706000
vt 0.82361300 0.76706000
vt 0.82361300 0.76706000
vt 0.82389100 0.74953800
vt 0.82389100 0.74953800
vt 0.82389100 0.74953800
vt 0.82366800 0.78446200
vt 0.82366800 0.78446200
vt 0.82366800 0.78446200
vt 0.82359100 0.80343800
vt 0.82359100 0.80343800
vt 0.82359100 0.80343800
vt 0.82390100 0.81945300
vt 0.82390100 0.81945300
vt 0.82390100 0.81945300
vt 0.82278700 0.82321300
vt 0.82278700 0.82321300
vt 0.82278700 0.82321300
f 1/1/1 12/12/12 18/18/18
f 23/23/23 28/28/28 11/11/11
f 31/31/31 36/36/36 40/40/40
f 24/24/24 10/10/10 4/4/4
f 35/35/35 3/3/3 41/41/41
f 2/2/2 19/19/19 42/42/42
f 47/47/47 51/51/51 55/55/55
f 60/60/60 47/47/47 55/55/55
f 63/63/63 67/67/67 71/71/71
f 55/55/55 63/63/63 75/75/75
f 60/60/60 55/55/55 79/79/79
f 55/55/55 67/67/67 63/63/63
f 53/53/53 85/85/85 87/87/87
f 51/51/51 89/89/89 55/55/55
f 91/91/91 55/55/55 75/75/75
f 79/79/79 55/55/55 91/91/91
f 66/66/66 97/97/97 104/104/104
f 33/33/33 98/98/98 68/68/68
f 54/54/54 33/33/33 68/68/68
f 29/29/29 45/45/45 57/57/57
f 52/52/52 21/21/21 5/5/5
f 20/20/20 48/48/48 26/26/26
f 50/50/50 46/46/46 22/22/22
f 84/84/84 6/6/6 37/37/37
f 83/83/83 49/49/49 7/7/7
f 34/34/34 88/88/88 86/86/86
f 32/32/32 90/90/90 38/38/38
f 32/32/32 56/56/56 90/90/90
f 107/107/107 113/113/113 76/76/76
f 64/64/64 118/118/118 126/126/126
f 122/122/122 62/62/62 72/72/72
f 128/128/128 105/105/105 74/74/74
f 131/131/131 122/122/122 72/72/72
f 139/139/139 25/25/25 61/61/61
f 144/144/144 127/127/127 78/78/78
f 148/148/148 141/141/141 59/59/59
f 147/147/147 58/58/58 81/81/81
f 153/153/153 144/144/144 78/78/78
f 154/154/154 77/77/77 65/65/65
f 115/115/115 150/150/150 80/80/80
f 114/114/114 82/82/82 92/92/92
f 125/125/125 154/154/154 65/65/65
f 113/113/113 93/93/93 76/76/76
f 117/117/117 100/100/100 159/159/159
f 166/166/166 121/121/121 163/163/163
f 73/73/73 69/69/69 101/101/101
f 134/134/134 70/70/70 103/103/103
f 133/133/133 102/102/102 99/99/99
f 119/119/119 132/132/132 95/95/95
f 43/43/43 14/14/14 161/161/161
f 39/39/39 164/164/164 96/96/96
f 30/30/30 44/44/44 94/94/94
f 174/174/174 176/176/176 180/180/180
f 140/140/140 112/112/112 178/178/178
f 138/138/138 149/149/149 111/111/111
f 187/187/187 146/146/146 192/192/192
f 173/173/173 136/136/136 179/179/179
f 198/198/198 202/202/202 182/182/182
f 137/137/137 13/13/13 27/27/27
f 205/205/205 123/123/123 165/165/165
f 170/170/170 8/8/8 135/135/135
f 172/172/172 17/17/17 9/9/9
f 207/207/207 206/206/206 168/168/168
f 208/208/208 167/167/167 211/211/211
f 204/204/204 124/124/124 120/120/120
f 213/213/213 206/206/206 207/207/207
f 216/216/216 206/206/206 213/213/213
f 204/204/204 151/151/151 124/124/124
f 206/206/206 216/216/216 219/219/219
f 206/206/206 219/219/219 224/224/224
f 152/152/152 203/203/203 223/223/223
f 106/106/106 130/130/130 197/197/197
f 224/224/224 219/219/219 193/193/193
f 223/223/223 142/142/142 152/152/152
f 181/181/181 108/108/108 196/196/196
f 222/222/222 191/191/191 143/143/143
f 175/175/175 109/109/109 183/183/183
f 188/188/188 189/189/189 200/200/200
f 185/185/185 129/129/129 145/145/145
f 177/177/177 116/116/116 110/110/110
f 188/188/188 200/200/200 199/199/199
f 197/197/197 130/130/130 186/186/186
f 184/184/184 16/16/16 171/171/171
f 201/201/201 16/16/16 184/184/184
f 190/190/190 16/16/16 201/201/201
f 158/158/158 209/209/209 212/212/212
f 158/158/158 215/215/215 209/209/209
f 169/169/169 160/160/160 210/210/210
f 157/157/157 15/15/15 194/194/194
f 155/155/155 195/195/195 220/220/220
f 156/156/156 221/221/221 217/217/217
f 162/162/162 218/218/218 214/214/214