mtllib Part__Feature023_001.mtl
usemtl Part__Feature023_001
v -0.06125700 0.05766300 0.04570000
v -0.06125700 0.05766300 0.04570000
v -0.06125700 0.05766300 0.04570000
v -0.06125700 0.05766300 0.04570000
v -0.06125700 0.05766300 0.04570000
v -0.06125700 0.05766300 0.04570000
v -0.06125700 0.05766300 0.04570000
v -0.06066000 0.05773900 0.04775100
v -0.06066000 0.05773900 0.04775100
v -0.06066000 0.05773900 0.04775100
v -0.06066000 0.05773900 0.04775100
v -0.06029700 0.05782400 0.04592400
v -0.06029700 0.05782400 0.04592400
v -0.06029700 0.05782400 0.04592400
v -0.05920300 0.05800100 0.04684300
v -0.05920300 0.05800100 0.04684300
v -0.05920300 0.05800100 0.04684300
v -0.05920300 0.05800100 0.04684300
v -0.05912800 0.05804900 0.04870100
v -0.05912800 0.05804900 0.04870100
v -0.05912800 0.05804900 0.04870100
v -0.05912800 0.05804900 0.04870100
v -0.05912800 0.05804900 0.04870100
v -0.05912800 0.05804900 0.04870100
v -0.05968500 0.05792700 0.04784700
v -0.05878700 0.05804800 0.04570000
v -0.05878700 0.05804800 0.04570000
v -0.05878700 0.05804800 0.04570000
v -0.05878700 0.05804800 0.04570000
v -0.05878700 0.05804800 0.04570000
v -0.05878700 0.05804800 0.04570000
v -0.05878700 0.05804800 0.04570000
v -0.06735100 0.05676400 0.04523700
v -0.06735100 0.05676400 0.04523700
v -0.06735100 0.05676400 0.04523700
v -0.06735100 0.05676400 0.04523700
v -0.06735100 0.05676400 0.04523700
v -0.06735100 0.05676400 0.04523700
v -0.07137700 0.05605900 0.03469700
v -0.07137700 0.05605900 0.03469700
v -0.07137700 0.05605900 0.03469700
v -0.07160900 0.05601600 0.03762400
v -0.07160900 0.05601600 0.03762400
v -0.07160900 0.05601600 0.03762400
v -0.07160900 0.05601600 0.03762400
v -0.07094300 0.05612600 0.04099200
v -0.07094300 0.05612600 0.04099200
v -0.07094300 0.05612600 0.04099200
v -0.07094300 0.05612600 0.04099200
v -0.05279200 0.05905800 0.02879800
v -0.05279200 0.05905800 0.02879800
v -0.05279200 0.05905800 0.02879800
v -0.05021300 0.05949700 0.03072000
v -0.05021300 0.05949700 0.03072000
v -0.05021300 0.05949700 0.03072000
v -0.05021300 0.05949700 0.03072000
v -0.05021300 0.05949700 0.03072000
v -0.05340700 0.05899400 0.02742400
v -0.05340700 0.05899400 0.02742400
v -0.05340700 0.05899400 0.02742400
v -0.05340700 0.05899400 0.02742400
v -0.05340700 0.05899400 0.02742400
v -0.05340700 0.05899400 0.02742400
v -0.05673000 0.05849200 0.02730000
v -0.05673000 0.05849200 0.02730000
v -0.05673000 0.05849200 0.02730000
v -0.05674500 0.05841800 0.02569700
v -0.05674500 0.05841800 0.02569700
v -0.05674500 0.05841800 0.02569700
v -0.05674500 0.05841800 0.02569700
v -0.05674500 0.05841800 0.02569700
v -0.05674500 0.05841800 0.02569700
v -0.05670200 0.05831600 0.02885600
v -0.05670200 0.05831600 0.02885600
v -0.06334700 0.05742100 0.02730000
v -0.06334700 0.05742100 0.02730000
v -0.06334700 0.05742100 0.02730000
v -0.06334700 0.05742100 0.02730000
v -0.06072000 0.05780200 0.02529000
v -0.06072000 0.05780200 0.02529000
v -0.06072000 0.05780200 0.02529000
v -0.06072000 0.05780200 0.02529000
v -0.06072000 0.05780200 0.02529000
v -0.06417800 0.05721600 0.02601100
v -0.06417800 0.05721600 0.02601100
v -0.06417800 0.05721600 0.02601100
v -0.06417800 0.05721600 0.02601100
v -0.06417800 0.05721600 0.02601100
v -0.06331800 0.05724400 0.02885600
v -0.06331800 0.05724400 0.02885600
v -0.06331800 0.05724400 0.02885600
v -0.06789800 0.05662100 0.02831300
v -0.06789800 0.05662100 0.02831300
v -0.06789800 0.05662100 0.02831300
v -0.06789800 0.05662100 0.02831300
v -0.06789800 0.05662100 0.02831300
v -0.06789800 0.05662100 0.02831300
v -0.06726900 0.05671500 0.02879900
v -0.06726900 0.05671500 0.02879900
v -0.06726900 0.05671500 0.02879900
v -0.05272700 0.05913300 0.04523900
v -0.05272700 0.05913300 0.04523900
v -0.05272700 0.05913300 0.04523900
v -0.05272700 0.05913300 0.04523900
v -0.05272700 0.05913300 0.04523900
v -0.05272700 0.05913300 0.04523900
v -0.05272700 0.05913300 0.04523900
v -0.05272700 0.05913300 0.04523900
v -0.05213700 0.05916400 0.04569900
v -0.05213700 0.05916400 0.04569900
v -0.05213700 0.05916400 0.04569900
v -0.05213700 0.05916400 0.04569900
v -0.05213700 0.05916400 0.04569900
v -0.05213700 0.05916400 0.04569900
v -0.04948100 0.05960300 0.04190000
v -0.04948100 0.05960300 0.04190000
v -0.04948100 0.05960300 0.04190000
v -0.04948100 0.05960300 0.04190000
v -0.07042500 0.05622700 0.03184800
v -0.07042500 0.05622700 0.03184800
v -0.07042500 0.05622700 0.03184800
v -0.07042500 0.05622700 0.03184800
v -0.07042500 0.05622700 0.03184800
v -0.07042500 0.05622700 0.03184800
v -0.05587400 0.05836500 0.04818000
v -0.05587400 0.05836500 0.04818000
v -0.05587400 0.05836500 0.04818000
v -0.05587400 0.05836500 0.04818000
v -0.06362000 0.05732100 0.04816700
v -0.06362000 0.05732100 0.04816700
v -0.06362000 0.05732100 0.04816700
v -0.06362000 0.05732100 0.04816700
v -0.06362000 0.05732100 0.04816700
v -0.06362000 0.05732100 0.04816700
v -0.06667500 0.05684500 0.04656400
v -0.06667500 0.05684500 0.04656400
v -0.06667500 0.05684500 0.04656400
v -0.06667500 0.05684500 0.04656400
v -0.06667500 0.05684500 0.04656400
v -0.06937400 0.05639000 0.04392500
v -0.06937400 0.05639000 0.04392500
v -0.06937400 0.05639000 0.04392500
v -0.06937400 0.05639000 0.04392500
v -0.06937400 0.05639000 0.04392500
v -0.04886200 0.05949500 0.03314300
v -0.04886200 0.05949500 0.03314300
v -0.04886200 0.05949500 0.03314300
v -0.04886200 0.05949500 0.03314300
v -0.04847400 0.05977500 0.03626100
v -0.04847400 0.05977500 0.03626100
v -0.04847400 0.05977500 0.03626100
v -0.04847400 0.05977500 0.03626100
v -0.04857600 0.05973900 0.03881700
v -0.04857600 0.05973900 0.03881700
v -0.04857600 0.05973900 0.03881700
v -0.04857600 0.05973900 0.03881700
v -0.05265100 0.05885400 0.02763600
v -0.05265100 0.05885400 0.02763600
v -0.05265100 0.05885400 0.02763600
v -0.05265100 0.05885400 0.02763600
v -0.06497500 0.05686600 0.02609200
v -0.06497500 0.05686600 0.02609200
v -0.06497500 0.05686600 0.02609200
v -0.06497500 0.05686600 0.02609200
v -0.06953500 0.05611800 0.03016100
v -0.06953500 0.05611800 0.03016100
v -0.06953500 0.05611800 0.03016100
v -0.07141400 0.05581600 0.03408700
v -0.07141400 0.05581600 0.03408700
v -0.07141400 0.05581600 0.03408700
v -0.07141400 0.05581600 0.03408700
v -0.07128300 0.05583800 0.04061800
v -0.07128300 0.05583800 0.04061800
v -0.07128300 0.05583800 0.04061800
v -0.07128300 0.05583800 0.04061800
v -0.05845700 0.05791200 0.02522000
v -0.05845700 0.05791200 0.02522000
v -0.05845700 0.05791200 0.02522000
v -0.04828800 0.05956000 0.03591600
v -0.04828800 0.05956000 0.03591600
v -0.04828800 0.05956000 0.03591600
v -0.06732900 0.05647700 0.04636700
v -0.06732900 0.05647700 0.04636700
v -0.06732900 0.05647700 0.04636700
v -0.06732900 0.05647700 0.04636700
v -0.05283100 0.05882100 0.04642100
v -0.05283100 0.05882100 0.04642100
v -0.04947800 0.05936100 0.04247300
v -0.04947800 0.05936100 0.04247300
v -0.04947800 0.05936100 0.04247300
v -0.04947800 0.05936100 0.04247300
v -0.06135800 0.05744200 0.04878000
v -0.06135800 0.05744200 0.04878000
v -0.06135800 0.05744200 0.04878000
vn -0.16760000 0.98580000 0.01240000
vn -0.13890000 0.99030000 0.00400000
vn -0.15370000 0.98690000 -0.04900000
vn -0.14710000 0.98900000 0.01510000
vn -0.15720000 0.97010000 0.18510000
vn -0.15040000 0.98860000 -0.00700000
vn -0.14720000 0.94530000 0.29120000
vn -0.18710000 0.98220000 -0.01780000
vn -0.15030000 0.98550000 -0.07920000
vn -0.13890000 0.99030000 0.00400000
vn -0.16820000 0.98570000 0.01210000
vn -0.16860000 0.98560000 0.01140000
vn -0.15370000 0.98690000 -0.04900000
vn -0.14870000 0.98880000 -0.01340000
vn -0.18780000 0.98210000 -0.01740000
vn -0.16270000 0.98650000 -0.01880000
vn -0.16960000 0.98540000 0.01210000
vn -0.14870000 0.98880000 -0.01340000
vn 0.18360000 -0.57020000 0.80070000
vn -0.15030000 0.98550000 -0.07920000
vn -0.19700000 0.79800000 0.56960000
vn -0.09880000 0.99500000 -0.01170000
vn -0.18770000 0.98210000 -0.01790000
vn -0.16270000 0.98650000 -0.01880000
vn -0.18770000 0.98210000 -0.01780000
vn -0.16270000 0.98650000 -0.01880000
vn -0.16380000 0.97590000 0.14430000
vn -0.14720000 0.94530000 0.29120000
vn -0.09880000 0.99500000 -0.01170000
vn -0.14870000 0.98880000 -0.01340000
vn -0.15370000 0.98690000 -0.04900000
vn -0.16510000 0.98390000 0.06820000
vn -0.15720000 0.97010000 0.18510000
vn -0.17390000 0.98480000 -0.00040000
vn -0.15630000 0.98770000 -0.00370000
vn -0.21200000 0.97610000 0.04870000
vn -0.19000000 0.98170000 0.01310000
vn -0.14710000 0.98900000 0.01510000
vn -0.74070000 0.63830000 -0.20960000
vn -0.94480000 0.32010000 -0.07020000
vn -0.17400000 0.98480000 0.00060000
vn -0.57760000 -0.81620000 0.01430000
vn -0.71490000 0.68900000 0.11890000
vn -0.94480000 0.32010000 -0.07020000
vn -0.17750000 0.98410000 0.00250000
vn -0.17850000 0.98390000 0.00320000
vn -0.19000000 0.98170000 0.01310000
vn -0.71490000 0.68900000 0.11890000
vn -0.80650000 0.44320000 0.39140000
vn -0.18580000 0.98190000 0.03740000
vn -0.16530000 0.98620000 -0.00390000
vn -0.19980000 0.97880000 0.04420000
vn -0.16530000 0.98620000 -0.00390000
vn -0.03320000 0.99930000 0.01930000
vn -0.19980000 0.97880000 0.04420000
vn 0.27330000 0.87550000 -0.39850000
vn 0.62620000 -0.69690000 -0.34970000
vn -0.19980000 0.97880000 0.04420000
vn -0.14760000 0.98810000 -0.04420000
vn -0.15240000 0.98170000 0.11430000
vn 0.31800000 0.52480000 -0.78960000
vn -0.18580000 0.98190000 0.03740000
vn 0.27330000 0.87550000 -0.39850000
vn -0.15960000 0.98620000 -0.04400000
vn -0.14760000 0.98810000 -0.04420000
vn -0.15240000 0.98170000 0.11430000
vn -0.15960000 0.98620000 -0.04400000
vn 0.31800000 0.52480000 -0.78960000
vn -0.05690000 0.77950000 -0.62380000
vn -0.14760000 0.98810000 -0.04420000
vn -0.15200000 0.98830000 -0.01130000
vn 0.37660000 -0.66410000 -0.64590000
vn -0.15240000 0.98170000 0.11430000
vn -0.18580000 0.98190000 0.03740000
vn -0.39700000 0.91110000 0.11100000
vn -0.15960000 0.98620000 -0.04400000
vn -0.17600000 0.98340000 -0.04320000
vn -0.15200000 0.98830000 -0.01130000
vn -0.17600000 0.98340000 -0.04320000
vn -0.24870000 0.36030000 -0.89910000
vn -0.15200000 0.98830000 -0.01130000
vn -0.05690000 0.77950000 -0.62380000
vn 0.00990000 -0.67600000 -0.73690000
vn -0.24870000 0.36030000 -0.89910000
vn -0.39700000 0.91110000 0.11100000
vn -0.13850000 0.98980000 0.03210000
vn -0.39820000 0.80750000 -0.43520000
vn -0.17600000 0.98340000 -0.04320000
vn -0.39700000 0.91110000 0.11100000
vn -0.13850000 0.98980000 0.03210000
vn -0.13240000 0.99100000 -0.01980000
vn -0.63460000 0.67380000 -0.37860000
vn -0.39820000 0.80750000 -0.43520000
vn -0.13240000 0.99100000 -0.01980000
vn -0.13850000 0.98980000 0.03210000
vn -0.15000000 0.98870000 0.00300000
vn -0.30640000 -0.81430000 -0.49300000
vn -0.13240000 0.99100000 -0.01980000
vn -0.15000000 0.98870000 0.00300000
vn -0.15630000 0.98770000 -0.00370000
vn -0.13180000 0.99120000 0.00800000
vn -0.16530000 0.98620000 -0.00390000
vn -0.15720000 0.97010000 0.18510000
vn -0.09180000 0.99450000 0.05070000
vn -0.14720000 0.94530000 0.29120000
vn -0.26000000 0.96410000 -0.05420000
vn -0.16380000 0.97590000 0.14430000
vn -0.03320000 0.99930000 0.01930000
vn -0.09180000 0.99450000 0.05070000
vn -0.16380000 0.97590000 0.14430000
vn -0.16510000 0.98390000 0.06820000
vn 0.75460000 -0.25040000 0.60650000
vn 0.22040000 0.78150000 0.58370000
vn 0.37200000 0.85610000 0.35880000
vn 0.37200000 0.85610000 0.35880000
vn 0.75920000 0.60120000 0.24940000
vn -0.14070000 0.99010000 0.00240000
vn -0.09180000 0.99450000 0.05070000
vn -0.63460000 0.67380000 -0.37860000
vn -0.15630000 0.98770000 -0.00370000
vn -0.17310000 0.98490000 0.00020000
vn -0.74070000 0.63830000 -0.20960000
vn -0.85230000 -0.29660000 -0.43080000
vn -0.15000000 0.98870000 0.00300000
vn -0.16510000 0.98390000 0.06820000
vn 0.22040000 0.78150000 0.58370000
vn -0.09880000 0.99500000 -0.01170000
vn 0.18360000 -0.57020000 0.80070000
vn -0.19700000 0.79800000 0.56960000
vn -0.15030000 0.98550000 -0.07920000
vn -0.13890000 0.99030000 0.00400000
vn -0.12830000 -0.76980000 0.62520000
vn -0.15040000 0.98860000 -0.00700000
vn -0.47180000 0.42540000 0.77230000
vn -0.53780000 0.72850000 0.42440000
vn -0.21200000 0.97610000 0.04870000
vn -0.15040000 0.98860000 -0.00700000
vn -0.47180000 0.42540000 0.77230000
vn -0.14710000 0.98900000 0.01510000
vn -0.19000000 0.98170000 0.01310000
vn -0.21200000 0.97610000 0.04870000
vn -0.80650000 0.44320000 0.39140000
vn -0.41790000 -0.82560000 0.37920000
vn -0.53780000 0.72850000 0.42440000
vn -0.26000000 0.96410000 -0.05420000
vn -0.03320000 0.99930000 0.01930000
vn 0.62620000 -0.69690000 -0.34970000
vn 0.61930000 0.77140000 -0.14620000
vn -0.26000000 0.96410000 -0.05420000
vn 0.61930000 0.77140000 -0.14620000
vn -0.13090000 0.99140000 0.00890000
vn 0.78570000 0.61740000 0.03990000
vn 0.75920000 0.60120000 0.24940000
vn 0.78570000 0.61740000 0.03990000
vn -0.13830000 0.99040000 0.00390000
vn 0.73990000 -0.66300000 0.11410000
vn 0.31800000 0.52480000 -0.78960000
vn 0.27330000 0.87550000 -0.39850000
vn 0.37660000 -0.66410000 -0.64590000
vn 0.62620000 -0.69690000 -0.34970000
vn -0.24870000 0.36030000 -0.89910000
vn 0.00990000 -0.67600000 -0.73690000
vn -0.30640000 -0.81430000 -0.49300000
vn -0.39820000 0.80750000 -0.43520000
vn -0.63460000 0.67380000 -0.37860000
vn -0.85230000 -0.29660000 -0.43080000
vn -0.30640000 -0.81430000 -0.49300000
vn -0.94480000 0.32010000 -0.07020000
vn -0.74070000 0.63830000 -0.20960000
vn -0.85230000 -0.29660000 -0.43080000
vn -0.57760000 -0.81620000 0.01430000
vn -0.57760000 -0.81620000 0.01430000
vn -0.80650000 0.44320000 0.39140000
vn -0.71490000 0.68900000 0.11890000
vn -0.41790000 -0.82560000 0.37920000
vn 0.37660000 -0.66410000 -0.64590000
vn 0.00990000 -0.67600000 -0.73690000
vn -0.05690000 0.77950000 -0.62380000
vn 0.73990000 -0.66300000 0.11410000
vn 0.78570000 0.61740000 0.03990000
vn 0.61930000 0.77140000 -0.14620000
vn -0.12830000 -0.76980000 0.62520000
vn -0.41790000 -0.82560000 0.37920000
vn -0.53780000 0.72850000 0.42440000
vn -0.47180000 0.42540000 0.77230000
vn 0.75460000 -0.25040000 0.60650000
vn 0.22040000 0.78150000 0.58370000
vn 0.75460000 -0.25040000 0.60650000
vn 0.37200000 0.85610000 0.35880000
vn 0.75920000 0.60120000 0.24940000
vn 0.73990000 -0.66300000 0.11410000
vn -0.19700000 0.79800000 0.56960000
vn -0.12830000 -0.76980000 0.62520000
vn 0.18360000 -0.57020000 0.80070000
vt 0.68050500 0.37587800
vt 0.68050500 0.37587800
vt 0.68050500 0.37587800
vt 0.68050500 0.37587800
vt 0.68050500 0.37587800
vt 0.68050500 0.37587800
vt 0.68050500 0.37587800
vt 0.67742700 0.37282600
vt 0.67742700 0.37282600
vt 0.67742700 0.37282600
vt 0.67742700 0.37282600
vt 0.68091600 0.37378100
vt 0.68091600 0.37378100
vt 0.68091600 0.37378100
vt 0.68022700 0.37078300
vt 0.68022700 0.37078300
vt 0.68022700 0.37078300
vt 0.68022700 0.37078300
vt 0.27477600 0.83665900
vt 0.67705800 0.36891800
vt 0.67705800 0.36891800
vt 0.67705800 0.36891800
vt 0.67705800 0.36891800
vt 0.67705800 0.36891800
vt 0.67807700 0.37080900
vt 0.68256200 0.37102000
vt 0.68256200 0.37102000
vt 0.68256200 0.37102000
vt 0.68256200 0.37102000
vt 0.68256200 0.37102000
vt 0.68256200 0.37102000
vt 0.68256200 0.37102000
vt 0.67624500 0.38827300
vt 0.67624500 0.38827300
vt 0.67624500 0.38827300
vt 0.67624500 0.38827300
vt 0.67624500 0.38827300
vt 0.67624500 0.38827300
vt 0.69124100 0.40589600
vt 0.29705700 0.88685300
vt 0.69124100 0.40589600
vt 0.29696900 0.89274700
vt 0.68594800 0.40366600
vt 0.29696900 0.89274700
vt 0.68594800 0.40366600
vt 0.68063700 0.39926100
vt 0.68063700 0.39926100
vt 0.68063700 0.39926100
vt 0.68063700 0.39926100
vt 0.71700900 0.37472600
vt 0.71700900 0.37472600
vt 0.71700900 0.37472600
vt 0.71581400 0.36787600
vt 0.71581400 0.36787600
vt 0.71581400 0.36787600
vt 0.71581400 0.36787600
vt 0.58148500 0.81816900
vt 0.71889500 0.37718700
vt 0.71889500 0.37718700
vt 0.71889500 0.37718700
vt 0.71889500 0.37718700
vt 0.71889500 0.37718700
vt 0.71889500 0.37718700
vt 0.71634700 0.38383100
vt 0.71634700 0.38383100
vt 0.71634700 0.38383100
vt 0.71911500 0.38535600
vt 0.71911500 0.38535600
vt 0.71911500 0.38535600
vt 0.71911500 0.38535600
vt 0.71911500 0.38535600
vt 0.84032600 0.40276000
vt 0.71363100 0.38240600
vt 0.71363100 0.38240600
vt 0.71083100 0.39685900
vt 0.71083100 0.39685900
vt 0.71083100 0.39685900
vt 0.71083100 0.39685900
vt 0.71651500 0.39354700
vt 0.31028100 0.81517600
vt 0.71651500 0.39354700
vt 0.71651500 0.39354700
vt 0.58768200 0.90803100
vt 0.30998300 0.81993100
vt 0.71237200 0.39970100
vt 0.71237200 0.39970100
vt 0.71237200 0.39970100
vt 0.71237200 0.39970100
vt 0.70811600 0.39543200
vt 0.70811600 0.39543200
vt 0.70811600 0.39543200
vt 0.70526200 0.40490900
vt 0.70526200 0.40490900
vt 0.70526200 0.40490900
vt 0.70526200 0.40490900
vt 0.70526200 0.40490900
vt 0.29696900 0.88063900
vt 0.70493900 0.40322700
vt 0.70493900 0.40322700
vt 0.70493900 0.40322700
vt 0.68843300 0.35947900
vt 0.68843300 0.35947900
vt 0.68843300 0.35947900
vt 0.68843300 0.35947900
vt 0.68843300 0.35947900
vt 0.68843300 0.35947900
vt 0.68843300 0.35947900
vt 0.68843300 0.35947900
vt 0.68811300 0.35791600
vt 0.68811300 0.35791600
vt 0.68811300 0.35791600
vt 0.30120200 0.62411500
vt 0.68811300 0.35791600
vt 0.68811300 0.35791600
vt 0.69694700 0.35617200
vt 0.69694700 0.35617200
vt 0.69694700 0.35617200
vt 0.69694700 0.35617200
vt 0.69700000 0.40663300
vt 0.69700000 0.40663300
vt 0.69700000 0.40663300
vt 0.69700000 0.40663300
vt 0.25649800 0.82527400
vt 0.69700000 0.40663300
vt 0.68064600 0.36305800
vt 0.68064600 0.36305800
vt 0.68064600 0.36305800
vt 0.27531800 0.84366600
vt 0.67424400 0.37825200
vt 0.67424400 0.37825200
vt 0.67424400 0.37825200
vt 0.09336700 0.84092800
vt 0.67424400 0.37825200
vt 0.67424400 0.37825200
vt 0.67449200 0.38573300
vt 0.67449200 0.38573300
vt 0.67449200 0.38573300
vt 0.67449200 0.38573300
vt 0.67449200 0.38573300
vt 0.67683700 0.39347600
vt 0.67683700 0.39347600
vt 0.67683700 0.39347600
vt 0.83963000 0.40086000
vt 0.67683700 0.39347600
vt 0.71268500 0.36306300
vt 0.71268500 0.36306300
vt 0.58220100 0.81226200
vt 0.71268500 0.36306300
vt 0.70761100 0.35936500
vt 0.70761100 0.35936500
vt 0.70761100 0.35936500
vt 0.70761100 0.35936500
vt 0.70307000 0.35722500
vt 0.70307000 0.35722500
vt 0.70307000 0.35722500
vt 0.09338700 0.85332200
vt 0.71911500 0.37558900
vt 0.71911500 0.37558900
vt 0.84093100 0.39364100
vt 0.58220100 0.82669300
vt 0.31028100 0.82084500
vt 0.58823700 0.91625400
vt 0.29749300 0.87355000
vt 0.71153300 0.40126800
vt 0.70064200 0.40651200
vt 0.25698400 0.82120300
vt 0.29749300 0.88577800
vt 0.29747900 0.88577800
vt 0.69223600 0.40660600
vt 0.25698400 0.83058200
vt 0.29747900 0.88577800
vt 0.29747900 0.89832600
vt 0.68096900 0.40035000
vt 0.68096900 0.40035000
vt 0.84032600 0.39392600
vt 0.84093100 0.40649300
vt 0.58823700 0.90415900
vt 0.71848400 0.38923900
vt 0.09405600 0.85898200
vt 0.70832900 0.35939600
vt 0.70832900 0.35939600
vt 0.09405600 0.83209700
vt 0.84032600 0.40649300
vt 0.67425000 0.38728700
vt 0.67425000 0.38728700
vt 0.30157900 0.62254500
vt 0.68624100 0.35869400
vt 0.30157900 0.63145800
vt 0.69591300 0.35571900
vt 0.69591300 0.35571900
vt 0.09405600 0.84582800
vt 0.67502400 0.37331600
vt 0.09405600 0.84582800
vt 0.27531800 0.83180400
f 1/1/1 11/11/11 12/12/12
f 11/11/11 17/17/17 12/12/12
f 8/8/8 23/23/23 25/25/25
f 25/25/25 23/23/23 15/15/15
f 16/16/16 24/24/24 26/26/26
f 13/13/13 31/31/31 3/3/3
f 18/18/18 30/30/30 14/14/14
f 8/8/8 25/25/25 15/15/15
f 34/34/34 41/41/41 45/45/45
f 34/34/34 45/45/45 46/46/46
f 52/52/52 55/55/55 58/58/58
f 65/65/65 59/59/59 70/70/70
f 73/73/73 60/60/60 66/66/66
f 74/74/74 50/50/50 62/62/62
f 77/77/77 79/79/79 88/88/88
f 85/85/85 89/89/89 75/75/75
f 95/95/95 90/90/90 86/86/86
f 98/98/98 91/91/91 94/94/94
f 104/104/104 109/109/109 118/118/118
f 124/124/124 99/99/99 96/96/96
f 27/27/27 110/110/110 107/107/107
f 32/32/32 125/125/125 111/111/111
f 22/22/22 127/127/127 29/29/29
f 130/130/130 20/20/20 9/9/9
f 131/131/131 10/10/10 2/2/2
f 137/137/137 133/133/133 6/6/6
f 139/139/139 4/4/4 38/38/38
f 140/140/140 37/37/37 47/47/47
f 141/141/141 136/136/136 36/36/36
f 76/76/76 64/64/64 67/67/67
f 78/78/78 71/71/71 81/81/81
f 51/51/51 102/102/102 53/53/53
f 54/54/54 108/108/108 146/146/146
f 145/145/145 106/106/106 149/149/149
f 151/151/151 101/101/101 155/155/155
f 155/155/155 101/101/101 117/117/117
f 103/103/103 33/33/33 5/5/5
f 105/105/105 7/7/7 28/28/28
f 35/35/35 100/100/100 120/120/120
f 34/34/34 121/121/121 41/41/41
f 61/61/61 157/157/157 68/68/68
f 161/161/161 84/84/84 80/80/80
f 93/93/93 87/87/87 164/164/164
f 165/165/165 119/119/119 92/92/92
f 57/57/57 147/147/147 160/160/160
f 122/122/122 169/169/169 39/39/39
f 42/42/42 171/171/171 172/172/172
f 72/72/72 159/159/159 176/176/176
f 178/178/178 82/82/82 69/69/69
f 83/83/83 177/177/177 162/162/162
f 158/158/158 63/63/63 56/56/56
f 97/97/97 163/163/163 167/167/167
f 123/123/123 166/166/166 170/170/170
f 168/168/168 44/44/44 40/40/40
f 148/148/148 150/150/150 181/181/181
f 138/138/138 185/185/185 134/134/134
f 113/113/113 126/126/126 187/187/187
f 189/189/189 115/115/115 114/114/114
f 143/143/143 175/175/175 183/183/183
f 156/156/156 191/191/191 179/179/179
f 152/152/152 154/154/154 180/180/180
f 132/132/132 182/182/182 193/193/193
f 19/19/19 194/194/194 128/128/128
f 142/142/142 49/49/49 173/173/173
f 184/184/184 135/135/135 144/144/144
f 112/112/112 186/186/186 188/188/188
f 192/192/192 21/21/21 129/129/129
f 116/116/116 190/190/190 153/153/153
f 48/48/48 43/43/43 174/174/174