mtllib Mtl1.007.mtl
usemtl Mtl1.007
v -0.01318100 0.04988800 -0.06527700
v -0.01318100 0.04988800 -0.06527700
v -0.01528000 0.04930600 -0.06581300
v -0.01528000 0.04930600 -0.06581300
v -0.01528000 0.04930600 -0.06581300
v -0.01475400 0.04934900 -0.06577200
v -0.01475400 0.04934900 -0.06577200
v -0.01475400 0.04934900 -0.06577200
v -0.01475400 0.04934900 -0.06577200
v -0.01498200 0.04927600 -0.06583900
v -0.01498200 0.04927600 -0.06583900
v -0.01498200 0.04927600 -0.06583900
v -0.01662300 0.04893300 -0.06615600
v -0.01662300 0.04893300 -0.06615600
v -0.01807000 0.04842900 -0.06661400
v -0.01807000 0.04842900 -0.06661400
v -0.01807000 0.04842900 -0.06661400
v -0.01825200 0.04822800 -0.06679600
v -0.01825200 0.04822800 -0.06679600
v -0.01873000 0.04803700 -0.06696700
v -0.01873000 0.04803700 -0.06696700
v -0.01873000 0.04803700 -0.06696700
v -0.02003000 0.04774500 -0.06723500
v -0.02003000 0.04774500 -0.06723500
v -0.02003000 0.04774500 -0.06723500
v -0.01977100 0.04762100 -0.06734100
v -0.01977100 0.04762100 -0.06734100
v -0.01977100 0.04762100 -0.06734100
v -0.02076000 0.04743400 -0.06751200
v -0.02076000 0.04743400 -0.06751200
v -0.02076000 0.04743400 -0.06751200
v -0.02178400 0.04681600 -0.06806300
v -0.02178400 0.04681600 -0.06806300
v -0.02438800 0.04555300 -0.06917500
v -0.02438800 0.04555300 -0.06917500
v -0.02584800 0.04505900 -0.06960800
v -0.02584800 0.04505900 -0.06960800
v -0.02584800 0.04505900 -0.06960800
v -0.02514300 0.04518600 -0.06949800
v -0.02514300 0.04518600 -0.06949800
v -0.02514300 0.04518600 -0.06949800
v -0.02662400 0.04466300 -0.06995400
v -0.02662400 0.04466300 -0.06995400
v -0.02836300 0.04332500 -0.07110100
v -0.02836300 0.04332500 -0.07110100
v -0.02827400 0.04370100 -0.07078000
v -0.02827400 0.04370100 -0.07078000
v -0.02857500 0.04352600 -0.07093100
v -0.01227300 0.05007700 -0.06510000
v -0.01227300 0.05007700 -0.06510000
v -0.01227300 0.05007700 -0.06510000
v -0.01113300 0.05024100 -0.06494600
v -0.01113300 0.05024100 -0.06494600
v -0.01113300 0.05024100 -0.06494600
v -0.00970000 0.05061500 -0.06459800
v -0.00970000 0.05061500 -0.06459800
v -0.00970000 0.05061500 -0.06459800
v -0.01004800 0.05043200 -0.06476700
v -0.01004800 0.05043200 -0.06476700
v -0.00917000 0.05069100 -0.06452700
v -0.00917000 0.05069100 -0.06452700
v -0.00761000 0.05086000 -0.06436600
v -0.00761000 0.05086000 -0.06436600
v -0.00761000 0.05086000 -0.06436600
v -0.00761000 0.05086000 -0.06436600
v -0.00618900 0.05111800 -0.06412500
v -0.00618900 0.05111800 -0.06412500
v -0.00401100 0.05124900 -0.06399900
v -0.00401100 0.05124900 -0.06399900
v -0.00401100 0.05124900 -0.06399900
v -0.00401100 0.05124900 -0.06399900
v -0.00263400 0.05139900 -0.06385900
v -0.00263400 0.05139900 -0.06385900
v -0.00595900 0.05113600 -0.06410800
v -0.00595900 0.05113600 -0.06410800
v -0.00595900 0.05113600 -0.06410800
v -0.00595900 0.05113600 -0.06410800
v -0.00503700 0.05113800 -0.06410400
v -0.00503700 0.05113800 -0.06410400
v -0.00252400 0.05140400 -0.06385400
v -0.00252400 0.05140400 -0.06385400
v -0.00252400 0.05140400 -0.06385400
v -0.00069900 0.05139300 -0.06386200
v -0.00069900 0.05139300 -0.06386200
v -0.00069900 0.05139300 -0.06386200
v 0.00000000 0.05152700 -0.06373800
v 0.00000000 0.05152700 -0.06373800
v 0.00000000 0.05152700 -0.06373800
v 0.00000000 0.05152700 -0.06373800
v -0.00002500 0.05139900 -0.06385900
v -0.00002500 0.05139900 -0.06385900
v 0.00000000 0.05139900 -0.06385900
v 0.00000000 0.05139900 -0.06385900
v 0.00000000 0.05139900 -0.06385900
v 0.00263400 0.05139900 -0.06385900
v 0.00263400 0.05139900 -0.06385900
v 0.00263400 0.05139900 -0.06385900
v 0.00349400 0.05128500 -0.06396500
v 0.00349400 0.05128500 -0.06396500
v 0.00349400 0.05128500 -0.06396500
v 0.00392300 0.05132300 -0.06393100
v 0.00392300 0.05132300 -0.06393100
v 0.00392300 0.05132300 -0.06393100
v 0.00503700 0.05113500 -0.06410700
v 0.00503700 0.05113500 -0.06410700
v 0.00503700 0.05113500 -0.06410700
v 0.00597000 0.05111300 -0.06412900
v 0.00597000 0.05111300 -0.06412900
v 0.00597000 0.05111300 -0.06412900
v 0.00698400 0.05094500 -0.06428600
v 0.00698400 0.05094500 -0.06428600
v 0.00698400 0.05094500 -0.06428600
v 0.00698400 0.05094500 -0.06428600
v 0.00753100 0.05095300 -0.06428100
v 0.00753100 0.05095300 -0.06428100
v 0.00919400 0.05067200 -0.06454500
v 0.00919400 0.05067200 -0.06454500
v 0.00919400 0.05067200 -0.06454500
v 0.01005100 0.05044600 -0.06475400
v 0.01005100 0.05044600 -0.06475400
v 0.01005100 0.05044600 -0.06475400
v 0.01114800 0.05034100 -0.06485500
v 0.01114800 0.05034100 -0.06485500
v 0.01114800 0.05034100 -0.06485500
v 0.01040200 0.05038900 -0.06480800
v 0.01040200 0.05038900 -0.06480800
v 0.01040200 0.05038900 -0.06480800
v 0.01231300 0.05006300 -0.06511300
v 0.01231300 0.05006300 -0.06511300
v 0.01231300 0.05006300 -0.06511300
v 0.01385100 0.04959600 -0.06554400
v 0.01385100 0.04959600 -0.06554400
v 0.01385100 0.04959600 -0.06554400
v 0.01476700 0.04947800 -0.06565600
v 0.01476700 0.04947800 -0.06565600
v 0.01476700 0.04947800 -0.06565600
v 0.01497700 0.04925900 -0.06585400
v 0.01497700 0.04925900 -0.06585400
v 0.01497700 0.04925900 -0.06585400
v 0.01533900 0.04930000 -0.06581900
v 0.01533900 0.04930000 -0.06581900
v 0.01533900 0.04930000 -0.06581900
v 0.01722700 0.04858400 -0.06647200
v 0.01722700 0.04858400 -0.06647200
v 0.01814500 0.04842600 -0.06661800
v 0.01722700 0.04858400 -0.06647200
v 0.01869300 0.04803600 -0.06696700
v 0.01869300 0.04803600 -0.06696700
v 0.01869300 0.04803600 -0.06696700
v 0.01814500 0.04842600 -0.06661800
v 0.01814500 0.04842600 -0.06661800
v 0.01834900 0.04836300 -0.06667600
v 0.01834900 0.04836300 -0.06667600
v 0.01834900 0.04836300 -0.06667600
v 0.01977600 0.04763100 -0.06733300
v 0.01977600 0.04763100 -0.06733300
v 0.01977600 0.04763100 -0.06733300
v 0.02058600 0.04732800 -0.06760600
v 0.02058600 0.04732800 -0.06760600
v 0.02058600 0.04732800 -0.06760600
v 0.02083200 0.04739700 -0.06754400
v 0.02083200 0.04739700 -0.06754400
v 0.02083200 0.04739700 -0.06754400
v 0.02188000 0.04699000 -0.06791100
v 0.02188000 0.04699000 -0.06791100
v 0.02341900 0.04626100 -0.06855300
v 0.02341900 0.04626100 -0.06855300
v 0.02386700 0.04584000 -0.06892500
v 0.02386700 0.04584000 -0.06892500
v 0.02386700 0.04584000 -0.06892500
v 0.02531700 0.04536400 -0.06934500
v 0.02531700 0.04536400 -0.06934500
v 0.02531700 0.04536400 -0.06934500
v 0.02439000 0.04555800 -0.06917100
v 0.02439000 0.04555800 -0.06917100
v 0.02439000 0.04555800 -0.06917100
v 0.02595600 0.04500300 -0.06965600
v 0.02595600 0.04500300 -0.06965600
v 0.02706800 0.04411100 -0.07042800
v 0.02706800 0.04411100 -0.07042800
v 0.02837300 0.04331900 -0.07110600
v 0.02837300 0.04331900 -0.07110600
v 0.02840100 0.04362400 -0.07084600
v 0.02840100 0.04362400 -0.07084600
v 0.02840100 0.04362400 -0.07084600
v 0.02858500 0.04352000 -0.07093600
v -0.01662300 0.04893300 -0.06615600
v -0.01825200 0.04822800 -0.06679600
v -0.02336900 0.04632200 -0.06850400
vn -0.00280000 -0.67230000 0.74030000
vn -0.00550000 -0.66760000 0.74450000
vn -0.00280000 -0.67230000 0.74030000
vn -0.00320000 -0.66920000 0.74310000
vn -0.00350000 -0.67070000 0.74170000
vn -0.00280000 -0.67230000 0.74030000
vn -0.00320000 -0.66920000 0.74310000
vn -0.00300000 -0.67180000 0.74070000
vn -0.00550000 -0.66760000 0.74450000
vn -0.00340000 -0.66910000 0.74320000
vn -0.00350000 -0.67070000 0.74170000
vn -0.00320000 -0.66920000 0.74310000
vn -0.00350000 -0.67070000 0.74170000
vn -0.00140000 -0.66990000 0.74250000
vn -0.00410000 -0.66530000 0.74650000
vn -0.00140000 -0.66990000 0.74250000
vn 0.00300000 -0.67210000 0.74050000
vn -0.00140000 -0.66990000 0.74250000
vn 0.00300000 -0.67210000 0.74050000
vn -0.00410000 -0.66530000 0.74650000
vn -0.00720000 -0.65820000 0.75280000
vn 0.00300000 -0.67210000 0.74050000
vn -0.00410000 -0.66530000 0.74650000
vn -0.00720000 -0.65820000 0.75280000
vn -0.00610000 -0.65710000 0.75380000
vn -0.00720000 -0.65820000 0.75280000
vn -0.00610000 -0.65710000 0.75380000
vn -0.00530000 -0.66070000 0.75060000
vn -0.00500000 -0.66090000 0.75050000
vn -0.00610000 -0.65710000 0.75380000
vn -0.00530000 -0.66070000 0.75060000
vn -0.00040000 -0.66490000 0.74690000
vn -0.00530000 -0.66070000 0.75060000
vn -0.00150000 -0.65680000 0.75410000
vn 0.00350000 -0.66490000 0.74690000
vn 0.00220000 -0.66060000 0.75080000
vn 0.00210000 -0.66060000 0.75070000
vn 0.00350000 -0.66490000 0.74690000
vn 0.00350000 -0.66490000 0.74690000
vn 0.00270000 -0.66330000 0.74840000
vn 0.00220000 -0.66060000 0.75080000
vn -0.00630000 -0.64670000 0.76280000
vn 0.00220000 -0.66060000 0.75080000
vn -0.00260000 -0.64920000 0.76060000
vn -0.00290000 -0.64890000 0.76090000
vn -0.00260000 -0.64920000 0.76060000
vn -0.00250000 -0.64930000 0.76050000
vn -0.00260000 -0.64920000 0.76060000
vn -0.00440000 -0.66990000 0.74240000
vn -0.00360000 -0.67290000 0.73980000
vn -0.00550000 -0.66760000 0.74450000
vn -0.00330000 -0.67340000 0.73920000
vn -0.00360000 -0.67270000 0.73990000
vn -0.00360000 -0.67290000 0.73980000
vn -0.00330000 -0.67340000 0.73930000
vn -0.00330000 -0.67340000 0.73920000
vn -0.00360000 -0.67290000 0.73980000
vn -0.00330000 -0.67340000 0.73930000
vn -0.00330000 -0.67340000 0.73920000
vn -0.00340000 -0.67300000 0.73970000
vn -0.00330000 -0.67340000 0.73930000
vn -0.00340000 -0.67300000 0.73970000
vn -0.00150000 -0.67830000 0.73470000
vn -0.00170000 -0.67730000 0.73570000
vn -0.00330000 -0.67340000 0.73930000
vn -0.00150000 -0.67830000 0.73470000
vn -0.00340000 -0.67300000 0.73970000
vn -0.00070000 -0.68010000 0.73320000
vn -0.00280000 -0.66870000 0.74360000
vn -0.00190000 -0.67730000 0.73570000
vn -0.00550000 -0.65650000 0.75430000
vn -0.00280000 -0.66870000 0.74360000
vn -0.00550000 -0.65650000 0.75430000
vn -0.00280000 -0.66870000 0.74360000
vn -0.00150000 -0.67830000 0.73470000
vn -0.00170000 -0.67730000 0.73570000
vn -0.00190000 -0.67730000 0.73570000
vn -0.00170000 -0.67730000 0.73570000
vn -0.00190000 -0.67730000 0.73570000
vn -0.00550000 -0.65650000 0.75430000
vn -0.00070000 -0.67870000 0.73450000
vn -0.00070000 -0.68010000 0.73320000
vn -0.00070000 -0.67870000 0.73450000
vn 0.00260000 -0.68780000 0.72590000
vn -0.00070000 -0.68010000 0.73320000
vn 0.00260000 -0.68780000 0.72590000
vn -0.01730000 -0.68570000 0.72770000
vn 0.00010000 -0.68580000 0.72780000
vn -0.00070000 -0.67870000 0.73450000
vn -0.01730000 -0.68570000 0.72770000
vn 0.00260000 -0.68780000 0.72590000
vn -0.01730000 -0.68570000 0.72770000
vn 0.00010000 -0.68000000 0.73320000
vn 0.00010000 -0.68580000 0.72780000
vn 0.00010000 -0.68000000 0.73320000
vn 0.00010000 -0.68580000 0.72780000
vn 0.00140000 -0.67530000 0.73750000
vn 0.00010000 -0.68000000 0.73320000
vn 0.00180000 -0.67780000 0.73530000
vn 0.00140000 -0.67530000 0.73750000
vn 0.00140000 -0.67530000 0.73750000
vn 0.00180000 -0.67780000 0.73530000
vn 0.00220000 -0.67620000 0.73670000
vn 0.00230000 -0.67460000 0.73820000
vn 0.00220000 -0.67620000 0.73670000
vn 0.00180000 -0.67780000 0.73530000
vn 0.00280000 -0.67300000 0.73960000
vn 0.00230000 -0.67460000 0.73820000
vn 0.00220000 -0.67620000 0.73670000
vn 0.00270000 -0.67560000 0.73730000
vn 0.00280000 -0.67300000 0.73960000
vn 0.00230000 -0.67460000 0.73820000
vn 0.00320000 -0.67360000 0.73910000
vn 0.00280000 -0.67300000 0.73960000
vn 0.00270000 -0.67560000 0.73730000
vn 0.00320000 -0.67360000 0.73910000
vn 0.00270000 -0.67560000 0.73730000
vn 0.00360000 -0.67280000 0.73980000
vn 0.00410000 -0.67050000 0.74190000
vn 0.00360000 -0.67280000 0.73980000
vn 0.00320000 -0.67360000 0.73910000
vn 0.00390000 -0.67100000 0.74140000
vn 0.00410000 -0.67050000 0.74190000
vn 0.00360000 -0.67280000 0.73980000
vn 0.00410000 -0.67050000 0.74190000
vn 0.00370000 -0.67170000 0.74080000
vn 0.00390000 -0.67100000 0.74140000
vn 0.00390000 -0.67100000 0.74140000
vn 0.00380000 -0.67160000 0.74090000
vn 0.00370000 -0.67170000 0.74080000
vn 0.00370000 -0.67170000 0.74080000
vn 0.00490000 -0.66690000 0.74510000
vn 0.00380000 -0.67160000 0.74090000
vn 0.00450000 -0.66720000 0.74490000
vn 0.00490000 -0.66690000 0.74510000
vn 0.00380000 -0.67160000 0.74090000
vn 0.00460000 -0.66750000 0.74460000
vn 0.00450000 -0.66720000 0.74490000
vn 0.00490000 -0.66690000 0.74510000
vn 0.00460000 -0.66750000 0.74460000
vn 0.00450000 -0.66720000 0.74490000
vn 0.00280000 -0.66980000 0.74250000
vn 0.00460000 -0.66750000 0.74460000
vn 0.00280000 -0.66980000 0.74250000
vn 0.00280000 -0.66980000 0.74250000
vn 0.00530000 -0.66240000 0.74920000
vn 0.00610000 -0.66100000 0.75030000
vn 0.00920000 -0.65930000 0.75180000
vn 0.00530000 -0.66240000 0.74920000
vn 0.00920000 -0.65930000 0.75180000
vn 0.00530000 -0.66240000 0.74920000
vn 0.00860000 -0.65970000 0.75150000
vn 0.00610000 -0.66100000 0.75030000
vn 0.00920000 -0.65930000 0.75180000
vn 0.00280000 -0.66480000 0.74700000
vn 0.00150000 -0.66790000 0.74420000
vn 0.00610000 -0.66100000 0.75030000
vn 0.00110000 -0.66710000 0.74500000
vn 0.00150000 -0.66790000 0.74420000
vn 0.00180000 -0.66690000 0.74510000
vn 0.00130000 -0.66710000 0.74490000
vn 0.00110000 -0.66710000 0.74500000
vn 0.00150000 -0.66790000 0.74420000
vn 0.00620000 -0.65590000 0.75480000
vn 0.00110000 -0.66710000 0.74500000
vn -0.00160000 -0.66330000 0.74840000
vn -0.00150000 -0.66330000 0.74830000
vn -0.00160000 -0.66330000 0.74840000
vn 0.00700000 -0.64850000 0.76120000
vn -0.00070000 -0.66200000 0.74950000
vn -0.00160000 -0.66330000 0.74840000
vn 0.00850000 -0.64450000 0.76460000
vn 0.00700000 -0.64850000 0.76120000
vn 0.00700000 -0.64850000 0.76120000
vn 0.00690000 -0.64840000 0.76120000
vn 0.00850000 -0.64450000 0.76460000
vn 0.00380000 -0.65150000 0.75860000
vn 0.00850000 -0.64450000 0.76460000
vn 0.00090000 -0.64950000 0.76030000
vn -0.00310000 -0.65660000 0.75420000
vn 0.00090000 -0.64950000 0.76030000
vn 0.00380000 -0.64970000 0.76020000
vn 0.00140000 -0.65010000 0.75980000
vn 0.00090000 -0.64950000 0.76030000
vn 0.00380000 -0.64970000 0.76020000
vn 0.00380000 -0.64970000 0.76020000
vn -0.00600000 -0.66410000 0.74760000
vn -0.00600000 -0.66410000 0.74760000
vn -0.00660000 -0.65300000 0.75730000
vt 0.19848200 0.78297100
vt 0.19848200 0.78297100
vt 0.20043700 0.77789500
vt 0.20043700 0.77789500
vt 0.20043700 0.77789500
vt 0.20027800 0.77917100
vt 0.20027800 0.77917100
vt 0.20027800 0.77917100
vt 0.20027800 0.77917100
vt 0.83050300 0.46009800
vt 0.20052100 0.77862000
vt 0.20052100 0.77862000
vt 0.20168900 0.77464600
vt 0.92561500 0.24160800
vt 0.92513100 0.23775000
vt 0.92513100 0.23775000
vt 0.92513100 0.23775000
vt 0.92544300 0.23702300
vt 0.92544300 0.23702300
vt 0.92534700 0.23570700
vt 0.92534700 0.23570700
vt 0.92534700 0.23570700
vt 0.92447900 0.23252300
vt 0.92447900 0.23252300
vt 0.92447900 0.23252300
vt 0.92513800 0.23284200
vt 0.92513800 0.23284200
vt 0.92513800 0.23284200
vt 0.92438200 0.23048200
vt 0.92438200 0.23048200
vt 0.92438200 0.23048200
vt 0.92473500 0.22730000
vt 0.92473500 0.22730000
vt 0.92478400 0.21976100
vt 0.92478400 0.21976100
vt 0.92423500 0.21590900
vt 0.92423500 0.21590900
vt 0.92423500 0.21590900
vt 0.92480000 0.21757400
vt 0.92480000 0.21757400
vt 0.92480000 0.21757400
vt 0.92429900 0.21363000
vt 0.92429900 0.21363000
vt 0.92561500 0.20776200
vt 0.92561500 0.20776200
vt 0.92473500 0.20859000
vt 0.92473500 0.20859000
vt 0.92481400 0.20767100
vt 0.19783500 0.78517000
vt 0.19783500 0.78517000
vt 0.19783500 0.78517000
vt 0.19726100 0.78793500
vt 0.19726100 0.78793500
vt 0.19726100 0.78793500
vt 0.19599600 0.79140200
vt 0.19599600 0.79140200
vt 0.19599600 0.79140200
vt 0.19660100 0.79056400
vt 0.19660100 0.79056400
vt 0.19573100 0.79268700
vt 0.19573100 0.79268700
vt 0.19512300 0.79647200
vt 0.19512300 0.79647200
vt 0.19512300 0.79647200
vt 0.19512300 0.79647200
vt 0.19423500 0.79991500
vt 0.19423500 0.79991500
vt 0.19373000 0.80520500
vt 0.19373000 0.80520500
vt 0.19373000 0.80520500
vt 0.19373000 0.80520500
vt 0.19319500 0.80854600
vt 0.19319500 0.80854600
vt 0.19416800 0.80047300
vt 0.19416800 0.80047300
vt 0.19416800 0.80047300
vt 0.19416800 0.80047300
vt 0.19412800 0.80271500
vt 0.19412800 0.80271500
vt 0.19317500 0.80881300
vt 0.19317500 0.80881300
vt 0.19317500 0.80881300
vt 0.19314600 0.81325100
vt 0.19314600 0.81325100
vt 0.19314600 0.81325100
vt 0.19268800 0.81494400
vt 0.19268800 0.81494400
vt 0.19268800 0.81494400
vt 0.19268800 0.81494400
vt 0.19310900 0.81488900
vt 0.19310900 0.81488900
vt 0.19310800 0.81495000
vt 0.19310800 0.81495000
vt 0.19310800 0.81495000
vt 0.19302100 0.82135500
vt 0.19302100 0.82135500
vt 0.19302100 0.82135500
vt 0.19336300 0.82345100
vt 0.19336300 0.82345100
vt 0.19336300 0.82345100
vt 0.19322700 0.82449200
vt 0.19322700 0.82449200
vt 0.19322700 0.82449200
vt 0.19380400 0.82721000
vt 0.19380400 0.82721000
vt 0.19380400 0.82721000
vt 0.19384700 0.82947900
vt 0.19384700 0.82947900
vt 0.19384700 0.82947900
vt 0.19436100 0.83195300
vt 0.19436100 0.83195300
vt 0.19436100 0.83195300
vt 0.19436100 0.83195300
vt 0.19432100 0.83328200
vt 0.19432100 0.83328200
vt 0.19518400 0.83733900
vt 0.19518400 0.83733900
vt 0.19518400 0.83733900
vt 0.19589000 0.83943300
vt 0.19589000 0.83943300
vt 0.19589000 0.83943300
vt 0.19620000 0.84210500
vt 0.19620000 0.84210500
vt 0.19620000 0.84210500
vt 0.19606500 0.84028900
vt 0.19606500 0.84028900
vt 0.19606500 0.84028900
vt 0.19706500 0.84495100
vt 0.19706500 0.84495100
vt 0.19706500 0.84495100
vt 0.19852900 0.84871200
vt 0.19852900 0.84871200
vt 0.19852900 0.84871200
vt 0.19888600 0.85094400
vt 0.19888600 0.85094400
vt 0.19888600 0.85094400
vt 0.19958200 0.85146500
vt 0.19958200 0.85146500
vt 0.19958200 0.85146500
vt 0.19944200 0.85234300
vt 0.19944200 0.85234300
vt 0.87634800 0.24955700
vt 0.20168900 0.85696700
vt 0.87597000 0.24441100
vt 0.87634800 0.24215100
vt 0.92718900 0.20948900
vt 0.92681800 0.21346300
vt 0.92681800 0.21346300
vt 0.92681800 0.21346300
vt 0.92645800 0.21165700
vt 0.92645800 0.21165700
vt 0.92637100 0.21218800
vt 0.92637100 0.21218800
vt 0.92637100 0.21218800
vt 0.92654400 0.21639900
vt 0.92654400 0.21639900
vt 0.92654400 0.21639900
vt 0.92633900 0.21859400
vt 0.92633900 0.21859400
vt 0.92633900 0.21859400
vt 0.92583900 0.21898000
vt 0.92583900 0.21898000
vt 0.92583900 0.21898000
vt 0.92561500 0.22184700
vt 0.92561500 0.22184700
vt 0.92562100 0.22627200
vt 0.92562100 0.22627200
vt 0.92618500 0.22792200
vt 0.92618500 0.22792200
vt 0.92618500 0.22792200
vt 0.92562500 0.23172800
vt 0.92562500 0.23172800
vt 0.92562500 0.23172800
vt 0.92627600 0.22948300
vt 0.92627600 0.22948300
vt 0.92627600 0.22948300
vt 0.92577500 0.23366000
vt 0.92577500 0.23366000
vt 0.92674300 0.23747600
vt 0.92674300 0.23747600
vt 0.92718900 0.24151200
vt 0.92718900 0.24151200
vt 0.92634500 0.24105100
vt 0.92634500 0.24105100
vt 0.92634500 0.24105100
vt 0.92638900 0.24160800
vt 0.82996700 0.45598600
vt 0.83050300 0.45143000
vt 0.92403700 0.22318400
f 1/1/1 3/3/3 6/6/6
f 7/7/7 4/4/4 12/12/12
f 5/5/5 13/13/13 11/11/11
f 14/14/14 16/16/16 18/18/18
f 19/19/19 17/17/17 22/22/22
f 15/15/15 23/23/23 20/20/20
f 21/21/21 24/24/24 26/26/26
f 25/25/25 30/30/30 27/27/27
f 28/28/28 31/31/31 33/33/33
f 35/35/35 38/38/38 39/39/39
f 36/36/36 43/43/43 41/41/41
f 44/44/44 46/46/46 48/48/48
f 2/2/2 9/9/9 51/51/51
f 50/50/50 54/54/54 57/57/57
f 52/52/52 59/59/59 56/56/56
f 55/55/55 58/58/58 61/61/61
f 58/58/58 65/65/65 61/61/61
f 60/60/60 62/62/62 67/67/67
f 69/69/69 72/72/72 74/74/74
f 66/66/66 63/63/63 75/75/75
f 64/64/64 78/78/78 76/76/76
f 77/77/77 79/79/79 70/70/70
f 73/73/73 71/71/71 80/80/80
f 68/68/68 85/85/85 82/82/82
f 81/81/81 83/83/83 89/89/89
f 84/84/84 91/91/91 86/86/86
f 90/90/90 92/92/92 87/87/87
f 88/88/88 94/94/94 96/96/96
f 93/93/93 98/98/98 95/95/95
f 97/97/97 100/100/100 101/101/101
f 99/99/99 106/106/106 102/102/102
f 103/103/103 105/105/105 109/109/109
f 104/104/104 112/112/112 108/108/108
f 107/107/107 111/111/111 114/114/114
f 115/115/115 110/110/110 117/117/117
f 113/113/113 121/121/121 116/116/116
f 118/118/118 120/120/120 124/124/124
f 119/119/119 125/125/125 123/123/123
f 122/122/122 127/127/127 128/128/128
f 126/126/126 131/131/131 130/130/130
f 129/129/129 133/133/133 136/136/136
f 132/132/132 139/139/139 135/135/135
f 134/134/134 138/138/138 141/141/141
f 137/137/137 143/143/143 140/140/140
f 142/142/142 144/144/144 145/145/145
f 146/146/146 149/149/149 151/151/151
f 150/150/150 148/148/148 154/154/154
f 147/147/147 157/157/157 153/153/153
f 156/156/156 159/159/159 163/163/163
f 162/162/162 158/158/158 165/165/165
f 166/166/166 168/168/168 171/171/171
f 169/169/169 174/174/174 173/173/173
f 172/172/172 176/176/176 178/178/178
f 179/179/179 181/181/181 184/184/184
f 185/185/185 182/182/182 186/186/186
f 10/10/10 187/187/187 188/188/188
f 29/29/29 189/189/189 32/32/32
f 32/32/32 189/189/189 34/34/34
f 189/189/189 37/37/37 34/34/34
f 40/40/40 42/42/42 45/45/45
f 42/42/42 47/47/47 45/45/45
f 8/8/8 53/53/53 49/49/49
f 152/152/152 155/155/155 161/161/161
f 160/160/160 170/170/170 164/164/164
f 164/164/164 170/170/170 167/167/167
f 175/175/175 180/180/180 177/177/177
f 177/177/177 180/180/180 183/183/183