mtllib Mtl4.012.mtl
usemtl Mtl4.012
v -0.06458600 -0.01688600 0.05587200
v -0.06458600 -0.01688600 0.05587200
v -0.06458500 -0.01689300 0.05586500
v -0.06458500 -0.01689300 0.05586500
v -0.06453200 -0.01664200 0.05711700
v -0.06453200 -0.01664200 0.05711700
v -0.06453200 -0.01664200 0.05711700
v -0.06453200 -0.01664200 0.05711700
v -0.06453200 -0.01664200 0.05711700
v -0.06453200 -0.01664200 0.05711700
v -0.06460000 -0.01666700 0.05635600
v -0.06460000 -0.01666700 0.05635600
v -0.06460000 -0.01666700 0.05635600
v -0.06460000 -0.01666700 0.05635600
v -0.06460000 -0.01666700 0.05635600
v -0.06460000 -0.01666700 0.05635600
v -0.06455500 -0.01661100 0.05697800
v -0.06455500 -0.01661100 0.05697800
v -0.06455500 -0.01661100 0.05697800
v -0.06460500 -0.01663000 0.05641900
v -0.06460500 -0.01663000 0.05641900
v -0.06459700 -0.01661700 0.05653100
v -0.06459700 -0.01661700 0.05653100
v -0.06459700 -0.01661700 0.05653100
v -0.06458300 -0.01659300 0.05674700
v -0.06460700 -0.01666800 0.05628500
v -0.06460700 -0.01666800 0.05628500
v -0.06460400 -0.01671700 0.05618000
v -0.06460400 -0.01671700 0.05618000
v -0.06460400 -0.01671700 0.05618000
v -0.06459700 -0.01680700 0.05598700
v -0.06459700 -0.01680700 0.05598700
v -0.06445000 -0.01752300 0.05539100
v -0.06445000 -0.01752300 0.05539100
v -0.06445000 -0.01751500 0.05541300
v -0.06445000 -0.01751500 0.05541300
v -0.06445000 -0.01751500 0.05541300
v -0.06445000 -0.01751500 0.05541300
v -0.06449000 -0.01735500 0.05548000
v -0.06449000 -0.01735500 0.05548000
v -0.06441900 -0.01764500 0.05535000
v -0.06441900 -0.01764500 0.05535000
v -0.06441000 -0.01767500 0.05534600
v -0.06441000 -0.01767500 0.05534600
v -0.06423600 -0.01826700 0.05532200
v -0.06423600 -0.01826700 0.05532200
v -0.06432200 -0.01799100 0.05529600
v -0.06432200 -0.01799100 0.05529600
v -0.06430600 -0.01804400 0.05529500
v -0.06386600 -0.01857500 0.05809800
v -0.06386600 -0.01857500 0.05809800
v -0.06386800 -0.01857400 0.05807900
v -0.06386800 -0.01857400 0.05807900
v -0.06386800 -0.01857400 0.05807900
v -0.06386800 -0.01857400 0.05807900
v -0.06382500 -0.01873400 0.05801200
v -0.06382500 -0.01873400 0.05801200
v -0.06389800 -0.01845500 0.05813900
v -0.06389800 -0.01845500 0.05813900
v -0.06391000 -0.01841400 0.05814600
v -0.06391000 -0.01841400 0.05814600
v -0.06408500 -0.01782300 0.05817100
v -0.06408500 -0.01782300 0.05817100
v -0.06399800 -0.01810600 0.05819700
v -0.06399800 -0.01810600 0.05819700
v -0.06401700 -0.01804400 0.05819800
v -0.06472200 -0.01703600 0.05405800
v -0.06472200 -0.01703600 0.05405800
v -0.06472200 -0.01703600 0.05405800
v -0.06472200 -0.01703600 0.05405800
v -0.06472200 -0.01703600 0.05405800
v -0.06472200 -0.01703600 0.05405800
v -0.06472200 -0.01703600 0.05405800
v -0.06459000 -0.01736100 0.05444500
v -0.06459000 -0.01736100 0.05444500
v -0.06465700 -0.01716400 0.05433900
v -0.06465700 -0.01716400 0.05433900
v -0.06471500 -0.01699200 0.05424700
v -0.06471500 -0.01699200 0.05424700
v -0.06473300 -0.01694200 0.05421000
v -0.06473300 -0.01694200 0.05421000
v -0.06477000 -0.01684400 0.05411300
v -0.06477000 -0.01684400 0.05411300
v -0.06482900 -0.01668800 0.05395900
v -0.06482900 -0.01668800 0.05395900
v -0.06485300 -0.01663000 0.05388100
v -0.06485300 -0.01663000 0.05388100
v -0.06414600 -0.01854500 0.05538400
v -0.06412000 -0.01861700 0.05542100
v -0.06455300 -0.01706900 0.05568100
v -0.06452200 -0.01722000 0.05555100
v -0.06454400 -0.01711900 0.05562800
v -0.06419500 -0.01840000 0.05533900
v -0.06403200 -0.01886300 0.05554800
v -0.06400600 -0.01893100 0.05560000
v -0.06398600 -0.01898400 0.05564000
v -0.06393500 -0.01910400 0.05577200
v -0.06388500 -0.01922200 0.05590000
v -0.06384400 -0.01931000 0.05603800
v -0.06384100 -0.01931600 0.05605200
v -0.06430800 -0.01715900 0.05789500
v -0.06374300 -0.01947700 0.05652000
v -0.06371400 -0.01949400 0.05674700
v -0.06370000 -0.01946900 0.05696900
v -0.06369300 -0.01945800 0.05707200
v -0.06369100 -0.01942100 0.05720400
v -0.06369700 -0.01936800 0.05731900
v -0.06370500 -0.01928400 0.05750100
v -0.06371800 -0.01920600 0.05761600
v -0.06417400 -0.01754300 0.05810900
v -0.06419900 -0.01747300 0.05807300
v -0.06375600 -0.01902100 0.05781200
v -0.06378800 -0.01887700 0.05793500
v -0.06376600 -0.01897500 0.05786000
v -0.06412700 -0.01768700 0.05815400
v -0.06372100 -0.01919100 0.05763200
v -0.06428300 -0.01722600 0.05794600
v -0.06376700 -0.01944500 0.05637600
v -0.06432800 -0.01710300 0.05785200
v -0.06437500 -0.01698300 0.05772100
v -0.06442200 -0.01686500 0.05759400
v -0.06446000 -0.01677800 0.05745600
v -0.06446400 -0.01677200 0.05744200
v -0.06377200 -0.01943900 0.05634900
v -0.06452800 -0.01664800 0.05714400
v -0.06485500 -0.01662600 0.05387300
v -0.06491700 -0.01649400 0.05361500
v -0.06401300 -0.01966600 0.05321700
v -0.06400000 -0.01965300 0.05338800
v -0.06399700 -0.01962600 0.05350600
v -0.06399600 -0.01961400 0.05355800
v -0.06400400 -0.01952200 0.05376600
v -0.06400600 -0.01950500 0.05380500
v -0.06401600 -0.01943900 0.05390800
v -0.06403500 -0.01934800 0.05400900
v -0.06405900 -0.01922800 0.05414100
v -0.06408600 -0.01911300 0.05423400
v -0.06409400 -0.01908100 0.05425300
v -0.06417000 -0.01878000 0.05442300
v -0.06418100 -0.01873900 0.05443700
v -0.06442100 -0.01790000 0.05456500
v -0.06452200 -0.01757800 0.05450100
v -0.06424600 -0.01849900 0.05451700
v -0.06430100 -0.01831200 0.05453900
v -0.06437800 -0.01804400 0.05457100
v -0.06456400 -0.01744100 0.05447400
v -0.06529800 -0.01642500 0.04983000
v -0.06529800 -0.01642500 0.04982900
v -0.06434800 -0.01966100 0.04982900
v -0.06435000 -0.01966000 0.04980800
v -0.06530300 -0.01643500 0.04974600
v -0.06435900 -0.01965300 0.04974600
v -0.06433800 -0.01966600 0.04991300
v -0.06491700 -0.01649300 0.05361400
v -0.06494100 -0.01645400 0.05348300
v -0.06495800 -0.01643800 0.05335100
v -0.06497500 -0.01642200 0.05321700
v -0.06529100 -0.01642200 0.04991300
vn -0.95680000 -0.27480000 0.09480000
vn -0.95770000 -0.27190000 0.09470000
vn -0.95470000 -0.28100000 0.09790000
vn -0.95680000 -0.27480000 0.09480000
vn -0.95770000 -0.27190000 0.09470000
vn -0.95760000 -0.27220000 0.09460000
vn -0.95800000 -0.27070000 0.09450000
vn -0.95680000 -0.27480000 0.09480000
vn -0.95890000 -0.26760000 0.09450000
vn -0.95450000 -0.28250000 0.09530000
vn -0.95810000 -0.27030000 0.09510000
vn -0.95860000 -0.26850000 0.09460000
vn -0.95890000 -0.26760000 0.09450000
vn -0.95910000 -0.26730000 0.09350000
vn -0.95760000 -0.27220000 0.09460000
vn -0.95880000 -0.26840000 0.09350000
vn -0.95860000 -0.26850000 0.09460000
vn -0.95890000 -0.26760000 0.09450000
vn -0.95760000 -0.27200000 0.09460000
vn -0.95910000 -0.26730000 0.09350000
vn -0.95810000 -0.27030000 0.09510000
vn -0.95760000 -0.27200000 0.09460000
vn -0.95860000 -0.26850000 0.09460000
vn -0.95810000 -0.27030000 0.09510000
vn -0.95760000 -0.27200000 0.09460000
vn -0.95910000 -0.26730000 0.09350000
vn -0.95880000 -0.26840000 0.09350000
vn -0.95800000 -0.27070000 0.09450000
vn -0.95880000 -0.26840000 0.09350000
vn -0.95760000 -0.27220000 0.09460000
vn -0.95770000 -0.27190000 0.09470000
vn -0.95800000 -0.27070000 0.09450000
vn -0.95550000 -0.27850000 0.09720000
vn -0.95490000 -0.28040000 0.09760000
vn -0.95370000 -0.28180000 0.10530000
vn -0.95550000 -0.27850000 0.09720000
vn -0.95490000 -0.28040000 0.09760000
vn -0.95100000 -0.28740000 0.11390000
vn -0.95550000 -0.27850000 0.09720000
vn -0.95250000 -0.28390000 0.10990000
vn -0.95490000 -0.28040000 0.09780000
vn -0.95100000 -0.28740000 0.11380000
vn -0.95100000 -0.28740000 0.11400000
vn -0.95290000 -0.28410000 0.10610000
vn -0.95250000 -0.28420000 0.10950000
vn -0.95280000 -0.28500000 0.10430000
vn -0.95220000 -0.28390000 0.11240000
vn -0.95280000 -0.28500000 0.10430000
vn -0.95280000 -0.28500000 0.10430000
vn -0.95170000 -0.29170000 0.09560000
vn -0.95100000 -0.29420000 0.09510000
vn -0.95340000 -0.28950000 0.08450000
vn -0.95100000 -0.29420000 0.09510000
vn -0.95170000 -0.29170000 0.09560000
vn -0.95490000 -0.28540000 0.08200000
vn -0.95100000 -0.29420000 0.09510000
vn -0.95440000 -0.28710000 0.08130000
vn -0.95170000 -0.29170000 0.09560000
vn -0.95490000 -0.28540000 0.08200000
vn -0.95430000 -0.28670000 0.08480000
vn -0.95490000 -0.28540000 0.08200000
vn -0.95470000 -0.28660000 0.08040000
vn -0.95470000 -0.28580000 0.08290000
vn -0.95470000 -0.28580000 0.08300000
vn -0.95490000 -0.28680000 0.07740000
vn -0.95470000 -0.28580000 0.08290000
vn -0.95830000 -0.27030000 0.09270000
vn -0.95720000 -0.27380000 0.09430000
vn -0.95830000 -0.27100000 0.09060000
vn -0.95720000 -0.27350000 0.09440000
vn -0.95640000 -0.28100000 0.08000000
vn -0.95820000 -0.27040000 0.09300000
vn -0.95760000 -0.27220000 0.09410000
vn -0.95720000 -0.27380000 0.09430000
vn -0.95640000 -0.27780000 0.09060000
vn -0.95720000 -0.27380000 0.09430000
vn -0.95720000 -0.27350000 0.09440000
vn -0.95720000 -0.27350000 0.09440000
vn -0.95760000 -0.27220000 0.09410000
vn -0.95760000 -0.27220000 0.09410000
vn -0.95820000 -0.27040000 0.09300000
vn -0.95820000 -0.27040000 0.09300000
vn -0.95830000 -0.27030000 0.09270000
vn -0.95830000 -0.27030000 0.09270000
vn -0.95830000 -0.27100000 0.09060000
vn -0.95830000 -0.27100000 0.09060000
vn -0.95840000 -0.26870000 0.09620000
vn -0.95230000 -0.28450000 0.11050000
vn -0.95250000 -0.28610000 0.10390000
vn -0.95300000 -0.28380000 0.10570000
vn -0.95300000 -0.28360000 0.10680000
vn -0.95350000 -0.28290000 0.10390000
vn -0.95220000 -0.28460000 0.11070000
vn -0.95200000 -0.28780000 0.10400000
vn -0.95200000 -0.28790000 0.10420000
vn -0.95200000 -0.28790000 0.10400000
vn -0.95200000 -0.28780000 0.10380000
vn -0.95210000 -0.28760000 0.10350000
vn -0.95240000 -0.28740000 0.10200000
vn -0.95250000 -0.28710000 0.10140000
vn -0.95480000 -0.28450000 0.08590000
vn -0.95200000 -0.29010000 0.09780000
vn -0.95240000 -0.28930000 0.09610000
vn -0.95280000 -0.28860000 0.09440000
vn -0.95300000 -0.28820000 0.09330000
vn -0.95340000 -0.28760000 0.09130000
vn -0.95370000 -0.28710000 0.08940000
vn -0.95380000 -0.28710000 0.08860000
vn -0.95410000 -0.28670000 0.08650000
vn -0.95490000 -0.28620000 0.07900000
vn -0.95480000 -0.28640000 0.07990000
vn -0.95440000 -0.28660000 0.08380000
vn -0.95420000 -0.28740000 0.08340000
vn -0.95400000 -0.28760000 0.08490000
vn -0.95480000 -0.28630000 0.08000000
vn -0.95420000 -0.28670000 0.08580000
vn -0.95460000 -0.28640000 0.08140000
vn -0.95290000 -0.28750000 0.09690000
vn -0.95530000 -0.28300000 0.08590000
vn -0.95520000 -0.28310000 0.08640000
vn -0.95510000 -0.28340000 0.08660000
vn -0.95500000 -0.28350000 0.08710000
vn -0.95480000 -0.28390000 0.08810000
vn -0.95290000 -0.28650000 0.09960000
vn -0.95430000 -0.28450000 0.09090000
vn -0.95830000 -0.27040000 0.09200000
vn -0.95770000 -0.27580000 0.08260000
vn -0.95430000 -0.28370000 0.09360000
vn -0.95450000 -0.28370000 0.09200000
vn -0.95470000 -0.28350000 0.09030000
vn -0.95490000 -0.28350000 0.08830000
vn -0.95500000 -0.28360000 0.08650000
vn -0.95520000 -0.28370000 0.08470000
vn -0.95530000 -0.28390000 0.08280000
vn -0.95540000 -0.28410000 0.08090000
vn -0.95540000 -0.28420000 0.08050000
vn -0.95540000 -0.28470000 0.07790000
vn -0.95550000 -0.28510000 0.07580000
vn -0.95540000 -0.28520000 0.07620000
vn -0.95540000 -0.28580000 0.07430000
vn -0.95540000 -0.28320000 0.08340000
vn -0.95560000 -0.28150000 0.08650000
vn -0.95540000 -0.28540000 0.07620000
vn -0.95540000 -0.28540000 0.07630000
vn -0.95520000 -0.28490000 0.08020000
vn -0.95580000 -0.28080000 0.08750000
vn -0.96110000 -0.27250000 0.04560000
vn -0.96120000 -0.27210000 0.04480000
vn -0.95510000 -0.28120000 0.09370000
vn -0.95520000 -0.28040000 0.09450000
vn -0.95540000 -0.28040000 0.09240000
vn -0.95530000 -0.28030000 0.09410000
vn -0.95440000 -0.28320000 0.09400000
vn -0.95940000 -0.27030000 0.08080000
vn -0.95630000 -0.27850000 0.08920000
vn -0.95570000 -0.27990000 0.09060000
vn -0.95550000 -0.28040000 0.09110000
vn -0.95550000 -0.28060000 0.09100000
vt 0.96188100 0.19139800
vt 0.96188100 0.19139800
vt 0.96189300 0.19140800
vt 0.96189300 0.19140800
vt 0.95984000 0.19128200
vt 0.95984000 0.19128200
vt 0.95984000 0.19128200
vt 0.95984000 0.19128200
vt 0.95984000 0.19128200
vt 0.95984000 0.19128200
vt 0.96106300 0.19114700
vt 0.96106300 0.19114700
vt 0.96106300 0.19114700
vt 0.96106300 0.19114700
vt 0.96106300 0.19114700
vt 0.96106300 0.19114700
vt 0.96005600 0.19119800
vt 0.96005600 0.19119800
vt 0.96005600 0.19119800
vt 0.96095500 0.19110000
vt 0.96095500 0.19110000
vt 0.96077300 0.19110400
vt 0.96077300 0.19110400
vt 0.96077300 0.19110400
vt 0.96042300 0.19111400
vt 0.96117700 0.19113200
vt 0.96117700 0.19113200
vt 0.96135500 0.19118900
vt 0.96135500 0.19118900
vt 0.96135500 0.19118900
vt 0.96168100 0.19129400
vt 0.96168100 0.19129400
vt 0.96277500 0.19234600
vt 0.96277500 0.19234600
vt 0.96273800 0.19233800
vt 0.96273800 0.19233800
vt 0.96273800 0.19233800
vt 0.96273800 0.19233800
vt 0.96260000 0.19208700
vt 0.96260000 0.19208700
vt 0.96286400 0.19254000
vt 0.96286400 0.19254000
vt 0.96287600 0.19258900
vt 0.96287600 0.19258900
vt 0.96303000 0.19357100
vt 0.96303000 0.19357100
vt 0.96301800 0.19310400
vt 0.96301800 0.19310400
vt 0.96303000 0.19319200
vt 0.95864600 0.19473000
vt 0.95864600 0.19473000
vt 0.95867600 0.19472400
vt 0.95867600 0.19472400
vt 0.95867600 0.19472400
vt 0.95867600 0.19472400
vt 0.95881400 0.19497700
vt 0.95881400 0.19497700
vt 0.95855700 0.19454000
vt 0.95855700 0.19454000
vt 0.95853700 0.19447300
vt 0.95853700 0.19447300
vt 0.95838300 0.19349200
vt 0.95838300 0.19349200
vt 0.95839600 0.19397000
vt 0.95839600 0.19397000
vt 0.95838300 0.19386700
vt 0.77094700 0.98497300
vt 0.77094700 0.98497300
vt 0.77094700 0.98497300
vt 0.77094700 0.98497300
vt 0.77094700 0.98497300
vt 0.77094700 0.98497300
vt 0.77094700 0.98497300
vt 0.77040200 0.98433200
vt 0.77040200 0.98433200
vt 0.77073200 0.98451300
vt 0.77073200 0.98451300
vt 0.77102000 0.98466900
vt 0.77102000 0.98466900
vt 0.77110400 0.98473100
vt 0.77110400 0.98473100
vt 0.77126700 0.98489200
vt 0.77126700 0.98489200
vt 0.77152800 0.98514800
vt 0.77152800 0.98514800
vt 0.77162500 0.98527600
vt 0.77162500 0.98527600
vt 0.96298400 0.19405000
vt 0.96293900 0.19417900
vt 0.96222200 0.19165800
vt 0.96246000 0.19187900
vt 0.96231700 0.19172900
vt 0.96302800 0.19379700
vt 0.96278300 0.19461900
vt 0.96271300 0.19474500
vt 0.96265900 0.19484300
vt 0.96247100 0.19507500
vt 0.96228900 0.19530200
vt 0.96208500 0.19548200
vt 0.96206400 0.19549500
vt 0.95869600 0.19232100
vt 0.96134600 0.19587400
vt 0.96098600 0.19595500
vt 0.96062500 0.19596500
vt 0.96045800 0.19597100
vt 0.96024000 0.19593900
vt 0.96004600 0.19587700
vt 0.95973800 0.19577900
vt 0.95953900 0.19567500
vt 0.95842800 0.19301100
vt 0.95847200 0.19288500
vt 0.95918900 0.19541100
vt 0.95896500 0.19519800
vt 0.95910400 0.19534400
vt 0.95838400 0.19326100
vt 0.95951000 0.19565300
vt 0.95862700 0.19244500
vt 0.96157000 0.19578700
vt 0.95875300 0.19221900
vt 0.95894000 0.19198900
vt 0.95912000 0.19176300
vt 0.95932400 0.19158600
vt 0.95934500 0.19157300
vt 0.96161200 0.19577000
vt 0.95979800 0.19129800
vt 0.77163200 0.98528900
vt 0.77185300 0.98571200
vt 0.76652900 0.98621100
vt 0.76655000 0.98593500
vt 0.76659600 0.98574600
vt 0.76661600 0.98566200
vt 0.76677100 0.98533000
vt 0.76680000 0.98526800
vt 0.76691000 0.98510500
vt 0.76706400 0.98494600
vt 0.76726600 0.98473800
vt 0.76746000 0.98459300
vt 0.76751300 0.98456400
vt 0.76802000 0.98430300
vt 0.76808900 0.98428300
vt 0.76949900 0.98411400
vt 0.77003900 0.98423200
vt 0.76849200 0.98416400
vt 0.76880700 0.98413800
vt 0.76925700 0.98409800
vt 0.77026800 0.98428200
vt 0.77196800 0.99183400
vt 0.77196800 0.99183600
vt 0.76654100 0.99169000
vt 0.76654300 0.99172400
vt 0.77195100 0.99197000
vt 0.76655500 0.99182500
vt 0.76653300 0.99155400
vt 0.77185400 0.98571400
vt 0.77192000 0.98592700
vt 0.77194600 0.98614100
vt 0.77197300 0.98635900
vt 0.77197300 0.99170000
f 1/1/1 4/4/4 8/8/8
f 13/13/13 9/9/9 18/18/18
f 21/21/21 11/11/11 24/24/24
f 12/12/12 17/17/17 23/23/23
f 22/22/22 19/19/19 25/25/25
f 20/20/20 26/26/26 14/14/14
f 27/27/27 29/29/29 16/16/16
f 15/15/15 30/30/30 6/6/6
f 28/28/28 32/32/32 7/7/7
f 5/5/5 31/31/31 2/2/2
f 33/33/33 36/36/36 39/39/39
f 34/34/34 41/41/41 37/37/37
f 42/42/42 43/43/43 38/38/38
f 46/46/46 48/48/48 49/49/49
f 51/51/51 53/53/53 56/56/56
f 50/50/50 58/58/58 54/54/54
f 59/59/59 61/61/61 55/55/55
f 63/63/63 64/64/64 66/66/66
f 68/68/68 74/74/74 76/76/76
f 77/77/77 78/78/78 70/70/70
f 79/79/79 80/80/80 73/73/73
f 72/72/72 81/81/81 82/82/82
f 83/83/83 84/84/84 67/67/67
f 85/85/85 86/86/86 69/69/69
f 88/88/88 89/89/89 90/90/90
f 35/35/35 45/45/45 40/40/40
f 40/40/40 45/45/45 91/91/91
f 45/45/45 92/92/92 91/91/91
f 35/35/35 44/44/44 45/45/45
f 44/44/44 47/47/47 45/45/45
f 92/92/92 45/45/45 90/90/90
f 45/45/45 93/93/93 90/90/90
f 90/90/90 93/93/93 88/88/88
f 94/94/94 10/10/10 89/89/89
f 10/10/10 3/3/3 89/89/89
f 89/89/89 3/3/3 90/90/90
f 94/94/94 95/95/95 10/10/10
f 95/95/95 96/96/96 10/10/10
f 10/10/10 96/96/96 97/97/97
f 97/97/97 98/98/98 10/10/10
f 98/98/98 99/99/99 10/10/10
f 10/10/10 99/99/99 100/100/100
f 101/101/101 102/102/102 103/103/103
f 103/103/103 104/104/104 101/101/101
f 104/104/104 105/105/105 101/101/101
f 101/101/101 105/105/105 106/106/106
f 106/106/106 107/107/107 101/101/101
f 107/107/107 108/108/108 101/101/101
f 101/101/101 108/108/108 109/109/109
f 110/110/110 111/111/111 112/112/112
f 52/52/52 62/62/62 57/57/57
f 57/57/57 62/62/62 113/113/113
f 62/62/62 114/114/114 113/113/113
f 52/52/52 60/60/60 62/62/62
f 60/60/60 65/65/65 62/62/62
f 114/114/114 62/62/62 112/112/112
f 62/62/62 115/115/115 112/112/112
f 112/112/112 115/115/115 110/110/110
f 109/109/109 116/116/116 101/101/101
f 116/116/116 112/112/112 101/101/101
f 101/101/101 112/112/112 117/117/117
f 112/112/112 111/111/111 117/117/117
f 102/102/102 101/101/101 118/118/118
f 101/101/101 119/119/119 118/118/118
f 118/118/118 119/119/119 120/120/120
f 120/120/120 121/121/121 118/118/118
f 121/121/121 122/122/122 118/118/118
f 118/118/118 122/122/122 123/123/123
f 100/100/100 124/124/124 10/10/10
f 124/124/124 118/118/118 10/10/10
f 10/10/10 118/118/118 125/125/125
f 118/118/118 123/123/123 125/125/125
f 126/126/126 127/127/127 71/71/71
f 128/128/128 129/129/129 127/127/127
f 129/129/129 130/130/130 127/127/127
f 127/127/127 130/130/130 131/131/131
f 131/131/131 132/132/132 127/127/127
f 132/132/132 133/133/133 127/127/127
f 127/127/127 133/133/133 134/134/134
f 134/134/134 135/135/135 127/127/127
f 135/135/135 136/136/136 127/127/127
f 127/127/127 136/136/136 137/137/137
f 137/137/137 138/138/138 127/127/127
f 138/138/138 139/139/139 127/127/127
f 127/127/127 139/139/139 140/140/140
f 141/141/141 142/142/142 71/71/71
f 140/140/140 143/143/143 127/127/127
f 143/143/143 144/144/144 127/127/127
f 127/127/127 144/144/144 71/71/71
f 144/144/144 145/145/145 71/71/71
f 71/71/71 145/145/145 141/141/141
f 142/142/142 146/146/146 71/71/71
f 146/146/146 75/75/75 71/71/71
f 71/71/71 87/87/87 126/126/126
f 147/147/147 148/148/148 149/149/149
f 149/149/149 148/148/148 150/150/150
f 148/148/148 151/151/151 150/150/150
f 150/150/150 151/151/151 152/152/152
f 128/128/128 127/127/127 153/153/153
f 127/127/127 154/154/154 153/153/153
f 153/153/153 154/154/154 155/155/155
f 155/155/155 156/156/156 153/153/153
f 156/156/156 157/157/157 153/153/153
f 153/153/153 157/157/157 149/149/149
f 157/157/157 158/158/158 149/149/149
f 149/149/149 158/158/158 147/147/147