# Blender v3.0.0 OBJ File: ''
# www.blender.org
mtllib bread.mtl
o bread.002
v -0.027579 0.025000 -0.029064
v 0.027579 0.025000 0.005243
v 0.027579 0.025000 -0.029064
v -0.027579 0.025000 0.005243
v -0.029319 0.025000 0.009250
v 0.029319 0.025000 0.009250
v -0.030000 0.025000 0.013589
v 0.030000 0.025000 0.013589
v 0.029576 0.025000 0.017962
v -0.029576 0.025000 0.017962
v 0.028077 0.025000 0.022073
v -0.028077 0.025000 0.022073
v 0.000000 0.025000 0.022968
v -0.025604 0.025000 0.025641
v -0.002679 0.025000 0.026372
v -0.022326 0.025000 0.028423
v -0.006116 0.025000 0.028939
v -0.018466 0.025000 0.030229
v -0.010075 0.025000 0.030496
v -0.014287 0.025000 0.030936
v 0.025604 0.025000 0.025641
v 0.002679 0.025000 0.026372
v 0.022326 0.025000 0.028423
v 0.006116 0.025000 0.028939
v 0.018466 0.025000 0.030229
v 0.010075 0.025000 0.030496
v 0.014287 0.025000 0.030936
v 0.025604 -0.025000 0.025641
v 0.000000 -0.025000 0.022968
v 0.028077 -0.025000 0.022073
v 0.002679 -0.025000 0.026372
v 0.022326 -0.025000 0.028423
v 0.006116 -0.025000 0.028939
v 0.018466 -0.025000 0.030229
v 0.010075 -0.025000 0.030496
v 0.014287 -0.025000 0.030936
v 0.027579 -0.025000 0.005243
v -0.027579 -0.025000 -0.029064
v 0.027579 -0.025000 -0.029064
v -0.027579 -0.025000 0.005243
v 0.029319 -0.025000 0.009250
v -0.029319 -0.025000 0.009250
v -0.030000 -0.025000 0.013589
v 0.030000 -0.025000 0.013589
v 0.029576 -0.025000 0.017962
v -0.029576 -0.025000 0.017962
v -0.028077 -0.025000 0.022073
v -0.025604 -0.025000 0.025641
v -0.002679 -0.025000 0.026372
v -0.022326 -0.025000 0.028423
v -0.006116 -0.025000 0.028939
v -0.018466 -0.025000 0.030229
v -0.010075 -0.025000 0.030496
v -0.014287 -0.025000 0.030936
vt 0.949972 0.010555
vt 0.037167 0.570761
vt 0.040587 0.005042
vt 0.946553 0.576274
vt 0.974839 0.642521
vt 0.008082 0.636663
vt 0.985635 0.714139
vt -0.003579 0.708142
vt 0.002977 0.780297
vt 0.978209 0.786206
vt 0.027280 0.848235
vt 0.953084 0.853847
vt 0.490094 0.865800
vt 0.911958 0.912436
vt 0.492377 0.831560
vt 0.914240 0.878196
vt 0.536205 0.887959
vt 0.859919 0.923744
vt 0.592614 0.930633
vt 0.796100 0.953138
vt 0.657732 0.956703
vt 0.727131 0.964379
vt 0.067698 0.907318
vt 0.069981 0.873078
vt 0.447868 0.887424
vt 0.123747 0.919281
vt 0.390947 0.929410
vt 0.187207 0.949447
vt 0.325522 0.954689
vt 0.256034 0.961523
vt 0.932607 0.941064
vt 0.495612 0.895414
vt 0.974829 0.880250
vt 0.497895 0.861174
vt 0.934890 0.906824
vt 0.543609 0.919210
vt 0.878932 0.954238
vt 0.602263 0.962981
vt 0.813045 0.985010
vt 0.669828 0.989535
vt 0.741717 0.997049
vt 0.966383 0.593355
vt 0.025071 0.008354
vt 0.966496 0.008536
vt 0.024958 0.593173
vt 0.996069 0.661664
vt -0.004755 0.661471
vt -0.016391 0.735435
vt 1.007677 0.735633
vt 1.000426 0.810175
vt -0.009169 0.809983
vt 0.016401 0.880064
vt 0.058599 0.940895
vt 0.060882 0.906655
vt 0.452158 0.919192
vt 0.116821 0.954091
vt 0.393487 0.962940
vt 0.182697 0.984888
vt 0.325912 0.989468
vt 0.254020 0.996955
vt 0.002927 0.997102
vt 0.880149 0.001846
vt 0.002927 0.001843
vt 0.880149 0.997102
vt 0.002438 0.032876
vt 0.881568 0.636661
vt 0.002438 0.636661
vt 0.881568 0.032876
vt 0.771806 0.464544
vt -0.006051 0.998779
vt -0.006051 0.464544
vt 0.771806 0.998779
vt 0.881568 0.707906
vt 0.002438 0.707906
vt 0.771806 0.401507
vt -0.006051 0.401507
vt 0.881568 0.784555
vt 0.002438 0.784555
vt 0.771806 0.333690
vt -0.006051 0.333690
vt 0.881568 0.861342
vt 0.002438 0.861342
vt 1.550715 0.616893
vt -1.408745 0.994560
vt -1.408745 0.616893
vt 1.550715 0.994560
vt 0.881568 0.933070
vt 0.002438 0.933070
vt 1.550715 0.264105
vt -1.408745 0.264105
vt 0.881568 0.994837
vt 0.002438 0.994837
vt 1.550715 -0.039689
vt -1.408745 -0.039689
vt 1.229962 1.058357
vt 1.312397 -0.680912
vt 1.312397 1.058357
vt 1.229962 -0.680912
vt 1.848029 -0.680912
vt 1.774957 1.058357
vt 1.774957 -0.680912
vt 1.848029 1.058357
vt 1.406992 -0.680912
vt 1.406992 1.058357
vt 1.936548 -0.680912
vt 1.936548 1.058357
vt 1.507305 -0.680912
vt 1.507305 1.058357
vt 2.034479 -0.680912
vt 2.034479 1.058357
vt 1.606469 -0.680912
vt 1.606469 1.058357
vt 2.135127 -0.680912
vt 2.135127 1.058357
vt 1.697754 -0.680912
vt 1.697754 1.058357
vt 2.231650 -0.680912
vt 2.231650 1.058357
vt 1.774957 -0.680912
vt 1.774957 1.058357
vt 2.317494 -0.680912
vt 2.317494 1.058357
vt 2.317494 -0.680912
vt 2.396912 1.058357
vt 2.317494 1.058357
vt 2.396912 -0.680912
vt 0.333836 1.342005
vt 0.441603 0.276627
vt 0.441603 1.342005
vt 0.333836 0.276627
vn 0.0000 1.0000 -0.0000
vn 0.0000 -1.0000 -0.0000
vn 0.0000 -0.0000 -1.0000
vn 1.0000 0.0000 0.0000
vn -1.0000 0.0000 0.0000
vn 0.9173 0.0000 -0.3983
vn -0.9173 -0.0000 -0.3983
vn 0.9879 0.0000 -0.1551
vn -0.9879 0.0000 -0.1551
vn 0.9953 0.0000 0.0965
vn -0.9953 0.0000 0.0965
vn 0.9395 0.0000 0.3426
vn -0.9395 0.0000 0.3426
vn 0.8219 -0.0000 0.5697
vn -0.8219 0.0000 0.5697
vn 0.6471 0.0000 0.7624
vn -0.6471 0.0000 0.7624
vn 0.4238 0.0000 0.9058
vn -0.4238 0.0000 0.9058
vn 0.1668 0.0000 0.9860
vn -0.1668 0.0000 0.9860
vn -0.1039 0.0000 0.9946
vn 0.1039 0.0000 0.9946
vn -0.3660 0.0000 0.9306
vn 0.3660 0.0000 0.9306
vn -0.5984 0.0000 0.8012
vn 0.5984 0.0000 0.8012
vn -0.7858 0.0000 0.6185
vn 0.7858 0.0000 0.6185
usemtl Material.007
s 1
f 1/1/1 2/2/1 3/3/1
f 2/2/1 1/1/1 4/4/1
f 2/2/1 4/4/1 5/5/1
f 2/2/1 5/5/1 6/6/1
f 6/6/1 5/5/1 7/7/1
f 6/6/1 7/7/1 8/8/1
f 8/8/1 7/7/1 9/9/1
f 9/9/1 7/7/1 10/10/1
f 9/9/1 10/10/1 11/11/1
f 11/11/1 10/10/1 12/12/1
f 11/11/1 12/12/1 13/13/1
f 13/13/1 12/12/1 14/14/1
f 13/15/1 14/16/1 15/17/1
f 15/17/1 14/16/1 16/18/1
f 15/17/1 16/18/1 17/19/1
f 17/19/1 16/18/1 18/20/1
f 17/19/1 18/20/1 19/21/1
f 19/21/1 18/20/1 20/22/1
f 13/13/1 21/23/1 11/11/1
f 21/24/1 13/15/1 22/25/1
f 21/24/1 22/25/1 23/26/1
f 23/26/1 22/25/1 24/27/1
f 23/26/1 24/27/1 25/28/1
f 25/28/1 24/27/1 26/29/1
f 25/28/1 26/29/1 27/30/1
f 28/31/2 29/32/2 30/33/2
f 29/34/2 28/35/2 31/36/2
f 31/36/2 28/35/2 32/37/2
f 31/36/2 32/37/2 33/38/2
f 33/38/2 32/37/2 34/39/2
f 33/38/2 34/39/2 35/40/2
f 35/40/2 34/39/2 36/41/2
f 37/42/2 38/43/2 39/44/2
f 38/43/2 37/42/2 40/45/2
f 40/45/2 37/42/2 41/46/2
f 40/45/2 41/46/2 42/47/2
f 42/47/2 41/46/2 43/48/2
f 43/48/2 41/46/2 44/49/2
f 43/48/2 44/49/2 45/50/2
f 43/48/2 45/50/2 46/51/2
f 46/51/2 45/50/2 30/33/2
f 46/51/2 30/33/2 47/52/2
f 47/52/2 30/33/2 29/32/2
f 47/52/2 29/32/2 48/53/2
f 48/54/2 29/34/2 49/55/2
f 48/54/2 49/55/2 50/56/2
f 50/56/2 49/55/2 51/57/2
f 50/56/2 51/57/2 52/58/2
f 52/58/2 51/57/2 53/59/2
f 52/58/2 53/59/2 54/60/2
f 3/61/3 38/62/3 1/63/3
f 38/62/3 3/61/3 39/64/3
f 39/65/4 2/66/4 37/67/4
f 2/66/4 39/65/4 3/68/4
f 4/69/5 38/70/5 40/71/5
f 38/70/5 4/69/5 1/72/5
f 37/67/6 6/73/6 41/74/6
f 6/73/6 37/67/6 2/66/6
f 5/75/7 40/71/7 42/76/7
f 40/71/7 5/75/7 4/69/7
f 41/74/8 8/77/8 44/78/8
f 8/77/8 41/74/8 6/73/8
f 7/79/9 42/76/9 43/80/9
f 42/76/9 7/79/9 5/75/9
f 44/78/10 9/81/10 45/82/10
f 9/81/10 44/78/10 8/77/10
f 10/83/11 43/84/11 46/85/11
f 43/84/11 10/83/11 7/86/11
f 45/82/12 11/87/12 30/88/12
f 11/87/12 45/82/12 9/81/12
f 12/89/13 46/85/13 47/90/13
f 46/85/13 12/89/13 10/83/13
f 30/88/14 21/91/14 28/92/14
f 21/91/14 30/88/14 11/87/14
f 14/93/15 47/90/15 48/94/15
f 47/90/15 14/93/15 12/89/15
f 28/95/16 23/96/16 32/97/16
f 23/96/16 28/95/16 21/98/16
f 50/99/17 14/100/17 48/101/17
f 14/100/17 50/99/17 16/102/17
f 32/97/18 25/103/18 34/104/18
f 25/103/18 32/97/18 23/96/18
f 52/105/19 16/102/19 50/99/19
f 16/102/19 52/105/19 18/106/19
f 34/104/20 27/107/20 36/108/20
f 27/107/20 34/104/20 25/103/20
f 54/109/21 18/106/21 52/105/21
f 18/106/21 54/109/21 20/110/21
f 36/108/22 26/111/22 35/112/22
f 26/111/22 36/108/22 27/107/22
f 53/113/23 20/110/23 54/109/23
f 20/110/23 53/113/23 19/114/23
f 35/112/24 24/115/24 33/116/24
f 24/115/24 35/112/24 26/111/24
f 51/117/25 19/114/25 53/113/25
f 19/114/25 51/117/25 17/118/25
f 33/116/26 22/119/26 31/120/26
f 22/119/26 33/116/26 24/115/26
f 49/121/27 17/118/27 51/117/27
f 17/118/27 49/121/27 15/122/27
f 22/123/28 29/124/28 31/125/28
f 29/124/28 22/123/28 13/126/28
f 29/127/29 15/128/29 49/129/29
f 15/128/29 29/127/29 13/130/29
