# Blender v2.82 (sub 7) OBJ File: ''
# www.blender.org
mtllib robotiq_arg2f_85_inner_knuckle.mtl
o Robotiq_Arg2F_85_Inner_Knuckle_Robotiq_Arg2F_85_Inner_Knuckle.001
v 12.000000 32.553501 47.353901
v 16.787701 18.974701 31.455200
v 12.000000 33.101200 47.916100
v 16.946600 18.511600 30.913000
v -12.000000 43.015499 42.363800
v -13.500000 39.563999 42.950199
v -12.000000 43.107700 43.143200
v -16.787701 18.974701 31.455200
v -12.000000 32.553501 47.353901
v -12.000000 33.101200 47.916100
v -16.946600 18.511600 30.913000
v 15.195700 20.535900 33.283100
v 7.390960 22.403799 35.470100
v -13.500000 36.532299 45.888100
v -12.000000 35.113098 49.112999
v -12.000000 35.868500 49.326099
v -12.000000 34.391998 48.803200
v -12.000000 33.717499 48.402000
v 16.946600 27.636499 23.119600
v 16.787701 28.099600 23.661800
v 12.000000 42.531502 40.874100
v 12.000000 41.678398 39.560501
v 12.000000 42.147999 40.189400
v -16.787701 28.099600 23.661800
v -12.000000 42.147999 40.189400
v -12.000000 41.678398 39.560501
v -12.000000 42.531502 40.874100
v -19.500000 9.256380 1.599210
v -19.500000 0.131506 9.392590
v -15.195700 20.535900 33.283100
v -17.975599 2.465920 12.125800
v -8.294100 16.109200 28.100100
v 19.500000 0.131506 9.392590
v 19.322300 0.989514 10.397200
v 19.500000 -4.562440 3.896690
v -13.500000 37.155201 45.956902
v -13.500000 37.775600 45.868599
v -13.500000 38.354599 45.628799
v -13.500000 38.855701 45.252499
v -12.000000 38.209400 49.356701
v -12.000000 41.012600 48.019600
v -12.000000 40.383801 48.489201
v -7.390960 22.403799 35.470100
v 19.322300 10.114400 2.603810
v 19.500000 9.256380 1.599210
v 19.500000 4.562440 -3.896690
v 13.500000 38.855701 45.252499
v 13.500000 39.247601 44.763500
v 12.000000 42.462002 46.181099
v 12.000000 42.060699 46.855598
v -12.000000 42.771801 45.459999
v -13.500000 39.505402 44.192299
v -12.000000 42.462002 46.181099
v -19.322300 0.989514 10.397200
v -19.500000 -4.562440 3.896690
v 8.294100 16.109200 28.100100
v 17.000000 18.038500 30.358900
v 12.000000 42.822300 41.603100
v 12.000000 43.015499 42.363800
v -12.000000 38.970100 49.163502
v -12.000000 37.430000 49.449001
v 13.500000 37.775600 45.868599
v 12.000000 38.970100 49.163502
v 12.000000 38.209400 49.356701
v 12.000000 33.717499 48.402000
v 12.000000 35.868500 49.326099
v 13.500000 36.532299 45.888100
v 12.000000 36.645199 49.438702
v 12.000000 34.391998 48.803200
v -19.322300 10.114400 2.603810
v -19.500000 4.562440 -3.896690
v 8.294100 25.234100 20.306700
v 13.154800 30.468201 26.435101
v -6.562740 30.597000 26.585899
v -8.294100 25.234100 20.306700
v 13.500000 39.505402 44.192299
v 13.500000 39.613201 43.575001
v 12.000000 42.984798 44.704700
v 13.500000 39.563999 42.950199
v 12.000000 43.107700 43.143200
v 12.000000 43.097500 43.928001
v 13.500000 38.354599 45.628799
v 12.000000 41.012600 48.019600
v 12.000000 40.383801 48.489201
v 12.000000 41.574799 47.472000
v 12.000000 42.771801 45.459999
v -13.500000 39.613201 43.575001
v -12.000000 43.097500 43.928001
v -13.500000 39.247601 44.763500
v -12.000000 42.060699 46.855598
v -17.000000 18.038500 30.358900
v 17.975599 2.465920 12.125800
v -12.000000 42.984798 44.704700
v -12.000000 39.699001 48.872700
v -12.000000 36.645199 49.438702
v -12.000000 41.574799 47.472000
v 12.000000 39.699001 48.872700
v 12.000000 37.430000 49.449001
v 13.500000 37.155201 45.956902
v 12.000000 35.113098 49.112999
v -16.946600 27.636499 23.119600
v -12.000000 42.822300 41.603100
v 6.562740 30.597000 26.585899
v -13.154800 30.468201 26.435101
v 19.500000 -0.314016 -5.991780
v -19.500000 -0.314016 -5.991780
v 19.500000 0.470755 -5.981500
v -19.500000 0.470755 -5.981500
v -19.500000 1.247470 -5.868890
v 19.500000 1.247470 -5.868890
v 19.500000 4.014780 -4.458870
v -19.500000 4.014780 -4.458870
v 19.500000 2.723940 -5.346040
v -19.500000 3.398440 -4.944760
v 19.500000 3.398440 -4.944760
v -19.500000 2.723940 -5.346040
v -19.500000 2.002840 -5.655850
v 19.500000 2.002840 -5.655850
v 19.500000 -5.346040 -2.723940
v 19.500000 -5.655850 -2.002840
v -19.500000 -5.655850 -2.002840
v -19.500000 -5.346040 -2.723940
v -19.500000 -1.854100 -5.706340
v 19.500000 -1.854100 -5.706340
v -19.500000 -2.583070 -5.415510
v 19.500000 -2.583070 -5.415510
v -19.500000 -3.896690 -4.562440
v 19.500000 -3.896690 -4.562440
v -19.500000 -4.458870 -4.014780
v 19.500000 -4.458870 -4.014780
v 19.500000 -5.899530 1.093410
v -19.500000 -5.991780 0.314016
v 19.500000 -5.991780 0.314016
v -19.500000 -5.899530 1.093410
v 19.500000 -5.981500 -0.470755
v -19.500000 -5.981500 -0.470755
v -19.500000 -5.868890 -1.247470
v 19.500000 -5.868890 -1.247470
v -19.500000 -5.032020 3.267830
v 19.500000 -5.032020 3.267830
v 19.500000 -5.415510 2.583070
v -19.500000 -5.415510 2.583070
v -19.500000 -5.706340 1.854100
v 19.500000 -5.706340 1.854100
v 19.500000 -1.093410 -5.899530
v -19.500000 -1.093410 -5.899530
v 19.500000 -3.267830 -5.032020
v -19.500000 -3.267830 -5.032020
v -19.500000 -4.944760 -3.398440
v 19.500000 -4.944760 -3.398440
vn 0.2747 -0.6887 0.6710
vn 0.0040 -0.7601 0.6498
vn -0.9190 0.3915 -0.0463
vn -0.2747 -0.6887 0.6710
vn -0.0034 -0.7601 0.6498
vn -0.0000 -0.7604 0.6494
vn -0.9187 -0.1072 0.3801
vn -0.9197 -0.1315 0.3699
vn -0.8993 -0.1727 0.4019
vn -0.8263 -0.2879 0.4840
vn -0.6759 -0.4507 0.5831
vn -0.6577 -0.4664 0.5915
vn 0.6773 0.6456 -0.3528
vn -0.0027 0.7599 -0.6500
vn 0.6577 0.6572 -0.3681
vn 0.2747 0.7704 -0.5753
vn -0.2747 0.7704 -0.5753
vn -0.6577 0.6572 -0.3681
vn -0.9960 0.0584 0.0683
vn -0.9661 -0.0283 0.2564
vn -0.9812 0.0272 0.1911
vn -0.9896 0.0865 0.1152
vn -0.9870 0.0614 0.1483
vn -0.9197 0.0553 0.3886
vn -0.9195 0.2361 0.3144
vn -0.9194 0.2354 0.3152
vn 0.0000 0.7604 -0.6494
vn 0.0002 0.7604 -0.6494
vn 0.9960 0.0584 0.0683
vn 0.9899 0.0919 0.1076
vn 0.9886 0.1177 0.0943
vn 0.9186 0.3396 0.2020
vn -0.9192 0.3618 0.1554
vn -0.0088 -0.7609 0.6488
vn 0.0002 -0.7604 0.6495
vn 0.0001 -0.7604 0.6495
vn -0.0010 -0.7606 0.6493
vn 0.8263 0.5232 -0.2087
vn 0.8992 0.4240 -0.1077
vn -0.9186 0.0973 0.3829
vn -0.9192 0.0463 0.3912
vn 0.9186 0.0973 0.3829
vn 0.6577 -0.4664 0.5915
vn 0.6760 -0.4507 0.5830
vn 0.9190 -0.0566 0.3901
vn 0.8263 -0.2879 0.4840
vn 0.9847 0.1587 0.0716
vn 0.9756 0.2163 0.0378
vn 0.9198 0.3866 0.0675
vn 0.9197 0.3579 0.1615
vn 0.9192 0.3871 -0.0730
vn 0.9486 0.3154 -0.0248
vn 0.9190 0.3915 -0.0463
vn 0.9199 0.3910 -0.0308
vn 0.9191 0.3899 0.0566
vn 0.9187 0.3950 0.0051
vn 0.9870 0.0614 0.1483
vn 0.9896 0.0865 0.1152
vn 0.9194 0.2354 0.3152
vn 0.9195 0.2361 0.3144
vn 0.9193 0.3090 0.2436
vn 0.9195 0.3067 0.2458
vn 0.9186 0.2757 0.2831
vn 0.9186 0.3802 0.1072
vn 0.9192 0.3618 0.1554
vn -0.9187 0.3950 0.0051
vn -0.9199 0.3910 -0.0308
vn -0.9186 0.3396 0.2020
vn -0.9197 0.3579 0.1615
vn 0.0088 -0.7609 0.6488
vn -0.0002 -0.7604 0.6495
vn -0.0001 -0.7604 0.6495
vn 0.0010 -0.7606 0.6493
vn -0.9186 0.3802 0.1072
vn -0.9198 0.3866 0.0675
vn -0.9191 0.3899 0.0566
vn -0.9186 0.1931 0.3448
vn -0.9196 0.1503 0.3629
vn -0.9193 0.1459 0.3656
vn -0.9187 -0.0052 0.3950
vn -0.9190 -0.0566 0.3901
vn -0.9198 -0.0431 0.3900
vn -0.9186 0.2757 0.2831
vn -0.9195 0.3067 0.2458
vn -0.9193 0.3090 0.2436
vn 0.9186 0.1931 0.3448
vn 0.9193 0.1459 0.3656
vn 0.9196 0.1503 0.3629
vn 0.9187 -0.0052 0.3950
vn 0.9198 -0.0431 0.3900
vn 0.9192 0.0463 0.3912
vn 0.9197 0.0553 0.3886
vn 0.9812 0.0272 0.1911
vn 0.9661 -0.0283 0.2564
vn 0.9187 -0.1072 0.3801
vn 0.9197 -0.1315 0.3699
vn 0.8993 -0.1727 0.4019
vn -0.0002 0.7604 -0.6494
vn -0.9899 0.0919 0.1076
vn 0.0027 0.7599 -0.6500
vn -0.9886 0.1177 0.0943
vn -0.9847 0.1587 0.0716
vn -0.9756 0.2163 0.0378
vn -0.9486 0.3154 -0.0248
vn -0.9192 0.3871 -0.0730
vn -0.8992 0.4240 -0.1077
vn -0.8263 0.5232 -0.2087
vn -0.6773 0.6456 -0.3528
vn 0.0000 0.0131 -0.9999
vn 0.0000 0.1435 -0.9897
vn 0.0000 -0.7163 0.6978
vn 0.0000 0.7163 -0.6978
vn 0.0000 0.5113 -0.8594
vn 0.0000 0.6191 -0.7853
vn 0.0000 0.2714 -0.9625
vn 0.0000 0.3947 -0.9188
vn 0.0000 -0.9188 -0.3947
vn 0.0000 0.8725 -0.4887
vn 0.0000 0.8013 -0.5983
vn 0.0000 -0.3706 -0.9288
vn 0.0000 -0.6978 -0.7163
vn 0.0000 -0.9931 0.1175
vn 0.0000 -0.9999 -0.0131
vn 0.0000 -0.9625 -0.2714
vn 0.0000 -0.9897 -0.1435
vn 0.0000 0.9931 -0.1175
vn 0.0000 -0.8013 0.5983
vn 0.0000 -0.8725 0.4886
vn 0.0000 -0.9288 0.3706
vn 0.0000 -0.9692 0.2462
vn 0.0000 0.8594 0.5113
vn 0.0000 -0.1175 -0.9931
vn 0.0000 -0.2462 -0.9692
vn 0.0000 -0.4886 -0.8725
vn 0.0000 -0.5983 -0.8013
vn -1.0000 0.0000 0.0000
vn 1.0000 0.0000 0.0000
vn 0.0000 -0.7853 -0.6191
vn 0.0000 -0.8594 -0.5113
vn 0.0000 0.9288 -0.3705
vn 0.0000 0.9692 -0.2462
vn 0.0000 0.1176 0.9931
vn 0.0000 0.2462 0.9692
vn 0.0000 -0.6191 0.7853
vn 0.0000 -0.5112 0.8595
vn 0.0000 0.9999 0.0130
vn 0.0000 0.5984 0.8012
vn 0.0000 0.9188 0.3947
vn 0.0000 -0.7604 0.6495
vn 0.0000 0.9625 0.2714
vn 0.0000 0.9896 0.1436
vn 0.0000 -0.1435 0.9897
vn 0.0000 -0.0131 0.9999
vn 0.0000 0.6977 0.7164
vn 0.0000 0.6977 0.7163
vn 0.0000 0.7853 0.6191
vn 0.0000 0.4886 0.8725
vn 0.0000 0.3706 0.9288
vn 0.0000 -0.2715 0.9624
vn 0.0000 -0.3947 0.9188
usemtl None
s off
f 1//1 2//1 3//1
f 4//2 2//2 1//2
f 5//3 6//3 7//3
f 8//4 9//4 10//4
f 9//5 8//5 11//5
f 12//6 1//6 13//6
f 14//7 15//7 16//7
f 11//8 15//8 14//8
f 17//9 15//9 11//9
f 18//10 17//10 11//10
f 8//11 18//11 11//11
f 8//12 10//12 18//12
f 19//13 20//13 21//13
f 19//14 22//14 20//14
f 20//15 23//15 21//15
f 20//16 22//16 23//16
f 24//17 25//17 26//17
f 25//18 24//18 27//18
f 28//19 29//19 11//19
f 30//6 31//6 32//6
f 33//6 34//6 35//6
f 14//20 36//20 11//20
f 11//21 36//21 37//21
f 38//22 39//22 11//22
f 37//23 38//23 11//23
f 36//24 40//24 37//24
f 38//25 41//25 39//25
f 38//26 42//26 41//26
f 43//6 30//6 32//6
f 30//6 43//6 9//6
f 44//27 45//27 46//27
f 44//28 19//28 45//28
f 33//29 45//29 4//29
f 4//29 45//29 19//29
f 19//30 47//30 4//30
f 48//31 47//31 19//31
f 48//32 49//32 50//32
f 51//33 52//33 53//33
f 30//6 54//6 31//6
f 29//6 55//6 54//6
f 13//6 56//6 12//6
f 33//34 4//34 57//34
f 33//35 57//35 34//35
f 34//36 57//36 12//36
f 4//37 1//37 57//37
f 12//36 57//36 1//36
f 58//38 19//38 21//38
f 58//39 59//39 19//39
f 40//40 60//40 37//40
f 36//41 61//41 40//41
f 62//42 63//42 64//42
f 2//43 65//43 3//43
f 65//44 2//44 4//44
f 66//45 67//45 68//45
f 69//46 65//46 4//46
f 28//27 70//27 71//27
f 72//27 73//27 44//27
f 44//27 73//27 19//27
f 22//27 73//27 72//27
f 19//27 73//27 22//27
f 26//27 74//27 75//27
f 76//47 48//47 19//47
f 77//48 76//48 19//48
f 78//49 76//49 77//49
f 48//50 76//50 49//50
f 59//51 79//51 19//51
f 19//52 79//52 77//52
f 59//53 80//53 79//53
f 77//54 79//54 80//54
f 77//55 81//55 78//55
f 81//56 77//56 80//56
f 82//57 62//57 4//57
f 47//58 82//58 4//58
f 82//59 83//59 84//59
f 47//60 83//60 82//60
f 48//61 50//61 85//61
f 85//62 47//62 48//62
f 85//63 83//63 47//63
f 86//64 76//64 78//64
f 76//65 86//65 49//65
f 7//66 87//66 88//66
f 6//67 87//67 7//67
f 89//68 90//68 53//68
f 52//69 89//69 53//69
f 29//70 91//70 11//70
f 54//71 91//71 29//71
f 91//72 54//72 30//72
f 9//73 11//73 91//73
f 30//72 9//72 91//72
f 34//6 12//6 92//6
f 56//6 92//6 12//6
f 52//74 51//74 93//74
f 52//75 93//75 87//75
f 87//76 93//76 88//76
f 38//77 94//77 42//77
f 37//78 94//78 38//78
f 60//79 94//79 37//79
f 36//80 95//80 61//80
f 95//81 14//81 16//81
f 95//82 36//82 14//82
f 41//83 96//83 39//83
f 39//84 96//84 89//84
f 89//85 96//85 90//85
f 82//86 84//86 97//86
f 62//87 97//87 63//87
f 82//88 97//88 62//88
f 98//89 68//89 99//89
f 67//90 99//90 68//90
f 98//91 99//91 64//91
f 64//92 99//92 62//92
f 62//93 99//93 4//93
f 4//94 99//94 67//94
f 67//95 66//95 100//95
f 67//96 100//96 4//96
f 100//97 69//97 4//97
f 70//98 28//98 101//98
f 11//19 101//19 28//19
f 39//99 101//99 11//99
f 101//100 24//100 26//100
f 89//101 101//101 39//101
f 89//102 52//102 101//102
f 87//103 101//103 52//103
f 87//104 6//104 101//104
f 6//105 5//105 101//105
f 102//106 101//106 5//106
f 102//107 27//107 101//107
f 24//108 101//108 27//108
f 72//27 103//27 22//27
f 70//27 104//27 75//27
f 101//27 104//27 70//27
f 75//27 104//27 26//27
f 104//27 101//27 26//27
f 105//109 106//109 107//109
f 107//109 106//109 108//109
f 107//110 109//110 110//110
f 107//110 108//110 109//110
f 3//111 9//111 1//111
f 10//111 9//111 3//111
f 71//112 111//112 112//112
f 71//112 46//112 111//112
f 113//113 114//113 115//113
f 113//113 116//113 114//113
f 111//114 114//114 112//114
f 115//114 114//114 111//114
f 110//115 117//115 118//115
f 109//115 117//115 110//115
f 118//116 117//116 113//116
f 113//116 117//116 116//116
f 119//117 120//117 121//117
f 122//117 119//117 121//117
f 27//118 21//118 23//118
f 25//118 27//118 23//118
f 26//119 23//119 22//119
f 25//119 23//119 26//119
f 123//120 124//120 125//120
f 124//120 126//120 125//120
f 127//121 128//121 129//121
f 128//121 130//121 129//121
f 131//122 132//122 133//122
f 134//122 132//122 131//122
f 135//123 132//123 136//123
f 133//123 132//123 135//123
f 120//124 137//124 121//124
f 138//124 137//124 120//124
f 135//125 136//125 137//125
f 135//125 137//125 138//125
f 5//126 7//126 59//126
f 80//126 59//126 7//126
f 35//127 139//127 140//127
f 55//127 139//127 35//127
f 140//128 139//128 141//128
f 139//128 142//128 141//128
f 141//129 143//129 144//129
f 142//129 143//129 141//129
f 144//130 143//130 131//130
f 143//130 134//130 131//130
f 9//6 43//6 1//6
f 13//6 1//6 43//6
f 50//131 49//131 90//131
f 90//131 49//131 53//131
f 55//6 35//6 54//6
f 34//6 54//6 35//6
f 106//132 145//132 146//132
f 106//132 105//132 145//132
f 123//133 146//133 145//133
f 145//133 124//133 123//133
f 126//134 147//134 125//134
f 125//134 147//134 148//134
f 148//135 147//135 127//135
f 147//135 128//135 127//135
f 114//136 149//136 112//136
f 123//136 149//136 146//136
f 149//136 106//136 146//136
f 149//136 148//136 127//136
f 139//136 149//136 142//136
f 28//136 149//136 29//136
f 106//136 149//136 108//136
f 127//136 129//136 149//136
f 149//136 117//136 109//136
f 112//136 149//136 71//136
f 149//136 109//136 108//136
f 149//136 123//136 125//136
f 148//136 149//136 125//136
f 149//136 122//136 121//136
f 149//136 114//136 116//136
f 117//136 149//136 116//136
f 71//136 149//136 28//136
f 143//136 142//136 149//136
f 132//136 149//136 136//136
f 137//136 136//136 149//136
f 29//136 149//136 55//136
f 132//136 134//136 149//136
f 137//136 149//136 121//136
f 139//136 55//136 149//136
f 143//136 149//136 134//136
f 113//137 115//137 150//137
f 107//137 110//137 150//137
f 110//137 118//137 150//137
f 131//137 150//137 144//137
f 35//137 140//137 150//137
f 138//137 120//137 150//137
f 141//137 144//137 150//137
f 107//137 150//137 105//137
f 33//137 35//137 150//137
f 111//137 150//137 115//137
f 131//137 133//137 150//137
f 113//137 150//137 118//137
f 124//137 150//137 126//137
f 141//137 150//137 140//137
f 135//137 138//137 150//137
f 111//137 46//137 150//137
f 119//137 150//137 120//137
f 145//137 150//137 124//137
f 147//137 150//137 128//137
f 150//137 45//137 33//137
f 128//137 150//137 130//137
f 135//137 150//137 133//137
f 45//137 150//137 46//137
f 145//137 105//137 150//137
f 147//137 126//137 150//137
f 130//138 150//138 129//138
f 149//138 129//138 150//138
f 119//139 122//139 150//139
f 149//139 150//139 122//139
f 43//6 56//6 13//6
f 56//6 43//6 32//6
f 27//140 58//140 21//140
f 102//140 58//140 27//140
f 5//141 58//141 102//141
f 59//141 58//141 5//141
f 61//142 98//142 40//142
f 98//142 64//142 40//142
f 64//143 63//143 40//143
f 60//143 40//143 63//143
f 10//144 3//144 65//144
f 18//144 10//144 65//144
f 65//145 69//145 18//145
f 18//145 69//145 17//145
f 71//27 70//27 46//27
f 46//27 70//27 44//27
f 72//27 70//27 75//27
f 44//27 70//27 72//27
f 7//146 81//146 80//146
f 88//146 81//146 7//146
f 84//147 83//147 42//147
f 83//147 41//147 42//147
f 49//148 86//148 53//148
f 51//148 53//148 86//148
f 34//149 92//149 54//149
f 54//149 92//149 31//149
f 92//6 56//6 32//6
f 31//6 92//6 32//6
f 93//150 86//150 78//150
f 86//150 93//150 51//150
f 93//151 81//151 88//151
f 81//151 93//151 78//151
f 66//152 95//152 16//152
f 66//152 68//152 95//152
f 61//153 95//153 98//153
f 98//153 95//153 68//153
f 83//154 96//154 41//154
f 85//155 96//155 83//155
f 50//156 90//156 96//156
f 85//156 50//156 96//156
f 42//157 97//157 84//157
f 94//157 97//157 42//157
f 63//158 97//158 60//158
f 94//158 60//158 97//158
f 66//159 16//159 100//159
f 15//159 100//159 16//159
f 15//160 17//160 100//160
f 69//160 100//160 17//160
f 22//27 103//27 26//27
f 26//27 103//27 74//27
f 72//27 75//27 103//27
f 74//27 103//27 75//27
