# Blender v2.82 (sub 7) OBJ File: ''
# www.blender.org
mtllib robotiq_arg2f_85_inner_finger.mtl
o Robotiq_Arg2F_85_Inner_Finger_Robotiq_Arg2F_85_Inner_Finger.001
v -7.000000 -13.903100 44.514900
v -7.500000 -17.989901 11.513900
v -7.000000 -18.903099 44.514599
v 7.500000 4.460190 2.259790
v 7.000000 5.563000 2.247890
v 7.000000 -13.903100 44.514900
v 7.000000 -18.903099 44.514599
v 7.500000 -17.628401 11.507200
v 7.500000 -22.869600 7.077570
v 7.000000 -23.901800 13.514400
v -7.500000 -20.574699 2.289310
v -7.000000 -20.625099 1.168530
v -7.000000 -21.256399 1.540310
v -7.000000 -2.051870 -5.638250
v -7.500000 -19.528200 1.786710
v -7.500000 -1.626730 -4.727970
v -7.000000 -19.953300 0.876440
v 7.500000 -16.484400 11.309700
v 7.500000 -15.937300 11.112800
v 7.500000 1.964140 4.598060
v 7.500000 -17.050600 11.441800
v -7.000000 -1.451270 -5.821840
v 7.000000 -2.051870 -5.638250
v 7.500000 -19.865601 1.916630
v 7.000000 -19.953300 0.876440
v 7.500000 -22.901400 6.496990
v -7.000000 -23.901400 6.514420
v -7.000000 -23.901800 13.514400
v -7.500000 -22.897301 6.717080
v -7.000000 5.985370 0.418805
v -7.500000 4.985620 0.378963
v -7.000000 5.908800 1.042150
v -7.500000 4.763830 1.518510
v -7.000000 5.563000 2.247890
v -7.000000 5.767500 1.654080
v -7.500000 4.555340 2.061290
v -7.500000 1.626730 4.727970
v -7.500000 -16.274700 11.242700
v -7.500000 -21.182600 10.287500
v -7.500000 -21.598400 9.881030
v -7.500000 -18.569599 11.469800
v -7.500000 -20.722401 10.642900
v -7.500000 -1.066850 -4.884860
v -7.000000 -0.834774 -5.941650
v -7.500000 -21.047100 2.628220
v -7.000000 -21.837601 1.986250
v -7.500000 -20.066000 2.007530
v 7.500000 3.418320 3.648990
v 7.500000 3.818820 3.227470
v 7.500000 2.484660 4.338950
v 7.500000 -20.416700 10.835900
v 7.500000 -19.898100 11.098700
v 7.500000 -19.352400 11.299500
v 7.500000 -18.209801 11.505200
v 7.000000 -1.451270 -5.821840
v 7.500000 -1.417060 -4.794990
v 7.000000 -20.625099 1.168530
v 7.000000 5.767500 1.654080
v 7.500000 4.861110 1.170290
v 7.000000 5.908800 1.042150
v 7.000000 -23.901400 6.514420
v 7.500000 -22.593800 4.787970
v 7.500000 -22.762600 5.344400
v 7.000000 -23.723101 5.062900
v -7.000000 5.996350 -0.209130
v -7.500000 4.995900 -0.202394
v -7.000000 5.941650 -0.834774
v -7.500000 4.907910 0.955196
v -7.500000 4.285230 2.576200
v -7.500000 -17.408899 11.490400
v -7.500000 3.575610 3.495000
v -7.500000 3.145690 3.886470
v -7.500000 2.673230 4.225380
v -7.500000 2.164620 4.507150
v -7.500000 -22.275101 8.937710
v -7.500000 -22.526800 8.413570
v -7.500000 -22.716000 7.863760
v -7.500000 -22.840099 7.295700
v -7.500000 -21.964199 9.429080
v -7.500000 -19.694401 11.182200
v -7.500000 -19.140400 11.358800
v -7.500000 -20.224100 10.942500
v -7.500000 -0.492538 -4.975680
v -7.000000 -22.360100 2.499710
v -7.500000 -21.477100 3.019690
v 7.500000 4.167690 2.762310
v 7.500000 2.971580 4.021160
v 7.500000 -18.787100 11.435600
v 7.500000 -1.964140 -4.598060
v 7.000000 -0.834774 -5.941650
v 7.500000 -0.850809 -4.927080
v 7.500000 4.964110 0.598037
v 7.500000 4.692380 1.726720
v 7.500000 -20.901400 10.514700
v 7.500000 -21.345501 10.139400
v 7.500000 -22.088600 9.247430
v 7.500000 -21.743000 9.715050
v 7.500000 -22.770700 7.650540
v 7.500000 -22.605900 8.208150
v 7.500000 -22.377501 8.742860
v 7.000000 -23.502800 4.364230
v -7.000000 -23.198999 3.697620
v -7.000000 -23.502800 4.364230
v -7.500000 -22.456800 4.453400
v 7.500000 -22.865499 5.916650
v 7.000000 -23.856701 5.783210
v -7.500000 4.938620 -0.781014
v -7.500000 3.957180 3.056260
v -7.500000 -16.834600 11.399500
v -7.500000 1.238950 -4.844070
v -7.500000 1.792930 -4.667480
v -7.000000 1.654080 -5.767500
v -7.000000 0.418805 -5.985370
v -7.000000 -0.209130 -5.996350
v -7.500000 0.088434 -4.999220
v -7.500000 0.668210 -4.955150
v -7.000000 -22.816200 3.073010
v -7.500000 -21.858601 3.458430
v 7.000000 -21.256399 1.540310
v 7.500000 -20.872999 2.493530
v 7.000000 -21.837601 1.986250
v 7.500000 -21.319700 2.865700
v 7.500000 4.999970 0.017695
v 7.000000 5.985370 0.418805
v 7.000000 5.996350 -0.209130
v 7.000000 5.392880 -2.629990
v 7.500000 4.704490 -1.693460
v 7.500000 4.476080 -2.228170
v 7.000000 5.638250 -2.051870
v 7.000000 5.821840 -1.451270
v 7.500000 4.869280 -1.135850
v 7.500000 4.968210 -0.562885
v -7.000000 1.042150 -5.908800
v 7.000000 -22.360100 2.499710
v 7.000000 -22.816200 3.073010
v 7.500000 -22.069099 3.752370
v 7.000000 -23.198999 3.697620
v -7.500000 -22.887100 6.135720
v -7.000000 -23.723101 5.062900
v -7.500000 -22.665300 4.996180
v -7.500000 -22.809299 5.559490
v -7.000000 -23.856701 5.783210
v -7.500000 2.322670 -4.427770
v -7.000000 2.247890 -5.563000
v -7.000000 3.355380 -4.974080
v -7.500000 2.821000 -4.128190
v -7.500000 3.281180 -3.772780
v -7.000000 3.856930 -4.596100
v -7.000000 4.728230 -3.693760
v -7.500000 3.696990 -3.366350
v -7.500000 4.062800 -2.914390
v -7.000000 4.316220 -4.167760
v -7.500000 4.625390 -1.898890
v -7.000000 5.392880 -2.629990
v -7.500000 4.373670 -2.423020
v -7.500000 -22.186701 3.938490
v 7.500000 -0.273057 -4.992540
v 7.500000 0.308388 -4.990480
v 7.000000 0.418805 -5.985370
v 7.500000 0.885662 -4.920940
v 7.500000 -20.386101 2.175740
v 7.000000 5.941650 -0.834774
v 7.000000 5.088430 -3.179290
v 7.000000 3.355380 -4.974080
v 7.000000 3.856930 -4.596100
v 7.500000 2.999970 -4.000020
v 7.000000 1.654080 -5.767500
v 7.500000 1.450960 -4.784840
v 7.500000 -22.361601 4.254890
v 7.500000 -21.720301 3.287210
v -7.000000 5.088430 -3.179290
v -7.500000 4.814560 -1.349070
v -7.000000 5.638250 -2.051870
v 7.000000 1.042150 -5.908800
v 7.000000 -0.209130 -5.996350
v 7.500000 4.187140 -2.732740
v 7.000000 4.728230 -3.693760
v 7.500000 3.841570 -3.200360
v 7.500000 3.444060 -3.624700
v 7.500000 1.996630 -4.584040
v 7.000000 2.247890 -5.563000
v 7.000000 2.817070 -5.297560
v 7.500000 2.515310 -4.321250
v -7.000000 2.817070 -5.297560
v -7.000000 5.821840 -1.451270
v 7.000000 4.316220 -4.167760
vn -0.9999 -0.0000 0.0151
vn 0.8938 0.4073 0.1876
vn 0.9999 -0.0000 0.0151
vn 0.9714 -0.2346 0.0378
vn -0.8929 -0.2285 -0.3880
vn -0.8946 -0.1528 -0.4200
vn 0.9999 0.0053 0.0146
vn 0.9999 0.0035 0.0148
vn 0.9999 0.0017 0.0150
vn -0.8935 -0.1313 -0.4295
vn 0.8958 -0.1520 -0.4178
vn 0.9404 -0.3396 0.0186
vn -0.8952 -0.4457 -0.0000
vn -0.8939 0.4449 0.0546
vn -0.8932 0.4252 0.1464
vn -0.8932 0.4084 0.1881
vn -0.8958 0.4150 0.1594
vn -0.9999 0.0053 0.0146
vn -0.9998 -0.0153 0.0156
vn -0.9999 -0.0011 0.0151
vn -0.9998 -0.0119 0.0154
vn -0.8932 -0.0858 -0.4414
vn -0.8955 -0.1201 -0.4286
vn -0.8955 -0.2595 -0.3616
vn -0.8927 -0.2743 -0.3575
vn -0.8930 -0.1794 -0.4126
vn -0.8951 -0.1694 -0.4125
vn -0.8953 -0.2159 -0.3897
vn 0.9995 0.0232 0.0221
vn 0.9998 0.0078 0.0156
vn 0.9999 -0.0077 0.0152
vn 0.9999 -0.0056 0.0151
vn 0.9999 -0.0001 0.0151
vn 0.8930 -0.1316 -0.4304
vn 0.8924 -0.1799 -0.4138
vn 0.8930 0.4386 0.1013
vn 0.8944 -0.4472 -0.0000
vn 0.8946 -0.4277 -0.1297
vn -0.8945 0.4471 0.0078
vn -0.8945 0.4470 0.0079
vn -0.8939 0.4465 -0.0390
vn -0.8951 0.4420 0.0596
vn -0.8935 0.4376 0.1010
vn -0.8955 0.4312 0.1103
vn -0.9892 0.1298 0.0681
vn -0.9999 0.0006 0.0151
vn -0.9996 0.0181 0.0199
vn -0.9998 0.0126 0.0176
vn -0.9999 0.0061 0.0150
vn -0.9998 0.0089 0.0161
vn -0.9992 -0.0364 0.0175
vn -0.9982 -0.0567 0.0195
vn -0.9712 -0.2352 0.0379
vn -0.9926 -0.1184 0.0259
vn -0.9579 -0.2857 0.0282
vn -0.9995 -0.0261 0.0165
vn -0.9997 -0.0197 0.0160
vn -0.9999 -0.0048 0.0151
vn -0.9999 -0.0029 0.0151
vn -0.9999 -0.0069 0.0152
vn -0.9998 -0.0092 0.0153
vn -0.8958 -0.0694 -0.4391
vn -0.8926 -0.3160 -0.3216
vn -0.8956 -0.2994 -0.3289
vn 0.9957 0.0799 0.0465
vn 0.9989 0.0377 0.0283
vn 0.9997 0.0158 0.0189
vn 0.9998 0.0111 0.0170
vn 0.9999 -0.0036 0.0151
vn 0.9999 -0.0018 0.0151
vn 0.8958 -0.1520 -0.4177
vn 0.8959 -0.1505 -0.4180
vn 0.8931 -0.0858 -0.4415
vn 0.8958 -0.1010 -0.4328
vn 0.8959 0.4372 0.0787
vn 0.8931 0.4253 0.1465
vn 0.8958 0.4253 0.1290
vn 0.8955 0.4079 0.1777
vn 0.9998 -0.0101 0.0153
vn 0.9998 -0.0131 0.0155
vn 0.9996 -0.0218 0.0161
vn 0.9997 -0.0168 0.0157
vn 0.9799 -0.1964 0.0339
vn 0.9973 -0.0710 0.0210
vn 0.9994 -0.0294 0.0168
vn 0.9989 -0.0423 0.0181
vn 0.8934 -0.4284 -0.1351
vn -0.8924 -0.4106 -0.1871
vn 0.8943 -0.4404 -0.0792
vn 0.8937 -0.4412 -0.0818
vn 0.8940 -0.4472 -0.0277
vn 0.8939 -0.4474 -0.0274
vn -0.8950 0.4438 -0.0439
vn -0.9993 0.0275 0.0239
vn -0.9983 0.0477 0.0326
vn -0.9999 0.0041 0.0147
vn -0.9999 0.0024 0.0149
vn -0.8955 0.1352 -0.4241
vn -0.8929 0.0079 -0.4501
vn -0.8959 -0.0180 -0.4439
vn -0.8930 -0.0392 -0.4483
vn -0.8959 0.0337 -0.4430
vn -0.8925 -0.3530 -0.2808
vn -0.8958 -0.3355 -0.2917
vn 0.8926 -0.2745 -0.3578
vn 0.8957 -0.2846 -0.3416
vn 0.8959 0.4434 0.0274
vn 0.8930 0.4499 0.0079
vn 0.8929 0.4468 0.0549
vn 0.8946 0.4110 -0.1755
vn 0.8944 0.4118 -0.1748
vn 0.8940 0.4285 -0.1310
vn 0.8949 0.4279 -0.1265
vn 0.8957 0.4440 -0.0243
vn -0.8930 0.0549 -0.4467
vn -0.8958 0.0849 -0.4363
vn -0.8932 0.1012 -0.4381
vn 0.8927 -0.3159 -0.3215
vn 0.8930 -0.3838 -0.2352
vn -0.8958 -0.4445 -0.0078
vn -0.8924 -0.4304 -0.1357
vn -0.8959 -0.4304 -0.1100
vn -0.8959 -0.4147 -0.1593
vn -0.8925 -0.4502 -0.0275
vn -0.8959 -0.4404 -0.0595
vn -0.8924 -0.4436 -0.0823
vn -0.8950 0.1839 -0.4063
vn -0.8935 0.1462 -0.4246
vn -0.8945 0.2304 -0.3832
vn -0.8951 0.2726 -0.3529
vn -0.8939 0.2698 -0.3580
vn -0.8958 0.3455 -0.2797
vn -0.8932 0.3394 -0.2950
vn -0.8955 0.3111 -0.3183
vn -0.8935 0.3063 -0.3284
vn -0.8959 0.4005 -0.1923
vn -0.8924 -0.3847 -0.2358
vn -0.8959 -0.3668 -0.2507
vn -0.8959 -0.3934 -0.2064
vn 0.8955 -0.0501 -0.4421
vn 0.8946 0.0534 -0.4437
vn 0.8925 -0.2289 -0.3887
vn 0.8958 -0.2429 -0.3722
vn 0.8959 -0.1980 -0.3977
vn 0.8932 0.4479 -0.0392
vn 0.8954 0.4388 -0.0758
vn 0.8936 0.4407 -0.0856
vn 0.8938 0.3922 -0.2174
vn 0.8929 0.2709 -0.3595
vn 0.8949 0.1044 -0.4338
vn 0.8952 -0.3853 -0.2242
vn 0.8932 -0.4092 -0.1865
vn 0.8949 -0.4092 -0.1782
vn 0.8928 -0.3525 -0.2805
vn 0.8954 -0.3563 -0.2672
vn 0.8955 -0.3225 -0.3065
vn -0.8929 0.3937 -0.2182
vn -0.8959 0.3754 -0.2375
vn -0.8930 0.3687 -0.2581
vn -0.8958 0.4204 -0.1446
vn -0.8930 0.4143 -0.1758
vn 0.8940 0.1008 -0.4365
vn 0.8944 0.0545 -0.4440
vn 0.8951 0.0016 -0.4458
vn 0.8938 0.0078 -0.4483
vn 0.8934 -0.0391 -0.4475
vn 0.8951 0.3868 -0.2215
vn 0.8934 0.3680 -0.2576
vn 0.8955 0.3579 -0.2645
vn 0.8959 0.2867 -0.3393
vn 0.8932 0.1900 -0.4074
vn 0.8954 0.1538 -0.4179
vn 0.8936 0.1462 -0.4245
vn 0.8957 0.2009 -0.3966
vn 0.8959 0.2454 -0.3703
vn 0.8930 0.2318 -0.3857
vn -0.8945 0.2303 -0.3833
vn -0.8939 0.1894 -0.4062
vn -0.8932 0.4300 -0.1315
vn -0.8955 0.4349 -0.0950
vn -0.8935 0.4408 -0.0857
vn 0.8958 0.3244 -0.3039
vn 0.8931 0.3395 -0.2951
vn 0.8930 0.3070 -0.3292
vn 0.0000 -0.0001 1.0000
vn 0.0000 -0.9872 0.1592
vn 0.0000 0.9083 0.4183
vn 0.0000 -0.1908 -0.9816
vn 0.0000 -0.2923 -0.9563
vn 0.0000 -0.3420 -0.9397
vn 0.0000 0.9744 0.2250
vn 0.0000 0.9455 0.3256
vn 0.0000 -0.3987 -0.9171
vn 0.0000 -1.0000 -0.0001
vn 0.0000 -0.6087 -0.7934
vn 0.0000 -0.5075 -0.8617
vn 0.0000 -0.8526 -0.5225
vn 0.0000 -0.9100 -0.4147
vn 0.0000 -0.9537 -0.3007
vn 0.0000 0.9925 0.1219
vn 0.0000 0.9998 0.0175
vn 0.0000 -0.7009 -0.7133
vn 0.0000 -0.7009 -0.7132
vn 0.0000 -0.7826 -0.6226
vn 0.0000 -0.9981 -0.0610
vn 0.0000 -0.9832 -0.1824
vn -1.0000 0.0000 0.0000
vn 0.0000 0.9962 -0.0871
vn 0.0000 0.6019 -0.7986
vn 0.0000 0.8192 -0.5735
vn 0.0000 0.8746 -0.4848
vn 0.0000 0.9205 -0.3907
vn 0.0000 0.2250 -0.9744
vn 0.0000 0.1219 -0.9925
vn 0.0000 -0.0871 -0.9962
vn 0.0000 0.0175 -0.9998
vn 0.0000 0.3256 -0.9455
vn 1.0000 0.0000 0.0000
vn 0.0000 0.5151 -0.8571
vn 0.0000 0.4227 -0.9063
vn 0.0000 0.9816 -0.1908
vn 0.0000 0.9563 -0.2923
vn 0.0000 0.7547 -0.6560
vn 0.0000 0.6820 -0.7313
usemtl None
s off
f 1//1 2//1 3//1
f 4//2 5//2 6//2
f 7//3 8//3 6//3
f 9//4 7//4 10//4
f 11//5 12//5 13//5
f 14//6 15//6 16//6
f 17//6 15//6 14//6
f 18//7 19//7 6//7
f 19//7 20//7 6//7
f 18//8 6//8 21//8
f 8//9 21//9 6//9
f 22//10 14//10 16//10
f 23//11 24//11 25//11
f 26//12 9//12 10//12
f 27//13 28//13 29//13
f 30//14 31//14 32//14
f 33//15 34//15 35//15
f 34//16 36//16 1//16
f 33//17 36//17 34//17
f 37//18 38//18 1//18
f 39//19 40//19 3//19
f 2//20 41//20 3//20
f 42//21 39//21 3//21
f 22//22 43//22 44//22
f 22//23 16//23 43//23
f 45//24 11//24 13//24
f 46//25 45//25 13//25
f 12//26 47//26 17//26
f 47//27 15//27 17//27
f 12//28 11//28 47//28
f 48//29 49//29 6//29
f 20//30 50//30 6//30
f 7//31 51//31 52//31
f 52//32 53//32 7//32
f 7//33 54//33 8//33
f 55//34 56//34 23//34
f 24//35 57//35 25//35
f 58//36 59//36 60//36
f 26//37 10//37 61//37
f 62//38 63//38 64//38
f 65//39 66//39 30//39
f 66//40 31//40 30//40
f 67//41 66//41 65//41
f 31//42 68//42 32//42
f 32//43 68//43 35//43
f 35//44 68//44 33//44
f 36//45 69//45 1//45
f 1//46 70//46 2//46
f 71//47 72//47 1//47
f 72//48 73//48 1//48
f 74//49 37//49 1//49
f 73//50 74//50 1//50
f 75//51 76//51 3//51
f 76//52 77//52 3//52
f 3//53 78//53 28//53
f 77//54 78//54 3//54
f 28//55 78//55 29//55
f 79//56 75//56 3//56
f 40//57 79//57 3//57
f 80//58 3//58 81//58
f 41//59 81//59 3//59
f 80//60 82//60 3//60
f 82//61 42//61 3//61
f 43//62 83//62 44//62
f 84//63 85//63 46//63
f 85//64 45//64 46//64
f 86//65 4//65 6//65
f 49//66 86//66 6//66
f 87//67 48//67 6//67
f 50//68 87//68 6//68
f 53//69 88//69 7//69
f 88//70 54//70 7//70
f 89//71 24//71 23//71
f 56//72 89//72 23//72
f 90//73 91//73 55//73
f 91//74 56//74 55//74
f 59//75 92//75 60//75
f 5//76 93//76 58//76
f 93//77 59//77 58//77
f 5//78 4//78 93//78
f 7//79 94//79 51//79
f 95//80 94//80 7//80
f 96//81 97//81 7//81
f 97//82 95//82 7//82
f 9//83 98//83 7//83
f 98//84 99//84 7//84
f 100//85 96//85 7//85
f 99//86 100//86 7//86
f 62//87 64//87 101//87
f 102//88 103//88 104//88
f 105//89 106//89 63//89
f 63//90 106//90 64//90
f 26//91 106//91 105//91
f 61//92 106//92 26//92
f 107//93 66//93 67//93
f 108//94 71//94 1//94
f 69//95 108//95 1//95
f 38//96 109//96 1//96
f 109//97 70//97 1//97
f 110//98 111//98 112//98
f 113//99 114//99 115//99
f 115//100 114//100 83//100
f 83//101 114//101 44//101
f 113//102 115//102 116//102
f 117//103 118//103 84//103
f 118//104 85//104 84//104
f 119//105 120//105 121//105
f 120//106 122//106 121//106
f 123//107 124//107 92//107
f 125//108 124//108 123//108
f 92//109 124//109 60//109
f 126//110 127//110 128//110
f 129//111 127//111 126//111
f 130//112 127//112 129//112
f 131//113 127//113 130//113
f 125//114 123//114 132//114
f 116//115 133//115 113//115
f 110//116 133//116 116//116
f 110//117 112//117 133//117
f 122//118 134//118 121//118
f 135//119 136//119 137//119
f 27//120 29//120 138//120
f 139//121 140//121 103//121
f 141//122 140//122 139//122
f 103//123 140//123 104//123
f 138//124 142//124 27//124
f 141//125 142//125 138//125
f 141//126 139//126 142//126
f 143//127 144//127 111//127
f 111//128 144//128 112//128
f 145//129 143//129 146//129
f 146//130 147//130 148//130
f 145//131 146//131 148//131
f 149//132 150//132 151//132
f 149//133 152//133 150//133
f 150//134 152//134 147//134
f 147//135 152//135 148//135
f 153//136 154//136 155//136
f 117//137 102//137 156//137
f 118//138 117//138 156//138
f 104//139 156//139 102//139
f 157//140 91//140 90//140
f 158//141 159//141 160//141
f 57//142 161//142 119//142
f 161//143 120//143 119//143
f 57//144 24//144 161//144
f 132//145 162//145 125//145
f 131//146 162//146 132//146
f 131//147 130//147 162//147
f 163//148 126//148 128//148
f 164//149 165//149 166//149
f 167//150 168//150 160//150
f 136//151 169//151 137//151
f 137//152 169//152 101//152
f 101//153 169//153 62//153
f 134//154 170//154 135//154
f 170//155 136//155 135//155
f 134//156 122//156 170//156
f 154//157 171//157 155//157
f 155//158 171//158 151//158
f 151//159 171//159 149//159
f 172//160 173//160 153//160
f 173//161 154//161 153//161
f 167//162 160//162 174//162
f 159//163 174//163 160//163
f 157//164 175//164 158//164
f 175//165 159//165 158//165
f 157//166 90//166 175//166
f 163//167 128//167 176//167
f 163//168 176//168 177//168
f 176//169 178//169 177//169
f 165//170 179//170 166//170
f 180//171 181//171 182//171
f 168//172 181//172 180//172
f 168//173 167//173 181//173
f 182//174 183//174 180//174
f 166//175 183//175 164//175
f 182//176 164//176 183//176
f 145//177 184//177 143//177
f 184//178 144//178 143//178
f 185//179 173//179 172//179
f 107//180 185//180 172//180
f 107//181 67//181 185//181
f 179//182 186//182 178//182
f 178//183 186//183 177//183
f 179//184 165//184 186//184
f 3//185 7//185 1//185
f 1//185 7//185 6//185
f 28//186 7//186 3//186
f 7//186 28//186 10//186
f 34//187 1//187 6//187
f 5//187 34//187 6//187
f 90//188 55//188 22//188
f 90//188 22//188 44//188
f 23//189 22//189 55//189
f 22//189 23//189 14//189
f 14//190 23//190 17//190
f 17//190 23//190 25//190
f 58//191 60//191 35//191
f 32//191 35//191 60//191
f 34//192 5//192 35//192
f 58//192 35//192 5//192
f 25//193 57//193 17//193
f 57//193 12//193 17//193
f 28//194 61//194 10//194
f 27//194 61//194 28//194
f 46//195 119//195 121//195
f 119//195 46//195 13//195
f 57//196 119//196 12//196
f 12//196 119//196 13//196
f 102//197 135//197 137//197
f 117//197 135//197 102//197
f 137//198 103//198 102//198
f 101//198 103//198 137//198
f 139//199 103//199 64//199
f 101//199 64//199 103//199
f 124//200 32//200 60//200
f 124//200 30//200 32//200
f 30//201 124//201 65//201
f 125//201 65//201 124//201
f 134//202 46//202 121//202
f 46//203 134//203 84//203
f 134//204 135//204 117//204
f 134//204 117//204 84//204
f 142//205 61//205 27//205
f 61//205 142//205 106//205
f 139//206 64//206 142//206
f 106//206 142//206 64//206
f 66//207 156//207 31//207
f 79//207 40//207 156//207
f 74//207 73//207 156//207
f 146//207 156//207 147//207
f 38//207 37//207 156//207
f 83//207 43//207 156//207
f 116//207 156//207 110//207
f 153//207 155//207 156//207
f 36//207 33//207 156//207
f 72//207 156//207 73//207
f 78//207 77//207 156//207
f 41//207 156//207 81//207
f 82//207 156//207 42//207
f 85//207 156//207 45//207
f 15//207 156//207 16//207
f 47//207 156//207 15//207
f 68//207 31//207 156//207
f 69//207 36//207 156//207
f 108//207 69//207 156//207
f 76//207 156//207 77//207
f 40//207 39//207 156//207
f 2//207 156//207 41//207
f 42//207 156//207 39//207
f 43//207 16//207 156//207
f 111//207 110//207 156//207
f 45//207 156//207 11//207
f 47//207 11//207 156//207
f 138//207 156//207 141//207
f 68//207 156//207 33//207
f 107//207 156//207 66//207
f 70//207 156//207 2//207
f 72//207 71//207 156//207
f 74//207 156//207 37//207
f 76//207 75//207 156//207
f 78//207 156//207 29//207
f 79//207 156//207 75//207
f 81//207 156//207 80//207
f 82//207 80//207 156//207
f 83//207 156//207 115//207
f 109//207 156//207 70//207
f 153//207 156//207 172//207
f 147//207 156//207 150//207
f 118//207 156//207 85//207
f 107//207 172//207 156//207
f 108//207 156//207 71//207
f 109//207 38//207 156//207
f 111//207 156//207 143//207
f 116//207 115//207 156//207
f 140//207 141//207 156//207
f 151//207 156//207 155//207
f 138//207 29//207 156//207
f 140//207 156//207 104//207
f 146//207 143//207 156//207
f 151//207 150//207 156//207
f 125//208 162//208 65//208
f 65//208 162//208 67//208
f 165//209 145//209 148//209
f 145//209 165//209 164//209
f 163//210 177//210 171//210
f 149//210 171//210 177//210
f 154//211 126//211 171//211
f 163//211 171//211 126//211
f 154//212 173//212 126//212
f 129//212 126//212 173//212
f 133//213 112//213 174//213
f 167//213 174//213 112//213
f 133//214 174//214 113//214
f 113//214 174//214 159//214
f 44//215 175//215 90//215
f 114//215 175//215 44//215
f 159//216 175//216 113//216
f 175//216 114//216 113//216
f 112//217 181//217 167//217
f 144//217 181//217 112//217
f 52//218 183//218 53//218
f 19//218 183//218 20//218
f 49//218 48//218 183//218
f 127//218 131//218 183//218
f 93//218 183//218 59//218
f 8//218 183//218 21//218
f 94//218 95//218 183//218
f 26//218 183//218 9//218
f 63//218 62//218 183//218
f 19//218 18//218 183//218
f 21//218 183//218 18//218
f 86//218 49//218 183//218
f 87//218 50//218 183//218
f 88//218 183//218 54//218
f 26//218 105//218 183//218
f 91//218 183//218 56//218
f 98//218 183//218 99//218
f 179//218 178//218 183//218
f 50//218 20//218 183//218
f 52//218 51//218 183//218
f 54//218 183//218 8//218
f 89//218 56//218 183//218
f 92//218 59//218 183//218
f 161//218 183//218 120//218
f 97//218 183//218 95//218
f 63//218 183//218 105//218
f 169//218 136//218 183//218
f 86//218 183//218 4//218
f 87//218 183//218 48//218
f 88//218 53//218 183//218
f 89//218 183//218 24//218
f 100//218 99//218 183//218
f 92//218 183//218 123//218
f 93//218 4//218 183//218
f 120//218 183//218 122//218
f 132//218 183//218 131//218
f 94//218 183//218 51//218
f 97//218 96//218 183//218
f 98//218 9//218 183//218
f 100//218 183//218 96//218
f 158//218 160//218 183//218
f 157//218 158//218 183//218
f 127//218 183//218 128//218
f 132//218 123//218 183//218
f 176//218 183//218 178//218
f 168//218 180//218 183//218
f 157//218 183//218 91//218
f 161//218 24//218 183//218
f 170//218 183//218 136//218
f 168//218 183//218 160//218
f 169//218 183//218 62//218
f 170//218 122//218 183//218
f 176//218 128//218 183//218
f 179//218 183//218 166//218
f 184//219 145//219 164//219
f 182//219 184//219 164//219
f 144//220 184//220 181//220
f 181//220 184//220 182//220
f 162//221 185//221 67//221
f 162//221 130//221 185//221
f 173//222 185//222 129//222
f 129//222 185//222 130//222
f 177//223 186//223 149//223
f 186//223 152//223 149//223
f 148//224 186//224 165//224
f 152//224 186//224 148//224
