mtllib Shell001_001.mtl
usemtl Shell001_001
v -0.06731900 0.05677800 0.04520000
v -0.05275800 0.05913600 0.04520000
v -0.05395800 0.05894100 0.04070800
v -0.06731900 0.05677800 0.02880000
v -0.06662000 0.05689100 0.03880300
v -0.06662000 0.05689100 0.03811800
v -0.06662000 0.05689100 0.03583200
v -0.06662000 0.05689100 0.03524700
v -0.05275800 0.05913600 0.02880000
v -0.05345700 0.05902300 0.03524700
v -0.05345700 0.05902300 0.03583200
v -0.05345700 0.05902300 0.03811800
v -0.05345700 0.05902300 0.03880300
v -0.06223200 0.05760100 0.02882100
v -0.05784500 0.05831200 0.02882100
v -0.05671600 0.05849500 0.03181800
v -0.05395800 0.05894100 0.03334200
v -0.05389600 0.05895200 0.03519700
v -0.05389600 0.05895200 0.03524700
v -0.05395800 0.05894100 0.03519700
v -0.05784500 0.05831200 0.03181800
v -0.05671600 0.05849500 0.03334200
v -0.05365300 0.05899100 0.03811800
v -0.05365300 0.05899100 0.03583200
v -0.05395800 0.05894100 0.03880300
v -0.06336100 0.05741900 0.03181800
v -0.06223200 0.05760100 0.03181800
v -0.06611900 0.05697200 0.03334200
v -0.06336100 0.05741900 0.03334200
v -0.06618100 0.05696200 0.03519700
v -0.06611900 0.05697200 0.03519700
v -0.06618100 0.05696200 0.03524700
v -0.06642400 0.05692200 0.03811800
v -0.06642400 0.05692200 0.03583200
v -0.06611900 0.05697200 0.04070800
v -0.06611900 0.05697200 0.03880300
vn -0.15980000 0.98720000 -0.00010000
vn -0.15990000 0.98710000 -0.00010000
vn -0.16000000 0.98710000 0.00000000
vn -0.16000000 0.98710000 -0.00080000
vn -0.16010000 0.98710000 0.00000000
vn -0.15990000 0.98710000 0.00000000
vn -0.15990000 0.98710000 0.00000000
vn -0.15960000 0.98720000 -0.00000000
vn -0.15980000 0.98710000 0.00350000
vn -0.16000000 0.98710000 0.00000000
vn -0.15960000 0.98720000 -0.00000000
vn -0.16010000 0.98710000 0.00000000
vn -0.16020000 0.98710000 0.00000000
vn -0.15990000 0.98710000 0.00100000
vn -0.15990000 0.98710000 0.00310000
vn -0.15980000 0.98710000 0.00000000
vn -0.15970000 0.98720000 0.00000000
vn -0.15960000 0.98720000 -0.00000000
vn -0.15970000 0.98720000 0.00000000
vn -0.15870000 0.98730000 0.00000000
vn -0.16000000 0.98710000 0.00000000
vn -0.15960000 0.98720000 -0.00000000
vn -0.15980000 0.98710000 0.00000000
vn -0.15980000 0.98720000 -0.00000000
vn -0.15990000 0.98710000 0.00000000
vn -0.16000000 0.98710000 0.00000000
vn -0.15980000 0.98710000 0.00000000
vn -0.15970000 0.98720000 0.00000000
vn -0.16000000 0.98710000 0.00000000
vn -0.16020000 0.98710000 0.00000000
vn -0.15880000 0.98730000 -0.00000000
vn -0.16000000 0.98710000 0.00000000
vn -0.16010000 0.98710000 0.00000000
vn -0.16000000 0.98710000 0.00000000
vn -0.15970000 0.98720000 0.00000000
vn -0.16010000 0.98710000 0.00000000
vt 0.82158200 0.39573700
vt 0.79316100 0.39573700
vt 0.79550400 0.38608100
vt 0.82158200 0.36048400
vt 0.82021800 0.38198600
vt 0.82021800 0.38051400
vt 0.82021800 0.37560000
vt 0.82021800 0.37434200
vt 0.79316100 0.36048400
vt 0.79452600 0.37434200
vt 0.79452600 0.37560000
vt 0.79452600 0.38051400
vt 0.79452600 0.38198600
vt 0.81165300 0.36052900
vt 0.80309000 0.36052900
vt 0.80088700 0.36697100
vt 0.79550400 0.37024700
vt 0.79538200 0.37423500
vt 0.79538200 0.37434200
vt 0.79550400 0.37423500
vt 0.80309000 0.36697100
vt 0.80088700 0.37024700
vt 0.79490800 0.38051400
vt 0.79490800 0.37560000
vt 0.79550400 0.38198600
vt 0.81385700 0.36697100
vt 0.81165300 0.36697100
vt 0.81924000 0.37024700
vt 0.81385700 0.37024700
vt 0.81936100 0.37423500
vt 0.81924000 0.37423500
vt 0.81936100 0.37434200
vt 0.81983500 0.38051400
vt 0.81983500 0.37560000
vt 0.81924000 0.38608100
vt 0.81924000 0.38198600
f 1/1/1 2/2/2 3/3/3
f 4/4/4 1/1/1 5/5/5
f 4/4/4 5/5/5 6/6/6
f 4/4/4 6/6/6 7/7/7
f 4/4/4 7/7/7 8/8/8
f 2/2/2 9/9/9 10/10/10
f 2/2/2 10/10/10 11/11/11
f 2/2/2 11/11/11 12/12/12
f 2/2/2 12/12/12 13/13/13
f 9/9/9 4/4/4 14/14/14
f 9/9/9 14/14/14 15/15/15
f 16/16/16 9/9/9 15/15/15
f 16/16/16 17/17/17 9/9/9
f 10/10/10 9/9/9 17/17/17
f 18/18/18 10/10/10 17/17/17
f 19/19/19 10/10/10 18/18/18
f 20/20/20 18/18/18 17/17/17
f 21/21/21 16/16/16 15/15/15
f 22/22/22 17/17/17 16/16/16
f 23/23/23 11/11/11 24/24/24
f 23/23/23 12/12/12 11/11/11
f 3/3/3 13/13/13 25/25/25
f 26/26/26 27/27/27 14/14/14
f 4/4/4 26/26/26 14/14/14
f 2/2/2 13/13/13 3/3/3
f 28/28/28 29/29/29 26/26/26
f 28/28/28 26/26/26 4/4/4
f 30/30/30 31/31/31 28/28/28
f 8/8/8 32/32/32 30/30/30
f 8/8/8 28/28/28 4/4/4
f 8/8/8 30/30/30 28/28/28
f 6/6/6 33/33/33 34/34/34
f 6/6/6 34/34/34 7/7/7
f 35/35/35 36/36/36 5/5/5
f 1/1/1 3/3/3 35/35/35
f 1/1/1 35/35/35 5/5/5