# Blender 3.6.1
# www.blender.org
mtllib finger.mtl
o f10_f20
v 0.003910 -0.001629 -0.001205
v 0.003950 -0.001643 -0.003205
v 0.003196 -0.001330 -0.001196
v 0.002987 -0.003001 -0.001205
v 0.003020 -0.003034 -0.003205
v 0.006788 -0.002819 -0.003322
v 0.002455 -0.002468 -0.001196
v 0.003035 -0.001270 -0.000023
v -0.003077 -0.001262 -0.000035
v -0.002351 -0.002359 -0.000028
v -0.001285 -0.003061 -0.000037
v 0.000005 -0.003315 -0.000020
v 0.001239 -0.003062 -0.000024
v 0.002331 -0.002335 -0.000032
v 0.001609 -0.003921 -0.001205
v 0.001628 -0.003964 -0.003205
v 0.005198 -0.005208 -0.003323
v 0.006913 -0.002870 -0.005162
v 0.001315 -0.003208 -0.001196
v -0.003228 -0.001332 -0.001196
v -0.002473 -0.002459 -0.001196
v -0.001349 -0.003221 -0.001196
v -0.000015 -0.003501 -0.001196
v -0.000013 -0.004250 -0.001205
v -0.000014 -0.004291 -0.003205
v 0.002803 -0.006804 -0.003325
v 0.005285 -0.005300 -0.005162
v 0.010586 -0.004393 -0.005455
v -0.003935 -0.001626 -0.001205
v -0.003018 -0.003002 -0.001205
v -0.001638 -0.003920 -0.001205
v -0.001656 -0.003964 -0.003205
v -0.000005 -0.007367 -0.003322
v 0.002853 -0.006924 -0.005162
v 0.008098 -0.008112 -0.005455
v 0.010597 -0.004419 -0.007780
v 0.011055 -0.002252 -0.006294
v -0.003978 -0.001643 -0.003205
v -0.003048 -0.003034 -0.003205
v -0.002833 -0.006800 -0.003332
v -0.000015 -0.007501 -0.005162
v 0.004380 -0.010605 -0.005455
v 0.008108 -0.008126 -0.015918
v 0.009607 -0.006101 -0.013972
v 0.009601 -0.006095 -0.011700
v 0.009903 -0.005544 -0.009410
v -0.004998 -0.002904 -0.003205
v -0.004841 -0.005725 -0.003455
v -0.002878 -0.006914 -0.005162
v -0.000013 -0.011497 -0.005455
v 0.004364 -0.010597 -0.018212
v -0.005006 -0.002904 -0.003713
v -0.004981 -0.005949 -0.005205
v -0.004956 -0.010373 -0.005455
v 0.000373 -0.011262 -0.019182
v -0.004988 -0.010356 -0.020386
v -0.007980 -0.006050 -0.007555
v -0.007849 -0.006049 -0.020978
v -0.007999 -0.008147 -0.020963
v -0.005012 -0.006029 -0.007555
v -0.004982 -0.010346 -0.007557
v -0.006920 -0.006051 -0.022097
v -0.007968 -0.008147 -0.007555
v -0.006906 -0.008501 -0.022075
v -0.005029 -0.006051 -0.022530
v -0.005030 -0.008501 -0.022526
v 0.002463 -0.008001 -0.020790
v 0.002451 -0.009200 -0.020789
v 0.005024 -0.006863 -0.019417
v 0.004525 -0.009198 -0.019765
v 0.005957 -0.006250 -0.018523
v 0.006769 -0.009281 -0.017520
v 0.005895 -0.004438 -0.007776
v 0.005895 -0.002249 -0.006290
v 0.005896 -0.006095 -0.011700
v 0.005895 -0.005538 -0.009414
v 0.004939 -0.005995 -0.007527
v 0.005169 -0.002904 -0.003205
v 0.004768 -0.005147 -0.005555
v 0.004229 -0.000001 -0.001205
v 0.004276 -0.000001 -0.003205
v 0.003468 -0.000001 -0.001196
v 0.003910 0.001627 -0.001205
v 0.003950 0.001641 -0.003205
v 0.007352 -0.000001 -0.003325
v 0.003196 0.001329 -0.001196
v 0.003301 -0.000001 -0.000030
v 0.002987 0.002999 -0.001205
v 0.003020 0.003033 -0.003205
v 0.006788 0.002817 -0.003322
v 0.007479 -0.000001 -0.005162
v 0.002455 0.002466 -0.001196
v 0.003035 0.001268 -0.000023
v -0.003329 -0.000001 -0.000030
v -0.003077 0.001260 -0.000035
v -0.002351 0.002358 -0.000028
v -0.001285 0.003059 -0.000037
v 0.000005 0.003314 -0.000020
v 0.001239 0.003060 -0.000024
v 0.002331 0.002333 -0.000032
v 0.001609 0.003920 -0.001205
v 0.001628 0.003963 -0.003205
v 0.005198 0.005206 -0.003323
v 0.006913 0.002869 -0.005162
v 0.011472 -0.000001 -0.005455
v 0.001315 0.003207 -0.001196
v -0.003496 -0.000001 -0.001196
v -0.003228 0.001330 -0.001196
v -0.002473 0.002458 -0.001196
v -0.001349 0.003219 -0.001196
v -0.000015 0.003499 -0.001196
v -0.000013 0.004249 -0.001205
v -0.000014 0.004289 -0.003205
v 0.002803 0.006803 -0.003325
v 0.005285 0.005298 -0.005162
v 0.010586 0.004391 -0.005455
v 0.011477 -0.000001 -0.005756
v 0.011477 -0.000001 -0.005756
v -0.004257 -0.000001 -0.001205
v -0.003935 0.001625 -0.001205
v -0.003018 0.003000 -0.001205
v -0.001638 0.003919 -0.001205
v -0.001656 0.003963 -0.003205
v -0.000005 0.007366 -0.003322
v 0.002853 0.006922 -0.005162
v 0.008098 0.008111 -0.005455
v 0.010597 0.004418 -0.007780
v 0.011055 0.002250 -0.006294
v -0.004304 -0.000001 -0.003205
v -0.003978 0.001641 -0.003205
v -0.003048 0.003033 -0.003205
v -0.002833 0.006799 -0.003332
v -0.000015 0.007499 -0.005162
v 0.004380 0.010603 -0.005455
v 0.008108 0.008124 -0.015918
v 0.009607 0.006099 -0.013972
v 0.009601 0.006093 -0.011700
v 0.009903 0.005543 -0.009410
v -0.005012 -0.000001 -0.003205
v -0.004998 0.002902 -0.003205
v -0.004841 0.005723 -0.003455
v -0.002878 0.006912 -0.005162
v -0.000013 0.011496 -0.005455
v 0.004364 0.010596 -0.018212
v -0.005008 -0.000001 -0.003711
v -0.005006 0.002902 -0.003713
v -0.004981 0.005948 -0.005205
v -0.004956 0.010372 -0.005455
v 0.000373 0.011260 -0.019182
v -0.004988 0.010355 -0.020386
v -0.007980 0.006049 -0.007555
v -0.007849 0.006048 -0.020978
v -0.007999 0.008146 -0.020963
v -0.005012 0.006027 -0.007555
v -0.004982 0.010344 -0.007557
v -0.006920 0.006049 -0.022097
v -0.007968 0.008146 -0.007555
v -0.006906 0.008499 -0.022075
v -0.005029 0.006050 -0.022530
v -0.005030 0.008499 -0.022526
v 0.002463 0.007999 -0.020790
v 0.002451 0.009198 -0.020789
v 0.005024 0.006861 -0.019417
v 0.004525 0.009197 -0.019765
v 0.005957 0.006248 -0.018523
v 0.006769 0.009280 -0.017520
v 0.005895 -0.000001 -0.005856
v 0.005895 0.004436 -0.007776
v 0.005895 0.002248 -0.006290
v 0.005896 0.006093 -0.011700
v 0.005895 0.005536 -0.009414
v 0.004939 0.005993 -0.007527
v 0.005169 -0.000001 -0.003205
v 0.005169 0.002902 -0.003205
v 0.004768 0.005145 -0.005555
vn 0.6862 -0.2844 0.6695
vn 0.6147 -0.2544 0.7466
vn 0.6656 -0.0000 0.7463
vn 0.7413 -0.0000 0.6712
vn 0.6058 -0.0000 0.7956
vn 0.5241 -0.5250 0.6706
vn 0.4698 -0.4708 0.7468
vn 0.7345 -0.0000 0.6786
vn 0.5629 -0.2327 0.7931
vn 0.9139 -0.3786 0.1463
vn 0.2846 -0.6849 0.6707
vn 0.2554 -0.6143 0.7466
vn 0.5192 -0.5194 0.6787
vn 0.6777 -0.2804 0.6797
vn 0.6629 -0.0000 0.7487
vn 0.2366 -0.5637 0.7914
vn 0.4255 -0.4256 0.7987
vn -0.6075 -0.0000 0.7943
vn -0.5627 -0.2334 0.7930
vn -0.9899 -0.0000 0.1415
vn -0.4327 -0.4309 0.7919
vn -0.6996 -0.7010 0.1387
vn -0.2338 -0.5608 0.7942
vn -0.3808 -0.9131 0.1455
vn 0.0011 -0.6012 0.7991
vn 0.0068 -0.9888 0.1491
vn 0.3799 -0.9134 0.1464
vn -0.0000 -0.7430 0.6693
vn -0.0006 -0.6655 0.7464
vn 0.4687 -0.4688 0.7486
vn 0.6116 -0.2532 0.7496
vn 0.7601 -0.0000 0.6498
vn -0.7416 -0.0000 0.6708
vn -0.6857 -0.2836 0.6704
vn -0.5251 -0.5249 0.6699
vn -0.2842 -0.6850 0.6708
vn -0.2678 -0.6137 0.7428
vn 0.2814 -0.6782 0.6789
vn 0.2542 -0.6123 0.7487
vn 0.6991 -0.3013 0.6484
vn -0.6485 -0.0000 0.7612
vn -0.5979 -0.2630 0.7572
vn -0.4673 -0.4836 0.7401
vn -0.0009 -0.7336 0.6796
vn -0.0015 -0.6615 0.7500
vn 0.2871 -0.7106 0.6423
vn 0.5328 -0.5479 0.6449
vn 0.8128 0.1062 -0.5727
vn -0.6908 -0.0511 0.7213
vn -0.6646 -0.4202 0.6178
vn -0.2444 -0.6740 0.6971
vn -0.2255 -0.6389 0.7355
vn -0.0067 -0.7737 0.6335
vn 0.5141 -0.3756 -0.7711
vn 0.7403 -0.5304 -0.4129
vn 0.3892 -0.8710 -0.3000
vn -0.7068 -0.0000 0.7074
vn -0.7815 0.1820 -0.5968
vn -0.9620 0.2684 -0.0493
vn -0.6233 -0.5355 0.5698
vn 0.0573 -0.9316 -0.3589
vn -0.7044 -0.3425 0.6217
vn -0.5746 0.5872 0.5702
vn -0.7083 0.6478 -0.2803
vn 0.6903 0.1486 -0.7081
vn -0.5752 -0.8004 0.1692
vn -0.2735 -0.8989 -0.3424
vn -0.8754 -0.3805 -0.2982
vn -0.2994 0.9268 0.2267
vn 0.0245 0.6736 -0.7387
vn 0.2486 0.5783 -0.7771
vn 0.3019 -0.3948 -0.8677
vn 0.2203 0.6824 -0.6970
vn 0.2447 0.7758 -0.5816
vn 0.8770 0.4506 -0.1666
vn 0.8177 -0.4585 -0.3482
vn -0.0199 -0.3728 -0.9277
vn -0.5026 -0.4485 -0.7390
vn -0.5358 0.6348 -0.5568
vn 0.7484 0.4736 -0.4644
vn -0.2583 0.9207 -0.2926
vn 0.8219 0.5522 -0.1398
vn -0.1706 0.9790 -0.1120
vn 0.8032 -0.0000 -0.5957
vn -0.6278 0.3445 -0.6980
vn -0.3896 0.6412 -0.6611
vn -0.4125 0.8823 -0.2266
vn -0.5360 0.2812 -0.7961
vn -0.6911 -0.0000 -0.7228
vn -0.6514 -0.0000 -0.7587
vn -0.5095 0.7108 -0.4850
vn 0.6862 0.2849 0.6694
vn 0.5630 0.2326 0.7931
vn 0.5241 0.5250 0.6706
vn 0.6147 0.2545 0.7466
vn 0.4255 0.4256 0.7987
vn 0.9139 0.3786 0.1463
vn 0.2846 0.6849 0.6707
vn 0.4698 0.4708 0.7468
vn 0.6777 0.2804 0.6797
vn 0.5191 0.5195 0.6788
vn 0.2366 0.5637 0.7914
vn 0.7001 0.6984 0.1491
vn -0.5627 0.2334 0.7930
vn -0.9150 0.3783 0.1402
vn -0.6996 0.7009 0.1387
vn -0.4327 0.4308 0.7919
vn -0.3808 0.9131 0.1455
vn -0.2338 0.5608 0.7942
vn 0.0068 0.9888 0.1491
vn 0.0011 0.6012 0.7991
vn 0.3799 0.9134 0.1463
vn -0.0000 0.7430 0.6693
vn 0.2554 0.6143 0.7466
vn 0.6116 0.2532 0.7496
vn 0.4687 0.4688 0.7486
vn -0.6857 0.2836 0.6704
vn -0.5251 0.5249 0.6699
vn -0.2842 0.6850 0.6708
vn -0.2678 0.6137 0.7428
vn 0.2814 0.6782 0.6789
vn -0.0007 0.6655 0.7464
vn 0.2542 0.6123 0.7487
vn 0.6991 0.3013 0.6484
vn -0.4673 0.4836 0.7401
vn -0.0007 0.7338 0.6794
vn -0.0015 0.6615 0.7500
vn 0.5328 0.5479 0.6449
vn 0.2872 0.7106 0.6423
vn 0.8128 -0.1062 -0.5727
vn -0.5979 0.2630 0.7572
vn -0.6908 0.0510 0.7212
vn -0.6646 0.4202 0.6178
vn -0.2444 0.6740 0.6971
vn -0.2255 0.6389 0.7355
vn -0.0067 0.7737 0.6335
vn 0.5141 0.3756 -0.7711
vn 0.3892 0.8710 -0.3000
vn 0.7403 0.5304 -0.4129
vn -0.7815 -0.1820 -0.5968
vn -0.9620 -0.2684 -0.0493
vn -0.6233 0.5355 0.5698
vn 0.0573 0.9316 -0.3589
vn -0.7044 0.3425 0.6217
vn -0.8754 0.3805 -0.2982
vn -0.7083 -0.6478 -0.2803
vn 0.6903 -0.1486 -0.7081
vn -0.5752 0.8004 0.1692
vn -0.2735 0.8989 -0.3424
vn -0.2994 -0.9268 0.2267
vn -0.5746 -0.5872 0.5702
vn 0.0245 -0.6736 -0.7387
vn -0.0199 0.3728 -0.9277
vn 0.3019 0.3948 -0.8677
vn 0.2486 -0.5783 -0.7771
vn 0.2203 -0.6824 -0.6970
vn 0.2447 -0.7759 -0.5815
vn 0.8177 0.4585 -0.3482
vn -0.5027 0.4486 -0.7390
vn -0.6278 -0.3445 -0.6980
vn -0.5358 -0.6348 -0.5568
vn -0.2583 -0.9207 -0.2926
vn 0.7484 -0.4736 -0.4644
vn -0.1706 -0.9790 -0.1120
vn -0.4125 -0.8823 -0.2266
vn -0.3896 -0.6412 -0.6611
vn -0.5095 -0.7108 -0.4850
vn -0.5360 -0.2812 -0.7961
vn 0.8219 -0.5522 -0.1398
vn 0.9895 -0.0000 0.1443
vn 0.7001 -0.6984 0.1490
vn -0.9150 -0.3783 0.1402
vn -0.5952 -0.0000 -0.8036
vn 0.8770 -0.4506 -0.1666
s 1
usemtl Metall_Alu_final
f 1//1 2//2 81//3
f 1//1 80//4 82//5
f 4//6 5//7 2//2
f 81//3 2//2 85//8
f 4//6 1//1 3//9
f 3//9 82//5 8//10
f 15//11 16//12 5//7
f 2//2 5//7 17//13
f 85//8 6//14 91//15
f 15//11 4//6 19//16
f 7//17 3//9 8//10
f 107//18 20//19 94//20
f 20//19 21//21 10//22
f 21//21 22//23 11//24
f 22//23 23//25 12//26
f 23//25 19//16 13//27
f 19//16 7//17 13//27
f 24//28 25//29 16//12
f 5//7 16//12 17//13
f 6//14 17//13 27//30
f 91//15 18//31 105//32
f 24//28 15//11 19//16
f 119//33 29//34 107//18
f 29//34 30//35 20//19
f 30//35 31//36 22//23
f 31//36 24//28 22//23
f 31//36 32//37 24//28
f 16//12 25//29 26//38
f 17//13 26//38 34//39
f 18//31 27//30 28//40
f 119//33 129//41 29//34
f 29//34 38//42 39//43
f 30//35 39//43 32//37
f 25//29 32//37 33//44
f 26//38 33//44 41//45
f 27//30 34//39 42//46
f 28//40 35//47 36//48
f 38//42 129//41 47//49
f 39//43 38//42 48//50
f 32//37 39//43 40//51
f 33//44 40//51 49//52
f 34//39 41//45 50//53
f 70//54 72//55 51//56
f 47//49 139//57 52//58
f 48//50 47//49 53//59
f 40//51 48//50 53//59
f 41//45 49//52 54//60
f 42//46 50//53 55//61
f 63//62 57//63 58//64
f 49//52 53//59 54//60
f 28//40 36//48 37//65
f 54//60 53//59 61//66
f 55//61 61//66 56//67
f 56//67 61//66 59//68
f 60//69 57//63 61//66
f 65//70 67//71 68//72
f 67//71 69//73 68//72
f 69//73 71//74 72//55
f 71//74 44//75 43//76
f 55//61 56//67 68//72
f 51//56 55//61 70//54
f 35//47 42//46 43//76
f 66//77 56//67 64//78
f 56//67 59//68 64//78
f 37//65 36//48 73//79
f 36//48 46//80 76//81
f 46//80 45//82 75//83
f 69//73 75//83 71//74
f 117//84 37//65 74//85
f 76//81 75//83 69//73
f 57//63 60//69 62//86
f 62//86 60//69 65//70
f 77//87 73//79 76//81
f 67//71 77//87 69//73
f 67//71 65//70 77//87
f 53//59 52//58 78//88
f 52//58 145//89 78//88
f 74//85 78//88 167//90
f 73//79 79//91 78//88
f 73//79 77//87 79//91
f 53//59 79//91 77//87
f 45//82 44//75 71//74
f 83//92 80//4 81//3
f 83//92 86//93 82//5
f 88//94 83//92 84//95
f 81//3 85//8 84//95
f 88//94 92//96 86//93
f 86//93 93//97 82//5
f 101//98 88//94 89//99
f 84//95 90//100 103//101
f 85//8 91//15 90//100
f 101//98 106//102 88//94
f 92//96 100//103 93//97
f 107//18 94//20 108//104
f 108//104 95//105 96//106
f 109//107 96//106 97//108
f 110//109 97//108 98//110
f 111//111 98//110 99//112
f 106//102 99//112 92//96
f 112//113 101//98 102//114
f 89//99 103//101 102//114
f 90//100 104//115 115//116
f 91//15 105//32 104//115
f 112//113 111//111 106//102
f 119//33 107//18 120//117
f 120//117 108//104 121//118
f 121//118 109//107 110//109
f 122//119 110//109 112//113
f 122//119 112//113 123//120
f 102//114 114//121 113//122
f 103//101 115//116 125//123
f 104//115 116//124 115//116
f 119//33 120//117 129//41
f 120//117 121//118 131//125
f 121//118 122//119 123//120
f 113//122 124//126 123//120
f 114//121 125//123 133//127
f 115//116 126//128 134//129
f 116//124 127//130 126//128
f 130//131 140//132 129//41
f 131//125 141//133 130//131
f 123//120 132//134 131//125
f 124//126 133//127 142//135
f 125//123 134//129 143//136
f 164//137 144//138 166//139
f 140//132 146//140 139//57
f 141//133 147//141 140//132
f 132//134 142//135 147//141
f 133//127 143//136 148//142
f 134//129 144//138 149//143
f 157//144 153//145 152//146
f 142//135 148//142 147//141
f 116//124 128//147 127//130
f 148//142 155//148 147//141
f 149//143 150//149 155//148
f 150//149 153//145 155//148
f 154//150 155//148 151//151
f 159//152 160//153 162//154
f 161//155 162//154 163//156
f 163//156 164//137 166//139
f 165//157 166//139 135//158
f 149//143 162//154 150//149
f 144//138 164//137 149//143
f 126//128 135//158 134//129
f 160//153 158//159 150//149
f 150//149 158//159 153//145
f 128//147 169//160 168//161
f 127//130 168//161 171//162
f 138//163 171//162 170//164
f 163//156 165//157 170//164
f 117//84 167//90 169//160
f 171//162 172//165 163//156
f 151//151 152//146 156//166
f 156//166 159//152 154//150
f 172//165 171//162 168//161
f 161//155 163//156 172//165
f 161//155 172//165 159//152
f 147//141 175//167 174//168
f 146//140 174//168 145//89
f 169//160 167//90 174//168
f 168//161 169//160 174//168
f 168//161 175//167 172//165
f 147//141 154//150 172//165
f 137//169 170//164 165//157
f 80//4 1//1 81//3
f 3//9 1//1 82//5
f 1//1 4//6 2//2
f 2//2 6//14 85//8
f 7//17 4//6 3//9
f 82//5 87//170 8//10
f 4//6 15//11 5//7
f 6//14 2//2 17//13
f 6//14 18//31 91//15
f 4//6 7//17 19//16
f 14//171 7//17 8//10
f 20//19 9//172 94//20
f 9//172 20//19 10//22
f 10//22 21//21 11//24
f 11//24 22//23 12//26
f 12//26 23//25 13//27
f 7//17 14//171 13//27
f 15//11 24//28 16//12
f 16//12 26//38 17//13
f 18//31 6//14 27//30
f 18//31 28//40 105//32
f 23//25 24//28 19//16
f 29//34 20//19 107//18
f 30//35 21//21 20//19
f 21//21 30//35 22//23
f 24//28 23//25 22//23
f 32//37 25//29 24//28
f 25//29 33//44 26//38
f 27//30 17//13 34//39
f 27//30 35//47 28//40
f 129//41 38//42 29//34
f 30//35 29//34 39//43
f 31//36 30//35 32//37
f 32//37 40//51 33//44
f 34//39 26//38 41//45
f 35//47 27//30 42//46
f 36//48 35//47 46//80
f 35//47 43//76 46//80
f 43//76 44//75 45//82
f 46//80 43//76 45//82
f 129//41 139//57 47//49
f 38//42 47//49 48//50
f 39//43 48//50 40//51
f 41//45 33//44 49//52
f 42//46 34//39 50//53
f 139//57 145//89 52//58
f 47//49 52//58 53//59
f 49//52 40//51 53//59
f 50//53 41//45 54//60
f 51//56 42//46 55//61
f 59//68 63//62 58//64
f 105//32 28//40 117//84
f 28//40 37//65 117//84
f 53//59 60//69 61//66
f 50//53 54//60 55//61
f 54//60 61//66 55//61
f 61//66 63//62 59//68
f 57//63 63//62 61//66
f 66//77 65//70 68//72
f 69//73 70//54 68//72
f 70//54 69//73 72//55
f 72//55 71//74 43//76
f 56//67 66//77 68//72
f 55//61 68//72 70//54
f 42//46 51//56 72//55
f 43//76 42//46 72//55
f 74//85 37//65 73//79
f 73//79 36//48 76//81
f 76//81 46//80 75//83
f 167//90 117//84 74//85
f 77//87 76//81 69//73
f 58//64 57//63 62//86
f 65//70 60//69 77//87
f 79//91 53//59 78//88
f 145//89 173//173 78//88
f 78//88 173//173 167//90
f 74//85 73//79 78//88
f 60//69 53//59 77//87
f 75//83 45//82 71//74
f 84//95 83//92 81//3
f 80//4 83//92 82//5
f 89//99 88//94 84//95
f 85//8 90//100 84//95
f 83//92 88//94 86//93
f 93//97 87//170 82//5
f 102//114 101//98 89//99
f 89//99 84//95 103//101
f 91//15 104//115 90//100
f 106//102 92//96 88//94
f 86//93 92//96 93//97
f 94//20 95//105 108//104
f 109//107 108//104 96//106
f 110//109 109//107 97//108
f 111//111 110//109 98//110
f 106//102 111//111 99//112
f 99//112 100//103 92//96
f 113//122 112//113 102//114
f 103//101 114//121 102//114
f 103//101 90//100 115//116
f 105//32 116//124 104//115
f 101//98 112//113 106//102
f 107//18 108//104 120//117
f 108//104 109//107 121//118
f 122//119 121//118 110//109
f 110//109 111//111 112//113
f 112//113 113//122 123//120
f 114//121 124//126 113//122
f 114//121 103//101 125//123
f 116//124 126//128 115//116
f 120//117 130//131 129//41
f 130//131 120//117 131//125
f 131//125 121//118 123//120
f 124//126 132//134 123//120
f 124//126 114//121 133//127
f 125//123 115//116 134//129
f 127//130 138//163 126//128
f 126//128 138//163 135//158
f 138//163 137//169 135//158
f 137//169 136//174 135//158
f 140//132 139//57 129//41
f 141//133 140//132 130//131
f 132//134 141//133 131//125
f 132//134 124//126 142//135
f 133//127 125//123 143//136
f 146//140 145//89 139//57
f 147//141 146//140 140//132
f 141//133 132//134 147//141
f 142//135 133//127 148//142
f 143//136 134//129 149//143
f 151//151 157//144 152//146
f 105//32 117//84 116//124
f 117//84 128//147 116//124
f 155//148 154//150 147//141
f 143//136 149//143 148//142
f 149//143 155//148 148//142
f 153//145 157//144 155//148
f 155//148 157//144 151//151
f 161//155 159//152 162//154
f 162//154 164//137 163//156
f 165//157 163//156 166//139
f 136//174 165//157 135//158
f 162//154 160//153 150//149
f 164//137 162//154 149//143
f 135//158 166//139 134//129
f 166//139 144//138 134//129
f 127//130 128//147 168//161
f 138//163 127//130 171//162
f 137//169 138//163 170//164
f 128//147 117//84 169//160
f 170//164 171//162 163//156
f 154//150 151//151 156//166
f 172//165 154//150 159//152
f 146//140 147//141 174//168
f 174//168 173//173 145//89
f 167//90 173//173 174//168
f 175//167 168//161 174//168
f 175//167 147//141 172//165
f 136//174 137//169 165//157
usemtl Metall_goeldlich
f 58//64 62//86 64//78
f 62//86 65//70 66//77
f 152//146 153//145 158//159
f 156//166 158//159 160//153
f 59//68 58//64 64//78
f 64//78 62//86 66//77
f 156//166 152//146 158//159
f 159//152 156//166 160//153
