# Blender 3.6.1
# www.blender.org
mtllib finger.mtl
o f30_f40
v 0.003965 0.001666 0.001250
v 0.004005 0.001680 0.003250
v 0.003252 0.001368 0.001241
v 0.003043 0.003039 0.001250
v 0.003075 0.003072 0.003250
v 0.006844 0.002857 0.003367
v 0.002509 0.002504 0.001241
v 0.003090 0.001307 0.000068
v -0.003021 0.001300 0.000080
v -0.002295 0.002397 0.000073
v -0.001229 0.003099 0.000082
v 0.000060 0.003353 0.000065
v 0.001294 0.003099 0.000070
v 0.002386 0.002373 0.000076
v 0.001664 0.003959 0.001250
v 0.001683 0.004002 0.003250
v 0.005254 0.005246 0.003368
v 0.006969 0.002908 0.005207
v 0.001370 0.003247 0.001241
v -0.003174 0.001370 0.001241
v -0.002416 0.002496 0.001241
v -0.001294 0.003260 0.001241
v 0.000041 0.003537 0.001241
v 0.000042 0.004288 0.001250
v 0.000041 0.004329 0.003249
v 0.002859 0.006843 0.003370
v 0.005341 0.005338 0.005207
v 0.010641 0.004430 0.005500
v -0.003879 0.001664 0.001250
v -0.002962 0.003040 0.001250
v -0.001582 0.003958 0.001250
v -0.001600 0.004002 0.003250
v 0.000050 0.007405 0.003366
v 0.002909 0.006961 0.005207
v 0.008153 0.008150 0.005499
v 0.010644 0.004481 0.007802
v 0.011111 0.002293 0.006326
v -0.003922 0.001680 0.003250
v -0.002992 0.003072 0.003250
v -0.002778 0.006839 0.003376
v 0.000041 0.007538 0.005207
v 0.004436 0.010643 0.005499
v 0.008164 0.008163 0.015962
v 0.009662 0.006177 0.014016
v 0.009657 0.006171 0.011743
v 0.009959 0.005607 0.009436
v -0.004942 0.002942 0.003250
v -0.004785 0.005762 0.003500
v -0.002822 0.006952 0.005207
v 0.000043 0.011536 0.005500
v 0.004417 0.010631 0.018253
v -0.004956 0.002942 0.003763
v -0.004925 0.005987 0.005249
v -0.004900 0.010411 0.005499
v 0.000429 0.011299 0.019225
v -0.004933 0.010395 0.020430
v -0.007925 0.006088 0.007599
v -0.007817 0.006087 0.021022
v -0.007964 0.008185 0.021021
v -0.004956 0.006067 0.007599
v -0.004927 0.010385 0.007602
v -0.006871 0.006089 0.022151
v -0.007913 0.008185 0.007599
v -0.006850 0.008515 0.022119
v -0.004973 0.006089 0.022571
v -0.004975 0.008522 0.022566
v 0.002515 0.008050 0.020825
v 0.002503 0.009238 0.020822
v 0.005071 0.006905 0.019446
v 0.004568 0.009236 0.019792
v 0.005999 0.006287 0.018556
v 0.006825 0.009319 0.017564
v 0.005951 0.004489 0.007810
v 0.005951 0.002290 0.006327
v 0.005951 0.006157 0.011744
v 0.005951 0.005596 0.009449
v 0.005019 0.006006 0.007575
v 0.005224 0.002942 0.003250
v 0.004824 0.005199 0.005592
v 0.004284 0.000039 0.001250
v 0.004332 0.000039 0.003250
v 0.003523 0.000039 0.001241
v 0.003965 -0.001589 0.001250
v 0.004005 -0.001603 0.003250
v 0.007408 0.000039 0.003370
v 0.003252 -0.001291 0.001241
v 0.003357 0.000039 0.000075
v 0.003043 -0.002961 0.001250
v 0.003075 -0.002995 0.003250
v 0.006844 -0.002780 0.003367
v 0.007534 0.000039 0.005207
v 0.002509 -0.002427 0.001241
v 0.003090 -0.001230 0.000068
v -0.003274 0.000039 0.000075
v -0.003021 -0.001223 0.000080
v -0.002295 -0.002320 0.000073
v -0.001229 -0.003022 0.000082
v 0.000060 -0.003276 0.000065
v 0.001294 -0.003022 0.000070
v 0.002386 -0.002295 0.000076
v 0.001664 -0.003882 0.001250
v 0.001683 -0.003925 0.003250
v 0.005254 -0.005169 0.003368
v 0.006969 -0.002831 0.005207
v 0.011525 0.000039 0.005500
v 0.001370 -0.003169 0.001241
v -0.003440 0.000039 0.001241
v -0.003174 -0.001293 0.001241
v -0.002416 -0.002419 0.001241
v -0.001294 -0.003182 0.001241
v 0.000041 -0.003460 0.001241
v 0.000042 -0.004210 0.001250
v 0.000041 -0.004252 0.003249
v 0.002859 -0.006766 0.003370
v 0.005341 -0.005261 0.005207
v 0.010641 -0.004353 0.005500
v 0.011532 0.000039 0.005801
v 0.011532 0.000039 0.005801
v -0.004201 0.000039 0.001250
v -0.003879 -0.001587 0.001250
v -0.002962 -0.002962 0.001250
v -0.001582 -0.003881 0.001250
v -0.001600 -0.003925 0.003250
v 0.000050 -0.007328 0.003366
v 0.002909 -0.006884 0.005207
v 0.008153 -0.008073 0.005499
v 0.010644 -0.004403 0.007802
v 0.011111 -0.002216 0.006326
v -0.004249 0.000039 0.003250
v -0.003922 -0.001603 0.003250
v -0.002992 -0.002995 0.003250
v -0.002778 -0.006761 0.003376
v 0.000041 -0.007461 0.005207
v 0.004436 -0.010566 0.005499
v 0.008164 -0.008086 0.015962
v 0.009662 -0.006099 0.014016
v 0.009657 -0.006093 0.011743
v 0.009959 -0.005530 0.009436
v -0.004956 0.000039 0.003250
v -0.004942 -0.002865 0.003250
v -0.004785 -0.005685 0.003500
v -0.002822 -0.006874 0.005207
v 0.000043 -0.011459 0.005500
v 0.004417 -0.010554 0.018253
v -0.004952 0.000039 0.003756
v -0.004956 -0.002865 0.003763
v -0.004925 -0.005910 0.005249
v -0.004900 -0.010334 0.005499
v 0.000429 -0.011222 0.019225
v -0.004933 -0.010318 0.020430
v -0.007925 -0.006011 0.007599
v -0.007817 -0.006010 0.021022
v -0.007964 -0.008108 0.021021
v -0.004956 -0.005990 0.007599
v -0.004927 -0.010307 0.007602
v -0.006871 -0.006012 0.022151
v -0.007913 -0.008108 0.007599
v -0.006850 -0.008438 0.022119
v -0.004973 -0.006012 0.022571
v -0.004975 -0.008445 0.022566
v 0.002515 -0.007973 0.020825
v 0.002503 -0.009161 0.020822
v 0.005071 -0.006827 0.019446
v 0.004568 -0.009159 0.019792
v 0.005999 -0.006210 0.018556
v 0.006825 -0.009242 0.017564
v 0.005951 0.000039 0.005902
v 0.005951 -0.004411 0.007810
v 0.005951 -0.002213 0.006327
v 0.005951 -0.006079 0.011744
v 0.005951 -0.005518 0.009449
v 0.005019 -0.005928 0.007575
v 0.005224 0.000039 0.003250
v 0.005224 -0.002865 0.003250
v 0.004824 -0.005121 0.005592
vn 0.6860 0.2847 -0.6696
vn 0.6147 0.2546 -0.7466
vn 0.6654 -0.0000 -0.7465
vn 0.7415 -0.0000 -0.6709
vn 0.6062 -0.0000 -0.7953
vn 0.5241 0.5248 -0.6708
vn 0.4698 0.4707 -0.7468
vn 0.7345 -0.0000 -0.6786
vn 0.5626 0.2327 -0.7933
vn 0.9139 0.3789 -0.1458
vn 0.2843 0.6851 -0.6707
vn 0.2549 0.6146 -0.7465
vn 0.5193 0.5194 -0.6787
vn 0.6778 0.2803 -0.6797
vn 0.6630 -0.0000 -0.7487
vn 0.2364 0.5634 -0.7916
vn 0.4259 0.4261 -0.7982
vn -0.6084 -0.0000 -0.7936
vn -0.5620 0.2332 -0.7936
vn -0.9899 -0.0000 -0.1414
vn -0.4329 0.4311 -0.7917
vn -0.6997 0.7009 -0.1389
vn -0.2335 0.5603 -0.7947
vn -0.3808 0.9131 -0.1456
vn 0.0013 0.6018 -0.7987
vn 0.0071 0.9888 -0.1489
vn 0.3799 0.9134 -0.1461
vn -0.0000 0.7429 -0.6694
vn -0.0006 0.6654 -0.7465
vn 0.4687 0.4687 -0.7488
vn 0.6116 0.2531 -0.7496
vn 0.7599 -0.0000 -0.6500
vn -0.7416 -0.0000 -0.6708
vn -0.6856 0.2836 -0.6705
vn -0.5250 0.5248 -0.6701
vn -0.2842 0.6850 -0.6709
vn -0.2678 0.6136 -0.7428
vn 0.2813 0.6783 -0.6788
vn 0.2541 0.6123 -0.7487
vn 0.6983 0.3017 -0.6491
vn -0.6484 -0.0000 -0.7613
vn -0.5979 0.2629 -0.7572
vn -0.4673 0.4835 -0.7401
vn -0.0007 0.7341 -0.6791
vn -0.0015 0.6617 -0.7498
vn 0.2871 0.7106 -0.6424
vn 0.5313 0.5490 -0.6452
vn 0.8133 -0.1002 0.5731
vn -0.6894 0.0512 -0.7226
vn -0.6639 0.4204 -0.6185
vn -0.2446 0.6741 -0.6970
vn -0.2253 0.6389 -0.7355
vn -0.0064 0.7738 -0.6334
vn 0.5138 0.3748 0.7717
vn 0.7397 0.5292 0.4157
vn 0.3895 0.8702 0.3015
vn -0.7049 -0.0000 -0.7093
vn -0.7825 -0.1814 0.5956
vn -0.9622 -0.2684 0.0457
vn -0.6232 0.5354 -0.5700
vn 0.0580 0.9310 0.3605
vn -0.7036 0.3431 -0.6223
vn -0.5741 -0.5870 -0.5708
vn -0.7080 -0.6474 0.2823
vn 0.6913 -0.1439 0.7081
vn -0.5747 0.8006 -0.1693
vn -0.2727 0.8980 0.3452
vn -0.8723 0.3824 0.3047
vn -0.2995 -0.9262 -0.2289
vn 0.0263 -0.6735 0.7387
vn 0.2502 -0.5764 0.7779
vn 0.3036 0.3941 0.8675
vn 0.2172 -0.6822 0.6981
vn 0.2373 -0.7786 0.5810
vn 0.8801 -0.4460 0.1626
vn 0.8175 0.4568 0.3508
vn -0.0186 0.3718 0.9281
vn -0.4949 0.4446 0.7466
vn -0.5345 -0.6339 0.5590
vn 0.7517 -0.4680 0.4647
vn -0.2408 -0.9250 0.2938
vn 0.8244 -0.5489 0.1381
vn -0.1520 -0.9819 0.1129
vn 0.8019 -0.0000 0.5974
vn -0.6274 -0.3410 0.7000
vn -0.3854 -0.6399 0.6648
vn -0.4142 -0.8816 0.2261
vn -0.5359 -0.2801 0.7964
vn -0.6928 -0.0000 0.7211
vn -0.5950 -0.0000 0.8037
vn -0.6501 -0.0000 0.7598
vn -0.5069 -0.7133 0.4839
vn 0.6860 -0.2847 -0.6696
vn 0.5626 -0.2327 -0.7933
vn 0.5241 -0.5248 -0.6708
vn 0.6147 -0.2546 -0.7466
vn 0.4259 -0.4261 -0.7982
vn 0.9139 -0.3789 -0.1458
vn 0.2843 -0.6851 -0.6707
vn 0.2549 -0.6146 -0.7465
vn 0.6777 -0.2803 -0.6798
vn 0.5192 -0.5194 -0.6788
vn 0.2364 -0.5634 -0.7916
vn 0.7001 -0.6985 -0.1483
vn -0.5620 -0.2332 -0.7936
vn -0.9149 -0.3784 -0.1404
vn -0.6997 -0.7009 -0.1389
vn -0.4329 -0.4311 -0.7917
vn -0.3808 -0.9131 -0.1456
vn -0.2335 -0.5602 -0.7947
vn 0.0071 -0.9888 -0.1489
vn 0.0013 -0.6018 -0.7987
vn 0.3799 -0.9134 -0.1461
vn -0.0000 -0.7429 -0.6694
vn 0.4698 -0.4707 -0.7468
vn 0.6116 -0.2531 -0.7496
vn 0.4687 -0.4687 -0.7488
vn -0.6856 -0.2836 -0.6705
vn -0.5250 -0.5248 -0.6701
vn -0.2842 -0.6850 -0.6709
vn -0.2678 -0.6136 -0.7428
vn 0.2813 -0.6783 -0.6788
vn -0.0007 -0.6654 -0.7465
vn 0.2541 -0.6123 -0.7487
vn 0.6983 -0.3017 -0.6491
vn -0.4673 -0.4835 -0.7401
vn -0.0009 -0.7338 -0.6794
vn -0.0015 -0.6617 -0.7498
vn 0.5313 -0.5490 -0.6452
vn 0.2871 -0.7106 -0.6424
vn 0.8133 0.1002 0.5731
vn -0.5977 -0.2627 -0.7574
vn -0.6894 -0.0512 -0.7226
vn -0.6639 -0.4204 -0.6185
vn -0.2446 -0.6741 -0.6970
vn -0.2253 -0.6389 -0.7355
vn -0.0064 -0.7738 -0.6334
vn 0.5138 -0.3748 0.7717
vn 0.3895 -0.8703 0.3015
vn 0.7397 -0.5292 0.4157
vn -0.7825 0.1814 0.5956
vn -0.9622 0.2684 0.0457
vn -0.6232 -0.5354 -0.5700
vn 0.0580 -0.9310 0.3605
vn -0.7036 -0.3431 -0.6223
vn -0.8723 -0.3824 0.3047
vn -0.7080 0.6474 0.2823
vn 0.6913 0.1439 0.7081
vn -0.5747 -0.8007 -0.1693
vn -0.2727 -0.8980 0.3452
vn -0.2995 0.9262 -0.2289
vn -0.5741 0.5870 -0.5708
vn 0.0263 0.6735 0.7387
vn -0.0186 -0.3718 0.9281
vn 0.3036 -0.3941 0.8675
vn 0.2502 0.5764 0.7779
vn 0.2172 0.6822 0.6981
vn 0.2373 0.7786 0.5810
vn 0.8175 -0.4568 0.3508
vn -0.4950 -0.4447 0.7465
vn -0.6274 0.3410 0.7000
vn -0.5345 0.6339 0.5590
vn -0.2408 0.9250 0.2938
vn 0.7517 0.4680 0.4647
vn -0.1520 0.9819 0.1129
vn -0.4142 0.8816 0.2261
vn -0.3854 0.6399 0.6648
vn -0.5069 0.7133 0.4839
vn -0.5359 0.2801 0.7964
vn 0.8244 0.5489 0.1381
vn 0.9896 -0.0000 -0.1439
vn 0.7001 0.6985 -0.1483
vn -0.9149 0.3784 -0.1404
vn 0.8801 0.4460 0.1625
s 1
usemtl Metall_Alu_final
f 1//1 2//2 81//3
f 1//1 80//4 82//5
f 4//6 5//7 2//2
f 81//3 2//2 85//8
f 4//6 1//1 3//9
f 3//9 82//5 8//10
f 15//11 16//12 4//6
f 2//2 5//7 17//13
f 85//8 6//14 91//15
f 15//11 4//6 19//16
f 7//17 3//9 8//10
f 107//18 20//19 94//20
f 20//19 21//21 10//22
f 21//21 22//23 11//24
f 22//23 23//25 12//26
f 23//25 19//16 13//27
f 19//16 7//17 13//27
f 24//28 25//29 16//12
f 5//7 16//12 17//13
f 6//14 17//13 27//30
f 91//15 18//31 105//32
f 24//28 15//11 19//16
f 119//33 29//34 107//18
f 29//34 30//35 21//21
f 30//35 31//36 22//23
f 31//36 24//28 22//23
f 31//36 32//37 24//28
f 16//12 25//29 26//38
f 17//13 26//38 34//39
f 18//31 27//30 28//40
f 119//33 129//41 29//34
f 29//34 38//42 39//43
f 30//35 39//43 32//37
f 25//29 32//37 33//44
f 26//38 33//44 41//45
f 27//30 34//39 42//46
f 28//40 35//47 36//48
f 38//42 129//41 47//49
f 39//43 38//42 48//50
f 32//37 39//43 40//51
f 33//44 40//51 49//52
f 34//39 41//45 50//53
f 70//54 72//55 51//56
f 47//49 139//57 52//58
f 48//50 47//49 53//59
f 40//51 48//50 53//59
f 41//45 49//52 54//60
f 42//46 50//53 55//61
f 63//62 57//63 58//64
f 49//52 53//59 54//60
f 28//40 36//48 37//65
f 54//60 53//59 61//66
f 55//61 61//66 56//67
f 56//67 61//66 59//68
f 60//69 57//63 61//66
f 65//70 67//71 68//72
f 67//71 69//73 68//72
f 69//73 71//74 72//55
f 71//74 44//75 43//76
f 55//61 56//67 68//72
f 51//56 55//61 70//54
f 35//47 42//46 43//76
f 66//77 56//67 64//78
f 56//67 59//68 64//78
f 37//65 36//48 73//79
f 36//48 46//80 76//81
f 46//80 45//82 75//83
f 69//73 75//83 71//74
f 117//84 37//65 74//85
f 76//81 75//83 69//73
f 57//63 60//69 62//86
f 62//86 60//69 65//70
f 77//87 73//79 76//81
f 67//71 77//87 69//73
f 67//71 65//70 77//87
f 53//59 52//58 78//88
f 52//58 145//89 173//90
f 74//85 78//88 167//91
f 73//79 79//92 78//88
f 73//79 77//87 79//92
f 53//59 79//92 77//87
f 45//82 44//75 71//74
f 83//93 80//4 81//3
f 83//93 86//94 82//5
f 88//95 83//93 84//96
f 81//3 85//8 84//96
f 88//95 92//97 86//94
f 86//94 93//98 82//5
f 101//99 88//95 102//100
f 84//96 90//101 103//102
f 85//8 91//15 90//101
f 101//99 106//103 88//95
f 92//97 100//104 93//98
f 107//18 94//20 108//105
f 108//105 95//106 96//107
f 109//108 96//107 97//109
f 110//110 97//109 98//111
f 111//112 98//111 99//113
f 106//103 99//113 92//97
f 112//114 101//99 102//100
f 89//115 103//102 102//100
f 90//101 104//116 115//117
f 91//15 105//32 104//116
f 112//114 111//112 106//103
f 119//33 107//18 120//118
f 120//118 108//105 109//108
f 121//119 109//108 110//110
f 122//120 110//110 112//114
f 122//120 112//114 123//121
f 102//100 114//122 113//123
f 103//102 115//117 125//124
f 104//116 116//125 115//117
f 119//33 120//118 129//41
f 120//118 121//119 131//126
f 121//119 122//120 123//121
f 113//123 124//127 123//121
f 114//122 125//124 133//128
f 115//117 126//129 134//130
f 116//125 127//131 126//129
f 130//132 140//133 129//41
f 131//126 141//134 130//132
f 123//121 132//135 131//126
f 124//127 133//128 142//136
f 125//124 134//130 143//137
f 164//138 144//139 166//140
f 140//133 146//141 139//57
f 141//134 147//142 140//133
f 132//135 142//136 147//142
f 133//128 143//137 148//143
f 134//130 144//139 149//144
f 157//145 153//146 152//147
f 142//136 148//143 147//142
f 116//125 128//148 127//131
f 148//143 155//149 147//142
f 149//144 150//150 155//149
f 150//150 153//146 155//149
f 154//151 155//149 151//152
f 159//153 160//154 162//155
f 161//156 162//155 163//157
f 163//157 164//138 166//140
f 165//158 166//140 135//159
f 149//144 162//155 150//150
f 144//139 164//138 149//144
f 126//129 135//159 134//130
f 160//154 158//160 150//150
f 150//150 158//160 153//146
f 128//148 169//161 168//162
f 127//131 168//162 171//163
f 138//164 171//163 170//165
f 163//157 165//158 170//165
f 117//84 167//91 169//161
f 171//163 172//166 163//157
f 151//152 152//147 156//167
f 156//167 159//153 154//151
f 172//166 171//163 168//162
f 161//156 163//157 172//166
f 161//156 172//166 159//153
f 147//142 175//168 174//169
f 146//141 174//169 173//90
f 169//161 167//91 174//169
f 168//162 169//161 174//169
f 168//162 175//168 172//166
f 147//142 154//151 172//166
f 137//170 170//165 165//158
f 80//4 1//1 81//3
f 3//9 1//1 82//5
f 1//1 4//6 2//2
f 2//2 6//14 85//8
f 7//17 4//6 3//9
f 82//5 87//171 8//10
f 16//12 5//7 4//6
f 6//14 2//2 17//13
f 6//14 18//31 91//15
f 4//6 7//17 19//16
f 14//172 7//17 8//10
f 20//19 9//173 94//20
f 9//173 20//19 10//22
f 10//22 21//21 11//24
f 11//24 22//23 12//26
f 12//26 23//25 13//27
f 7//17 14//172 13//27
f 15//11 24//28 16//12
f 16//12 26//38 17//13
f 18//31 6//14 27//30
f 18//31 28//40 105//32
f 23//25 24//28 19//16
f 29//34 20//19 107//18
f 20//19 29//34 21//21
f 21//21 30//35 22//23
f 24//28 23//25 22//23
f 32//37 25//29 24//28
f 25//29 33//44 26//38
f 27//30 17//13 34//39
f 27//30 35//47 28//40
f 129//41 38//42 29//34
f 30//35 29//34 39//43
f 31//36 30//35 32//37
f 32//37 40//51 33//44
f 34//39 26//38 41//45
f 35//47 27//30 42//46
f 36//48 35//47 46//80
f 35//47 43//76 46//80
f 43//76 44//75 45//82
f 46//80 43//76 45//82
f 129//41 139//57 47//49
f 38//42 47//49 48//50
f 39//43 48//50 40//51
f 41//45 33//44 49//52
f 42//46 34//39 50//53
f 139//57 145//89 52//58
f 47//49 52//58 53//59
f 49//52 40//51 53//59
f 50//53 41//45 54//60
f 51//56 42//46 55//61
f 59//68 63//62 58//64
f 105//32 28//40 117//84
f 28//40 37//65 117//84
f 53//59 60//69 61//66
f 50//53 54//60 55//61
f 54//60 61//66 55//61
f 61//66 63//62 59//68
f 57//63 63//62 61//66
f 66//77 65//70 68//72
f 69//73 70//54 68//72
f 70//54 69//73 72//55
f 72//55 71//74 43//76
f 56//67 66//77 68//72
f 55//61 68//72 70//54
f 42//46 51//56 72//55
f 43//76 42//46 72//55
f 74//85 37//65 73//79
f 73//79 36//48 76//81
f 76//81 46//80 75//83
f 167//91 117//84 74//85
f 77//87 76//81 69//73
f 58//64 57//63 62//86
f 65//70 60//69 77//87
f 79//92 53//59 78//88
f 78//88 52//58 173//90
f 78//88 173//90 167//91
f 74//85 73//79 78//88
f 60//69 53//59 77//87
f 75//83 45//82 71//74
f 84//96 83//93 81//3
f 80//4 83//93 82//5
f 89//115 88//95 84//96
f 85//8 90//101 84//96
f 83//93 88//95 86//94
f 93//98 87//171 82//5
f 88//95 89//115 102//100
f 89//115 84//96 103//102
f 91//15 104//116 90//101
f 106//103 92//97 88//95
f 86//94 92//97 93//98
f 94//20 95//106 108//105
f 109//108 108//105 96//107
f 110//110 109//108 97//109
f 111//112 110//110 98//111
f 106//103 111//112 99//113
f 99//113 100//104 92//97
f 113//123 112//114 102//100
f 103//102 114//122 102//100
f 103//102 90//101 115//117
f 105//32 116//125 104//116
f 101//99 112//114 106//103
f 107//18 108//105 120//118
f 121//119 120//118 109//108
f 122//120 121//119 110//110
f 110//110 111//112 112//114
f 112//114 113//123 123//121
f 114//122 124//127 113//123
f 114//122 103//102 125//124
f 116//125 126//129 115//117
f 120//118 130//132 129//41
f 130//132 120//118 131//126
f 131//126 121//119 123//121
f 124//127 132//135 123//121
f 124//127 114//122 133//128
f 125//124 115//117 134//130
f 127//131 138//164 126//129
f 126//129 138//164 135//159
f 138//164 137//170 135//159
f 137//170 136//174 135//159
f 140//133 139//57 129//41
f 141//134 140//133 130//132
f 132//135 141//134 131//126
f 132//135 124//127 142//136
f 133//128 125//124 143//137
f 146//141 145//89 139//57
f 147//142 146//141 140//133
f 141//134 132//135 147//142
f 142//136 133//128 148//143
f 143//137 134//130 149//144
f 151//152 157//145 152//147
f 105//32 117//84 116//125
f 117//84 128//148 116//125
f 155//149 154//151 147//142
f 143//137 149//144 148//143
f 149//144 155//149 148//143
f 153//146 157//145 155//149
f 155//149 157//145 151//152
f 161//156 159//153 162//155
f 162//155 164//138 163//157
f 165//158 163//157 166//140
f 136//174 165//158 135//159
f 162//155 160//154 150//150
f 164//138 162//155 149//144
f 135//159 166//140 134//130
f 166//140 144//139 134//130
f 127//131 128//148 168//162
f 138//164 127//131 171//163
f 137//170 138//164 170//165
f 128//148 117//84 169//161
f 170//165 171//163 163//157
f 154//151 151//152 156//167
f 172//166 154//151 159//153
f 146//141 147//142 174//169
f 145//89 146//141 173//90
f 167//91 173//90 174//169
f 175//168 168//162 174//169
f 175//168 147//142 172//166
f 136//174 137//170 165//158
usemtl Metall_goeldlich
f 58//64 62//86 64//78
f 62//86 65//70 66//77
f 152//147 153//146 158//160
f 156//167 158//160 160//154
f 59//68 58//64 64//78
f 64//78 62//86 66//77
f 156//167 152//147 158//160
f 159//153 156//167 160//154
