# Blender v2.82 (sub 7) OBJ File: ''
# www.blender.org
mtllib ring_big.mtl
o ring_big_ring_big
v -0.007341 0.043992 -0.009750
v 0.000000 0.044600 0.009750
v 0.000000 0.044600 -0.009750
v 0.007341 0.043992 0.009750
v 0.007341 0.043992 -0.009750
v 0.014482 0.042183 0.009750
v 0.014482 0.042183 -0.009750
v 0.021227 0.039225 0.009750
v 0.021227 0.039225 -0.009750
v 0.027394 0.035196 0.009750
v 0.027394 0.035196 -0.009750
v 0.032813 0.030207 0.009750
v 0.032813 0.030207 -0.009750
v 0.037338 0.024394 0.009750
v 0.037338 0.024394 -0.009750
v 0.040843 0.017916 0.009750
v 0.040843 0.017916 -0.009750
v 0.043235 0.010949 0.009750
v 0.043235 0.010949 -0.009750
v 0.044448 0.003683 0.009750
v 0.044448 0.003683 -0.009750
v 0.044448 -0.003683 0.009750
v 0.044448 -0.003683 -0.009750
v 0.043235 -0.010949 0.009750
v 0.043235 -0.010949 -0.009750
v 0.040843 -0.017916 0.009750
v 0.040843 -0.017916 -0.009750
v 0.037338 -0.024394 0.009750
v 0.037338 -0.024394 -0.009750
v 0.032813 -0.030207 0.009750
v 0.032813 -0.030207 -0.009750
v 0.027394 -0.035196 0.009750
v 0.027394 -0.035196 -0.009750
v 0.021227 -0.039225 0.009750
v 0.021227 -0.039225 -0.009750
v 0.014482 -0.042183 0.009750
v 0.014482 -0.042183 -0.009750
v 0.007341 -0.043992 0.009750
v 0.007341 -0.043992 -0.009750
v 0.000000 -0.044600 0.009750
v 0.000000 -0.044600 -0.009750
v -0.007341 -0.043992 0.009750
v -0.007341 -0.043992 -0.009750
v -0.014482 -0.042183 0.009750
v -0.014482 -0.042183 -0.009750
v -0.021227 -0.039225 0.009750
v -0.021227 -0.039225 -0.009750
v -0.027394 -0.035196 0.009750
v -0.027394 -0.035196 -0.009750
v -0.032813 -0.030207 0.009750
v -0.032813 -0.030207 -0.009750
v -0.037338 -0.024394 0.009750
v -0.037338 -0.024394 -0.009750
v -0.040843 -0.017916 0.009750
v -0.040843 -0.017916 -0.009750
v -0.043235 -0.010949 0.009750
v -0.043235 -0.010949 -0.009750
v -0.044448 -0.003683 0.009750
v -0.044448 -0.003683 -0.009750
v -0.044448 0.003683 0.009750
v -0.044448 0.003683 -0.009750
v -0.043235 0.010949 0.009750
v -0.043235 0.010949 -0.009750
v -0.040843 0.017916 0.009750
v -0.040843 0.017916 -0.009750
v -0.037338 0.024394 0.009750
v -0.037338 0.024394 -0.009750
v -0.032813 0.030207 0.009750
v -0.032813 0.030207 -0.009750
v -0.027394 0.035196 0.009750
v -0.027394 0.035196 -0.009750
v -0.021227 0.039225 0.009750
v -0.021227 0.039225 -0.009750
v -0.014482 0.042183 0.009750
v -0.014482 0.042183 -0.009750
v -0.007341 0.043992 0.009750
v -0.007053 -0.042266 0.011500
v -0.013913 -0.040528 0.011500
v -0.020394 -0.037685 0.011500
v -0.026319 -0.033815 0.011500
v -0.031526 -0.029021 0.011500
v -0.035873 -0.023437 0.011500
v -0.039241 -0.017213 0.011500
v -0.041539 -0.010519 0.011500
v -0.042704 -0.003538 0.011500
v -0.042704 0.003538 0.011500
v -0.041539 0.010519 0.011500
v -0.039241 0.017213 0.011500
v -0.035873 0.023437 0.011500
v -0.031526 0.029021 0.011500
v -0.026319 0.033815 0.011500
v -0.020394 0.037685 0.011500
v -0.013913 0.040528 0.011500
v -0.007053 0.042266 0.011500
v 0.000000 0.044600 0.009750
v 0.000000 0.042850 0.011500
v 0.007053 0.042266 0.011500
v 0.013913 0.040528 0.011500
v 0.020394 0.037685 0.011500
v 0.026319 0.033815 0.011500
v 0.031526 0.029021 0.011500
v 0.035873 0.023437 0.011500
v 0.039241 0.017213 0.011500
v 0.041539 0.010519 0.011500
v 0.042704 0.003538 0.011500
v 0.042704 -0.003538 0.011500
v 0.041539 -0.010519 0.011500
v 0.039241 -0.017213 0.011500
v 0.035873 -0.023437 0.011500
v 0.031526 -0.029021 0.011500
v 0.026319 -0.033815 0.011500
v 0.020394 -0.037685 0.011500
v 0.013913 -0.040528 0.011500
v 0.007053 -0.042266 0.011500
v 0.000000 -0.044600 0.009750
v 0.000000 -0.042850 0.011500
v -0.007053 0.042266 -0.011500
v -0.013913 0.040528 -0.011500
v -0.020394 0.037685 -0.011500
v -0.026319 0.033815 -0.011500
v -0.031526 0.029021 -0.011500
v -0.035873 0.023437 -0.011500
v -0.039241 0.017213 -0.011500
v -0.041539 0.010519 -0.011500
v -0.042704 0.003538 -0.011500
v -0.042704 -0.003538 -0.011500
v -0.041539 -0.010519 -0.011500
v -0.039241 -0.017213 -0.011500
v -0.035873 -0.023437 -0.011500
v -0.031526 -0.029021 -0.011500
v -0.026319 -0.033815 -0.011500
v -0.020394 -0.037685 -0.011500
v -0.013913 -0.040528 -0.011500
v -0.007053 -0.042266 -0.011500
v 0.000000 -0.044600 -0.009750
v 0.000000 -0.042850 -0.011500
v 0.007053 -0.042266 -0.011500
v 0.013913 -0.040528 -0.011500
v 0.020394 -0.037685 -0.011500
v 0.026319 -0.033815 -0.011500
v 0.031526 -0.029021 -0.011500
v 0.035873 -0.023437 -0.011500
v 0.039241 -0.017213 -0.011500
v 0.041539 -0.010519 -0.011500
v 0.042704 -0.003538 -0.011500
v 0.042704 0.003538 -0.011500
v 0.041539 0.010519 -0.011500
v 0.039241 0.017213 -0.011500
v 0.035873 0.023437 -0.011500
v 0.031526 0.029021 -0.011500
v 0.026319 0.033815 -0.011500
v 0.020394 0.037685 -0.011500
v 0.013913 0.040528 -0.011500
v 0.007053 0.042266 -0.011500
v 0.000000 0.042850 -0.011500
v -0.040149 -0.012296 0.011500
v -0.037494 -0.018904 0.011500
v -0.033760 -0.024969 0.011500
v -0.029054 -0.030315 0.011500
v -0.023513 -0.034789 0.011500
v -0.017296 -0.038262 0.011500
v -0.010581 -0.040635 0.011500
v -0.003561 -0.041839 0.011500
v 0.003561 -0.041839 0.011500
v 0.010581 -0.040635 0.011500
v 0.017296 -0.038262 0.011500
v 0.023513 -0.034789 0.011500
v 0.029054 -0.030315 0.011500
v 0.033760 -0.024969 0.011500
v 0.037494 -0.018904 0.011500
v 0.040149 -0.012296 0.011500
v 0.041650 -0.005333 0.011500
v 0.041952 0.001782 0.011500
v 0.041048 0.008846 0.011500
v 0.038962 0.015656 0.011500
v 0.035756 0.022016 0.011500
v 0.031521 0.027742 0.011500
v 0.026379 0.032670 0.011500
v 0.020478 0.036658 0.011500
v 0.013988 0.039591 0.011500
v 0.007096 0.041386 0.011500
v 0.000000 0.041990 0.011500
v 0.000000 0.042850 0.011500
v -0.007096 0.041386 0.011500
v -0.013988 0.039591 0.011500
v -0.020478 0.036658 0.011500
v -0.026379 0.032670 0.011500
v -0.031521 0.027742 0.011500
v -0.035756 0.022016 0.011500
v -0.038962 0.015656 0.011500
v -0.041048 0.008846 0.011500
v -0.041952 0.001782 0.011500
v -0.041650 -0.005333 0.011500
v 0.040149 -0.012296 -0.011500
v 0.037494 -0.018904 -0.011500
v 0.033760 -0.024969 -0.011500
v 0.029054 -0.030315 -0.011500
v 0.023513 -0.034789 -0.011500
v 0.017296 -0.038262 -0.011500
v 0.010581 -0.040635 -0.011500
v 0.003561 -0.041839 -0.011500
v 0.000000 -0.042850 -0.011500
v -0.003561 -0.041839 -0.011500
v -0.010581 -0.040635 -0.011500
v -0.017296 -0.038262 -0.011500
v -0.023513 -0.034789 -0.011500
v -0.029054 -0.030315 -0.011500
v -0.033760 -0.024969 -0.011500
v -0.037494 -0.018904 -0.011500
v -0.040149 -0.012296 -0.011500
v -0.041650 -0.005333 -0.011500
v -0.041952 0.001782 -0.011500
v -0.041048 0.008846 -0.011500
v -0.038962 0.015656 -0.011500
v -0.035756 0.022016 -0.011500
v -0.031521 0.027742 -0.011500
v -0.026379 0.032670 -0.011500
v -0.020478 0.036658 -0.011500
v -0.013988 0.039591 -0.011500
v -0.007096 0.041386 -0.011500
v 0.000000 0.041990 -0.011500
v 0.007096 0.041386 -0.011500
v 0.013988 0.039591 -0.011500
v 0.020478 0.036658 -0.011500
v 0.026379 0.032670 -0.011500
v 0.031521 0.027742 -0.011500
v 0.035756 0.022016 -0.011500
v 0.038962 0.015656 -0.011500
v 0.041048 0.008846 -0.011500
v 0.041952 0.001782 -0.011500
v 0.041650 -0.005333 -0.011500
v 0.000000 0.041990 0.011500
vn -0.0826 0.9966 0.0000
vn 0.0826 0.9966 0.0000
vn 0.2455 0.9694 0.0000
vn 0.4017 0.9158 0.0000
vn 0.5469 0.8372 0.0000
vn 0.6773 0.7357 0.0000
vn 0.7891 0.6142 0.0000
vn 0.8795 0.4759 0.0000
vn 0.8795 0.4760 0.0000
vn 0.9458 0.3247 0.0000
vn 0.9864 0.1646 0.0000
vn 1.0000 0.0000 0.0000
vn 0.9864 -0.1646 0.0000
vn 0.9458 -0.3247 0.0000
vn 0.8795 -0.4760 0.0000
vn 0.8795 -0.4759 0.0000
vn 0.7891 -0.6142 0.0000
vn 0.6773 -0.7357 0.0000
vn 0.5469 -0.8372 0.0000
vn 0.4017 -0.9158 0.0000
vn 0.2455 -0.9694 0.0000
vn 0.0826 -0.9966 0.0000
vn -0.0826 -0.9966 0.0000
vn -0.2455 -0.9694 0.0000
vn -0.4017 -0.9158 0.0000
vn -0.5469 -0.8372 0.0000
vn -0.6773 -0.7357 0.0000
vn -0.7891 -0.6142 0.0000
vn -0.8795 -0.4759 0.0000
vn -0.8795 -0.4760 0.0000
vn -0.9458 -0.3247 0.0000
vn -0.9864 -0.1646 0.0000
vn -1.0000 0.0000 0.0000
vn -0.9864 0.1646 0.0000
vn -0.9458 0.3247 0.0000
vn -0.8795 0.4760 0.0000
vn -0.8795 0.4759 0.0000
vn -0.7891 0.6142 0.0000
vn -0.6773 0.7357 0.0000
vn -0.5469 0.8372 0.0000
vn -0.4017 0.9158 0.0000
vn -0.2455 0.9694 0.0000
vn -0.1739 -0.6866 0.7059
vn -0.1739 -0.6867 0.7059
vn -0.2845 -0.6487 0.7059
vn -0.3874 -0.5930 0.7059
vn -0.4797 -0.5211 0.7059
vn -0.5590 -0.4351 0.7059
vn -0.6230 -0.3371 0.7059
vn -0.6229 -0.3371 0.7059
vn -0.6699 -0.2300 0.7059
vn -0.6987 -0.1166 0.7059
vn -0.7083 0.0000 0.7059
vn -0.6987 0.1166 0.7059
vn -0.6699 0.2300 0.7059
vn -0.6229 0.3371 0.7059
vn -0.6230 0.3371 0.7059
vn -0.5590 0.4351 0.7059
vn -0.4797 0.5211 0.7059
vn -0.3874 0.5930 0.7059
vn -0.2845 0.6487 0.7059
vn -0.1739 0.6867 0.7059
vn -0.1739 0.6866 0.7059
vn -0.0585 0.7059 0.7059
vn 0.0585 0.7059 0.7059
vn 0.1739 0.6866 0.7059
vn 0.1739 0.6867 0.7059
vn 0.2845 0.6487 0.7059
vn 0.3874 0.5930 0.7059
vn 0.4797 0.5211 0.7059
vn 0.5590 0.4351 0.7059
vn 0.6230 0.3371 0.7059
vn 0.6229 0.3371 0.7059
vn 0.6699 0.2300 0.7059
vn 0.6987 0.1166 0.7059
vn 0.7083 0.0000 0.7059
vn 0.6987 -0.1166 0.7059
vn 0.6699 -0.2300 0.7059
vn 0.6229 -0.3371 0.7059
vn 0.6230 -0.3371 0.7059
vn 0.5590 -0.4351 0.7059
vn 0.4797 -0.5211 0.7059
vn 0.3874 -0.5930 0.7059
vn 0.2845 -0.6487 0.7059
vn 0.1739 -0.6867 0.7059
vn 0.1739 -0.6866 0.7059
vn 0.0585 -0.7059 0.7059
vn -0.0585 -0.7059 0.7059
vn -0.1739 0.6866 -0.7059
vn -0.1739 0.6867 -0.7059
vn -0.2845 0.6487 -0.7059
vn -0.3874 0.5930 -0.7059
vn -0.4797 0.5211 -0.7059
vn -0.5590 0.4351 -0.7059
vn -0.6230 0.3371 -0.7059
vn -0.6229 0.3371 -0.7059
vn -0.6699 0.2300 -0.7059
vn -0.6987 0.1166 -0.7059
vn -0.7083 0.0000 -0.7059
vn -0.6987 -0.1166 -0.7059
vn -0.6699 -0.2300 -0.7059
vn -0.6229 -0.3371 -0.7059
vn -0.6230 -0.3371 -0.7059
vn -0.5590 -0.4351 -0.7059
vn -0.4797 -0.5211 -0.7059
vn -0.3874 -0.5930 -0.7059
vn -0.2845 -0.6487 -0.7059
vn -0.1739 -0.6867 -0.7059
vn -0.1739 -0.6866 -0.7059
vn -0.0585 -0.7059 -0.7059
vn 0.0585 -0.7059 -0.7059
vn 0.1739 -0.6866 -0.7059
vn 0.1739 -0.6867 -0.7059
vn 0.2845 -0.6487 -0.7059
vn 0.3874 -0.5930 -0.7059
vn 0.4797 -0.5211 -0.7059
vn 0.5590 -0.4351 -0.7059
vn 0.6230 -0.3371 -0.7059
vn 0.6229 -0.3371 -0.7059
vn 0.6699 -0.2300 -0.7059
vn 0.6987 -0.1166 -0.7059
vn 0.7083 0.0000 -0.7059
vn 0.6987 0.1166 -0.7059
vn 0.6699 0.2300 -0.7059
vn 0.6229 0.3371 -0.7059
vn 0.6230 0.3371 -0.7059
vn 0.5590 0.4351 -0.7059
vn 0.4797 0.5211 -0.7059
vn 0.3874 0.5930 -0.7059
vn 0.2845 0.6487 -0.7059
vn 0.1739 0.6867 -0.7059
vn 0.1739 0.6866 -0.7059
vn 0.0585 0.7059 -0.7059
vn -0.0585 0.7059 -0.7059
vn 0.0000 0.0000 1.0000
vn -0.0000 0.0000 -1.0000
vn -0.0848 -0.9964 0.0000
vn 0.0848 -0.9964 0.0000
vn 0.2520 -0.9677 0.0000
vn 0.4119 -0.9112 0.0000
vn 0.5600 -0.8285 0.0000
vn 0.6919 -0.7220 0.0000
vn 0.8040 -0.5946 0.0000
vn 0.8929 -0.4502 0.0000
vn 0.9562 -0.2928 0.0000
vn 0.9919 -0.1270 0.0000
vn 0.9991 0.0424 0.0000
vn 0.9776 0.2107 0.0000
vn 0.9279 0.3729 0.0000
vn 0.8515 0.5243 0.0000
vn 0.7507 0.6607 0.0000
vn 0.6282 0.7780 0.0000
vn 0.4877 0.8730 0.0000
vn 0.3331 0.9429 0.0000
vn 0.1690 0.9856 0.0000
vn 0.0000 1.0000 0.0000
vn -0.1690 0.9856 0.0000
vn -0.3331 0.9429 0.0000
vn -0.4877 0.8730 0.0000
vn -0.6282 0.7780 0.0000
vn -0.7507 0.6607 0.0000
vn -0.8515 0.5243 0.0000
vn -0.9279 0.3729 0.0000
vn -0.9776 0.2107 0.0000
vn -0.9991 0.0424 0.0000
vn -0.9919 -0.1270 0.0000
vn -0.9562 -0.2928 0.0000
vn -0.8929 -0.4502 0.0000
vn -0.8040 -0.5946 0.0000
vn -0.6919 -0.7220 0.0000
vn -0.5600 -0.8285 0.0000
vn -0.4119 -0.9112 0.0000
vn -0.2520 -0.9677 0.0000
usemtl Material_001.002
s off
f 1//1 2//1 3//1
f 3//2 2//2 4//2
f 3//2 4//2 5//2
f 5//3 4//3 6//3
f 5//3 6//3 7//3
f 7//4 6//4 8//4
f 7//4 8//4 9//4
f 9//5 8//5 10//5
f 9//5 10//5 11//5
f 11//6 10//6 12//6
f 11//6 12//6 13//6
f 13//7 12//7 14//7
f 13//7 14//7 15//7
f 15//8 14//8 16//8
f 15//9 16//9 17//9
f 17//10 16//10 18//10
f 17//10 18//10 19//10
f 19//11 18//11 20//11
f 19//11 20//11 21//11
f 21//12 20//12 22//12
f 21//12 22//12 23//12
f 23//13 22//13 24//13
f 23//13 24//13 25//13
f 25//14 24//14 26//14
f 25//14 26//14 27//14
f 27//15 26//15 28//15
f 27//16 28//16 29//16
f 29//17 28//17 30//17
f 29//17 30//17 31//17
f 31//18 30//18 32//18
f 31//18 32//18 33//18
f 33//19 32//19 34//19
f 33//19 34//19 35//19
f 35//20 34//20 36//20
f 35//20 36//20 37//20
f 37//21 36//21 38//21
f 37//21 38//21 39//21
f 39//22 38//22 40//22
f 39//22 40//22 41//22
f 41//23 40//23 42//23
f 41//23 42//23 43//23
f 43//24 42//24 44//24
f 43//24 44//24 45//24
f 45//25 44//25 46//25
f 45//25 46//25 47//25
f 47//26 46//26 48//26
f 47//26 48//26 49//26
f 49//27 48//27 50//27
f 49//27 50//27 51//27
f 51//28 50//28 52//28
f 51//28 52//28 53//28
f 53//29 52//29 54//29
f 53//30 54//30 55//30
f 55//31 54//31 56//31
f 55//31 56//31 57//31
f 57//32 56//32 58//32
f 57//32 58//32 59//32
f 59//33 58//33 60//33
f 59//33 60//33 61//33
f 61//34 60//34 62//34
f 61//34 62//34 63//34
f 63//35 62//35 64//35
f 63//35 64//35 65//35
f 65//36 64//36 66//36
f 65//37 66//37 67//37
f 67//38 66//38 68//38
f 67//38 68//38 69//38
f 69//39 68//39 70//39
f 69//39 70//39 71//39
f 71//40 70//40 72//40
f 71//40 72//40 73//40
f 73//41 72//41 74//41
f 73//41 74//41 75//41
f 75//42 74//42 76//42
f 75//42 76//42 1//42
f 1//1 76//1 2//1
f 42//43 77//43 44//43
f 44//44 77//44 78//44
f 44//45 78//45 46//45
f 46//45 78//45 79//45
f 46//46 79//46 48//46
f 48//46 79//46 80//46
f 48//47 80//47 50//47
f 50//47 80//47 81//47
f 50//48 81//48 52//48
f 52//48 81//48 82//48
f 52//49 82//49 54//49
f 54//50 82//50 83//50
f 54//51 83//51 56//51
f 56//51 83//51 84//51
f 56//52 84//52 58//52
f 58//52 84//52 85//52
f 58//53 85//53 60//53
f 60//53 85//53 86//53
f 60//54 86//54 62//54
f 62//54 86//54 87//54
f 62//55 87//55 64//55
f 64//55 87//55 88//55
f 64//56 88//56 66//56
f 66//57 88//57 89//57
f 66//58 89//58 68//58
f 68//58 89//58 90//58
f 68//59 90//59 70//59
f 70//59 90//59 91//59
f 70//60 91//60 72//60
f 72//60 91//60 92//60
f 72//61 92//61 74//61
f 74//61 92//61 93//61
f 74//62 93//62 76//62
f 76//63 93//63 94//63
f 76//64 94//64 95//64
f 95//64 94//64 96//64
f 95//65 96//65 4//65
f 4//65 96//65 97//65
f 4//66 97//66 6//66
f 6//67 97//67 98//67
f 6//68 98//68 8//68
f 8//68 98//68 99//68
f 8//69 99//69 10//69
f 10//69 99//69 100//69
f 10//70 100//70 12//70
f 12//70 100//70 101//70
f 12//71 101//71 14//71
f 14//71 101//71 102//71
f 14//72 102//72 16//72
f 16//73 102//73 103//73
f 16//74 103//74 18//74
f 18//74 103//74 104//74
f 18//75 104//75 20//75
f 20//75 104//75 105//75
f 20//76 105//76 22//76
f 22//76 105//76 106//76
f 22//77 106//77 24//77
f 24//77 106//77 107//77
f 24//78 107//78 26//78
f 26//78 107//78 108//78
f 26//79 108//79 28//79
f 28//80 108//80 109//80
f 28//81 109//81 30//81
f 30//81 109//81 110//81
f 30//82 110//82 32//82
f 32//82 110//82 111//82
f 32//83 111//83 34//83
f 34//83 111//83 112//83
f 34//84 112//84 36//84
f 36//84 112//84 113//84
f 36//85 113//85 38//85
f 38//86 113//86 114//86
f 38//87 114//87 115//87
f 115//87 114//87 116//87
f 115//88 116//88 42//88
f 42//88 116//88 77//88
f 1//89 117//89 75//89
f 75//90 117//90 118//90
f 75//91 118//91 73//91
f 73//91 118//91 119//91
f 73//92 119//92 71//92
f 71//92 119//92 120//92
f 71//93 120//93 69//93
f 69//93 120//93 121//93
f 69//94 121//94 67//94
f 67//94 121//94 122//94
f 67//95 122//95 65//95
f 65//96 122//96 123//96
f 65//97 123//97 63//97
f 63//97 123//97 124//97
f 63//98 124//98 61//98
f 61//98 124//98 125//98
f 61//99 125//99 59//99
f 59//99 125//99 126//99
f 59//100 126//100 57//100
f 57//100 126//100 127//100
f 57//101 127//101 55//101
f 55//101 127//101 128//101
f 55//102 128//102 53//102
f 53//103 128//103 129//103
f 53//104 129//104 51//104
f 51//104 129//104 130//104
f 51//105 130//105 49//105
f 49//105 130//105 131//105
f 49//106 131//106 47//106
f 47//106 131//106 132//106
f 47//107 132//107 45//107
f 45//107 132//107 133//107
f 45//108 133//108 43//108
f 43//109 133//109 134//109
f 43//110 134//110 135//110
f 135//110 134//110 136//110
f 135//111 136//111 39//111
f 39//111 136//111 137//111
f 39//112 137//112 37//112
f 37//113 137//113 138//113
f 37//114 138//114 35//114
f 35//114 138//114 139//114
f 35//115 139//115 33//115
f 33//115 139//115 140//115
f 33//116 140//116 31//116
f 31//116 140//116 141//116
f 31//117 141//117 29//117
f 29//117 141//117 142//117
f 29//118 142//118 27//118
f 27//119 142//119 143//119
f 27//120 143//120 25//120
f 25//120 143//120 144//120
f 25//121 144//121 23//121
f 23//121 144//121 145//121
f 23//122 145//122 21//122
f 21//122 145//122 146//122
f 21//123 146//123 19//123
f 19//123 146//123 147//123
f 19//124 147//124 17//124
f 17//124 147//124 148//124
f 17//125 148//125 15//125
f 15//126 148//126 149//126
f 15//127 149//127 13//127
f 13//127 149//127 150//127
f 13//128 150//128 11//128
f 11//128 150//128 151//128
f 11//129 151//129 9//129
f 9//129 151//129 152//129
f 9//130 152//130 7//130
f 7//130 152//130 153//130
f 7//131 153//131 5//131
f 5//132 153//132 154//132
f 5//133 154//133 3//133
f 3//133 154//133 155//133
f 3//134 155//134 1//134
f 1//134 155//134 117//134
f 85//135 84//135 156//135
f 156//135 84//135 83//135
f 156//135 83//135 157//135
f 157//135 83//135 82//135
f 157//135 82//135 158//135
f 158//135 82//135 81//135
f 158//135 81//135 159//135
f 159//135 81//135 80//135
f 159//135 80//135 160//135
f 160//135 80//135 79//135
f 160//135 79//135 161//135
f 161//135 79//135 78//135
f 161//135 78//135 162//135
f 162//135 78//135 77//135
f 162//135 77//135 163//135
f 163//135 77//135 116//135
f 163//135 116//135 164//135
f 164//135 116//135 114//135
f 164//135 114//135 165//135
f 165//135 114//135 113//135
f 165//135 113//135 166//135
f 166//135 113//135 112//135
f 166//135 112//135 167//135
f 167//135 112//135 111//135
f 167//135 111//135 168//135
f 168//135 111//135 110//135
f 168//135 110//135 169//135
f 169//135 110//135 109//135
f 169//135 109//135 170//135
f 170//135 109//135 108//135
f 170//135 108//135 171//135
f 171//135 108//135 107//135
f 171//135 107//135 172//135
f 172//135 107//135 106//135
f 172//135 106//135 173//135
f 173//135 106//135 105//135
f 173//135 105//135 174//135
f 174//135 105//135 104//135
f 174//135 104//135 175//135
f 175//135 104//135 103//135
f 175//135 103//135 176//135
f 176//135 103//135 102//135
f 176//135 102//135 177//135
f 177//135 102//135 101//135
f 177//135 101//135 178//135
f 178//135 101//135 100//135
f 178//135 100//135 179//135
f 179//135 100//135 99//135
f 179//135 99//135 180//135
f 180//135 99//135 98//135
f 180//135 98//135 181//135
f 181//135 98//135 97//135
f 181//135 97//135 182//135
f 182//135 97//135 183//135
f 182//135 183//135 184//135
f 184//135 183//135 94//135
f 184//135 94//135 185//135
f 185//135 94//135 93//135
f 185//135 93//135 186//135
f 186//135 93//135 92//135
f 186//135 92//135 187//135
f 187//135 92//135 91//135
f 187//135 91//135 188//135
f 188//135 91//135 90//135
f 188//135 90//135 189//135
f 189//135 90//135 89//135
f 189//135 89//135 190//135
f 190//135 89//135 88//135
f 190//135 88//135 191//135
f 191//135 88//135 87//135
f 191//135 87//135 192//135
f 192//135 87//135 86//135
f 192//135 86//135 193//135
f 193//135 86//135 85//135
f 193//135 85//135 156//135
f 145//136 144//136 194//136
f 194//136 144//136 143//136
f 194//136 143//136 195//136
f 195//136 143//136 142//136
f 195//136 142//136 196//136
f 196//136 142//136 141//136
f 196//136 141//136 197//136
f 197//136 141//136 140//136
f 197//136 140//136 198//136
f 198//136 140//136 139//136
f 198//136 139//136 199//136
f 199//136 139//136 138//136
f 199//136 138//136 200//136
f 200//136 138//136 137//136
f 200//136 137//136 201//136
f 201//136 137//136 202//136
f 201//136 202//136 203//136
f 203//136 202//136 134//136
f 203//136 134//136 204//136
f 204//136 134//136 133//136
f 204//136 133//136 205//136
f 205//136 133//136 132//136
f 205//136 132//136 206//136
f 206//136 132//136 131//136
f 206//136 131//136 207//136
f 207//136 131//136 130//136
f 207//136 130//136 208//136
f 208//136 130//136 129//136
f 208//136 129//136 209//136
f 209//136 129//136 128//136
f 209//136 128//136 210//136
f 210//136 128//136 127//136
f 210//136 127//136 211//136
f 211//136 127//136 126//136
f 211//136 126//136 212//136
f 212//136 126//136 125//136
f 212//136 125//136 213//136
f 213//136 125//136 124//136
f 213//136 124//136 214//136
f 214//136 124//136 123//136
f 214//136 123//136 215//136
f 215//136 123//136 122//136
f 215//136 122//136 216//136
f 216//136 122//136 121//136
f 216//136 121//136 217//136
f 217//136 121//136 120//136
f 217//136 120//136 218//136
f 218//136 120//136 119//136
f 218//136 119//136 219//136
f 219//136 119//136 118//136
f 219//136 118//136 220//136
f 220//136 118//136 117//136
f 220//136 117//136 221//136
f 221//136 117//136 155//136
f 221//136 155//136 222//136
f 222//136 155//136 154//136
f 222//136 154//136 223//136
f 223//136 154//136 153//136
f 223//136 153//136 224//136
f 224//136 153//136 152//136
f 224//136 152//136 225//136
f 225//136 152//136 151//136
f 225//136 151//136 226//136
f 226//136 151//136 150//136
f 226//136 150//136 227//136
f 227//136 150//136 149//136
f 227//136 149//136 228//136
f 228//136 149//136 148//136
f 228//136 148//136 229//136
f 229//136 148//136 147//136
f 229//136 147//136 230//136
f 230//136 147//136 146//136
f 230//136 146//136 231//136
f 231//136 146//136 145//136
f 231//136 145//136 194//136
f 222//137 232//137 221//137
f 221//138 232//138 184//138
f 221//138 184//138 220//138
f 220//139 184//139 185//139
f 220//139 185//139 219//139
f 219//140 185//140 186//140
f 219//140 186//140 218//140
f 218//141 186//141 187//141
f 218//141 187//141 217//141
f 217//142 187//142 188//142
f 217//142 188//142 216//142
f 216//143 188//143 189//143
f 216//143 189//143 215//143
f 215//144 189//144 190//144
f 215//144 190//144 214//144
f 214//145 190//145 191//145
f 214//145 191//145 213//145
f 213//146 191//146 192//146
f 213//146 192//146 212//146
f 212//147 192//147 193//147
f 212//147 193//147 211//147
f 211//148 193//148 156//148
f 211//148 156//148 210//148
f 210//149 156//149 157//149
f 210//149 157//149 209//149
f 209//150 157//150 158//150
f 209//150 158//150 208//150
f 208//151 158//151 159//151
f 208//151 159//151 207//151
f 207//152 159//152 160//152
f 207//152 160//152 206//152
f 206//153 160//153 161//153
f 206//153 161//153 205//153
f 205//154 161//154 162//154
f 205//154 162//154 204//154
f 204//155 162//155 163//155
f 204//155 163//155 203//155
f 203//156 163//156 164//156
f 203//156 164//156 201//156
f 201//157 164//157 165//157
f 201//157 165//157 200//157
f 200//158 165//158 166//158
f 200//158 166//158 199//158
f 199//159 166//159 167//159
f 199//159 167//159 198//159
f 198//160 167//160 168//160
f 198//160 168//160 197//160
f 197//161 168//161 169//161
f 197//161 169//161 196//161
f 196//162 169//162 170//162
f 196//162 170//162 195//162
f 195//163 170//163 171//163
f 195//163 171//163 194//163
f 194//164 171//164 172//164
f 194//164 172//164 231//164
f 231//165 172//165 173//165
f 231//165 173//165 230//165
f 230//166 173//166 174//166
f 230//166 174//166 229//166
f 229//167 174//167 175//167
f 229//167 175//167 228//167
f 228//168 175//168 176//168
f 228//168 176//168 227//168
f 227//169 176//169 177//169
f 227//169 177//169 226//169
f 226//170 177//170 178//170
f 226//170 178//170 225//170
f 225//171 178//171 179//171
f 225//171 179//171 224//171
f 224//172 179//172 180//172
f 224//172 180//172 223//172
f 223//173 180//173 181//173
f 223//173 181//173 222//173
f 222//137 181//137 232//137
