mtllib Mtl1.012.mtl
usemtl Mtl1.012
v -0.00541200 0.06648400 0.00044600
v -0.00541200 0.06648400 0.00044600
v -0.00551700 0.06646400 0.00060800
v -0.00551700 0.06646400 0.00060800
v -0.00540300 0.06647300 0.00077600
v -0.00540300 0.06647300 0.00077600
v -0.00540300 0.06647300 0.00077600
v -0.00568600 0.06642800 0.00099600
v -0.00568600 0.06642800 0.00099600
v -0.00148700 0.06699700 -0.00499700
v -0.00148700 0.06699700 -0.00499700
v -0.00161600 0.06699900 -0.00517600
v -0.00161600 0.06699900 -0.00517600
v -0.00159200 0.06699100 -0.00493300
v -0.00159200 0.06699100 -0.00493300
v -0.00501900 0.06631200 0.00671100
v -0.00504700 0.06654300 0.00005900
v -0.00507800 0.06653800 0.00008200
v -0.00574300 0.06641100 0.00126100
v -0.00575900 0.06640000 0.00149300
v -0.00575900 0.06622500 0.00646000
v -0.00573900 0.06621900 0.00671100
v -0.00090200 0.06660500 0.00671100
v -0.00088700 0.06661000 0.00658500
v -0.00088200 0.06661400 0.00646000
v -0.00088200 0.06678800 0.00149300
v -0.00093100 0.06680100 0.00108600
v -0.00098900 0.06680600 0.00089400
v -0.00119500 0.06681500 0.00049500
v -0.00129000 0.06681700 0.00036700
v -0.00166300 0.06681600 0.00000100
v -0.00175500 0.06681500 -0.00006700
v -0.00228700 0.06679900 -0.00035100
v -0.00332000 0.06673700 -0.00054200
v -0.00418500 0.06664900 -0.00024100
v -0.00306500 0.06675600 -0.00053100
v -0.00241900 0.06679400 -0.00039800
v -0.00479400 0.06657900 -0.00012800
v -0.00397700 0.06667700 -0.00046800
v -0.00425400 0.06664700 -0.00038700
v -0.00119200 0.06694900 -0.00333800
v -0.00114000 0.06696700 -0.00381400
v -0.00120000 0.06698300 -0.00432700
v -0.00126100 0.06698900 -0.00453500
v -0.00198300 0.06699600 -0.00553800
v -0.00216000 0.06699200 -0.00566200
v -0.00262200 0.06697300 -0.00588100
v -0.00283600 0.06696100 -0.00594200
v -0.00332000 0.06692800 -0.00599500
v -0.00383400 0.06688200 -0.00593400
v -0.00404400 0.06686000 -0.00587200
v -0.00450900 0.06680500 -0.00564400
v -0.00468600 0.06678100 -0.00551600
v -0.00505000 0.06672600 -0.00514500
v -0.00506800 0.06672200 -0.00511800
v -0.00125200 0.06694000 -0.00312100
v -0.00147200 0.06691600 -0.00265600
v -0.00517400 0.06670400 -0.00496600
v -0.00539100 0.06666100 -0.00450200
v -0.00545200 0.06664500 -0.00428000
v -0.00550200 0.06662200 -0.00381400
v -0.00544200 0.06661200 -0.00330500
v -0.00538200 0.06661200 -0.00309800
v -0.00515800 0.06662400 -0.00263700
v -0.00505700 0.06663200 -0.00249600
v -0.00503300 0.06663300 -0.00246200
v -0.00466600 0.06666300 -0.00209600
v -0.00449500 0.06667800 -0.00197400
v -0.00403100 0.06671700 -0.00175000
v -0.00381700 0.06673500 -0.00168800
v -0.00159500 0.06690600 -0.00247900
v -0.00195800 0.06687700 -0.00210900
v -0.00280700 0.06681500 -0.00169200
v -0.00259900 0.06683000 -0.00175400
v -0.00213600 0.06686400 -0.00198100
v -0.00332000 0.06677500 -0.00163100
vn -0.12990000 0.99090000 0.03480000
vn -0.12590000 0.99140000 0.03470000
vn -0.12990000 0.99090000 0.03480000
vn -0.13140000 0.99070000 0.03580000
vn -0.12990000 0.99090000 0.03480000
vn -0.13140000 0.99070000 0.03580000
vn -0.12770000 0.99120000 0.03520000
vn -0.13140000 0.99070000 0.03580000
vn -0.13140000 0.99070000 0.03560000
vn -0.03670000 0.99870000 0.03490000
vn -0.03630000 0.99870000 0.03560000
vn -0.03670000 0.99870000 0.03490000
vn -0.04210000 0.99850000 0.03540000
vn -0.04200000 0.99840000 0.03680000
vn -0.03670000 0.99870000 0.03490000
vn -0.09950000 0.99440000 0.03470000
vn -0.08910000 0.99480000 0.04950000
vn -0.11550000 0.99250000 0.03930000
vn -0.13160000 0.99070000 0.03560000
vn -0.13180000 0.99060000 0.03540000
vn -0.12870000 0.99110000 0.03460000
vn -0.12850000 0.99110000 0.03420000
vn -0.07090000 0.99710000 0.02930000
vn -0.07080000 0.99700000 0.03100000
vn -0.07070000 0.99690000 0.03380000
vn -0.07140000 0.99680000 0.03700000
vn -0.07350000 0.99630000 0.04440000
vn -0.07570000 0.99570000 0.05370000
vn -0.07750000 0.99490000 0.06390000
vn -0.07840000 0.99430000 0.07280000
vn -0.07890000 0.99360000 0.08120000
vn -0.07870000 0.99300000 0.08750000
vn -0.07830000 0.99260000 0.09320000
vn -0.07790000 0.99470000 0.06700000
vn -0.08380000 0.99210000 0.09380000
vn -0.07460000 0.99410000 0.07890000
vn -0.07710000 0.99230000 0.09690000
vn -0.10320000 0.99320000 0.05340000
vn -0.08780000 0.99520000 0.04330000
vn -0.10230000 0.99410000 0.03580000
vn -0.06600000 0.99730000 0.03360000
vn -0.03170000 0.99890000 0.03470000
vn -0.03420000 0.99880000 0.03570000
vn -0.03650000 0.99860000 0.03700000
vn -0.05210000 0.99780000 0.04000000
vn -0.05940000 0.99730000 0.04310000
vn -0.06680000 0.99670000 0.04690000
vn -0.07290000 0.99600000 0.05080000
vn -0.07980000 0.99520000 0.05610000
vn -0.08440000 0.99460000 0.06030000
vn -0.08650000 0.99430000 0.06240000
vn -0.08760000 0.99410000 0.06400000
vn -0.08720000 0.99420000 0.06320000
vn -0.08590000 0.99450000 0.06050000
vn -0.08750000 0.99460000 0.05510000
vn -0.06790000 0.99750000 0.02090000
vn -0.07310000 0.99720000 0.01720000
vn -0.09050000 0.99440000 0.05380000
vn -0.08800000 0.99490000 0.04930000
vn -0.08580000 0.99530000 0.04400000
vn -0.08290000 0.99590000 0.03570000
vn -0.08060000 0.99640000 0.02600000
vn -0.07940000 0.99670000 0.01770000
vn -0.07890000 0.99680000 0.00980000
vn -0.07890000 0.99690000 0.00440000
vn -0.07900000 0.99690000 0.00250000
vn -0.07940000 0.99680000 -0.00250000
vn -0.08010000 0.99680000 -0.00620000
vn -0.08070000 0.99670000 -0.00840000
vn -0.08040000 0.99670000 -0.00890000
vn -0.07400000 0.99720000 0.00750000
vn -0.07640000 0.99710000 0.00040000
vn -0.07810000 0.99690000 -0.01020000
vn -0.07510000 0.99720000 -0.00310000
vn -0.07780000 0.99700000 -0.00600000
vn -0.07900000 0.99680000 -0.01340000
vt 0.21170200 0.96196200
vt 0.21170200 0.96196200
vt 0.21141400 0.96151900
vt 0.21141400 0.96151900
vt 0.21172700 0.96106300
vt 0.21172700 0.96106300
vt 0.21172700 0.96106300
vt 0.21095000 0.96045900
vt 0.21095000 0.96045900
vt 0.89370700 0.69394400
vt 0.89370700 0.69394400
vt 0.89318100 0.69365500
vt 0.89318100 0.69365500
vt 0.89384600 0.69364000
vt 0.89384600 0.69364000
vt 0.21277900 0.94489700
vt 0.21270200 0.96302100
vt 0.21261700 0.96295700
vt 0.21079400 0.95973700
vt 0.21075000 0.95910400
vt 0.21075000 0.94557100
vt 0.21080500 0.94488800
vt 0.22401500 0.94492400
vt 0.22405600 0.94526800
vt 0.22406900 0.94560800
vt 0.22406900 0.95914100
vt 0.22393600 0.96025000
vt 0.22377800 0.96077300
vt 0.22321800 0.96186000
vt 0.22296000 0.96220800
vt 0.22194500 0.96320400
vt 0.22169400 0.96338900
vt 0.22024500 0.96416100
vt 0.21742700 0.96467500
vt 0.21506300 0.96384700
vt 0.21812300 0.96464700
vt 0.21988600 0.96428800
vt 0.21339600 0.96353300
vt 0.21563200 0.96446800
vt 0.21487400 0.96424400
vt 0.89828900 0.69419800
vt 0.89701900 0.69449400
vt 0.89561200 0.69450000
vt 0.89503000 0.69440400
vt 0.89208300 0.69278100
vt 0.89169100 0.69234300
vt 0.89094900 0.69116400
vt 0.89071500 0.69060400
vt 0.89041600 0.68930900
vt 0.89041600 0.68789400
vt 0.89051700 0.68730400
vt 0.89098500 0.68596500
vt 0.89127500 0.68544200
vt 0.89216200 0.68433000
vt 0.89223000 0.68427200
vt 0.89885700 0.69396500
vt 0.90004300 0.69321800
vt 0.89260700 0.68393300
vt 0.89379300 0.68319000
vt 0.89437400 0.68295100
vt 0.89561800 0.68266200
vt 0.89701400 0.68265900
vt 0.89759300 0.68275500
vt 0.89891000 0.68321300
vt 0.89932400 0.68344200
vt 0.89942300 0.68349600
vt 0.90053000 0.68437500
vt 0.90091400 0.68480000
vt 0.90166800 0.68598800
vt 0.90190400 0.68654900
vt 0.90048100 0.69282700
vt 0.90136500 0.69172400
vt 0.90221800 0.68929000
vt 0.90211700 0.68987300
vt 0.90165300 0.69120100
vt 0.90221800 0.68787900
f 1/1/1 3/3/3 5/5/5
f 4/4/4 8/8/8 6/6/6
f 10/10/10 12/12/12 15/15/15
f 16/16/16 17/17/17 7/7/7
f 17/17/17 18/18/18 7/7/7
f 7/7/7 18/18/18 2/2/2
f 9/9/9 19/19/19 7/7/7
f 19/19/19 20/20/20 7/7/7
f 7/7/7 20/20/20 16/16/16
f 20/20/20 21/21/21 16/16/16
f 16/16/16 21/21/21 22/22/22
f 23/23/23 24/24/24 16/16/16
f 24/24/24 25/25/25 16/16/16
f 16/16/16 25/25/25 17/17/17
f 25/25/25 26/26/26 17/17/17
f 17/17/17 26/26/26 27/27/27
f 27/27/27 28/28/28 17/17/17
f 28/28/28 29/29/29 17/17/17
f 17/17/17 29/29/29 30/30/30
f 30/30/30 31/31/31 17/17/17
f 31/31/31 32/32/32 17/17/17
f 17/17/17 32/32/32 33/33/33
f 34/34/34 35/35/35 36/36/36
f 35/35/35 37/37/37 36/36/36
f 33/33/33 37/37/37 17/17/17
f 37/37/37 35/35/35 17/17/17
f 17/17/17 35/35/35 38/38/38
f 34/34/34 39/39/39 35/35/35
f 39/39/39 40/40/40 35/35/35
f 35/35/35 40/40/40 38/38/38
f 14/14/14 41/41/41 42/42/42
f 42/42/42 43/43/43 14/14/14
f 43/43/43 44/44/44 14/14/14
f 14/14/14 44/44/44 11/11/11
f 13/13/13 45/45/45 14/14/14
f 14/14/14 45/45/45 41/41/41
f 45/45/45 46/46/46 41/41/41
f 41/41/41 46/46/46 47/47/47
f 47/47/47 48/48/48 41/41/41
f 48/48/48 49/49/49 41/41/41
f 41/41/41 49/49/49 50/50/50
f 50/50/50 51/51/51 41/41/41
f 51/51/51 52/52/52 41/41/41
f 41/41/41 52/52/52 53/53/53
f 53/53/53 54/54/54 41/41/41
f 54/54/54 55/55/55 41/41/41
f 41/41/41 55/55/55 56/56/56
f 56/56/56 55/55/55 57/57/57
f 55/55/55 58/58/58 57/57/57
f 57/57/57 58/58/58 59/59/59
f 59/59/59 60/60/60 57/57/57
f 60/60/60 61/61/61 57/57/57
f 57/57/57 61/61/61 62/62/62
f 62/62/62 63/63/63 57/57/57
f 63/63/63 64/64/64 57/57/57
f 57/57/57 64/64/64 65/65/65
f 65/65/65 66/66/66 57/57/57
f 66/66/66 67/67/67 57/57/57
f 57/57/57 67/67/67 68/68/68
f 68/68/68 69/69/69 57/57/57
f 69/69/69 70/70/70 57/57/57
f 57/57/57 70/70/70 71/71/71
f 70/70/70 72/72/72 71/71/71
f 73/73/73 74/74/74 75/75/75
f 72/72/72 70/70/70 75/75/75
f 70/70/70 76/76/76 75/75/75
f 75/75/75 76/76/76 73/73/73