mtllib Mtl2.012.mtl
usemtl Mtl2.012
v 0.00696100 0.06649600 -0.00641200
v 0.00696100 0.06649600 -0.00641200
v 0.00702500 0.06648200 -0.00634000
v 0.00702500 0.06648200 -0.00634000
v 0.00702500 0.06648200 -0.00634000
v 0.00703700 0.06655100 -0.00835800
v 0.00703700 0.06655100 -0.00835800
v 0.00703700 0.06655100 -0.00835800
v -0.00232200 0.06642800 0.01020500
v -0.00232200 0.06642800 0.01020500
v -0.00231900 0.06637000 0.01174500
v -0.00231900 0.06637000 0.01174500
v -0.00231900 0.06637000 0.01174500
v -0.00232200 0.06642800 0.01020500
v -0.00232200 0.06642800 0.01020500
v 0.00231800 0.06642700 0.01019900
v 0.00231800 0.06642700 0.01019900
v 0.00231500 0.06637100 0.01174900
v 0.00231500 0.06637100 0.01174900
v 0.00231500 0.06637100 0.01174900
v 0.00243200 0.06642300 0.01017800
v 0.00243200 0.06642300 0.01017800
v 0.00714700 0.06653000 -0.00827800
v 0.00714700 0.06653000 -0.00827800
v 0.00702100 0.06599100 0.00754700
v 0.00702100 0.06599100 0.00754700
v 0.00694400 0.06600100 0.00761600
v 0.00694400 0.06600100 0.00761600
v 0.00694400 0.06600100 0.00761600
v 0.00699400 0.06592300 0.00959500
v 0.00699400 0.06592300 0.00959500
v 0.00699400 0.06592300 0.00959500
v 0.00693200 0.06593100 0.00963900
v 0.00693200 0.06593100 0.00963900
v -0.00000200 0.06717300 -0.00928500
v -0.00000200 0.06717300 -0.00928500
v 0.00000000 0.06717400 -0.00928600
v 0.00000000 0.06717400 -0.00928600
v 0.00000000 0.06722600 -0.01080300
v 0.00000000 0.06722600 -0.01080300
v 0.00235800 0.06714900 -0.01054600
v 0.00235800 0.06714900 -0.01054600
v 0.00221700 0.06710700 -0.00903500
v 0.00221700 0.06710700 -0.00903500
v 0.00235500 0.06709700 -0.00899600
v 0.00235500 0.06709700 -0.00899600
v -0.00703000 0.06648100 -0.00633600
v -0.00703000 0.06648100 -0.00633600
v -0.00697000 0.06649400 -0.00640400
v -0.00697000 0.06649400 -0.00640400
v -0.00697000 0.06649400 -0.00640400
v -0.00704100 0.06655000 -0.00835200
v -0.00704100 0.06655000 -0.00835200
v -0.00704100 0.06655000 -0.00835200
v -0.00691700 0.06657500 -0.00845900
v -0.00691700 0.06657500 -0.00845900
v -0.00236000 0.06709700 -0.00899700
v -0.00236000 0.06709700 -0.00899700
v -0.00236300 0.06714900 -0.01054500
v -0.00236300 0.06714900 -0.01054500
v -0.00236300 0.06714900 -0.01054500
v -0.00241700 0.06709400 -0.00898700
v -0.00241700 0.06709400 -0.00898700
v -0.00606100 0.06611300 0.00839900
v -0.00694900 0.06600100 0.00761500
v -0.00693700 0.06593000 0.00962600
v -0.00718600 0.06589600 0.00944300
v -0.00816800 0.06574400 0.00854400
v -0.00699000 0.06599500 0.00757800
v -0.00904600 0.06559500 0.00752900
v -0.00781600 0.06588000 0.00664100
v -0.00965900 0.06548600 0.00664800
v -0.00826900 0.06581400 0.00600600
v -0.01029600 0.06537100 0.00549200
v -0.00887900 0.06572400 0.00493600
v -0.01055000 0.06532700 0.00486700
v -0.00935300 0.06565900 0.00379600
v -0.01079500 0.06528500 0.00426500
v -0.01110300 0.06524100 0.00319000
v -0.00958400 0.06563400 0.00301700
v -0.01132500 0.06522500 0.00190800
v -0.00980800 0.06562300 0.00182100
v -0.01140000 0.06525200 0.00059700
v -0.00988400 0.06564900 0.00059700
v -0.01131100 0.06532900 -0.00083400
v -0.00982200 0.06570400 -0.00051300
v -0.01107300 0.06544100 -0.00212100
v -0.00961000 0.06579700 -0.00171800
v -0.01068500 0.06559000 -0.00337700
v -0.00934200 0.06589200 -0.00263200
v -0.01062400 0.06561100 -0.00351700
v -0.00887200 0.06603600 -0.00375700
v -0.01015900 0.06576700 -0.00457200
v -0.00540900 0.06618800 0.00886600
v -0.00629100 0.06601900 0.01010100
v -0.00500800 0.06622700 0.00909400
v -0.00529200 0.06613700 0.01068500
v -0.00433700 0.06629200 0.00947700
v -0.00515000 0.06615400 0.01076800
v -0.00515000 0.06615400 0.01076800
v -0.00320800 0.06637800 0.00994600
v -0.00000200 0.06648300 0.01048000
v -0.00111400 0.06647100 0.01041800
v -0.00143800 0.06640900 0.01190800
v -0.00395000 0.06626700 0.01129300
v -0.00395000 0.06626700 0.01129300
v -0.00320800 0.06637800 0.00994600
v -0.00273000 0.06635200 0.01166800
v -0.00320800 0.06637800 0.00994600
v -0.00320800 0.06637800 0.00994600
v -0.00273000 0.06635200 0.01166800
v 0.00609300 0.06604400 0.01023000
v 0.00500400 0.06622700 0.00909600
v 0.00529200 0.06613500 0.01067600
v 0.00437000 0.06628900 0.00946100
v 0.00000000 0.06648300 0.01048000
v 0.00000000 0.06643000 0.01199800
v 0.00123100 0.06646800 0.01040400
v 0.00131900 0.06641200 0.01192300
v 0.00260900 0.06635900 0.01169700
v 0.00322700 0.06637700 0.00994000
v 0.00260900 0.06635900 0.01169700
v 0.00370600 0.06628700 0.01138000
v 0.00370600 0.06628700 0.01138000
v 0.00322700 0.06637700 0.00994000
v 0.00322700 0.06637700 0.00994000
v 0.00493600 0.06617600 0.01087400
v 0.00813000 0.06631800 -0.00738700
v 0.00778900 0.06631600 -0.00548100
v 0.00901100 0.06610000 -0.00638000
v 0.00963500 0.06592700 -0.00549200
v 0.00825000 0.06620400 -0.00484000
v 0.01027800 0.06572900 -0.00433400
v 0.00886500 0.06603800 -0.00377000
v 0.01062400 0.06561000 -0.00349400
v 0.00934400 0.06589200 -0.00262800
v 0.01078400 0.06555400 -0.00310600
v 0.01110200 0.06542900 -0.00200300
v 0.00958200 0.06580800 -0.00183000
v 0.01132500 0.06532000 -0.00071800
v 0.00980800 0.06571100 -0.00063200
v 0.01140100 0.06525100 0.00059700
v 0.00988400 0.06564900 0.00059700
v 0.01132400 0.06522500 0.00192600
v 0.00983000 0.06562500 0.00163000
v 0.01109800 0.06524100 0.00321300
v 0.00962800 0.06563000 0.00283500
v 0.01073100 0.06529500 0.00445100
v 0.00937400 0.06565700 0.00373300
v 0.01055000 0.06532700 0.00487400
v 0.00891600 0.06571900 0.00486100
v 0.01022000 0.06538400 0.00564900
v 0.00956800 0.06550200 0.00679200
v 0.00831700 0.06580700 0.00593300
v 0.00889100 0.06562200 0.00772600
v 0.00783500 0.06587700 0.00661500
v 0.00800100 0.06577100 0.00871200
v 0.00609000 0.06611000 0.00837600
v 0.00544000 0.06618400 0.00884500
v 0.00258800 0.06713700 -0.01050700
v 0.00314600 0.06703800 -0.00877200
v 0.00258800 0.06713700 -0.01050700
v 0.00314600 0.06703800 -0.00877200
v 0.00386500 0.06702600 -0.01012800
v 0.00386500 0.06702600 -0.01012800
v 0.00314600 0.06703800 -0.00877200
v 0.00506000 0.06688200 -0.00961700
v 0.00506000 0.06688200 -0.00961700
v 0.00314600 0.06703800 -0.00877200
v 0.00427100 0.06692300 -0.00831500
v 0.00538100 0.06683200 -0.00943400
v 0.00507500 0.06681600 -0.00786400
v 0.00619800 0.06670600 -0.00896700
v 0.00533900 0.06678000 -0.00771600
v 0.00603200 0.06666900 -0.00722700
v -0.00131000 0.06720400 -0.01072800
v -0.00122400 0.06715300 -0.00921000
v 0.00130300 0.06720400 -0.01072900
v 0.00101500 0.06716000 -0.00923400
v -0.00949300 0.06596800 -0.00570900
v -0.00826000 0.06620100 -0.00482400
v -0.00883400 0.06614600 -0.00660100
v -0.00779200 0.06631500 -0.00547600
v -0.00793300 0.06636300 -0.00758200
v -0.00603000 0.06666900 -0.00722800
v -0.00604600 0.06673200 -0.00906400
v -0.00433600 0.06691600 -0.00828300
v -0.00433600 0.06691600 -0.00828300
v -0.00538100 0.06683100 -0.00943000
v -0.00507900 0.06681500 -0.00785900
v -0.00540400 0.06677100 -0.00767400
v -0.00259000 0.06713700 -0.01050600
v -0.00319600 0.06703400 -0.00875500
v -0.00366600 0.06704700 -0.01019800
v -0.00319600 0.06703400 -0.00875500
v -0.00366600 0.06704700 -0.01019800
v -0.00366600 0.06704700 -0.01019800
v -0.00489100 0.06690500 -0.00969900
vn 0.17480000 0.98400000 0.03470000
vn 0.16920000 0.98500000 0.03450000
vn 0.17480000 0.98400000 0.03470000
vn 0.17670000 0.98370000 0.03400000
vn 0.15820000 0.98680000 0.03470000
vn 0.17480000 0.98400000 0.03470000
vn 0.15280000 0.98760000 0.03590000
vn 0.15820000 0.98680000 0.03470000
vn -0.00000000 0.99930000 0.03780000
vn -0.03450000 0.99880000 0.03580000
vn -0.04800000 0.99820000 0.03550000
vn -0.04800000 0.99820000 0.03550000
vn 0.00010000 0.99930000 0.03780000
vn 0.00000000 0.00000000 0.03780000
vn -0.01960000 0.99910000 0.03780000
vn 0.04360000 0.99840000 0.03620000
vn 0.04440000 0.99840000 0.03560000
vn 0.04360000 0.99840000 0.03620000
vn 0.04730000 0.99820000 0.03620000
vn 0.04740000 0.99820000 0.03620000
vn 0.05670000 0.99780000 0.03500000
vn 0.04360000 0.99840000 0.03620000
vn 0.16450000 0.98580000 0.03500000
vn 0.15820000 0.98680000 0.03470000
vn 0.17350000 0.98420000 0.03540000
vn 0.15760000 0.98690000 0.03480000
vn 0.15740000 0.98690000 0.03480000
vn 0.15760000 0.98690000 0.03480000
vn 0.15580000 0.98720000 0.03490000
vn 0.15580000 0.98720000 0.03490000
vn 0.15760000 0.98690000 0.03480000
vn 0.16250000 0.98610000 0.03490000
vn 0.15580000 0.98720000 0.03490000
vn 0.15670000 0.98700000 0.03480000
vn -0.04730000 0.99830000 0.03480000
vn -0.03040000 0.99890000 0.03460000
vn -0.01690000 0.99930000 0.03400000
vn -0.04730000 0.99830000 0.03480000
vn -0.00000000 0.99940000 0.03490000
vn -0.04730000 0.99830000 0.03480000
vn 0.04460000 0.99840000 0.03470000
vn 0.06330000 0.99740000 0.03390000
vn 0.06330000 0.99740000 0.03390000
vn 0.05190000 0.99810000 0.03280000
vn 0.06330000 0.99740000 0.03390000
vn 0.06220000 0.99740000 0.03530000
vn -0.17580000 0.98380000 0.03450000
vn -0.17590000 0.98380000 0.03430000
vn -0.17010000 0.98480000 0.03470000
vn -0.17580000 0.98380000 0.03450000
vn -0.17530000 0.98390000 0.03450000
vn -0.17580000 0.98380000 0.03450000
vn -0.17530000 0.98390000 0.03450000
vn -0.17540000 0.98390000 0.03450000
vn -0.17530000 0.98390000 0.03450000
vn -0.15920000 0.98660000 0.03490000
vn -0.04320000 0.99850000 0.03410000
vn -0.04240000 0.99850000 0.03360000
vn -0.04240000 0.99850000 0.03360000
vn -0.04630000 0.99840000 0.03360000
vn -0.04640000 0.99840000 0.03350000
vn -0.04240000 0.99850000 0.03360000
vn -0.05530000 0.99790000 0.03470000
vn -0.15080000 0.98770000 0.04020000
vn -0.16910000 0.98470000 0.04100000
vn -0.15530000 0.98730000 0.03330000
vn -0.16850000 0.98510000 0.03480000
vn -0.18710000 0.98200000 0.02690000
vn -0.18020000 0.98270000 0.04340000
vn -0.20060000 0.97930000 0.02880000
vn -0.20020000 0.97880000 0.04350000
vn -0.21450000 0.97630000 0.02720000
vn -0.21480000 0.97580000 0.04220000
vn -0.22710000 0.97340000 0.02940000
vn -0.22830000 0.97270000 0.04220000
vn -0.23600000 0.97120000 0.03150000
vn -0.23950000 0.97020000 0.03750000
vn -0.24180000 0.96990000 0.03010000
vn -0.24520000 0.96890000 0.03190000
vn -0.24750000 0.96810000 0.03860000
vn -0.25040000 0.96750000 0.03410000
vn -0.25200000 0.96700000 0.03690000
vn -0.25280000 0.96690000 0.03570000
vn -0.25260000 0.96690000 0.03560000
vn -0.25200000 0.96700000 0.03650000
vn -0.24940000 0.96780000 0.03410000
vn -0.24780000 0.96810000 0.03710000
vn -0.24260000 0.96950000 0.03330000
vn -0.24090000 0.96980000 0.03740000
vn -0.23450000 0.97170000 0.03020000
vn -0.23490000 0.97130000 0.03740000
vn -0.22450000 0.97390000 0.03420000
vn -0.22890000 0.97260000 0.04040000
vn -0.13530000 0.98990000 0.04290000
vn -0.14420000 0.98910000 0.02970000
vn -0.12350000 0.99160000 0.03910000
vn -0.13070000 0.99100000 0.02850000
vn -0.10550000 0.99360000 0.04090000
vn -0.11680000 0.99270000 0.02860000
vn -0.11680000 0.99270000 0.02860000
vn -0.09500000 0.99440000 0.04640000
vn -0.00540000 0.99880000 0.04800000
vn -0.02790000 0.99890000 0.03710000
vn -0.03360000 0.99890000 0.03340000
vn -0.09400000 0.99510000 0.03030000
vn -0.09400000 0.99510000 0.03030000
vn -0.10430000 0.99420000 0.02450000
vn -0.08090000 0.99600000 0.03750000
vn -0.08090000 0.99600000 0.03750000
vn -0.06600000 0.99730000 0.03340000
vn -0.05490000 0.99780000 0.03650000
vn 0.13950000 0.98960000 0.03500000
vn 0.12230000 0.99180000 0.03850000
vn 0.12810000 0.99130000 0.03130000
vn 0.10890000 0.99340000 0.03480000
vn 0.00260000 0.99920000 0.03910000
vn -0.00080000 0.99940000 0.03520000
vn 0.03010000 0.99890000 0.03480000
vn 0.03030000 0.99890000 0.03570000
vn 0.05170000 0.99800000 0.03600000
vn 0.06760000 0.99710000 0.03410000
vn 0.07630000 0.99640000 0.03720000
vn 0.08730000 0.99550000 0.03630000
vn 0.08730000 0.99550000 0.03630000
vn 0.07630000 0.99640000 0.03720000
vn 0.09020000 0.99540000 0.03260000
vn 0.11640000 0.99270000 0.03290000
vn 0.18520000 0.98210000 0.03540000
vn 0.19660000 0.97990000 0.03320000
vn 0.20330000 0.97820000 0.04130000
vn 0.21210000 0.97630000 0.04270000
vn 0.21240000 0.97680000 0.02770000
vn 0.22490000 0.97360000 0.04000000
vn 0.22670000 0.97360000 0.02760000
vn 0.23520000 0.97120000 0.03790000
vn 0.23840000 0.97070000 0.03130000
vn 0.24030000 0.96990000 0.04000000
vn 0.24430000 0.96900000 0.03820000
vn 0.24670000 0.96860000 0.03110000
vn 0.24980000 0.96760000 0.03610000
vn 0.25150000 0.96730000 0.03260000
vn 0.25270000 0.96690000 0.03450000
vn 0.25280000 0.96690000 0.03430000
vn 0.25270000 0.96700000 0.03330000
vn 0.25060000 0.96740000 0.03540000
vn 0.24910000 0.96790000 0.03290000
vn 0.24450000 0.96900000 0.03620000
vn 0.24310000 0.96950000 0.03230000
vn 0.23650000 0.97090000 0.03870000
vn 0.23670000 0.97110000 0.03190000
vn 0.22700000 0.97320000 0.03610000
vn 0.23190000 0.97230000 0.02960000
vn 0.21950000 0.97500000 0.03280000
vn 0.20830000 0.97740000 0.03680000
vn 0.20520000 0.97810000 0.03360000
vn 0.19290000 0.98050000 0.03660000
vn 0.18500000 0.98210000 0.03470000
vn 0.15160000 0.98780000 0.03500000
vn 0.13070000 0.99070000 0.03850000
vn 0.04980000 0.99820000 0.03450000
vn 0.06280000 0.99740000 0.03640000
vn 0.07710000 0.99650000 0.03210000
vn 0.07710000 0.99650000 0.03210000
vn 0.09020000 0.99520000 0.03890000
vn 0.09020000 0.99520000 0.03890000
vn 0.10100000 0.99390000 0.04460000
vn 0.11290000 0.99280000 0.04070000
vn 0.11290000 0.99280000 0.04070000
vn 0.09200000 0.99550000 0.02380000
vn 0.10360000 0.99420000 0.02900000
vn 0.12680000 0.99120000 0.03930000
vn 0.12030000 0.99230000 0.02970000
vn 0.14070000 0.98930000 0.03960000
vn 0.13240000 0.99080000 0.02740000
vn 0.14790000 0.98860000 0.02830000
vn -0.02950000 0.99900000 0.03440000
vn -0.02890000 0.99900000 0.03520000
vn 0.03040000 0.99890000 0.03580000
vn 0.02610000 0.99910000 0.03280000
vn -0.21550000 0.97580000 0.03700000
vn -0.20450000 0.97830000 0.03330000
vn -0.20150000 0.97880000 0.03590000
vn -0.19010000 0.98120000 0.03340000
vn -0.18150000 0.98280000 0.03480000
vn -0.14820000 0.98830000 0.03510000
vn -0.13680000 0.99000000 0.03440000
vn -0.10690000 0.99370000 0.03480000
vn -0.10690000 0.99370000 0.03480000
vn -0.12520000 0.99140000 0.03740000
vn -0.11940000 0.99240000 0.03080000
vn -0.12770000 0.99130000 0.03140000
vn -0.05800000 0.99780000 0.03360000
vn -0.06930000 0.99700000 0.03470000
vn -0.07430000 0.99670000 0.03280000
vn -0.08790000 0.99540000 0.03720000
vn -0.08790000 0.99540000 0.03720000
vn -0.10210000 0.99430000 0.03230000
vn -0.11300000 0.99290000 0.03650000
vt 0.48719800 0.22873600
vt 0.48719800 0.22873600
vt 0.48702500 0.22893400
vt 0.48702500 0.22893400
vt 0.48702500 0.22893400
vt 0.48696900 0.22343600
vt 0.48696900 0.22343600
vt 0.48696900 0.22343600
vt 0.00000000 0.00000000
vt 0.57596600 0.21927300
vt 0.57708100 0.22331900
vt 0.20277800 0.98807500
vt 0.00000000 0.00000000
vt 0.00000000 0.00000000
vt 0.20696900 0.98788500
vt 0.20638800 0.97526400
vt 0.20638800 0.97526400
vt 0.20217000 0.97547200
vt 0.20217000 0.97547200
vt 0.20217000 0.97547200
vt 0.20643000 0.97495100
vt 0.20643000 0.97495100
vt 0.48667000 0.22365700
vt 0.48667000 0.22365700
vt 0.48720000 0.26677000
vt 0.48720000 0.26677000
vt 0.48741000 0.26695600
vt 0.48741000 0.26695600
vt 0.48741000 0.26695600
vt 0.48729700 0.27234900
vt 0.48729700 0.27234900
vt 0.48729700 0.27234900
vt 0.48746600 0.27246800
vt 0.48746600 0.27246800
vt 0.67288900 0.97513300
vt 0.67288900 0.97513300
vt 0.67288600 0.97513900
vt 0.67288600 0.97513900
vt 0.66875400 0.97515000
vt 0.66875400 0.97515000
vt 0.66947800 0.98156800
vt 0.66947800 0.98156800
vt 0.67359200 0.98117300
vt 0.67359200 0.98117300
vt 0.67370000 0.98154800
vt 0.67370000 0.98154800
vt 0.50988600 0.26678000
vt 0.50988600 0.26678000
vt 0.51005400 0.26696200
vt 0.51005400 0.26696200
vt 0.51005400 0.26696200
vt 0.50998100 0.27227200
vt 0.50998100 0.27227200
vt 0.50998100 0.27227200
vt 0.51032500 0.27255700
vt 0.51032500 0.27255700
vt 0.67366200 0.96871000
vt 0.67366200 0.96871000
vt 0.66944600 0.96871300
vt 0.66944600 0.96871300
vt 0.66944600 0.96871300
vt 0.67368900 0.96855500
vt 0.67368900 0.96855500
vt 0.51161300 0.22659800
vt 0.50924300 0.22877500
vt 0.50915100 0.22329700
vt 0.50848500 0.22380700
vt 0.50586600 0.22629800
vt 0.50913400 0.22887800
vt 0.50353700 0.22910000
vt 0.50694200 0.23146700
vt 0.50192100 0.23152400
vt 0.50574800 0.23321600
vt 0.50025800 0.23469700
vt 0.50415200 0.23615600
vt 0.49960400 0.23640900
vt 0.50293200 0.23928000
vt 0.49897400 0.23805800
vt 0.49820100 0.24099700
vt 0.50235100 0.24141100
vt 0.49767600 0.24449700
vt 0.50181400 0.24467800
vt 0.49755300 0.24807100
vt 0.50168300 0.24801500
vt 0.49788400 0.25196500
vt 0.50192100 0.25103600
vt 0.49861200 0.25546300
vt 0.50257300 0.25431000
vt 0.49974700 0.25887000
vt 0.50335900 0.25678900
vt 0.49992200 0.25924900
vt 0.50470900 0.25983500
vt 0.50125400 0.26210600
vt 0.51336000 0.22529400
vt 0.51088100 0.22197300
vt 0.51443700 0.22465300
vt 0.51356600 0.22033400
vt 0.51624100 0.22357600
vt 0.51394700 0.22010100
vt 0.58813300 0.99239200
vt 0.51928600 0.22223800
vt 0.20592800 0.98160900
vt 0.20623900 0.98462600
vt 0.20222500 0.98569900
vt 0.58554600 0.98994300
vt 0.95498500 0.81847500
vt 0.58813300 0.98664100
vt 0.95791500 0.81661000
vt 0.95791500 0.82147600
vt 0.57810400 0.21795300
vt 0.57810400 0.22281900
vt 0.48975600 0.27405500
vt 0.49270700 0.27093900
vt 0.49194100 0.27525000
vt 0.49443600 0.27191900
vt 0.20592800 0.98160400
vt 0.20179700 0.98180000
vt 0.20597500 0.97824600
vt 0.20183000 0.97820300
vt 0.20227200 0.97466600
vt 0.20696900 0.97275900
vt 0.80573900 0.46350100
vt 0.49626600 0.27713300
vt 0.80884300 0.46337200
vt 0.80884300 0.46751000
vt 0.49755300 0.27320000
vt 0.49291300 0.27578100
vt 0.48400600 0.22611400
vt 0.48495600 0.23129700
vt 0.48162100 0.22888600
vt 0.47993400 0.23132600
vt 0.48371000 0.23305700
vt 0.47819800 0.23450400
vt 0.48204900 0.23599200
vt 0.47726700 0.23680500
vt 0.48075900 0.23911900
vt 0.47683600 0.23786800
vt 0.47598400 0.24088600
vt 0.48012100 0.24130200
vt 0.47539300 0.24439500
vt 0.47952100 0.24457400
vt 0.47520200 0.24798100
vt 0.47932800 0.24792500
vt 0.47542700 0.25159900
vt 0.47948700 0.25073800
vt 0.47605700 0.25509700
vt 0.48005100 0.25401400
vt 0.47707000 0.25845700
vt 0.48075300 0.25645200
vt 0.47756700 0.25960200
vt 0.48201200 0.25951000
vt 0.47847400 0.26170200
vt 0.48026100 0.26479300
vt 0.48365400 0.26241100
vt 0.48211400 0.26731500
vt 0.48497400 0.26425500
vt 0.48454700 0.26997300
vt 0.48974300 0.26900400
vt 0.49151700 0.27026500
vt 0.66958600 0.98219400
vt 0.67432100 0.98370000
vt 0.95498500 0.81650700
vt 0.95498500 0.82147600
vt 0.84984300 0.99018800
vt 0.95199400 0.81856200
vt 0.85243500 0.98691400
vt 0.49233400 0.21995500
vt 0.85243500 0.99260300
vt 0.49755300 0.22221700
vt 0.49449600 0.22348500
vt 0.49146200 0.22046200
vt 0.49231400 0.22473200
vt 0.48924400 0.22175400
vt 0.49159700 0.22514100
vt 0.48971700 0.22649100
vt 0.66895000 0.97158200
vt 0.67308600 0.97180500
vt 0.66896700 0.97869700
vt 0.67303600 0.97790200
vt 0.50313900 0.26517700
vt 0.50644300 0.26271600
vt 0.50498900 0.26758000
vt 0.50775800 0.26447100
vt 0.50750400 0.27021400
vt 0.51266500 0.26916300
vt 0.51273500 0.27416500
vt 0.51734300 0.27195200
vt 0.28527200 0.99304200
vt 0.51456800 0.27512900
vt 0.51529400 0.27083500
vt 0.51439700 0.27034700
vt 0.66955100 0.96809500
vt 0.67432100 0.96643200
vt 0.67039000 0.96516200
vt 0.28276900 0.99079500
vt 0.28527200 0.98750900
vt 0.51928600 0.27713300
vt 0.51591900 0.27583700
f 1/1/1 3/3/3 6/6/6
f 9/9/9 13/13/13 14/14/14
f 16/16/16 18/18/18 22/22/22
f 8/8/8 5/5/5 24/24/24
f 26/26/26 28/28/28 31/31/31
f 30/30/30 29/29/29 33/33/33
f 35/35/35 38/38/38 40/40/40
f 42/42/42 43/43/43 45/45/45
f 47/47/47 50/50/50 52/52/52
f 53/53/53 51/51/51 55/55/55
f 58/58/58 59/59/59 62/62/62
f 64/64/64 65/65/65 66/66/66
f 66/66/66 65/65/65 67/67/67
f 67/67/67 65/65/65 68/68/68
f 65/65/65 69/69/69 68/68/68
f 68/68/68 69/69/69 70/70/70
f 69/69/69 71/71/71 70/70/70
f 70/70/70 71/71/71 72/72/72
f 71/71/71 73/73/73 72/72/72
f 72/72/72 73/73/73 74/74/74
f 73/73/73 75/75/75 74/74/74
f 74/74/74 75/75/75 76/76/76
f 75/75/75 77/77/77 76/76/76
f 76/76/76 77/77/77 78/78/78
f 78/78/78 77/77/77 79/79/79
f 77/77/77 80/80/80 79/79/79
f 79/79/79 80/80/80 81/81/81
f 80/80/80 82/82/82 81/81/81
f 81/81/81 82/82/82 83/83/83
f 82/82/82 84/84/84 83/83/83
f 83/83/83 84/84/84 85/85/85
f 84/84/84 86/86/86 85/85/85
f 85/85/85 86/86/86 87/87/87
f 86/86/86 88/88/88 87/87/87
f 87/87/87 88/88/88 89/89/89
f 88/88/88 90/90/90 89/89/89
f 89/89/89 90/90/90 91/91/91
f 90/90/90 92/92/92 91/91/91
f 91/91/91 92/92/92 93/93/93
f 64/64/64 66/66/66 94/94/94
f 66/66/66 95/95/95 94/94/94
f 94/94/94 95/95/95 96/96/96
f 95/95/95 97/97/97 96/96/96
f 96/96/96 97/97/97 98/98/98
f 97/97/97 99/99/99 98/98/98
f 98/98/98 99/99/99 101/101/101
f 102/102/102 103/103/103 104/104/104
f 104/104/104 103/103/103 12/12/12
f 100/100/100 105/105/105 107/107/107
f 106/106/106 108/108/108 109/109/109
f 110/110/110 111/111/111 10/10/10
f 111/111/111 11/11/11 10/10/10
f 12/12/12 103/103/103 15/15/15
f 112/112/112 113/113/113 114/114/114
f 113/113/113 115/115/115 114/114/114
f 102/102/102 104/104/104 116/116/116
f 104/104/104 117/117/117 116/116/116
f 116/116/116 117/117/117 118/118/118
f 117/117/117 119/119/119 118/118/118
f 118/118/118 119/119/119 17/17/17
f 119/119/119 20/20/20 17/17/17
f 19/19/19 120/120/120 21/21/21
f 21/21/21 120/120/120 121/121/121
f 122/122/122 124/124/124 125/125/125
f 126/126/126 123/123/123 115/115/115
f 123/123/123 127/127/127 115/115/115
f 115/115/115 127/127/127 114/114/114
f 23/23/23 4/4/4 128/128/128
f 4/4/4 129/129/129 128/128/128
f 128/128/128 129/129/129 130/130/130
f 130/130/130 129/129/129 131/131/131
f 129/129/129 132/132/132 131/131/131
f 131/131/131 132/132/132 133/133/133
f 132/132/132 134/134/134 133/133/133
f 133/133/133 134/134/134 135/135/135
f 134/134/134 136/136/136 135/135/135
f 135/135/135 136/136/136 137/137/137
f 137/137/137 136/136/136 138/138/138
f 136/136/136 139/139/139 138/138/138
f 138/138/138 139/139/139 140/140/140
f 139/139/139 141/141/141 140/140/140
f 140/140/140 141/141/141 142/142/142
f 141/141/141 143/143/143 142/142/142
f 142/142/142 143/143/143 144/144/144
f 143/143/143 145/145/145 144/144/144
f 144/144/144 145/145/145 146/146/146
f 145/145/145 147/147/147 146/146/146
f 146/146/146 147/147/147 148/148/148
f 147/147/147 149/149/149 148/148/148
f 148/148/148 149/149/149 150/150/150
f 149/149/149 151/151/151 150/150/150
f 150/150/150 151/151/151 152/152/152
f 152/152/152 151/151/151 153/153/153
f 151/151/151 154/154/154 153/153/153
f 153/153/153 154/154/154 155/155/155
f 154/154/154 156/156/156 155/155/155
f 155/155/155 156/156/156 157/157/157
f 156/156/156 25/25/25 157/157/157
f 157/157/157 25/25/25 32/32/32
f 27/27/27 158/158/158 34/34/34
f 34/34/34 158/158/158 112/112/112
f 158/158/158 159/159/159 112/112/112
f 112/112/112 159/159/159 113/113/113
f 41/41/41 46/46/46 160/160/160
f 46/46/46 161/161/161 160/160/160
f 162/162/162 163/163/163 165/165/165
f 164/164/164 166/166/166 168/168/168
f 169/169/169 170/170/170 167/167/167
f 167/167/167 170/170/170 171/171/171
f 170/170/170 172/172/172 171/171/171
f 171/171/171 172/172/172 173/173/173
f 172/172/172 174/174/174 173/173/173
f 173/173/173 174/174/174 7/7/7
f 174/174/174 175/175/175 7/7/7
f 7/7/7 175/175/175 2/2/2
f 176/176/176 177/177/177 36/36/36
f 176/176/176 36/36/36 39/39/39
f 39/39/39 37/37/37 178/178/178
f 37/37/37 179/179/179 178/178/178
f 178/178/178 179/179/179 41/41/41
f 179/179/179 44/44/44 41/41/41
f 93/93/93 92/92/92 180/180/180
f 92/92/92 181/181/181 180/180/180
f 180/180/180 181/181/181 182/182/182
f 181/181/181 183/183/183 182/182/182
f 182/182/182 183/183/183 184/184/184
f 183/183/183 48/48/48 184/184/184
f 184/184/184 48/48/48 54/54/54
f 49/49/49 185/185/185 56/56/56
f 56/56/56 185/185/185 186/186/186
f 187/187/187 189/189/189 190/190/190
f 189/189/189 186/186/186 190/190/190
f 190/190/190 186/186/186 191/191/191
f 186/186/186 185/185/185 191/191/191
f 177/177/177 176/176/176 57/57/57
f 176/176/176 60/60/60 57/57/57
f 61/61/61 192/192/192 63/63/63
f 63/63/63 192/192/192 193/193/193
f 192/192/192 194/194/194 193/193/193
f 195/195/195 196/196/196 188/188/188
f 197/197/197 198/198/198 187/187/187
f 187/187/187 198/198/198 189/189/189