mtllib Mtl2_001.mtl
usemtl Mtl2_001
v 0.00000000 -0.04050000 0.00989800
v 0.00000000 -0.04050000 0.00989800
v 0.00000000 -0.04050000 0.00989800
v 0.00000000 -0.04050000 0.00989800
v 0.00000000 -0.04050000 0.00949800
v 0.00000000 -0.04050000 0.00949800
v 0.00000000 -0.04050000 0.00949800
v 0.00000000 0.04050000 0.00989800
v 0.00000000 0.04050000 0.00989800
v 0.00000000 0.04050000 0.00989800
v 0.00000000 0.04050000 0.00989800
v 0.00000000 0.04050000 0.00949800
v 0.00000000 0.04050000 0.00949800
v 0.00000000 0.04050000 0.00949800
v 0.00000000 -0.04050000 0.01024800
v -0.00703300 -0.03988500 0.01024800
v -0.00703300 0.03988500 0.00949800
v 0.00703300 -0.03988500 0.00949800
v -0.00703300 -0.03988500 0.00949800
v 0.01385200 -0.03805700 0.00949800
v 0.01048200 -0.03912000 0.00989800
v 0.00703300 -0.03988500 0.00989800
v 0.02025000 -0.03507400 0.00949800
v 0.01711600 -0.03670500 0.00989800
v 0.01385200 -0.03805700 0.00989800
v 0.02603300 -0.03102500 0.00949800
v 0.02323000 -0.03317600 0.00989800
v 0.02025000 -0.03507400 0.00989800
v 0.03102500 -0.02603300 0.00949800
v 0.02863800 -0.02863800 0.00989800
v 0.02863800 -0.02863800 0.00989800
v 0.02603300 -0.03102500 0.00949800
v 0.02603300 -0.03102500 0.00989800
v 0.02603300 -0.03102500 0.00949800
v 0.02603300 -0.03102500 0.00989800
v 0.03507400 -0.02025000 0.00949800
v 0.03317600 -0.02323000 0.00989800
v 0.03102500 -0.02603300 0.00989800
v 0.00703300 0.03988500 0.00989800
v 0.00703300 0.03988500 0.00949800
v 0.01385200 0.03805700 0.00989800
v 0.01385200 0.03805700 0.00949800
v 0.02025000 0.03507400 0.00989800
v 0.02025000 0.03507400 0.00949800
v 0.02603300 0.03102500 0.00989800
v 0.02603300 0.03102500 0.00949800
v 0.02603300 0.03102500 0.00989800
v 0.03102500 0.02603300 0.00989800
v 0.03102500 0.02603300 0.00989800
v 0.03102500 0.02603300 0.00989800
v 0.02603300 0.03102500 0.00949800
v 0.02603300 0.03102500 0.00949800
v 0.03102500 0.02603300 0.00949800
v 0.03102500 0.02603300 0.00949800
v 0.03507400 0.02025000 0.00989800
v 0.03507400 0.02025000 0.00949800
v 0.03805700 0.01385200 0.00989800
v 0.03805700 0.01385200 0.00949800
v 0.03988500 0.00703300 0.00989800
v 0.03988500 0.00703300 0.00949800
v 0.04050000 -0.00000000 0.00989800
v 0.04050000 -0.00000000 0.00949800
v 0.03988500 -0.00703300 0.00989800
v 0.03988500 -0.00703300 0.00949800
v 0.03805700 -0.01385200 0.00989800
v 0.03805700 -0.01385200 0.00949800
v 0.03670500 -0.01711600 0.00989800
v 0.03507400 -0.02025000 0.00989800
v -0.01385200 -0.03805700 0.01024800
v -0.01385200 -0.03805700 0.00949800
v -0.02025000 -0.03507400 0.01024800
v -0.02025000 -0.03507400 0.00949800
v -0.02603300 -0.03102500 0.01024800
v -0.02603300 -0.03102500 0.00949800
v -0.02603300 -0.03102500 0.01024800
v -0.03102500 -0.02603300 0.01024800
v -0.03102500 -0.02603300 0.01024800
v -0.03102500 -0.02603300 0.01024800
v -0.02603300 -0.03102500 0.00949800
v -0.02603300 -0.03102500 0.00949800
v -0.03102500 -0.02603300 0.00949800
v -0.03102500 -0.02603300 0.00949800
v -0.03507400 -0.02025000 0.01024800
v -0.03507400 -0.02025000 0.00949800
v -0.03805700 -0.01385200 0.01024800
v -0.03805700 -0.01385200 0.00949800
v -0.03988500 -0.00703300 0.01024800
v -0.03988500 -0.00703300 0.00949800
v -0.04050000 -0.00000000 0.01024800
v -0.04050000 -0.00000000 0.00949800
v -0.03988500 0.00703300 0.01024800
v -0.03988500 0.00703300 0.00949800
v -0.03805700 0.01385200 0.01024800
v -0.03805700 0.01385200 0.00949800
v -0.03507400 0.02025000 0.01024800
v -0.03507400 0.02025000 0.00949800
v -0.03102500 0.02603300 0.01024800
v -0.03102500 0.02603300 0.00949800
v -0.03102500 0.02603300 0.00949800
v -0.02603300 0.03102500 0.01024800
v -0.02603300 0.03102500 0.01024800
v -0.02603300 0.03102500 0.00949800
v -0.02603300 0.03102500 0.01024800
v -0.02025000 0.03507400 0.01024800
v -0.02603300 0.03102500 0.00949800
v -0.02025000 0.03507400 0.00949800
v -0.01385200 0.03805700 0.01024800
v -0.01385200 0.03805700 0.00949800
v -0.00703300 0.03988500 0.01024800
v 0.00000000 0.04050000 0.01024800
vn 0.00000000 0.00000000 0.00000000
vn 0.06180000 -0.70440000 0.70710000
vn 0.00000000 0.00000000 0.00000000
vn -0.07790000 -0.89100000 0.44720000
vn 0.00000000 0.00000000 0.00000000
vn 0.00000000 -1.00000000 0.00000000
vn 0.00000000 -1.00000000 0.00000000
vn 0.00000000 0.00000000 0.00000000
vn -0.07790000 0.89100000 0.44720000
vn 0.00000000 0.00000000 0.00000000
vn 0.06160000 0.70440000 0.70710000
vn 0.00000000 0.00000000 0.00000000
vn -0.00000000 1.00000000 0.00000000
vn -0.00000000 1.00000000 0.00000000
vn -0.08710000 -0.99620000 0.00000000
vn -0.17370000 -0.98480000 0.00000000
vn -0.17370000 0.98480000 0.00000000
vn 0.15370000 -0.98800000 -0.01390000
vn -0.17370000 -0.98480000 0.00000000
vn 0.34190000 -0.93930000 -0.02770000
vn 0.24400000 -0.91000000 -0.33520000
vn 0.15220000 -0.98840000 0.00000000
vn 0.49970000 -0.86570000 -0.02770000
vn 0.39810000 -0.85390000 -0.33530000
vn 0.34210000 -0.93970000 0.00000000
vn 0.60610000 -0.79490000 -0.02770000
vn 0.54040000 -0.77180000 -0.33520000
vn 0.49990000 -0.86610000 0.00000000
vn 0.76570000 -0.64260000 -0.02770000
vn 0.66630000 -0.66630000 -0.33490000
vn 0.66630000 -0.66630000 -0.33490000
vn 0.65980000 -0.65980000 -0.35960000
vn 0.67560000 -0.73730000 0.00000000
vn 0.67560000 -0.73730000 0.00000000
vn 0.60880000 -0.79330000 0.00000000
vn 0.86570000 -0.49970000 -0.02770000
vn 0.77180000 -0.54040000 -0.33510000
vn 0.76600000 -0.64280000 0.00000000
vn 0.17370000 0.98480000 0.00000000
vn 0.17370000 0.98480000 0.00000000
vn 0.34200000 0.93970000 0.00000000
vn 0.34200000 0.93970000 0.00000000
vn 0.50000000 0.86600000 0.00000000
vn 0.50000000 0.86600000 0.00000000
vn 0.57350000 0.81920000 0.00000000
vn 0.57350000 0.81920000 0.00000000
vn 0.70710000 0.70710000 0.00000000
vn 0.76600000 0.64280000 0.00000000
vn 0.76600000 0.64280000 0.00000000
vn 0.76600000 0.64280000 0.00000000
vn 0.70710000 0.70710000 0.00000000
vn 0.70710000 0.70710000 0.00000000
vn 0.76610000 0.64280000 0.00000000
vn 0.76610000 0.64280000 0.00000000
vn 0.86600000 0.50000000 0.00000000
vn 0.86600000 0.50000000 0.00000000
vn 0.93970000 0.34200000 0.00000000
vn 0.93970000 0.34200000 0.00000000
vn 0.98480000 0.17370000 0.00000000
vn 0.98480000 0.17370000 0.00000000
vn 1.00000000 0.00000000 0.00000000
vn 1.00000000 0.00000000 0.00000000
vn 0.98480000 -0.17370000 0.00000000
vn 0.98480000 -0.17370000 0.00000000
vn 0.94690000 -0.32150000 0.00000000
vn 0.94630000 -0.32290000 -0.01380000
vn 0.85390000 -0.39810000 -0.33530000
vn 0.86610000 -0.49990000 0.00000000
vn -0.34200000 -0.93970000 0.00000000
vn -0.34200000 -0.93970000 0.00000000
vn -0.50000000 -0.86600000 0.00000000
vn -0.50000000 -0.86600000 0.00000000
vn -0.57350000 -0.81920000 0.00000000
vn -0.57350000 -0.81920000 0.00000000
vn -0.70710000 -0.70710000 0.00000000
vn -0.76600000 -0.64280000 0.00000000
vn -0.76600000 -0.64280000 0.00000000
vn -0.76600000 -0.64280000 0.00000000
vn -0.70710000 -0.70710000 0.00000000
vn -0.70710000 -0.70710000 0.00000000
vn -0.76610000 -0.64280000 0.00000000
vn -0.76610000 -0.64280000 0.00000000
vn -0.86600000 -0.50000000 0.00000000
vn -0.86600000 -0.50000000 0.00000000
vn -0.93970000 -0.34200000 0.00000000
vn -0.93970000 -0.34200000 0.00000000
vn -0.98480000 -0.17370000 0.00000000
vn -0.98480000 -0.17370000 0.00000000
vn -1.00000000 -0.00000000 0.00000000
vn -1.00000000 -0.00000000 0.00000000
vn -0.98480000 0.17370000 0.00000000
vn -0.98480000 0.17370000 0.00000000
vn -0.93970000 0.34200000 0.00000000
vn -0.93970000 0.34200000 0.00000000
vn -0.86600000 0.50000000 0.00000000
vn -0.86600000 0.50000000 0.00000000
vn -0.76610000 0.64280000 0.00000000
vn -0.76600000 0.64280000 0.00000000
vn -0.76600000 0.64280000 0.00000000
vn -0.70710000 0.70710000 0.00000000
vn -0.70710000 0.70710000 0.00000000
vn -0.70710000 0.70710000 0.00000000
vn -0.57350000 0.81920000 0.00000000
vn -0.50000000 0.86600000 0.00000000
vn -0.57350000 0.81920000 0.00000000
vn -0.50000000 0.86600000 0.00000000
vn -0.34200000 0.93970000 0.00000000
vn -0.34200000 0.93970000 0.00000000
vn -0.17370000 0.98480000 0.00000000
vn -0.08710000 0.99620000 0.00000000
vt 0.00000000 0.00000000
vt 0.11760600 0.63464000
vt 0.00000000 0.00000000
vt 0.99114600 0.78110500
vt 0.00000000 0.00000000
vt 0.99205900 0.78109900
vt 0.11851900 0.63465000
vt 0.00000000 0.00000000
vt 0.99466500 0.72384000
vt 0.00000000 0.00000000
vt 0.23459200 0.69290300
vt 0.00000000 0.00000000
vt 0.99557800 0.72384000
vt 0.23367900 0.69290300
vt 0.99034700 0.78111100
vt 0.99024300 0.76491000
vt 0.99557800 0.73983200
vt 0.11841000 0.65066400
vt 0.99195500 0.76489800
vt 0.11837400 0.66600500
vt 0.11747000 0.65843800
vt 0.11749800 0.65065500
vt 0.11841000 0.68020700
vt 0.11747000 0.67326600
vt 0.11746100 0.66599500
vt 0.11851900 0.69283900
vt 0.11754300 0.68673500
vt 0.11749800 0.68019700
vt 0.41669800 0.83728600
vt 0.41591100 0.83074100
vt 0.82445000 0.00668400
vt 0.41696300 0.82464100
vt 0.82355000 0.00064800
vt 0.82445000 0.00049200
vt 0.11760600 0.69283000
vt 0.41649200 0.85149900
vt 0.41567500 0.84422200
vt 0.41578500 0.83728600
vt 0.23459200 0.70910700
vt 0.23367900 0.70910700
vt 0.23459200 0.72502900
vt 0.23367900 0.72502900
vt 0.23459200 0.74018600
vt 0.23367900 0.74018600
vt 0.23459200 0.75411900
vt 0.23367900 0.75411900
vt 0.36614900 0.97721100
vt 0.37559600 0.97728000
vt 0.36705900 0.96496100
vt 0.41605000 0.95607300
vt 0.36705900 0.97728000
vt 0.37559600 0.96496100
vt 0.37468600 0.97721100
vt 0.41696300 0.95607400
vt 0.41578500 0.94389800
vt 0.41669800 0.94389900
vt 0.41557900 0.93005200
vt 0.41649200 0.93005300
vt 0.41543800 0.91495500
vt 0.41635100 0.91495500
vt 0.41536700 0.89906400
vt 0.41628000 0.89906400
vt 0.41536700 0.88286300
vt 0.41628000 0.88286400
vt 0.41543800 0.86684600
vt 0.41635100 0.86684700
vt 0.41550000 0.85905900
vt 0.41557900 0.85149800
vt 0.99020800 0.74901500
vt 0.99192000 0.74900300
vt 0.99024300 0.73390800
vt 0.99195500 0.73389600
vt 0.99034700 0.72004800
vt 0.99205900 0.72003600
vt 0.10197700 0.97648300
vt 0.10223100 0.96429200
vt 0.61145200 0.91479900
vt 0.09240900 0.97657100
vt 0.10368800 0.97648300
vt 0.09240900 0.96429200
vt 0.61316400 0.91479900
vt 0.09071000 0.97636500
vt 0.61145200 0.90238500
vt 0.61316400 0.90238500
vt 0.61145200 0.88835300
vt 0.61316400 0.88835300
vt 0.61145200 0.87312600
vt 0.61316400 0.87312600
vt 0.61145200 0.85716700
vt 0.61316400 0.85716700
vt 0.61145200 0.84096300
vt 0.61316400 0.84096300
vt 0.61145200 0.82500500
vt 0.61316400 0.82500500
vt 0.61145200 0.80977900
vt 0.61316400 0.80977900
vt 0.61145200 0.79574500
vt 0.61316400 0.79574500
vt 0.10540000 0.97670600
vt 0.61145200 0.78333200
vt 0.10368800 0.96429200
vt 0.10540000 0.96429200
vt 0.99386600 0.78179700
vt 0.99386600 0.76925700
vt 0.99557800 0.78179700
vt 0.99557800 0.76925700
vt 0.99386600 0.75512600
vt 0.99557800 0.75512600
vt 0.99386600 0.73983200
vt 0.99386600 0.72384000
f 1/1/1 3/3/3 5/5/5
f 8/8/8 10/10/10 12/12/12
f 4/4/4 15/15/15 16/16/16
f 13/13/13 17/17/17 9/9/9
f 18/18/18 2/2/2 7/7/7
f 6/6/6 4/4/4 19/19/19
f 20/20/20 21/21/21 18/18/18
f 21/21/21 22/22/22 18/18/18
f 18/18/18 22/22/22 2/2/2
f 23/23/23 24/24/24 20/20/20
f 24/24/24 25/25/25 20/20/20
f 20/20/20 25/25/25 21/21/21
f 26/26/26 27/27/27 23/23/23
f 27/27/27 28/28/28 23/23/23
f 23/23/23 28/28/28 24/24/24
f 29/29/29 30/30/30 32/32/32
f 31/31/31 33/33/33 34/34/34
f 26/26/26 35/35/35 27/27/27
f 36/36/36 37/37/37 29/29/29
f 37/37/37 38/38/38 29/29/29
f 29/29/29 38/38/38 30/30/30
f 11/11/11 39/39/39 14/14/14
f 14/14/14 39/39/39 40/40/40
f 39/39/39 41/41/41 40/40/40
f 40/40/40 41/41/41 42/42/42
f 41/41/41 43/43/43 42/42/42
f 42/42/42 43/43/43 44/44/44
f 43/43/43 45/45/45 44/44/44
f 44/44/44 45/45/45 46/46/46
f 47/47/47 49/49/49 51/51/51
f 52/52/52 48/48/48 53/53/53
f 50/50/50 55/55/55 54/54/54
f 54/54/54 55/55/55 56/56/56
f 55/55/55 57/57/57 56/56/56
f 56/56/56 57/57/57 58/58/58
f 57/57/57 59/59/59 58/58/58
f 58/58/58 59/59/59 60/60/60
f 59/59/59 61/61/61 60/60/60
f 60/60/60 61/61/61 62/62/62
f 61/61/61 63/63/63 62/62/62
f 62/62/62 63/63/63 64/64/64
f 63/63/63 65/65/65 64/64/64
f 64/64/64 65/65/65 66/66/66
f 65/65/65 67/67/67 66/66/66
f 66/66/66 67/67/67 36/36/36
f 67/67/67 68/68/68 36/36/36
f 36/36/36 68/68/68 37/37/37
f 4/4/4 16/16/16 19/19/19
f 16/16/16 69/69/69 19/19/19
f 19/19/19 69/69/69 70/70/70
f 69/69/69 71/71/71 70/70/70
f 70/70/70 71/71/71 72/72/72
f 71/71/71 73/73/73 72/72/72
f 72/72/72 73/73/73 74/74/74
f 75/75/75 76/76/76 79/79/79
f 80/80/80 78/78/78 82/82/82
f 77/77/77 83/83/83 81/81/81
f 81/81/81 83/83/83 84/84/84
f 83/83/83 85/85/85 84/84/84
f 84/84/84 85/85/85 86/86/86
f 85/85/85 87/87/87 86/86/86
f 86/86/86 87/87/87 88/88/88
f 87/87/87 89/89/89 88/88/88
f 88/88/88 89/89/89 90/90/90
f 89/89/89 91/91/91 90/90/90
f 90/90/90 91/91/91 92/92/92
f 91/91/91 93/93/93 92/92/92
f 92/92/92 93/93/93 94/94/94
f 93/93/93 95/95/95 94/94/94
f 94/94/94 95/95/95 96/96/96
f 95/95/95 97/97/97 96/96/96
f 96/96/96 97/97/97 98/98/98
f 97/97/97 100/100/100 98/98/98
f 99/99/99 101/101/101 102/102/102
f 103/103/103 104/104/104 105/105/105
f 105/105/105 104/104/104 106/106/106
f 104/104/104 107/107/107 106/106/106
f 106/106/106 107/107/107 108/108/108
f 107/107/107 109/109/109 108/108/108
f 108/108/108 109/109/109 17/17/17
f 109/109/109 110/110/110 17/17/17
f 17/17/17 110/110/110 9/9/9