# OBJ generated by ONSHAPE BY PTC INC, 1.208 Units = meters
mtllib yellow_tape_cad.mtl
g Part 1
v 0.043243 -0.00470296 0.0254 
v 0.043498 -7.99046e-18 0.0254 
v 0.043498 2.66349e-18 0 
v 0.0424811 -0.00935079 0.0254 
v 0.043243 -0.00470296 0 
v 0.041221 -0.013889 0.0254 
v 0.0424811 -0.00935079 0 
v 0.0394777 -0.0182643 0.0254 
v 0.041221 -0.013889 0 
v 0.0372716 -0.0224256 0.0254 
v 0.0394777 -0.0182643 0 
v 0.0346285 -0.0263239 0.0254 
v 0.0372716 -0.0224256 0 
v 0.0315794 -0.0299136 0.0254 
v 0.0346285 -0.0263239 0 
v 0.02816 -0.0331525 0.0254 
v 0.0315794 -0.0299136 0 
v 0.0244105 -0.0360028 0.0254 
v 0.02816 -0.0331525 0 
v 0.0203748 -0.038431 0.0254 
v 0.0244105 -0.0360028 0 
v 0.0161003 -0.0404086 0.0254 
v 0.0203748 -0.038431 0 
v 0.011637 -0.0419125 0.0254 
v 0.0161003 -0.0404086 0 
v 0.0070372 -0.042925 0.0254 
v 0.011637 -0.0419125 0 
v 0.00235494 -0.0434342 0.0254 
v 0.0070372 -0.042925 0 
v -0.00235494 -0.0434342 0.0254 
v 0.00235494 -0.0434342 0 
v -0.0070372 -0.042925 0.0254 
v -0.00235494 -0.0434342 0 
v -0.011637 -0.0419125 0.0254 
v -0.0070372 -0.042925 0 
v -0.0161003 -0.0404086 0.0254 
v -0.011637 -0.0419125 0 
v -0.0203748 -0.038431 0.0254 
v -0.0161003 -0.0404086 0 
v -0.0244105 -0.0360028 0.0254 
v -0.0203748 -0.038431 0 
v -0.02816 -0.0331525 0.0254 
v -0.0244105 -0.0360028 0 
v -0.0315794 -0.0299136 0.0254 
v -0.02816 -0.0331525 0 
v -0.0346285 -0.0263239 0.0254 
v -0.0315794 -0.0299136 0 
v -0.0372716 -0.0224256 0.0254 
v -0.0346285 -0.0263239 0 
v -0.0394777 -0.0182643 0.0254 
v -0.0372716 -0.0224256 0 
v -0.041221 -0.013889 0.0254 
v -0.0394777 -0.0182643 0 
v -0.0424811 -0.00935079 0.0254 
v -0.041221 -0.013889 0 
v -0.043243 -0.00470296 0.0254 
v -0.0424811 -0.00935079 0 
v -0.043498 7.99046e-18 0.0254 
v -0.043243 -0.00470296 0 
v -0.043243 0.00470296 0.0254 
v -0.043498 7.99046e-18 0 
v -0.0424811 0.00935079 0.0254 
v -0.043243 0.00470296 0 
v -0.041221 0.013889 0.0254 
v -0.0424811 0.00935079 0 
v -0.0394777 0.0182643 0.0254 
v -0.041221 0.013889 0 
v -0.0372716 0.0224256 0.0254 
v -0.0394777 0.0182643 0 
v -0.0346285 0.0263239 0.0254 
v -0.0372716 0.0224256 0 
v -0.0315794 0.0299136 0.0254 
v -0.0346285 0.0263239 0 
v -0.02816 0.0331525 0.0254 
v -0.0315794 0.0299136 0 
v -0.0244105 0.0360028 0.0254 
v -0.02816 0.0331525 0 
v -0.0203748 0.038431 0.0254 
v -0.0244105 0.0360028 0 
v -0.0161003 0.0404086 0.0254 
v -0.0203748 0.038431 0 
v -0.011637 0.0419125 0.0254 
v -0.0161003 0.0404086 0 
v -0.0070372 0.042925 0.0254 
v -0.011637 0.0419125 0 
v -0.00235494 0.0434342 0.0254 
v -0.0070372 0.042925 0 
v 0.00235494 0.0434342 0.0254 
v -0.00235494 0.0434342 0 
v 0.0070372 0.042925 0.0254 
v 0.00235494 0.0434342 0 
v 0.011637 0.0419125 0.0254 
v 0.0070372 0.042925 0 
v 0.0161003 0.0404086 0.0254 
v 0.011637 0.0419125 0 
v 0.0203748 0.038431 0.0254 
v 0.0161003 0.0404086 0 
v 0.0244105 0.0360028 0.0254 
v 0.0203748 0.038431 0 
v 0.02816 0.0331525 0.0254 
v 0.0244105 0.0360028 0 
v 0.0315794 0.0299136 0.0254 
v 0.02816 0.0331525 0 
v 0.0346285 0.0263239 0.0254 
v 0.0315794 0.0299136 0 
v 0.0372716 0.0224256 0.0254 
v 0.0346285 0.0263239 0 
v 0.0394777 0.0182643 0.0254 
v 0.0372716 0.0224256 0 
v 0.041221 0.013889 0.0254 
v 0.0394777 0.0182643 0 
v 0.0424811 0.00935079 0.0254 
v 0.041221 0.013889 0 
v 0.043243 0.00470296 0.0254 
v 0.0424811 0.00935079 0 
v 0.043243 0.00470296 0 
v -0.0306449 0.036078 0.0254 
v -0.034366 0.0325532 0.0254 
v -0.0405605 0.0244045 0.0254 
v -0.0429613 0.019876 0.0254 
v -0.0448585 0.0151146 0.0254 
v -0.0265646 0.0391798 0.0254 
v -0.0376842 0.0286468 0.0254 
v -0.0462297 0.0101759 0.0254 
v 0.034366 0.0325532 0.0254 
v 0.0306449 0.036078 0.0254 
v -0.0470589 0.00511796 0.0254 
v -0.0473364 8.69555e-18 0.0254 
v 0.0265646 0.0391798 0.0254 
v -0.0405605 -0.0244045 0.0254 
v -0.0376842 -0.0286468 0.0254 
v 0.0376842 0.0286468 0.0254 
v -0.0126638 0.045611 0.0254 
v -0.017521 0.0439744 0.0254 
v -0.0470589 -0.00511796 0.0254 
v -0.0462297 -0.0101759 0.0254 
v -0.0448585 -0.0151146 0.0254 
v -0.034366 -0.0325532 0.0254 
v -0.0265646 -0.0391798 0.0254 
v -0.0221728 -0.0418223 0.0254 
v -0.00256274 -0.047267 0.0254 
v 0.00256274 -0.047267 0.0254 
v 0.0126638 -0.045611 0.0254 
v 0.017521 -0.0439744 0.0254 
v 0.0221728 -0.0418223 0.0254 
v 0.0265646 -0.0391798 0.0254 
v 0.0429613 0.019876 0.0254 
v 0.0405605 0.0244045 0.0254 
v 0.0221728 0.0418223 0.0254 
v 0.00256274 0.047267 0.0254 
v -0.00256274 0.047267 0.0254 
v -0.0221728 0.0418223 0.0254 
v -0.0429613 -0.019876 0.0254 
v -0.0306449 -0.036078 0.0254 
v -0.017521 -0.0439744 0.0254 
v -0.0126638 -0.045611 0.0254 
v 0.00765817 -0.0467128 0.0254 
v 0.034366 -0.0325532 0.0254 
v 0.0376842 -0.0286468 0.0254 
v 0.0462297 -0.0101759 0.0254 
v 0.0470589 -0.00511796 0.0254 
v 0.017521 0.0439744 0.0254 
v 0.0126638 0.045611 0.0254 
v -0.00765817 0.0467128 0.0254 
v -0.00765817 -0.0467128 0.0254 
v 0.0405605 -0.0244045 0.0254 
v 0.0429613 -0.019876 0.0254 
v 0.0448585 -0.0151146 0.0254 
v 0.0473364 2.89852e-18 0.0254 
v 0.0462297 0.0101759 0.0254 
v 0.0448585 0.0151146 0.0254 
v 0.00765817 0.0467128 0.0254 
v 0.0306449 -0.036078 0.0254 
v 0.0470589 0.00511796 0.0254 
v 0.0473364 -8.69555e-18 0 
v 0.0470589 0.00511796 0 
v 0.0462297 0.0101759 0 
v 0.0448585 0.0151146 0 
v 0.0429613 0.019876 0 
v 0.0405605 0.0244045 0 
v 0.0376842 0.0286468 0 
v 0.034366 0.0325532 0 
v 0.0306449 0.036078 0 
v 0.0265646 0.0391798 0 
v 0.0221728 0.0418223 0 
v 0.017521 0.0439744 0 
v 0.0126638 0.045611 0 
v 0.00765817 0.0467128 0 
v 0.00256274 0.047267 0 
v -0.00256274 0.047267 0 
v -0.00765817 0.0467128 0 
v -0.0126638 0.045611 0 
v -0.017521 0.0439744 0 
v -0.0221728 0.0418223 0 
v -0.0265646 0.0391798 0 
v -0.0306449 0.036078 0 
v -0.034366 0.0325532 0 
v -0.0376842 0.0286468 0 
v -0.0405605 0.0244045 0 
v -0.0429613 0.019876 0 
v -0.0448585 0.0151146 0 
v -0.0462297 0.0101759 0 
v -0.0470589 0.00511796 0 
v -0.0473364 8.69555e-18 0 
v -0.0470589 -0.00511796 0 
v -0.0462297 -0.0101759 0 
v -0.0448585 -0.0151146 0 
v -0.0429613 -0.019876 0 
v -0.0405605 -0.0244045 0 
v -0.0376842 -0.0286468 0 
v -0.034366 -0.0325532 0 
v -0.0306449 -0.036078 0 
v -0.0265646 -0.0391798 0 
v -0.0221728 -0.0418223 0 
v -0.017521 -0.0439744 0 
v -0.0126638 -0.045611 0 
v -0.00765817 -0.0467128 0 
v -0.00256274 -0.047267 0 
v 0.00256274 -0.047267 0 
v 0.00765817 -0.0467128 0 
v 0.0126638 -0.045611 0 
v 0.017521 -0.0439744 0 
v 0.0221728 -0.0418223 0 
v 0.0265646 -0.0391798 0 
v 0.0306449 -0.036078 0 
v 0.034366 -0.0325532 0 
v 0.0376842 -0.0286468 0 
v 0.0405605 -0.0244045 0 
v 0.0429613 -0.019876 0 
v 0.0448585 -0.0151146 0 
v 0.0462297 -0.0101759 0 
v 0.0470589 -0.00511796 0 
vn -0.994138 0.108119 0 
vn -1 2.44929e-16 0 
vn -0.976621 0.21497 0 
vn -0.994138 0.108119 0 
vn -0.947653 0.319302 0 
vn -0.976621 0.21497 0 
vn -0.907575 0.419889 0 
vn -0.947653 0.319302 0 
vn -0.856857 0.515554 0 
vn -0.907575 0.419889 0 
vn -0.796093 0.605174 0 
vn -0.856857 0.515554 0 
vn -0.725995 0.687699 0 
vn -0.796093 0.605174 0 
vn -0.647386 0.762162 0 
vn -0.725995 0.687699 0 
vn -0.561187 0.827689 0 
vn -0.647386 0.762162 0 
vn -0.468408 0.883512 0 
vn -0.561187 0.827689 0 
vn -0.370138 0.928977 0 
vn -0.468408 0.883512 0 
vn -0.267528 0.96355 0 
vn -0.370138 0.928977 0 
vn -0.161782 0.986827 0 
vn -0.267528 0.96355 0 
vn -0.0541389 0.998533 0 
vn -0.161782 0.986827 0 
vn 0.0541389 0.998533 0 
vn -0.0541389 0.998533 0 
vn 0.161782 0.986827 0 
vn 0.0541389 0.998533 0 
vn 0.267528 0.96355 0 
vn 0.161782 0.986827 0 
vn 0.370138 0.928977 0 
vn 0.267528 0.96355 0 
vn 0.468408 0.883512 0 
vn 0.370138 0.928977 0 
vn 0.561187 0.827689 0 
vn 0.468408 0.883512 0 
vn 0.647386 0.762162 0 
vn 0.561187 0.827689 0 
vn 0.725995 0.687699 0 
vn 0.647386 0.762162 0 
vn 0.796093 0.605174 0 
vn 0.725995 0.687699 0 
vn 0.856857 0.515554 0 
vn 0.796093 0.605174 0 
vn 0.907575 0.419889 0 
vn 0.856857 0.515554 0 
vn 0.947653 0.319302 0 
vn 0.907575 0.419889 0 
vn 0.976621 0.21497 0 
vn 0.947653 0.319302 0 
vn 0.994138 0.108119 0 
vn 0.976621 0.21497 0 
vn 1 -1.22465e-16 0 
vn 0.994138 0.108119 0 
vn 0.994138 -0.108119 0 
vn 1 -1.22465e-16 0 
vn 0.976621 -0.21497 0 
vn 0.994138 -0.108119 0 
vn 0.947653 -0.319302 0 
vn 0.976621 -0.21497 0 
vn 0.907575 -0.419889 0 
vn 0.947653 -0.319302 0 
vn 0.856857 -0.515554 0 
vn 0.907575 -0.419889 0 
vn 0.796093 -0.605174 0 
vn 0.856857 -0.515554 0 
vn 0.725995 -0.687699 0 
vn 0.796093 -0.605174 0 
vn 0.647386 -0.762162 0 
vn 0.725995 -0.687699 0 
vn 0.561187 -0.827689 0 
vn 0.647386 -0.762162 0 
vn 0.468408 -0.883512 0 
vn 0.561187 -0.827689 0 
vn 0.370138 -0.928977 0 
vn 0.468408 -0.883512 0 
vn 0.267528 -0.96355 0 
vn 0.370138 -0.928977 0 
vn 0.161782 -0.986827 0 
vn 0.267528 -0.96355 0 
vn 0.0541389 -0.998533 0 
vn 0.161782 -0.986827 0 
vn -0.0541389 -0.998533 0 
vn 0.0541389 -0.998533 0 
vn -0.161782 -0.986827 0 
vn -0.0541389 -0.998533 0 
vn -0.267528 -0.96355 0 
vn -0.161782 -0.986827 0 
vn -0.370138 -0.928977 0 
vn -0.267528 -0.96355 0 
vn -0.468408 -0.883512 0 
vn -0.370138 -0.928977 0 
vn -0.561187 -0.827689 0 
vn -0.468408 -0.883512 0 
vn -0.647386 -0.762162 0 
vn -0.561187 -0.827689 0 
vn -0.725995 -0.687699 0 
vn -0.647386 -0.762162 0 
vn -0.796093 -0.605174 0 
vn -0.725995 -0.687699 0 
vn -0.856857 -0.515554 0 
vn -0.796093 -0.605174 0 
vn -0.907575 -0.419889 0 
vn -0.856857 -0.515554 0 
vn -0.947653 -0.319302 0 
vn -0.907575 -0.419889 0 
vn -0.976621 -0.21497 0 
vn -0.947653 -0.319302 0 
vn -0.994138 -0.108119 0 
vn -0.976621 -0.21497 0 
vn 0 0 1 
vn 1 0 0 
vn 0.994138 0.108119 0 
vn 0.976621 0.21497 0 
vn 0.947653 0.319302 0 
vn 0.907575 0.419889 0 
vn 0.856857 0.515554 0 
vn 0.796093 0.605174 0 
vn 0.725995 0.687699 0 
vn 0.647386 0.762162 0 
vn 0.561187 0.827689 0 
vn 0.468408 0.883512 0 
vn 0.370138 0.928977 0 
vn 0.267528 0.96355 0 
vn 0.161782 0.986827 0 
vn 0.0541389 0.998533 0 
vn -0.0541389 0.998533 0 
vn -0.161782 0.986827 0 
vn -0.267528 0.96355 0 
vn -0.370138 0.928977 0 
vn -0.468408 0.883512 0 
vn -0.561187 0.827689 0 
vn -0.647386 0.762162 0 
vn -0.725995 0.687699 0 
vn -0.796093 0.605174 0 
vn -0.856857 0.515554 0 
vn -0.907575 0.419889 0 
vn -0.947653 0.319302 0 
vn -0.976621 0.21497 0 
vn -0.994138 0.108119 0 
vn -1 1.22465e-16 0 
vn -0.994138 -0.108119 0 
vn -0.976621 -0.21497 0 
vn -0.947653 -0.319302 0 
vn -0.907575 -0.419889 0 
vn -0.856857 -0.515554 0 
vn -0.796093 -0.605174 0 
vn -0.725995 -0.687699 0 
vn -0.647386 -0.762162 0 
vn -0.561187 -0.827689 0 
vn -0.468408 -0.883512 0 
vn -0.370138 -0.928977 0 
vn -0.267528 -0.96355 0 
vn -0.161782 -0.986827 0 
vn -0.0541389 -0.998533 0 
vn 0.0541389 -0.998533 0 
vn 0.161782 -0.986827 0 
vn 0.267528 -0.96355 0 
vn 0.370138 -0.928977 0 
vn 0.468408 -0.883512 0 
vn 0.561187 -0.827689 0 
vn 0.647386 -0.762162 0 
vn 0.725995 -0.687699 0 
vn 0.796093 -0.605174 0 
vn 0.856857 -0.515554 0 
vn 0.907575 -0.419889 0 
vn 0.947653 -0.319302 0 
vn 0.976621 -0.21497 0 
vn 0.994138 -0.108119 0 
vn 0 0 -1 
usemtl 0.615686_0.811765_0.929412_0.000000_0.000000
o mesh0
f 1//1 2//2 3//2 
f 4//3 1//1 5//4 
f 6//5 4//3 7//6 
f 8//7 6//5 9//8 
f 10//9 8//7 11//10 
f 12//11 10//9 13//12 
f 14//13 12//11 15//14 
f 16//15 14//13 17//16 
f 18//17 16//15 19//18 
f 20//19 18//17 21//20 
f 22//21 20//19 23//22 
f 24//23 22//21 25//24 
f 26//25 24//23 27//26 
f 28//27 26//25 29//28 
f 30//29 28//27 31//30 
f 32//31 30//29 33//32 
f 34//33 32//31 35//34 
f 36//35 34//33 37//36 
f 38//37 36//35 39//38 
f 40//39 38//37 41//40 
f 42//41 40//39 43//42 
f 44//43 42//41 45//44 
f 46//45 44//43 47//46 
f 48//47 46//45 49//48 
f 50//49 48//47 51//50 
f 52//51 50//49 53//52 
f 54//53 52//51 55//54 
f 56//55 54//53 57//56 
f 58//57 56//55 59//58 
f 60//59 58//57 61//60 
f 62//61 60//59 63//62 
f 64//63 62//61 65//64 
f 66//65 64//63 67//66 
f 68//67 66//65 69//68 
f 70//69 68//67 71//70 
f 72//71 70//69 73//72 
f 74//73 72//71 75//74 
f 76//75 74//73 77//76 
f 78//77 76//75 79//78 
f 80//79 78//77 81//80 
f 82//81 80//79 83//82 
f 84//83 82//81 85//84 
f 86//85 84//83 87//86 
f 88//87 86//85 89//88 
f 90//89 88//87 91//90 
f 92//91 90//89 93//92 
f 94//93 92//91 95//94 
f 96//95 94//93 97//96 
f 98//97 96//95 99//98 
f 100//99 98//97 101//100 
f 102//101 100//99 103//102 
f 104//103 102//101 105//104 
f 106//105 104//103 107//106 
f 108//107 106//105 109//108 
f 110//109 108//107 111//110 
f 112//111 110//109 113//112 
f 114//113 112//111 115//114 
f 2//2 114//113 116//113 
f 116//113 3//2 2//2 
f 115//114 116//113 114//113 
f 113//112 115//114 112//111 
f 111//110 113//112 110//109 
f 109//108 111//110 108//107 
f 107//106 109//108 106//105 
f 105//104 107//106 104//103 
f 103//102 105//104 102//101 
f 101//100 103//102 100//99 
f 99//98 101//100 98//97 
f 97//96 99//98 96//95 
f 95//94 97//96 94//93 
f 93//92 95//94 92//91 
f 91//90 93//92 90//89 
f 89//88 91//90 88//87 
f 87//86 89//88 86//85 
f 85//84 87//86 84//83 
f 83//82 85//84 82//81 
f 81//80 83//82 80//79 
f 79//78 81//80 78//77 
f 77//76 79//78 76//75 
f 75//74 77//76 74//73 
f 73//72 75//74 72//71 
f 71//70 73//72 70//69 
f 69//68 71//70 68//67 
f 67//66 69//68 66//65 
f 65//64 67//66 64//63 
f 63//62 65//64 62//61 
f 61//60 63//62 60//59 
f 59//58 61//60 58//57 
f 57//56 59//58 56//55 
f 55//54 57//56 54//53 
f 53//52 55//54 52//51 
f 51//50 53//52 50//49 
f 49//48 51//50 48//47 
f 47//46 49//48 46//45 
f 45//44 47//46 44//43 
f 43//42 45//44 42//41 
f 41//40 43//42 40//39 
f 39//38 41//40 38//37 
f 37//36 39//38 36//35 
f 35//34 37//36 34//33 
f 33//32 35//34 32//31 
f 31//30 33//32 30//29 
f 29//28 31//30 28//27 
f 27//26 29//28 26//25 
f 25//24 27//26 24//23 
f 23//22 25//24 22//21 
f 21//20 23//22 20//19 
f 19//18 21//20 18//17 
f 17//16 19//18 16//15 
f 15//14 17//16 14//13 
f 13//12 15//14 12//11 
f 11//10 13//12 10//9 
f 9//8 11//10 8//7 
f 7//6 9//8 6//5 
f 5//4 7//6 4//3 
f 3//2 5//4 1//1 
o mesh1
f 117//115 74//115 76//115 
f 117//115 118//115 72//115 
f 119//115 120//115 66//115 
f 120//115 121//115 64//115 
f 122//115 76//115 78//115 
f 72//115 74//115 117//115 
f 123//115 119//115 68//115 
f 64//115 66//115 120//115 
f 76//115 122//115 117//115 
f 118//115 123//115 70//115 
f 66//115 68//115 119//115 
f 121//115 124//115 62//115 
f 125//115 102//115 104//115 
f 126//115 100//115 102//115 
f 70//115 72//115 118//115 
f 62//115 64//115 121//115 
f 127//115 60//115 62//115 
f 127//115 128//115 58//115 
f 102//115 125//115 126//115 
f 126//115 129//115 98//115 
f 68//115 70//115 123//115 
f 58//115 60//115 127//115 
f 130//115 48//115 50//115 
f 130//115 131//115 46//115 
f 132//115 104//115 106//115 
f 98//115 100//115 126//115 
f 133//115 82//115 84//115 
f 134//115 80//115 82//115 
f 62//115 124//115 127//115 
f 135//115 56//115 58//115 
f 136//115 54//115 56//115 
f 136//115 137//115 52//115 
f 46//115 48//115 130//115 
f 131//115 138//115 44//115 
f 139//115 40//115 42//115 
f 139//115 140//115 38//115 
f 141//115 30//115 32//115 
f 142//115 28//115 30//115 
f 143//115 24//115 26//115 
f 143//115 144//115 22//115 
f 145//115 20//115 22//115 
f 145//115 146//115 18//115 
f 147//115 108//115 110//115 
f 147//115 148//115 106//115 
f 104//115 132//115 125//115 
f 129//115 149//115 96//115 
f 150//115 88//115 90//115 
f 150//115 151//115 86//115 
f 82//115 133//115 134//115 
f 134//115 152//115 78//115 
f 58//115 128//115 135//115 
f 52//115 54//115 136//115 
f 153//115 50//115 52//115 
f 44//115 46//115 131//115 
f 138//115 154//115 42//115 
f 38//115 40//115 139//115 
f 155//115 36//115 38//115 
f 155//115 156//115 34//115 
f 30//115 141//115 142//115 
f 142//115 157//115 26//115 
f 22//115 24//115 143//115 
f 18//115 20//115 145//115 
f 158//115 14//115 16//115 
f 158//115 159//115 12//115 
f 160//115 4//115 6//115 
f 160//115 161//115 1//115 
f 106//115 108//115 147//115 
f 96//115 98//115 129//115 
f 162//115 94//115 96//115 
f 162//115 163//115 92//115 
f 86//115 88//115 150//115 
f 151//115 164//115 84//115 
f 78//115 80//115 134//115 
f 56//115 135//115 136//115 
f 50//115 153//115 130//115 
f 42//115 154//115 139//115 
f 34//115 36//115 155//115 
f 156//115 165//115 32//115 
f 26//115 28//115 142//115 
f 22//115 144//115 145//115 
f 12//115 14//115 158//115 
f 159//115 166//115 10//115 
f 167//115 8//115 10//115 
f 167//115 168//115 6//115 
f 1//115 4//115 160//115 
f 169//115 2//115 1//115 
f 170//115 112//115 114//115 
f 170//115 171//115 110//115 
f 106//115 148//115 132//115 
f 92//115 94//115 162//115 
f 172//115 90//115 92//115 
f 84//115 86//115 151//115 
f 78//115 152//115 122//115 
f 42//115 44//115 138//115 
f 32//115 34//115 156//115 
f 26//115 157//115 143//115 
f 173//115 16//115 18//115 
f 10//115 12//115 159//115 
f 6//115 8//115 167//115 
f 1//115 161//115 169//115 
f 174//115 114//115 2//115 
f 110//115 112//115 170//115 
f 96//115 149//115 162//115 
f 90//115 172//115 150//115 
f 52//115 137//115 153//115 
f 32//115 165//115 141//115 
f 16//115 173//115 158//115 
f 6//115 168//115 160//115 
f 114//115 174//115 170//115 
f 92//115 163//115 172//115 
f 38//115 140//115 155//115 
f 10//115 166//115 167//115 
f 110//115 171//115 147//115 
f 18//115 146//115 173//115 
f 84//115 164//115 133//115 
f 2//115 169//115 174//115 
o mesh2
f 169//116 175//116 176//117 
f 174//117 176//117 177//118 
f 170//118 177//118 178//119 
f 171//119 178//119 179//120 
f 147//120 179//120 180//121 
f 148//121 180//121 181//122 
f 132//122 181//122 182//123 
f 125//123 182//123 183//124 
f 126//124 183//124 184//125 
f 129//125 184//125 185//126 
f 149//126 185//126 186//127 
f 162//127 186//127 187//128 
f 163//128 187//128 188//129 
f 172//129 188//129 189//130 
f 150//130 189//130 190//131 
f 151//131 190//131 191//132 
f 164//132 191//132 192//133 
f 133//133 192//133 193//134 
f 134//134 193//134 194//135 
f 152//135 194//135 195//136 
f 122//136 195//136 196//137 
f 117//137 196//137 197//138 
f 118//138 197//138 198//139 
f 123//139 198//139 199//140 
f 119//140 199//140 200//141 
f 120//141 200//141 201//142 
f 121//142 201//142 202//143 
f 124//143 202//143 203//144 
f 127//144 203//144 204//145 
f 128//145 204//145 205//146 
f 135//146 205//146 206//147 
f 136//147 206//147 207//148 
f 137//148 207//148 208//149 
f 153//149 208//149 209//150 
f 130//150 209//150 210//151 
f 131//151 210//151 211//152 
f 138//152 211//152 212//153 
f 154//153 212//153 213//154 
f 139//154 213//154 214//155 
f 140//155 214//155 215//156 
f 155//156 215//156 216//157 
f 156//157 216//157 217//158 
f 165//158 217//158 218//159 
f 141//159 218//159 219//160 
f 142//160 219//160 220//161 
f 157//161 220//161 221//162 
f 143//162 221//162 222//163 
f 144//163 222//163 223//164 
f 145//164 223//164 224//165 
f 146//165 224//165 225//166 
f 173//166 225//166 226//167 
f 158//167 226//167 227//168 
f 159//168 227//168 228//169 
f 166//169 228//169 229//170 
f 167//170 229//170 230//171 
f 168//171 230//171 231//172 
f 160//172 231//172 232//173 
f 161//173 232//173 175//116 
f 175//116 169//116 161//173 
f 232//173 161//173 160//172 
f 231//172 160//172 168//171 
f 230//171 168//171 167//170 
f 229//170 167//170 166//169 
f 228//169 166//169 159//168 
f 227//168 159//168 158//167 
f 226//167 158//167 173//166 
f 225//166 173//166 146//165 
f 224//165 146//165 145//164 
f 223//164 145//164 144//163 
f 222//163 144//163 143//162 
f 221//162 143//162 157//161 
f 220//161 157//161 142//160 
f 219//160 142//160 141//159 
f 218//159 141//159 165//158 
f 217//158 165//158 156//157 
f 216//157 156//157 155//156 
f 215//156 155//156 140//155 
f 214//155 140//155 139//154 
f 213//154 139//154 154//153 
f 212//153 154//153 138//152 
f 211//152 138//152 131//151 
f 210//151 131//151 130//150 
f 209//150 130//150 153//149 
f 208//149 153//149 137//148 
f 207//148 137//148 136//147 
f 206//147 136//147 135//146 
f 205//146 135//146 128//145 
f 204//145 128//145 127//144 
f 203//144 127//144 124//143 
f 202//143 124//143 121//142 
f 201//142 121//142 120//141 
f 200//141 120//141 119//140 
f 199//140 119//140 123//139 
f 198//139 123//139 118//138 
f 197//138 118//138 117//137 
f 196//137 117//137 122//136 
f 195//136 122//136 152//135 
f 194//135 152//135 134//134 
f 193//134 134//134 133//133 
f 192//133 133//133 164//132 
f 191//132 164//132 151//131 
f 190//131 151//131 150//130 
f 189//130 150//130 172//129 
f 188//129 172//129 163//128 
f 187//128 163//128 162//127 
f 186//127 162//127 149//126 
f 185//126 149//126 129//125 
f 184//125 129//125 126//124 
f 183//124 126//124 125//123 
f 182//123 125//123 132//122 
f 181//122 132//122 148//121 
f 180//121 148//121 147//120 
f 179//120 147//120 171//119 
f 178//119 171//119 170//118 
f 177//118 170//118 174//117 
f 176//117 174//117 169//116 
o mesh3
f 183//174 103//174 101//174 
f 183//174 182//174 105//174 
f 190//174 89//174 87//174 
f 190//174 189//174 91//174 
f 105//174 103//174 183//174 
f 182//174 181//174 107//174 
f 177//174 115//174 113//174 
f 177//174 176//174 116//174 
f 232//174 5//174 3//174 
f 231//174 7//174 5//174 
f 223//174 23//174 21//174 
f 223//174 222//174 25//174 
f 221//174 27//174 25//174 
f 221//174 220//174 29//174 
f 219//174 218//174 33//174 
f 218//174 217//174 35//174 
f 210//174 49//174 47//174 
f 209//174 51//174 49//174 
f 200//174 69//174 67//174 
f 199//174 71//174 69//174 
f 91//174 89//174 190//174 
f 189//174 188//174 93//174 
f 185//174 184//174 101//174 
f 107//174 105//174 182//174 
f 116//174 115//174 177//174 
f 175//174 3//174 116//174 
f 5//174 232//174 231//174 
f 231//174 230//174 9//174 
f 226//174 17//174 15//174 
f 226//174 225//174 19//174 
f 25//174 23//174 223//174 
f 29//174 27//174 221//174 
f 219//174 31//174 29//174 
f 35//174 33//174 218//174 
f 216//174 37//174 35//174 
f 215//174 39//174 37//174 
f 213//174 43//174 41//174 
f 213//174 212//174 45//174 
f 49//174 210//174 209//174 
f 209//174 208//174 53//174 
f 202//174 201//174 67//174 
f 69//174 200//174 199//174 
f 196//174 77//174 75//174 
f 196//174 195//174 79//174 
f 93//174 91//174 189//174 
f 188//174 187//174 95//174 
f 186//174 97//174 95//174 
f 186//174 185//174 99//174 
f 101//174 184//174 183//174 
f 181//174 180//174 109//174 
f 180//174 179//174 111//174 
f 179//174 178//174 113//174 
f 116//174 176//174 175//174 
f 9//174 7//174 231//174 
f 229//174 11//174 9//174 
f 229//174 228//174 13//174 
f 227//174 15//174 13//174 
f 19//174 17//174 226//174 
f 25//174 222//174 221//174 
f 33//174 31//174 219//174 
f 37//174 216//174 215//174 
f 215//174 214//174 41//174 
f 45//174 43//174 213//174 
f 211//174 47//174 45//174 
f 53//174 51//174 209//174 
f 208//174 207//174 55//174 
f 203//174 63//174 61//174 
f 203//174 202//174 65//174 
f 67//174 201//174 200//174 
f 198//174 73//174 71//174 
f 197//174 75//174 73//174 
f 79//174 77//174 196//174 
f 95//174 93//174 188//174 
f 99//174 97//174 186//174 
f 109//174 107//174 181//174 
f 113//174 111//174 179//174 
f 3//174 175//174 232//174 
f 13//174 11//174 229//174 
f 15//174 227//174 226//174 
f 225//174 224//174 21//174 
f 29//174 220//174 219//174 
f 41//174 39//174 215//174 
f 45//174 212//174 211//174 
f 55//174 53//174 208//174 
f 206//174 57//174 55//174 
f 206//174 205//174 59//174 
f 65//174 63//174 203//174 
f 71//174 199//174 198//174 
f 75//174 197//174 196//174 
f 195//174 194//174 81//174 
f 193//174 192//174 85//174 
f 192//174 191//174 87//174 
f 95//174 187//174 186//174 
f 111//174 109//174 180//174 
f 9//174 230//174 229//174 
f 21//174 19//174 225//174 
f 35//174 217//174 216//174 
f 47//174 211//174 210//174 
f 59//174 57//174 206//174 
f 205//174 204//174 61//174 
f 67//174 65//174 202//174 
f 81//174 79//174 195//174 
f 193//174 83//174 81//174 
f 87//174 85//174 192//174 
f 101//174 99//174 185//174 
f 13//174 228//174 227//174 
f 41//174 214//174 213//174 
f 61//174 59//174 205//174 
f 73//174 198//174 197//174 
f 85//174 83//174 193//174 
f 113//174 178//174 177//174 
f 55//174 207//174 206//174 
f 81//174 194//174 193//174 
f 21//174 224//174 223//174 
f 87//174 191//174 190//174 
f 61//174 204//174 203//174 
