mtllib Face539_002_001_002_001.mtl
usemtl Face539_002_001_002_001
v 0.08840100 0.07785000 -0.00925700
v 0.08840100 0.07785000 -0.00925700
v 0.08840100 0.07785000 -0.00925700
v 0.08871700 0.07769900 -0.00931200
v 0.08871700 0.07769900 -0.00931200
v 0.08871700 0.07769900 -0.00931200
v 0.08871700 0.07769900 -0.00931200
v 0.08871700 0.07769900 -0.00931200
v 0.08871700 0.07769900 -0.00931200
v 0.08871700 0.07769900 -0.00931200
v 0.08803200 0.07790200 -0.00924700
v 0.08803200 0.07790200 -0.00924700
v 0.08803200 0.07790200 -0.00924700
v 0.08803200 0.07790200 -0.00924700
v 0.08803200 0.07790200 -0.00924700
v 0.08803200 0.07790200 -0.00924700
v 0.08910700 0.07708000 -0.00946400
v 0.08910700 0.07708000 -0.00946400
v 0.08916900 0.07740200 -0.01194900
v 0.08916900 0.07740200 -0.01194900
v 0.08916900 0.07740200 -0.01194900
v 0.08896200 0.07741300 -0.00919800
v 0.08896200 0.07741300 -0.00919800
v 0.08896200 0.07741300 -0.00919800
v 0.08896200 0.07741300 -0.00919800
v 0.08896200 0.07741300 -0.00919800
v 0.08896200 0.07741300 -0.00919800
v 0.08896200 0.07741300 -0.00919800
v 0.08896200 0.07741300 -0.00919800
v 0.08896900 0.07781400 -0.01207500
v 0.08896900 0.07781400 -0.01207500
v 0.08896900 0.07781400 -0.01207500
v 0.08896900 0.07781400 -0.01207500
v 0.08896900 0.07781400 -0.01207500
v 0.08896900 0.07781400 -0.01207500
v 0.08853600 0.07815000 -0.01194700
v 0.08853600 0.07815000 -0.01194700
v 0.08853600 0.07815000 -0.01194700
v 0.08853600 0.07815000 -0.01194700
v 0.08853600 0.07815000 -0.01194700
v 0.08811500 0.07823500 -0.01188100
v 0.08811500 0.07823500 -0.01188100
v 0.08811500 0.07823500 -0.01188100
v 0.08811500 0.07823500 -0.01188100
v 0.08811500 0.07823500 -0.01188100
v 0.08811500 0.07823500 -0.01188100
v 0.08823600 0.07811900 -0.01238600
v 0.08823600 0.07811900 -0.01238600
v 0.08823600 0.07811900 -0.01238600
v 0.08823600 0.07811900 -0.01238600
v 0.08823600 0.07811900 -0.01238600
v 0.08823600 0.07811900 -0.01238600
v 0.08768700 0.07810600 -0.01226700
v 0.08768700 0.07810600 -0.01226700
v 0.08768700 0.07810600 -0.01226700
v 0.08768700 0.07810600 -0.01226700
v 0.08768700 0.07810600 -0.01226700
v 0.08768700 0.07810600 -0.01226700
v 0.08768700 0.07810600 -0.01226700
v 0.08768700 0.07810600 -0.01226700
v 0.08784500 0.07820000 -0.01181400
v 0.08784500 0.07820000 -0.01181400
v 0.08784500 0.07820000 -0.01181400
v 0.08784500 0.07820000 -0.01181400
v 0.08784500 0.07820000 -0.01181400
v 0.08760100 0.07776300 -0.01260000
v 0.08760100 0.07776300 -0.01260000
v 0.08789000 0.07774700 -0.01277600
v 0.08789000 0.07774700 -0.01277600
v 0.08789000 0.07774700 -0.01277600
v 0.08733700 0.07777100 -0.01232100
v 0.08733700 0.07777100 -0.01232100
v 0.08901600 0.07747800 -0.01235300
v 0.08901600 0.07747800 -0.01235300
v 0.08901600 0.07747800 -0.01235300
v 0.08718800 0.07775400 -0.01197100
v 0.08718800 0.07775400 -0.01197100
v 0.08718800 0.07775400 -0.01197100
v 0.08867100 0.07758600 -0.01267800
v 0.08867100 0.07758600 -0.01267800
v 0.08870800 0.07792200 -0.01238700
v 0.08870800 0.07792200 -0.01238700
v 0.08870800 0.07792200 -0.01238700
v 0.08870800 0.07792200 -0.01238700
v 0.08870800 0.07792200 -0.01238700
v 0.08870800 0.07792200 -0.01238700
v 0.08833400 0.07767000 -0.01280700
v 0.08833400 0.07767000 -0.01280700
v 0.08833400 0.07767000 -0.01280700
v 0.08753100 0.07807600 -0.01179200
v 0.08753100 0.07807600 -0.01179200
v 0.08753100 0.07807600 -0.01179200
v 0.08753100 0.07807600 -0.01179200
v 0.08753100 0.07807600 -0.01179200
v 0.08753100 0.07807600 -0.01179200
v 0.08714300 0.07758900 -0.01068600
v 0.08714300 0.07758900 -0.01068600
v 0.08714300 0.07758900 -0.01068600
v 0.08733400 0.07761800 -0.00916200
v 0.08733400 0.07761800 -0.00916200
v 0.08733400 0.07761800 -0.00916200
v 0.08733400 0.07761800 -0.00916200
v 0.08733400 0.07761800 -0.00916200
v 0.08733400 0.07761800 -0.00916200
v 0.08714400 0.07741100 -0.00927000
v 0.08714400 0.07741100 -0.00927000
v 0.08769200 0.07782800 -0.00912600
v 0.08769200 0.07782800 -0.00912600
v 0.08769200 0.07782800 -0.00912600
v 0.08769200 0.07782800 -0.00912600
v 0.08769200 0.07782800 -0.00912600
v 0.08769200 0.07782800 -0.00912600
v 0.08769200 0.07782800 -0.00912600
v 0.08844500 0.07771600 -0.00895700
v 0.08844500 0.07771600 -0.00895700
v 0.08844500 0.07771600 -0.00895700
v 0.08844500 0.07771600 -0.00895700
v 0.08844500 0.07771600 -0.00895700
v 0.08844500 0.07771600 -0.00895700
v 0.08844500 0.07771600 -0.00895700
v 0.08735600 0.07732300 -0.00885900
v 0.08735600 0.07732300 -0.00885900
v 0.08765500 0.07725000 -0.00858000
v 0.08765500 0.07725000 -0.00858000
v 0.08765500 0.07725000 -0.00858000
v 0.08765500 0.07725000 -0.00858000
v 0.08801100 0.07761400 -0.00873700
v 0.08801100 0.07761400 -0.00873700
v 0.08801100 0.07761400 -0.00873700
v 0.08801100 0.07761400 -0.00873700
v 0.08801100 0.07761400 -0.00873700
v 0.08802200 0.07717400 -0.00848400
v 0.08802200 0.07717400 -0.00848400
v 0.08802200 0.07717400 -0.00848400
v 0.08853000 0.07735800 -0.00868000
v 0.08853000 0.07735800 -0.00868000
v 0.08853000 0.07735800 -0.00868000
v 0.08853000 0.07735800 -0.00868000
v 0.08853000 0.07735800 -0.00868000
v 0.08853000 0.07735800 -0.00868000
v 0.08840100 0.07710500 -0.00853900
v 0.08840100 0.07710500 -0.00853900
v 0.08873500 0.07706700 -0.00872700
v 0.08873500 0.07706700 -0.00872700
v 0.08873500 0.07706700 -0.00872700
v 0.08897000 0.07705700 -0.00900400
v 0.08897000 0.07705700 -0.00900400
vn 0.03030000 0.39760000 -0.91710000
vn 0.45420000 0.83540000 0.30950000
vn 0.13780000 0.91080000 0.38910000
vn 0.03030000 0.39760000 -0.91710000
vn 0.45420000 0.83540000 0.30950000
vn 0.59620000 0.68070000 0.42570000
vn 0.29300000 0.94740000 0.12900000
vn 0.62700000 0.77390000 0.08940000
vn 0.21820000 0.96430000 0.15010000
vn 0.73670000 0.66950000 0.09480000
vn 0.13780000 0.91080000 0.38910000
vn 0.00560000 0.84480000 0.53510000
vn -0.16900000 0.97760000 0.12580000
vn 0.29300000 0.94740000 0.12900000
vn -0.09780000 0.98770000 0.12180000
vn 0.03030000 0.39760000 -0.91710000
vn 0.94080000 0.17910000 0.28770000
vn 0.93400000 0.35050000 0.06890000
vn 0.88930000 0.45270000 0.06510000
vn 0.89510000 0.35160000 -0.27430000
vn 0.93400000 0.35050000 0.06890000
vn 0.93400000 0.35050000 0.06890000
vn 0.59690000 0.57660000 0.55780000
vn 0.68950000 0.38330000 0.61450000
vn 0.73670000 0.66950000 0.09480000
vn 0.88930000 0.45270000 0.06510000
vn 0.72060000 0.34510000 0.60140000
vn 0.59620000 0.68070000 0.42570000
vn 0.94080000 0.17910000 0.28770000
vn 0.89510000 0.35160000 -0.27430000
vn 0.88930000 0.45270000 0.06510000
vn 0.73670000 0.66950000 0.09480000
vn 0.56530000 0.80190000 -0.19340000
vn 0.62700000 0.77390000 0.08940000
vn 0.74730000 0.48210000 -0.45730000
vn 0.36590000 0.87720000 -0.31090000
vn 0.56530000 0.80190000 -0.19340000
vn 0.21820000 0.96430000 0.15010000
vn 0.62700000 0.77390000 0.08940000
vn 0.16740000 0.96900000 -0.18190000
vn 0.21820000 0.96430000 0.15010000
vn 0.29300000 0.94740000 0.12900000
vn 0.16740000 0.96900000 -0.18190000
vn -0.09780000 0.98770000 0.12180000
vn -0.16290000 0.97600000 -0.14470000
vn -0.07480000 0.96800000 -0.23960000
vn 0.36590000 0.87720000 -0.31090000
vn -0.15020000 0.77820000 -0.60980000
vn -0.07480000 0.96800000 -0.23960000
vn 0.06930000 0.68990000 -0.72060000
vn 0.28590000 0.68730000 -0.66770000
vn 0.16740000 0.96900000 -0.18190000
vn -0.63080000 0.75930000 -0.15990000
vn -0.34450000 0.69650000 -0.62940000
vn -0.54100000 0.65150000 -0.53180000
vn -0.07480000 0.96800000 -0.23960000
vn -0.36930000 0.92720000 -0.06290000
vn -0.65100000 0.71970000 -0.24120000
vn -0.15020000 0.77820000 -0.60980000
vn -0.16290000 0.97600000 -0.14470000
vn -0.16290000 0.97600000 -0.14470000
vn -0.35740000 0.92770000 0.10820000
vn -0.09780000 0.98770000 0.12180000
vn -0.16900000 0.97760000 0.12580000
vn -0.36930000 0.92720000 -0.06290000
vn -0.34450000 0.69650000 -0.62940000
vn -0.54100000 0.65150000 -0.53180000
vn 0.06930000 0.68990000 -0.72060000
vn -0.15020000 0.77820000 -0.60980000
vn -0.34450000 0.69650000 -0.62940000
vn -0.54100000 0.65150000 -0.53180000
vn -0.65100000 0.71970000 -0.24120000
vn 0.89510000 0.35160000 -0.27430000
vn 0.74730000 0.48210000 -0.45730000
vn 0.68700000 0.43040000 -0.58550000
vn -0.70180000 0.70930000 0.06640000
vn -0.65100000 0.71970000 -0.24120000
vn -0.63080000 0.75930000 -0.15990000
vn 0.68700000 0.43040000 -0.58550000
vn 0.41360000 0.56940000 -0.71040000
vn 0.68700000 0.43040000 -0.58550000
vn 0.36590000 0.87720000 -0.31090000
vn 0.74730000 0.48210000 -0.45730000
vn 0.41360000 0.56940000 -0.71040000
vn 0.56530000 0.80190000 -0.19340000
vn 0.28590000 0.68730000 -0.66770000
vn 0.41360000 0.56940000 -0.71040000
vn 0.28590000 0.68730000 -0.66770000
vn 0.06930000 0.68990000 -0.72060000
vn -0.35740000 0.92770000 0.10820000
vn -0.50920000 0.85350000 0.11050000
vn -0.63080000 0.75930000 -0.15990000
vn -0.70180000 0.70930000 0.06640000
vn -0.36930000 0.92720000 -0.06290000
vn -0.69290000 0.71730000 0.07300000
vn -0.69290000 0.71730000 0.07300000
vn -0.75560000 0.64990000 0.08220000
vn -0.70180000 0.70930000 0.06640000
vn -0.50920000 0.85350000 0.11050000
vn -0.75560000 0.64990000 0.08220000
vn -0.75610000 0.43960000 0.48480000
vn -0.43370000 0.63350000 0.64080000
vn -0.44600000 0.62410000 0.64160000
vn -0.69290000 0.71730000 0.07300000
vn -0.75560000 0.64990000 0.08220000
vn -0.75610000 0.43960000 0.48480000
vn -0.16900000 0.97760000 0.12580000
vn -0.43370000 0.63350000 0.64080000
vn -0.35740000 0.92770000 0.10820000
vn 0.00560000 0.84480000 0.53510000
vn -0.50920000 0.85350000 0.11050000
vn -0.37400000 0.64960000 0.66190000
vn 0.02810000 0.88620000 0.46250000
vn 0.59620000 0.68070000 0.42570000
vn 0.59690000 0.57660000 0.55780000
vn 0.45420000 0.83540000 0.30950000
vn 0.02810000 0.88620000 0.46250000
vn 0.00560000 0.84480000 0.53510000
vn 0.13780000 0.91080000 0.38910000
vn 0.22960000 0.63080000 0.74120000
vn -0.75610000 0.43960000 0.48480000
vn -0.44600000 0.62410000 0.64160000
vn -0.44600000 0.62410000 0.64160000
vn -0.43370000 0.63350000 0.64080000
vn -0.37400000 0.64960000 0.66190000
vn -0.12540000 0.49230000 0.86140000
vn -0.37400000 0.64960000 0.66190000
vn -0.12540000 0.49230000 0.86140000
vn 0.22960000 0.63080000 0.74120000
vn 0.15030000 0.49530000 0.85560000
vn 0.02810000 0.88620000 0.46250000
vn 0.15030000 0.49530000 0.85560000
vn 0.20360000 0.39230000 0.89700000
vn -0.12540000 0.49230000 0.86140000
vn 0.49710000 0.21110000 0.84160000
vn 0.20360000 0.39230000 0.89700000
vn 0.68950000 0.38330000 0.61450000
vn 0.22960000 0.63080000 0.74120000
vn 0.15030000 0.49530000 0.85560000
vn 0.59690000 0.57660000 0.55780000
vn 0.49710000 0.21110000 0.84160000
vn 0.20360000 0.39230000 0.89700000
vn 0.49710000 0.21110000 0.84160000
vn 0.72060000 0.34510000 0.60140000
vn 0.68950000 0.38330000 0.61450000
vn 0.72060000 0.34510000 0.60140000
vn 0.94080000 0.17910000 0.28770000
vt 0.28661100 0.54351800
vt 0.59701300 0.30589200
vt 0.59701300 0.30589200
vt 0.28675300 0.54266200
vt 0.59615600 0.30579700
vt 0.59615600 0.30579700
vt 0.59615600 0.30579700
vt 0.59615600 0.30579700
vt 0.59615600 0.30579700
vt 0.59615600 0.30579700
vt 0.59793300 0.30590800
vt 0.59793300 0.30590800
vt 0.59793300 0.30590800
vt 0.59793300 0.30590800
vt 0.59793300 0.30590800
vt 0.28675300 0.54442600
vt 0.59482300 0.30560400
vt 0.59482300 0.30560400
vt 0.59472800 0.29942700
vt 0.59472800 0.29942700
vt 0.59472800 0.29942700
vt 0.59539500 0.30615800
vt 0.59539500 0.30615800
vt 0.59539500 0.30615800
vt 0.59539500 0.30615800
vt 0.59539500 0.30615800
vt 0.59539500 0.30615800
vt 0.59539500 0.30615800
vt 0.59539500 0.30615800
vt 0.59545900 0.29899800
vt 0.59545900 0.29899800
vt 0.59545900 0.29899800
vt 0.59545900 0.29899800
vt 0.59545900 0.29899800
vt 0.60433200 0.30155600
vt 0.59671700 0.29921800
vt 0.59671700 0.29921800
vt 0.59671700 0.29921800
vt 0.59671700 0.29921800
vt 0.59671700 0.29921800
vt 0.59778500 0.29936200
vt 0.59778500 0.29936200
vt 0.59778500 0.29936200
vt 0.59778500 0.29936200
vt 0.59778500 0.29936200
vt 0.59778500 0.29936200
vt 0.59739200 0.29815900
vt 0.60425100 0.29969600
vt 0.59739200 0.29815900
vt 0.60425100 0.29969600
vt 0.60425100 0.29969600
vt 0.59739200 0.29815900
vt 0.66894800 0.30853800
vt 0.60433200 0.29834900
vt 0.60433200 0.29834900
vt 0.59871100 0.29846400
vt 0.66894800 0.30853800
vt 0.66894800 0.30853800
vt 0.60433200 0.29834900
vt 0.59871100 0.29846400
vt 0.59841700 0.29954100
vt 0.66949000 0.30752100
vt 0.59841700 0.29954100
vt 0.59841700 0.29954100
vt 0.66949000 0.30752100
vt 0.60313300 0.29821600
vt 0.60313300 0.29821600
vt 0.60286000 0.29893100
vt 0.60286000 0.29893100
vt 0.60286000 0.29893100
vt 0.60356700 0.29756100
vt 0.66773900 0.30854600
vt 0.59512000 0.29841800
vt 0.60326000 0.30174700
vt 0.60326000 0.30174700
vt 0.66750600 0.30781900
vt 0.66750600 0.30781900
vt 0.66750600 0.30781900
vt 0.60285900 0.30088200
vt 0.60285900 0.30088200
vt 0.60396700 0.30089700
vt 0.59613500 0.29820700
vt 0.60396700 0.30089700
vt 0.60396700 0.30089700
vt 0.59613500 0.29820700
vt 0.60396700 0.30089700
vt 0.60274200 0.30003900
vt 0.60274200 0.30003900
vt 0.60274200 0.30003900
vt 0.66870700 0.30752300
vt 0.66870700 0.30752300
vt 0.66870700 0.30752300
vt 0.66870700 0.30752300
vt 0.66870700 0.30752300
vt 0.66870700 0.30752300
vt 0.66742300 0.30480700
vt 0.66742300 0.30480700
vt 0.66742300 0.30480700
vt 0.66814500 0.30130700
vt 0.66814500 0.30130700
vt 0.66814500 0.30130700
vt 0.66814500 0.30130700
vt 0.66814500 0.30130700
vt 0.66814500 0.30130700
vt 0.66743100 0.30146600
vt 0.66743100 0.30146600
vt 0.59871100 0.30623200
vt 0.66916200 0.30122800
vt 0.66916200 0.30122800
vt 0.59871100 0.30623200
vt 0.66916200 0.30122800
vt 0.66916200 0.30122800
vt 0.59871100 0.30623200
vt 0.59684100 0.30666600
vt 0.59684100 0.30666600
vt 0.59684100 0.30666600
vt 0.59684100 0.30666600
vt 0.59684100 0.30666600
vt 0.59684100 0.30666600
vt 0.59684100 0.30666600
vt 0.66776900 0.30035800
vt 0.66776900 0.30035800
vt 0.66826700 0.29951500
vt 0.66826700 0.29951500
vt 0.66826700 0.29951500
vt 0.66826700 0.29951500
vt 0.66949000 0.30000400
vt 0.66949000 0.30000400
vt 0.59783400 0.30724200
vt 0.59783400 0.30724200
vt 0.59783400 0.30724200
vt 0.59754800 0.30799300
vt 0.59754800 0.30799300
vt 0.66884800 0.29904700
vt 0.59643000 0.30744900
vt 0.59643000 0.30744900
vt 0.59643000 0.30744900
vt 0.59643000 0.30744900
vt 0.59643000 0.30744900
vt 0.59643000 0.30744900
vt 0.59659100 0.30787200
vt 0.59659100 0.30787200
vt 0.59575300 0.30741800
vt 0.59575300 0.30741800
vt 0.59575300 0.30741800
vt 0.59516600 0.30673900
vt 0.59516600 0.30673900
f 1/1/1 4/4/4 16/16/16
f 18/18/18 21/21/21 22/22/22
f 31/31/31 26/26/26 19/19/19
f 39/39/39 8/8/8 34/34/34
f 32/32/32 10/10/10 25/25/25
f 41/41/41 9/9/9 38/38/38
f 14/14/14 7/7/7 42/42/42
f 52/52/52 43/43/43 40/40/40
f 60/60/60 61/61/61 45/45/45
f 66/66/66 54/54/54 70/70/70
f 69/69/69 59/59/59 48/48/48
f 71/71/71 55/55/55 67/67/67
f 73/73/73 30/30/30 20/20/20
f 77/77/77 58/58/58 72/72/72
f 79/79/79 81/81/81 75/75/75
f 74/74/74 83/83/83 35/35/35
f 80/80/80 87/87/87 84/84/84
f 78/78/78 92/92/92 53/53/53
f 56/56/56 46/46/46 49/49/49
f 94/94/94 65/65/65 57/57/57
f 85/85/85 37/37/37 33/33/33
f 88/88/88 51/51/51 86/86/86
f 68/68/68 50/50/50 89/89/89
f 82/82/82 47/47/47 36/36/36
f 44/44/44 63/63/63 15/15/15
f 98/98/98 93/93/93 76/76/76
f 100/100/100 97/97/97 105/105/105
f 111/111/111 91/91/91 99/99/99
f 104/104/104 95/95/95 96/96/96
f 13/13/13 64/64/64 107/107/107
f 109/109/109 62/62/62 90/90/90
f 28/28/28 6/6/6 114/114/114
f 121/121/121 101/101/101 106/106/106
f 102/102/102 124/124/124 108/108/108
f 112/112/112 125/125/125 127/127/127
f 132/132/132 139/139/139 130/130/130
f 113/113/113 131/131/131 117/117/117
f 138/138/138 120/120/120 129/129/129
f 118/118/118 12/12/12 110/110/110
f 3/3/3 11/11/11 119/119/119
f 122/122/122 123/123/123 103/103/103
f 2/2/2 116/116/116 5/5/5
f 134/134/134 128/128/128 126/126/126
f 142/142/142 136/136/136 133/133/133
f 143/143/143 135/135/135 141/141/141
f 146/146/146 27/27/27 144/144/144
f 145/145/145 24/24/24 137/137/137
f 17/17/17 29/29/29 147/147/147
f 23/23/23 115/115/115 140/140/140